999
Created with the Wolfram Language : www.wolfram.com
0
SECTION
2
HEADER
9
$ACADVER
1
AC1009
0
ENDSEC
0
SECTION
2
ENTITIES
0
3DFACE
8
0
62
151
10
-0.7167852265353267
20
4.065091023820362
30
0
11
-0.7499999999999997
21
1.299038105676658
31
0
12
0.2604722665003956
22
1.477211629518312
32
0
13
0.2604722665003956
23
1.477211629518312
33
0
0
3DFACE
8
0
62
151
10
-14.5
20
-39.199999999999996
30
0
11
-14.5
21
-44.8
31
0
12
-12.6875
22
-42.
32
0
13
-12.6875
23
-42.
33
0
0
3DFACE
8
0
62
151
10
-9.776978431193307
20
-31.473711669990802
30
0
11
-10.772552290974415
21
-34.976195395656404
31
0
12
-8.777513934632907
22
-31.93015181166782
32
0
13
-8.777513934632907
23
-31.93015181166782
33
0
0
3DFACE
8
0
62
151
10
2.154932719843789
20
14.267547042337972
30
0
11
5.012947293390167
21
13.5556154762124
31
0
12
5.012947293390167
22
16.4443845237876
32
0
13
5.012947293390167
23
16.4443845237876
33
0
0
3DFACE
8
0
62
151
10
-1.4095389311788626
20
17.486969785011496
30
0
11
-1.4095389311788624
21
18.513030214988504
31
0
12
-3.2055121958500985
22
18.
32
0
13
-3.2055121958500985
23
18.
33
0
0
3DFACE
8
0
62
151
10
-12.683811742404906
20
-30.
30
0
11
-12.207814234418315
21
-32.38286751904992
31
0
12
-10.37101129854827
22
-30.549378485840787
32
0
13
-10.37101129854827
23
-30.549378485840787
33
0
0
3DFACE
8
0
62
151
10
-14.5
20
-25.199999999999996
30
0
11
-14.5
21
-27.999999999999996
31
0
12
-12.07594712142914
22
-27.70187832864007
32
0
13
-12.07594712142914
23
-27.70187832864007
33
0
0
3DFACE
8
0
62
151
10
-3.1
20
21.85
30
0
11
-5.041033684845221
21
18.99185992513998
31
0
12
-2.4699303807223822
22
20.072517671497714
32
0
13
-2.4699303807223822
23
20.072517671497714
33
0
0
3DFACE
8
0
62
151
10
-12.683811742404906
20
-30.
30
0
11
-14.5
21
-33.599999999999994
31
0
12
-12.207814234418315
22
-32.38286751904992
32
0
13
-12.207814234418315
23
-32.38286751904992
33
0
0
3DFACE
8
0
62
151
10
-6.859555610979196
20
13.945750405961585
30
0
11
-4.2998657899781
21
13.766729322040813
31
0
12
-6.55
22
15.
32
0
13
-6.55
23
15.
33
0
0
3DFACE
8
0
62
151
10
-12.207814234418315
20
-32.38286751904992
30
0
11
-10.772552290974415
21
-34.976195395656404
31
0
12
-9.776978431193307
22
-31.473711669990802
32
0
13
-9.776978431193307
23
-31.473711669990802
33
0
0
3DFACE
8
0
62
151
10
-11.586532227032272
20
-38.71809499865929
30
0
11
-10.772552290974415
21
-34.976195395656404
31
0
12
-13.416002771104921
22
-36.39999999999999
32
0
13
-13.416002771104921
23
-36.39999999999999
33
0
0
3DFACE
8
0
62
151
10
-10.772552290974414
20
-25.023804604343592
30
0
11
-8.5
21
-21.756782961191714
31
0
12
-11.597265021099018
22
-21.171092557552164
32
0
13
-11.597265021099018
23
-21.171092557552164
33
0
0
3DFACE
8
0
62
151
10
-9.776978431193307
20
-31.473711669990802
30
0
11
-10.37101129854827
21
-30.549378485840787
31
0
12
-12.207814234418315
22
-32.38286751904992
32
0
13
-12.207814234418315
23
-32.38286751904992
33
0
0
3DFACE
8
0
62
151
10
-12.683811742404906
20
-30.
30
0
11
-10.37101129854827
21
-30.549378485840787
31
0
12
-10.37101129854827
22
-29.450621514159213
32
0
13
-10.37101129854827
23
-29.450621514159213
33
0
0
3DFACE
8
0
62
151
10
-5.120542508100093
20
-3.5717263418992395
30
0
11
-5.7514718625761425
21
-0.8485281374238572
31
0
12
-6.6
22
-1.2
32
0
13
-6.6
23
-1.2
33
0
0
3DFACE
8
0
62
151
10
-8.777513934632905
20
-28.06984818833218
30
0
11
-10.772552290974414
21
-25.023804604343592
31
0
12
-9.776978431193307
22
-28.526288330009198
32
0
13
-9.776978431193307
23
-28.526288330009198
33
0
0
3DFACE
8
0
62
151
10
-11.868118977845391
20
-16.395120560309767
30
0
11
-14.5
21
-16.799999999999997
31
0
12
-14.5
22
-19.599999999999998
32
0
13
-14.5
23
-19.599999999999998
33
0
0
3DFACE
8
0
62
151
10
-9.776978431193307
20
-28.526288330009198
30
0
11
-10.772552290974414
21
-25.023804604343592
31
0
12
-12.07594712142914
22
-27.70187832864007
32
0
13
-12.07594712142914
23
-27.70187832864007
33
0
0
3DFACE
8
0
62
151
10
-9.776978431193307
20
-28.526288330009198
30
0
11
-12.07594712142914
21
-27.70187832864007
31
0
12
-10.37101129854827
22
-29.450621514159213
32
0
13
-10.37101129854827
23
-29.450621514159213
33
0
0
3DFACE
8
0
62
151
10
-8.5
20
-21.756782961191714
30
0
11
-5.821655111157889
21
-23.05785742102436
31
0
12
-5.338825122976608
22
-20.475544072310868
32
0
13
-5.338825122976608
23
-20.475544072310868
33
0
0
3DFACE
8
0
62
151
10
-12.6875
20
-42.
30
0
11
-9.643749999999999
21
-40.942083333333336
31
0
12
-11.586532227032272
22
-38.71809499865929
32
0
13
-11.586532227032272
23
-38.71809499865929
33
0
0
3DFACE
8
0
62
151
10
-3.0500000000000003
20
-24.275
30
0
11
-5.74462146119249
21
-26.820123653859785
31
0
12
-3.
22
-26.7
32
0
13
-3.
23
-26.7
33
0
0
3DFACE
8
0
62
151
10
-3.1
20
-21.85
30
0
11
0
21
-21.85
31
0
12
-2.469930380722383
22
-20.07251767149771
32
0
13
-2.469930380722383
23
-20.07251767149771
33
0
0
3DFACE
8
0
62
151
10
0.26047226650039496
20
-19.47721162951831
30
0
11
0
21
-21.85
31
0
12
1.5960199841394898
22
-20.76438770242487
32
0
13
1.5960199841394898
23
-20.76438770242487
33
0
0
3DFACE
8
0
62
151
10
-11.867384428564229
20
-13.605183699964723
30
0
11
-14.5
21
-13.999999999999998
31
0
12
-11.868118977845391
22
-16.395120560309767
32
0
13
-11.868118977845391
23
-16.395120560309767
33
0
0
3DFACE
8
0
62
151
10
-11.868118977845391
20
-16.395120560309767
30
0
11
-14.5
21
-13.999999999999998
31
0
12
-14.5
22
-16.799999999999997
32
0
13
-14.5
23
-16.799999999999997
33
0
0
3DFACE
8
0
62
151
10
0
20
-21.85
30
0
11
3.1
21
-21.85
31
0
12
1.5960199841394898
22
-20.76438770242487
32
0
13
1.5960199841394898
23
-20.76438770242487
33
0
0
3DFACE
8
0
62
151
10
6.227447709025585
20
-19.9761953956564
30
0
11
8.130211041649149
21
-23.055964471469462
31
0
12
9.159244573388515
22
-19.585146721879724
32
0
13
9.159244573388515
23
-19.585146721879724
33
0
0
3DFACE
8
0
62
151
10
-11.829729961209907
20
-4.2212221242133054
30
0
11
-8.175692207768293
21
-3.8040574981198176
31
0
12
-10.404057498119817
22
-1.5756922077682929
32
0
13
-10.404057498119817
23
-1.5756922077682929
33
0
0
3DFACE
8
0
62
151
10
-11.829729961209907
20
-4.2212221242133054
30
0
11
-10.68528073653574
21
-6.999999999999999
31
0
12
-8.408875303750817
22
-6.2042408250193635
32
0
13
-8.408875303750817
23
-6.2042408250193635
33
0
0
3DFACE
8
0
62
151
10
8.222486065367095
20
-13.06984818833218
30
0
11
6.227447709025592
21
-10.023804604343594
31
0
12
7.223021568806694
22
-13.526288330009196
32
0
13
7.223021568806694
23
-13.526288330009196
33
0
0
3DFACE
8
0
62
151
10
-11.924435536877096
20
-9.52072417303305
30
0
11
-11.867384428564229
21
-13.605183699964723
31
0
12
-9.9443845237876
22
-11.512947293390166
32
0
13
-9.9443845237876
23
-11.512947293390166
33
0
0
3DFACE
8
0
62
151
10
8.130211041649149
20
-23.055964471469462
30
0
11
6.227447709025585
21
-19.9761953956564
31
0
12
5.606885539008937
22
-22.48726868800541
32
0
13
5.606885539008937
23
-22.48726868800541
33
0
0
3DFACE
8
0
62
151
10
-6.6
20
1.2
30
0
11
-5.120542508100092
21
3.5717263418992395
31
0
12
-8.175692207768293
22
3.8040574981198176
32
0
13
-8.175692207768293
23
3.8040574981198176
33
0
0
3DFACE
8
0
62
151
10
-9.6
20
-15.
30
0
11
-11.868118977845391
21
-16.395120560309767
31
0
12
-9.277817459305203
22
-15.777817459305203
32
0
13
-9.277817459305203
23
-15.777817459305203
33
0
0
3DFACE
8
0
62
151
10
-7.7221825406947975
20
-15.777817459305203
30
0
11
-8.5
21
-16.1
31
0
12
-7.055615476212395
22
-18.487052706609834
32
0
13
-7.055615476212395
23
-18.487052706609834
33
0
0
3DFACE
8
0
62
151
10
9.310059275353678
20
28.22621760905869
30
0
11
9.088000991060674
21
25.910363277218813
31
0
12
11.820256390736422
22
26.16821986114729
32
0
13
11.820256390736422
23
26.16821986114729
33
0
0
3DFACE
8
0
62
151
10
-9.277817459305203
20
-14.222182540694797
30
0
11
-11.867384428564229
21
-13.605183699964723
31
0
12
-9.6
22
-15.
32
0
13
-9.6
23
-15.
33
0
0
3DFACE
8
0
62
151
10
-4.917545792477696
20
-34.134372549973065
30
0
11
-7.6899407246463225
21
-31.77378239094131
31
0
12
-7.819342993729564
22
-34.73407346378883
32
0
13
-7.819342993729564
23
-34.73407346378883
33
0
0
3DFACE
8
0
62
151
10
-9.9443845237876
20
-11.512947293390166
30
0
11
-11.867384428564229
21
-13.605183699964723
31
0
12
-9.277817459305203
22
-14.222182540694797
32
0
13
-9.277817459305203
23
-14.222182540694797
33
0
0
3DFACE
8
0
62
151
10
-10.772552290974414
20
19.976195395656408
30
0
11
-8.500000000000007
21
23.193814447235294
31
0
12
-11.633261654245667
22
23.804157631138857
32
0
13
-11.633261654245667
23
23.804157631138857
33
0
0
3DFACE
8
0
62
151
10
-10.37101129854827
20
-29.450621514159213
30
0
11
-12.07594712142914
21
-27.70187832864007
31
0
12
-12.683811742404906
22
-30.
32
0
13
-12.683811742404906
23
-30.
33
0
0
3DFACE
8
0
62
151
10
-8.5
20
-13.9
30
0
11
-7.055615476212401
21
-11.512947293390166
31
0
12
-9.9443845237876
22
-11.512947293390166
32
0
13
-9.9443845237876
23
-11.512947293390166
33
0
0
3DFACE
8
0
62
151
10
-13.416002771104921
20
-36.39999999999999
30
0
11
-10.772552290974415
21
-34.976195395656404
31
0
12
-14.5
22
-33.599999999999994
32
0
13
-14.5
23
-33.599999999999994
33
0
0
3DFACE
8
0
62
151
10
-11.867384428564229
20
-13.605183699964723
30
0
11
-11.868118977845391
21
-16.395120560309767
31
0
12
-9.6
22
-15.
32
0
13
-9.6
23
-15.
33
0
0
3DFACE
8
0
62
151
10
-8.5
20
-16.1
30
0
11
-9.277817459305203
21
-15.777817459305203
31
0
12
-9.944384523787605
22
-18.487052706609834
32
0
13
-9.944384523787605
23
-18.487052706609834
33
0
0
3DFACE
8
0
62
151
10
-7.055615476212401
20
-11.512947293390166
30
0
11
-8.5
21
-13.9
31
0
12
-7.7221825406947975
22
-14.222182540694797
32
0
13
-7.7221825406947975
23
-14.222182540694797
33
0
0
3DFACE
8
0
62
151
10
-11.924435536877096
20
-9.52072417303305
30
0
11
-14.5
21
-11.2
31
0
12
-11.867384428564229
22
-13.605183699964723
32
0
13
-11.867384428564229
23
-13.605183699964723
33
0
0
3DFACE
8
0
62
151
10
-3.2055121958500985
20
18.
30
0
11
-2.4699303807223822
21
20.072517671497714
31
0
12
-5.041033684845221
22
18.99185992513998
32
0
13
-5.041033684845221
23
18.99185992513998
33
0
0
3DFACE
8
0
62
151
10
-9.054165156020431
20
-38.46648653383961
30
0
11
-10.772552290974415
21
-34.976195395656404
31
0
12
-11.586532227032272
22
-38.71809499865929
32
0
13
-11.586532227032272
23
-38.71809499865929
33
0
0
3DFACE
8
0
62
151
10
-6.6
20
-42.
30
0
11
-6.6499999999999995
21
-39.75
31
0
12
-9.643749999999999
22
-40.942083333333336
32
0
13
-9.643749999999999
23
-40.942083333333336
33
0
0
3DFACE
8
0
62
151
10
-3.35
20
-37.5
30
0
11
-4.917545792477696
21
-34.134372549973065
31
0
12
-6.7
22
-37.5
32
0
13
-6.7
23
-37.5
33
0
0
3DFACE
8
0
62
151
10
-10.772552290974415
20
-34.976195395656404
30
0
11
-7.819342993729564
21
-34.73407346378883
31
0
12
-8.777513934632907
22
-31.93015181166782
32
0
13
-8.777513934632907
23
-31.93015181166782
33
0
0
3DFACE
8
0
62
151
10
-10.772552290974414
20
-25.023804604343592
30
0
11
-14.5
21
-22.4
31
0
12
-14.5
22
-25.199999999999996
32
0
13
-14.5
23
-25.199999999999996
33
0
0
3DFACE
8
0
62
151
10
-7.6899407246463225
20
-31.77378239094131
30
0
11
-8.777513934632907
21
-31.93015181166782
31
0
12
-7.819342993729564
22
-34.73407346378883
32
0
13
-7.819342993729564
23
-34.73407346378883
33
0
0
3DFACE
8
0
62
151
10
-5.7514718625761425
20
-0.8485281374238572
30
0
11
-5.120542508100093
21
-3.5717263418992395
31
0
12
-3.535010731786757
22
-1.269560123421914
32
0
13
-3.535010731786757
23
-1.269560123421914
33
0
0
3DFACE
8
0
62
151
10
-14.5
20
-25.199999999999996
30
0
11
-12.07594712142914
21
-27.70187832864007
31
0
12
-10.772552290974414
22
-25.023804604343592
32
0
13
-10.772552290974414
23
-25.023804604343592
33
0
0
3DFACE
8
0
62
151
10
-5.012947293390173
20
31.444384523787598
30
0
11
-7.4
21
30.
31
0
12
-5.038004207575584
22
28.565994389899224
32
0
13
-5.038004207575584
23
28.565994389899224
33
0
0
3DFACE
8
0
62
151
10
-9.643749999999999
20
-40.942083333333336
30
0
11
-9.0625
21
-43.25302304964539
31
0
12
-6.6
22
-42.
32
0
13
-6.6
23
-42.
33
0
0
3DFACE
8
0
62
151
10
-3.625
20
-44.8
30
0
11
-6.6
21
-42.
31
0
12
-7.25
22
-44.8
32
0
13
-7.25
23
-44.8
33
0
0
3DFACE
8
0
62
151
10
-3.3
20
-42.
30
0
11
-3.625
21
-44.8
31
0
12
0
22
-44.8
32
0
13
0
23
-44.8
33
0
0
3DFACE
8
0
62
151
10
-3.3
20
-42.
30
0
11
0
21
-44.8
31
0
12
0
22
-42.
32
0
13
0
23
-42.
33
0
0
3DFACE
8
0
62
151
10
7.448528137423857
20
-0.8485281374238572
30
0
11
6.6
21
-1.2
31
0
12
8.175692207768291
22
-3.8040574981198176
32
0
13
8.175692207768291
23
-3.8040574981198176
33
0
0
3DFACE
8
0
62
151
10
-4.462857122755995
20
-31.185412104536265
30
0
11
-6.859555610979196
21
-31.054249594038414
31
0
12
-4.917545792477696
22
-34.134372549973065
32
0
13
-4.917545792477696
23
-34.134372549973065
33
0
0
3DFACE
8
0
62
151
10
-7.6899407246463225
20
-31.77378239094131
30
0
11
-4.917545792477696
21
-34.134372549973065
31
0
12
-6.859555610979196
22
-31.054249594038414
32
0
13
-6.859555610979196
23
-31.054249594038414
33
0
0
3DFACE
8
0
62
151
10
7.334613672972429
20
-6.9556050422456845
30
0
11
5.024307792231706
21
-3.8040574981198176
31
0
12
4.1233309235608795
22
-7.527731014311222
32
0
13
4.1233309235608795
23
-7.527731014311222
33
0
0
3DFACE
8
0
62
151
10
8.175692207768291
20
-3.8040574981198176
30
0
11
10.762623250009224
21
-6.999999999999999
31
0
12
11.846296935140424
22
-4.204360249785974
32
0
13
11.846296935140424
23
-4.204360249785974
33
0
0
3DFACE
8
0
62
151
10
-11.32992443798668
20
4.729924437986678
30
0
11
-14.5
21
5.6
31
0
12
-13.564062151022739
22
2.8
32
0
13
-13.564062151022739
23
2.8
33
0
0
3DFACE
8
0
62
151
10
-6.55
20
-30.
30
0
11
-4.368801821913782
21
-28.786970767335173
31
0
12
-6.859555610979196
22
-28.945750405961586
32
0
13
-6.859555610979196
23
-28.945750405961586
33
0
0
3DFACE
8
0
62
151
10
0
20
-44.8
30
0
11
3.3
21
-42.
31
0
12
0
22
-42.
32
0
13
0
23
-42.
33
0
0
3DFACE
8
0
62
151
10
-9.944384523787612
20
26.512947293390166
30
0
11
-9.277817459305203
21
29.2221825406948
31
0
12
-11.885746135482057
22
28.59757803193104
32
0
13
-11.885746135482057
23
28.59757803193104
33
0
0
3DFACE
8
0
62
151
10
-6.7
20
-37.5
30
0
11
-4.917545792477696
21
-34.134372549973065
31
0
12
-7.819342993729564
22
-34.73407346378883
32
0
13
-7.819342993729564
23
-34.73407346378883
33
0
0
3DFACE
8
0
62
151
10
-3.
20
-26.7
30
0
11
-4.368801821913782
21
-28.786970767335173
31
0
12
-1.5805720870381985
22
-30.097376555289266
32
0
13
-1.5805720870381985
23
-30.097376555289266
33
0
0
3DFACE
8
0
62
151
10
-8.5
20
-21.756782961191714
30
0
11
-7.055615476212395
21
-18.487052706609834
31
0
12
-9.944384523787605
22
-18.487052706609834
32
0
13
-9.944384523787605
23
-18.487052706609834
33
0
0
3DFACE
8
0
62
151
10
-3.0500000000000003
20
-24.275
30
0
11
-5.821655111157889
21
-23.05785742102436
31
0
12
-5.74462146119249
22
-26.820123653859785
32
0
13
-5.74462146119249
23
-26.820123653859785
33
0
0
3DFACE
8
0
62
151
10
7.055615476212395
20
18.487052706609834
30
0
11
5.795488041399896
21
20.560592730918476
31
0
12
3.6954999324244904
22
19.345051976135277
32
0
13
3.6954999324244904
23
19.345051976135277
33
0
0
3DFACE
8
0
62
151
10
-2.8247227593009936
20
-15.629776174492465
30
0
11
-3.5105069330268366
21
-18.
31
0
12
-1.4095389311788624
22
-17.486969785011496
32
0
13
-1.4095389311788624
23
-17.486969785011496
33
0
0
3DFACE
8
0
62
151
10
-10.404057498119817
20
-1.5756922077682929
30
0
11
-7.448528137423857
21
-0.8485281374238569
31
0
12
-7.8
22
0
32
0
13
-7.8
23
0
33
0
0
3DFACE
8
0
62
151
10
-7.7221825406947975
20
-14.222182540694797
30
0
11
-7.4
21
-15.
31
0
12
-5.012947293390167
22
-13.5556154762124
32
0
13
-5.012947293390167
23
-13.5556154762124
33
0
0
3DFACE
8
0
62
151
10
10.68528073653574
20
6.999999999999999
30
0
11
14.5
21
5.6
31
0
12
14.5
22
8.399999999999999
32
0
13
14.5
23
8.399999999999999
33
0
0
3DFACE
8
0
62
151
10
-5.120542508100093
20
-3.5717263418992395
30
0
11
-6.6
21
-1.2
31
0
12
-8.175692207768293
22
-3.8040574981198176
32
0
13
-8.175692207768293
23
-3.8040574981198176
33
0
0
3DFACE
8
0
62
151
10
-7.448528137423857
20
-0.8485281374238569
30
0
11
-8.175692207768293
21
-3.8040574981198176
31
0
12
-6.6
22
-1.2
32
0
13
-6.6
23
-1.2
33
0
0
3DFACE
8
0
62
151
10
5.012947293390167
20
13.5556154762124
30
0
11
4.153257810205318
21
10.653257810205318
31
0
12
7.055615476212401
22
11.512947293390166
32
0
13
7.055615476212401
23
11.512947293390166
33
0
0
3DFACE
8
0
62
151
10
-7.7221825406947975
20
-15.777817459305203
30
0
11
-5.012947293390167
21
-16.4443845237876
31
0
12
-7.4
22
-15.
32
0
13
-7.4
23
-15.
33
0
0
3DFACE
8
0
62
151
10
-10.772552290974414
20
-25.023804604343592
30
0
11
-8.777513934632905
21
-28.06984818833218
31
0
12
-7.819342993729561
22
-25.26592653621115
32
0
13
-7.819342993729561
23
-25.26592653621115
33
0
0
3DFACE
8
0
62
151
10
-0.7500000000000007
20
-19.299038105676658
30
0
11
-2.469930380722383
21
-20.07251767149771
31
0
12
0
22
-21.85
32
0
13
0
23
-21.85
33
0
0
3DFACE
8
0
62
151
10
-6.859555610979196
20
-28.945750405961586
30
0
11
-4.368801821913782
21
-28.786970767335173
31
0
12
-5.74462146119249
22
-26.820123653859785
32
0
13
-5.74462146119249
23
-26.820123653859785
33
0
0
3DFACE
8
0
62
151
10
-8.175692207768293
20
3.8040574981198176
30
0
11
-7.448528137423857
21
0.848528137423857
31
0
12
-6.6
22
1.2
32
0
13
-6.6
23
1.2
33
0
0
3DFACE
8
0
62
151
10
-1.4095389311788626
20
-18.513030214988504
30
0
11
-2.469930380722383
21
-20.07251767149771
31
0
12
-0.7500000000000007
22
-19.299038105676658
32
0
13
-0.7500000000000007
23
-19.299038105676658
33
0
0
3DFACE
8
0
62
151
10
-7.055615476212395
20
-18.487052706609834
30
0
11
-5.012947293390167
21
-16.4443845237876
31
0
12
-7.7221825406947975
22
-15.777817459305203
32
0
13
-7.7221825406947975
23
-15.777817459305203
33
0
0
3DFACE
8
0
62
151
10
9.277817459305203
20
-30.777817459305204
30
0
11
9.9443845237876
21
-33.48705270660984
31
0
12
11.886301699552384
22
-31.402652090241656
32
0
13
11.886301699552384
23
-31.402652090241656
33
0
0
3DFACE
8
0
62
151
10
-3.535010731786757
20
-1.269560123421914
30
0
11
-0.7167852265353294
21
-4.065091023820364
31
0
12
-0.7500000000000007
22
-1.2990381056766576
32
0
13
-0.7500000000000007
23
-1.2990381056766576
33
0
0
3DFACE
8
0
62
151
10
-0.6961601895823865
20
-14.051879373279787
30
0
11
-2.8247227593009936
21
-15.629776174492465
31
0
12
-0.7499999999999997
22
-16.700961894323342
32
0
13
-0.7499999999999997
23
-16.700961894323342
33
0
0
3DFACE
8
0
62
151
10
-6.499601412192956
20
5.640873407333137
30
0
11
-4.383176218360677
21
7.760116864793855
31
0
12
-6.756766419721261
22
8.114138293724096
32
0
13
-6.756766419721261
23
8.114138293724096
33
0
0
3DFACE
8
0
62
151
10
-7.055615476212401
20
-11.512947293390166
30
0
11
-7.7221825406947975
21
-14.222182540694797
31
0
12
-5.012947293390167
22
-13.5556154762124
32
0
13
-5.012947293390167
23
-13.5556154762124
33
0
0
3DFACE
8
0
62
151
10
-14.5
20
16.799999999999997
30
0
11
-14.5
21
13.999999999999998
31
0
12
-12.520052172621343
22
15.
32
0
13
-12.520052172621343
23
15.
33
0
0
3DFACE
8
0
62
151
10
4.153257810205318
20
10.653257810205318
30
0
11
2.154932719843789
21
14.267547042337972
31
0
12
1.3944422164727934
22
11.526278901544108
32
0
13
1.3944422164727934
23
11.526278901544108
33
0
0
3DFACE
8
0
62
151
10
-5.74462146119249
20
-26.820123653859785
30
0
11
-7.819342993729561
21
-25.26592653621115
31
0
12
-7.689940724646322
22
-28.22621760905869
32
0
13
-7.689940724646322
23
-28.22621760905869
33
0
0
3DFACE
8
0
62
151
10
-3.5350107317867567
20
1.2695601234219132
30
0
11
-3.535010731786757
21
-1.269560123421914
31
0
12
-1.4095389311788626
22
-0.513030214988503
32
0
13
-1.4095389311788626
23
-0.513030214988503
33
0
0
3DFACE
8
0
62
151
10
1.4999999999999998
20
-30.135638809653962
30
0
11
5.012947293390173
21
-31.444384523787598
31
0
12
5.038004207575586
22
-28.565994389899217
32
0
13
5.038004207575586
23
-28.565994389899217
33
0
0
3DFACE
8
0
62
151
10
-6.859555610979196
20
16.054249594038414
30
0
11
-4.015258371599838
21
16.31683895608184
31
0
12
-5.041033684845221
22
18.99185992513998
32
0
13
-5.041033684845221
23
18.99185992513998
33
0
0
3DFACE
8
0
62
151
10
-4.368801821913782
20
-28.786970767335173
30
0
11
-3.
21
-26.7
31
0
12
-5.74462146119249
22
-26.820123653859785
32
0
13
-5.74462146119249
23
-26.820123653859785
33
0
0
3DFACE
8
0
62
151
10
-10.404057498119816
20
1.575692207768293
30
0
11
-10.404057498119817
21
-1.5756922077682929
31
0
12
-7.8
22
0
32
0
13
-7.8
23
0
33
0
0
3DFACE
8
0
62
151
10
1.149066664678467
20
-17.035818585470192
30
0
11
1.5
21
-18.
31
0
12
3.9610942194959726
22
-16.558279608979554
32
0
13
3.9610942194959726
23
-16.558279608979554
33
0
0
3DFACE
8
0
62
151
10
-14.5
20
-2.8
30
0
11
-10.404057498119817
21
-1.5756922077682929
31
0
12
-14.5
22
0
32
0
13
-14.5
23
0
33
0
0
3DFACE
8
0
62
151
10
-12.272578384145838
20
7.5054546833148255
30
0
11
-14.5
21
11.2
31
0
12
-14.5
22
5.6
32
0
13
-14.5
23
5.6
33
0
0
3DFACE
8
0
62
151
10
3.9610942194959726
20
-16.558279608979554
30
0
11
1.5
21
-18.
31
0
12
3.6015698180094797
22
-19.310864210386995
32
0
13
3.6015698180094797
23
-19.310864210386995
33
0
0
3DFACE
8
0
62
151
10
12.36996676883508
20
-16.136324770121064
30
0
11
11.181600237248924
21
-18.09473164726117
31
0
12
14.5
22
-16.799999999999997
32
0
13
14.5
23
-16.799999999999997
33
0
0
3DFACE
8
0
62
151
10
-12.25017913604873
20
12.58990621187064
30
0
11
-12.520052172621343
21
15.
31
0
12
-14.5
22
13.999999999999998
32
0
13
-14.5
23
13.999999999999998
33
0
0
3DFACE
8
0
62
151
10
-12.520052172621343
20
15.
30
0
11
-11.940556623307799
21
17.211111481537962
31
0
12
-14.5
22
16.799999999999997
32
0
13
-14.5
23
16.799999999999997
33
0
0
3DFACE
8
0
62
151
10
14.5
20
-8.399999999999999
30
0
11
12.131944918352175
21
-9.033086799401628
31
0
12
14.5
22
-11.2
32
0
13
14.5
23
-11.2
33
0
0
3DFACE
8
0
62
151
10
-12.25017913604873
20
12.58990621187064
30
0
11
-14.5
21
13.999999999999998
31
0
12
-14.5
22
11.2
32
0
13
-14.5
23
11.2
33
0
0
3DFACE
8
0
62
151
10
9.310059275353678
20
-16.77378239094131
30
0
11
8.222486065367093
21
-16.93015181166782
31
0
12
9.159244573388515
22
-19.585146721879724
32
0
13
9.159244573388515
23
-19.585146721879724
33
0
0
3DFACE
8
0
62
151
10
-9.776978431193307
20
13.526288330009196
30
0
11
-12.25017913604873
21
12.58990621187064
31
0
12
-10.77255229097441
22
10.023804604343598
32
0
13
-10.77255229097441
23
10.023804604343598
33
0
0
3DFACE
8
0
62
151
10
-9.776978431193307
20
13.526288330009196
30
0
11
-10.37101129854827
21
14.450621514159213
31
0
12
-12.25017913604873
22
12.58990621187064
32
0
13
-12.25017913604873
23
12.58990621187064
33
0
0
3DFACE
8
0
62
151
10
-7.833455223532099
20
19.63592074956182
30
0
11
-10.772552290974414
21
19.976195395656408
31
0
12
-8.777513934632905
22
16.93015181166782
32
0
13
-8.777513934632905
23
16.93015181166782
33
0
0
3DFACE
8
0
62
151
10
1.9722406245487876
20
-3.416020966469877
30
0
11
1.1490666646784666
21
-0.9641814145298093
31
0
12
0.26047226650039496
22
-1.4772116295183122
32
0
13
0.26047226650039496
23
-1.4772116295183122
33
0
0
3DFACE
8
0
62
151
10
-10.37101129854827
20
15.549378485840787
30
0
11
-12.520052172621343
21
15.
31
0
12
-10.37101129854827
22
14.450621514159213
32
0
13
-10.37101129854827
23
14.450621514159213
33
0
0
3DFACE
8
0
62
151
10
5.024307792231706
20
-3.8040574981198176
30
0
11
5.7514718625761425
21
-0.8485281374238569
31
0
12
3.4601751491346975
22
-1.3005580367044887
32
0
13
3.4601751491346975
23
-1.3005580367044887
33
0
0
3DFACE
8
0
62
151
10
-8.777513934632905
20
16.93015181166782
30
0
11
-10.772552290974414
21
19.976195395656408
31
0
12
-9.776978431193307
22
16.473711669990802
32
0
13
-9.776978431193307
23
16.473711669990802
33
0
0
3DFACE
8
0
62
151
10
-5.038004207575584
20
28.565994389899224
30
0
11
-3.
21
26.7
31
0
12
-1.9900409670008656
22
29.84899063853248
32
0
13
-1.9900409670008656
23
29.84899063853248
33
0
0
3DFACE
8
0
62
151
10
-6.7
20
37.5
30
0
11
-5.025
21
35.32933603184171
31
0
12
-3.35
22
37.5
32
0
13
-3.35
23
37.5
33
0
0
3DFACE
8
0
62
151
10
-12.520052172621343
20
15.
30
0
11
-10.37101129854827
21
15.549378485840787
31
0
12
-11.940556623307799
22
17.211111481537962
32
0
13
-11.940556623307799
23
17.211111481537962
33
0
0
3DFACE
8
0
62
151
10
-10.772552290974414
20
19.976195395656408
30
0
11
-14.5
21
22.4
31
0
12
-14.5
22
19.599999999999998
32
0
13
-14.5
23
19.599999999999998
33
0
0
3DFACE
8
0
62
151
10
-8.175692207768293
20
3.8040574981198176
30
0
11
-11.32992443798668
21
4.729924437986678
31
0
12
-10.404057498119816
22
1.575692207768293
32
0
13
-10.404057498119816
23
1.575692207768293
33
0
0
3DFACE
8
0
62
151
10
-8.175692207768293
20
-3.8040574981198176
30
0
11
-7.448528137423857
21
-0.8485281374238569
31
0
12
-10.404057498119817
22
-1.5756922077682929
32
0
13
-10.404057498119817
23
-1.5756922077682929
33
0
0
3DFACE
8
0
62
151
10
-14.5
20
16.799999999999997
30
0
11
-11.940556623307799
21
17.211111481537962
31
0
12
-14.5
22
19.599999999999998
32
0
13
-14.5
23
19.599999999999998
33
0
0
3DFACE
8
0
62
151
10
14.5
20
-13.999999999999998
30
0
11
12.36996676883508
21
-16.136324770121064
31
0
12
14.5
22
-16.799999999999997
32
0
13
14.5
23
-16.799999999999997
33
0
0
3DFACE
8
0
62
151
10
-14.5
20
30.799999999999997
30
0
11
-11.885746135482057
21
28.59757803193104
31
0
12
-11.886301699552384
22
31.40265209024166
32
0
13
-11.886301699552384
23
31.40265209024166
33
0
0
3DFACE
8
0
62
151
10
-9.944384523787612
20
33.48705270660983
30
0
11
-10.214539316095044
21
36.10079394481849
31
0
12
-12.82511446511143
22
36.39999999999999
32
0
13
-12.82511446511143
23
36.39999999999999
33
0
0
3DFACE
8
0
62
151
10
10.45
20
-15.
30
0
11
10.140444389020804
21
-16.054249594038414
31
0
12
12.36996676883508
22
-16.136324770121064
32
0
13
12.36996676883508
23
-16.136324770121064
33
0
0
3DFACE
8
0
62
151
10
-14.5
20
39.199999999999996
30
0
11
-12.6875
21
42.
31
0
12
-14.5
22
44.8
32
0
13
-14.5
23
44.8
33
0
0
3DFACE
8
0
62
151
10
-6.6499999999999995
20
39.75
30
0
11
-9.64375
21
42.01635044642857
31
0
12
-10.521434647008789
22
38.71047632548908
32
0
13
-10.521434647008789
23
38.71047632548908
33
0
0
3DFACE
8
0
62
151
10
3.1010885780450197
20
16.871296063768707
30
0
11
3.6954999324244904
21
19.345051976135277
31
0
12
1.5
22
18.
32
0
13
1.5
23
18.
33
0
0
3DFACE
8
0
62
151
10
11.597470412104254
20
-11.425328586400955
30
0
11
10.140444389020804
21
-13.945750405961585
31
0
12
12.321403619069308
22
-13.877934657230698
32
0
13
12.321403619069308
23
-13.877934657230698
33
0
0
3DFACE
8
0
62
151
10
-11.633261654245667
20
23.804157631138857
30
0
11
-14.5
21
25.199999999999996
31
0
12
-14.5
22
22.4
32
0
13
-14.5
23
22.4
33
0
0
3DFACE
8
0
62
151
10
14.5
20
-11.2
30
0
11
12.321403619069308
21
-13.877934657230698
31
0
12
14.5
22
-13.999999999999998
32
0
13
14.5
23
-13.999999999999998
33
0
0
3DFACE
8
0
62
151
10
3.460175149134698
20
1.300558036704487
30
0
11
5.024307792231707
21
3.8040574981198176
31
0
12
1.972240624548789
22
3.416020966469877
32
0
13
1.972240624548789
23
3.416020966469877
33
0
0
3DFACE
8
0
62
151
10
-11.885746135482057
20
28.59757803193104
30
0
11
-9.277817459305203
21
29.2221825406948
31
0
12
-9.6
22
30.
32
0
13
-9.6
23
30.
33
0
0
3DFACE
8
0
62
151
10
-8.5
20
28.9
30
0
11
-9.277817459305203
21
29.2221825406948
31
0
12
-9.944384523787612
22
26.512947293390166
32
0
13
-9.944384523787612
23
26.512947293390166
33
0
0
3DFACE
8
0
62
151
10
-11.940556623307799
20
17.211111481537962
30
0
11
-10.37101129854827
21
15.549378485840787
31
0
12
-9.776978431193307
22
16.473711669990802
32
0
13
-9.776978431193307
23
16.473711669990802
33
0
0
3DFACE
8
0
62
151
10
-9.944384523787612
20
33.48705270660983
30
0
11
-9.277817459305203
21
30.7778174593052
31
0
12
-8.5
22
31.1
32
0
13
-8.5
23
31.1
33
0
0
3DFACE
8
0
62
151
10
8.5
20
13.9
30
0
11
7.7221825406947975
21
14.222182540694797
31
0
12
7.055615476212401
22
11.512947293390166
32
0
13
7.055615476212401
23
11.512947293390166
33
0
0
3DFACE
8
0
62
151
10
-11.886301699552384
20
31.40265209024166
30
0
11
-14.5
21
33.599999999999994
31
0
12
-14.5
22
30.799999999999997
32
0
13
-14.5
23
30.799999999999997
33
0
0
3DFACE
8
0
62
151
10
5.024307792231707
20
3.8040574981198176
30
0
11
6.6
21
1.2
31
0
12
8.175692207768293
22
3.8040574981198176
32
0
13
8.175692207768293
23
3.8040574981198176
33
0
0
3DFACE
8
0
62
151
10
12.05286425159095
20
19.736634920865352
30
0
11
11.868118977845391
21
16.395120560309767
31
0
12
14.5
22
16.799999999999997
32
0
13
14.5
23
16.799999999999997
33
0
0
3DFACE
8
0
62
151
10
-8.5
20
31.1
30
0
11
-7.055615476212388
21
33.48705270660983
31
0
12
-9.944384523787612
22
33.48705270660983
32
0
13
-9.944384523787612
23
33.48705270660983
33
0
0
3DFACE
8
0
62
151
10
6.6000000000000005
20
7.5109311804515
30
0
11
5.024307792231707
21
3.8040574981198176
31
0
12
8.502020018972289
22
6.131099675359257
32
0
13
8.502020018972289
23
6.131099675359257
33
0
0
3DFACE
8
0
62
151
10
-9.277817459305203
20
30.7778174593052
30
0
11
-11.886301699552384
21
31.40265209024166
31
0
12
-9.6
22
30.
32
0
13
-9.6
23
30.
33
0
0
3DFACE
8
0
62
151
10
-8.5
20
28.9
30
0
11
-9.944384523787612
21
26.512947293390166
31
0
12
-7.055615476212401
22
26.512947293390166
32
0
13
-7.055615476212401
23
26.512947293390166
33
0
0
3DFACE
8
0
62
151
10
-8.5
20
31.1
30
0
11
-7.7221825406947975
21
30.7778174593052
31
0
12
-7.055615476212388
22
33.48705270660983
32
0
13
-7.055615476212388
23
33.48705270660983
33
0
0
3DFACE
8
0
62
151
10
-7.448528137423857
20
0.848528137423857
30
0
11
-10.404057498119816
21
1.575692207768293
31
0
12
-7.8
22
0
32
0
13
-7.8
23
0
33
0
0
3DFACE
8
0
62
151
10
14.5
20
-5.6
30
0
11
10.762623250009224
21
-6.999999999999999
31
0
12
14.5
22
-8.399999999999999
32
0
13
14.5
23
-8.399999999999999
33
0
0
3DFACE
8
0
62
151
10
-8.777513934632907
20
13.06984818833218
30
0
11
-10.77255229097441
21
10.023804604343598
31
0
12
-7.819342993729563
22
10.26592653621116
32
0
13
-7.819342993729563
23
10.26592653621116
33
0
0
3DFACE
8
0
62
151
10
-7.448528137423857
20
0.848528137423857
30
0
11
-8.175692207768293
21
3.8040574981198176
31
0
12
-10.404057498119816
22
1.575692207768293
32
0
13
-10.404057498119816
23
1.575692207768293
33
0
0
3DFACE
8
0
62
151
10
-10.404057498119816
20
1.575692207768293
30
0
11
-11.32992443798668
21
4.729924437986678
31
0
12
-13.564062151022739
22
2.8
32
0
13
-13.564062151022739
23
2.8
33
0
0
3DFACE
8
0
62
151
10
-6.859555610979196
20
13.945750405961585
30
0
11
-5.723794779834105
21
11.796088382303664
31
0
12
-4.2998657899781
22
13.766729322040813
32
0
13
-4.2998657899781
23
13.766729322040813
33
0
0
3DFACE
8
0
62
151
10
-8.408875303750817
20
-6.2042408250193635
30
0
11
-5.120542508100093
21
-3.5717263418992395
31
0
12
-8.175692207768293
22
-3.8040574981198176
32
0
13
-8.175692207768293
23
-3.8040574981198176
33
0
0
3DFACE
8
0
62
151
10
14.5
20
-30.799999999999997
30
0
11
14.5
21
-27.999999999999996
31
0
12
11.885746135482057
22
-28.59757803193104
32
0
13
11.885746135482057
23
-28.59757803193104
33
0
0
3DFACE
8
0
62
151
10
-5.652247130575093
20
23.115639116094332
30
0
11
-7.055615476212401
21
26.512947293390166
31
0
12
-8.500000000000007
22
23.193814447235294
32
0
13
-8.500000000000007
23
23.193814447235294
33
0
0
3DFACE
8
0
62
151
10
-5.652247130575093
20
23.115639116094332
30
0
11
-3.1
21
21.85
31
0
12
-3.05
22
24.275
32
0
13
-3.05
23
24.275
33
0
0
3DFACE
8
0
62
151
10
-5.120542508100092
20
3.5717263418992395
30
0
11
-5.7514718625761425
21
0.8485281374238569
31
0
12
-3.5350107317867567
22
1.2695601234219132
32
0
13
-3.5350107317867567
23
1.2695601234219132
33
0
0
3DFACE
8
0
62
151
10
-1.4095389311788624
20
-17.486969785011496
30
0
11
-3.5105069330268366
21
-18.
31
0
12
-1.4095389311788626
22
-18.513030214988504
32
0
13
-1.4095389311788626
23
-18.513030214988504
33
0
0
3DFACE
8
0
62
151
10
-1.4095389311788626
20
-0.513030214988503
30
0
11
-1.4095389311788624
21
0.5130302149885033
31
0
12
-3.5350107317867567
22
1.2695601234219132
32
0
13
-3.5350107317867567
23
1.2695601234219132
33
0
0
3DFACE
8
0
62
151
10
14.5
20
0
30
0
11
13.226096064088127
21
2.8000000000000003
31
0
12
10.404057498119816
22
1.5756922077682929
32
0
13
10.404057498119816
23
1.5756922077682929
33
0
0
3DFACE
8
0
62
151
10
14.5
20
19.599999999999998
30
0
11
12.05286425159095
21
19.736634920865352
31
0
12
14.5
22
16.799999999999997
32
0
13
14.5
23
16.799999999999997
33
0
0
3DFACE
8
0
62
151
10
-5.3999999999999995
20
0
30
0
11
-3.535010731786757
21
-1.269560123421914
31
0
12
-3.5350107317867567
22
1.2695601234219132
32
0
13
-3.5350107317867567
23
1.2695601234219132
33
0
0
3DFACE
8
0
62
151
10
-4.015258371599838
20
16.31683895608184
30
0
11
-0.8284635332961265
21
13.30154982540142
31
0
12
-0.7500000000000007
22
16.700961894323342
32
0
13
-0.7500000000000007
23
16.700961894323342
33
0
0
3DFACE
8
0
62
151
10
-5.3999999999999995
20
0
30
0
11
-3.5350107317867567
21
1.2695601234219132
31
0
12
-5.7514718625761425
22
0.8485281374238569
32
0
13
-5.7514718625761425
23
0.8485281374238569
33
0
0
3DFACE
8
0
62
151
10
0.2604722665003956
20
1.477211629518312
30
0
11
1.149066664678467
21
0.9641814145298089
31
0
12
1.972240624548789
22
3.416020966469877
32
0
13
1.972240624548789
23
3.416020966469877
33
0
0
3DFACE
8
0
62
151
10
-4.2998657899781
20
13.766729322040813
30
0
11
-4.015258371599838
21
16.31683895608184
31
0
12
-6.55
22
15.
32
0
13
-6.55
23
15.
33
0
0
3DFACE
8
0
62
151
10
-1.4095389311788624
20
0.5130302149885033
30
0
11
-0.7499999999999997
21
1.299038105676658
31
0
12
-3.5350107317867567
22
1.2695601234219132
32
0
13
-3.5350107317867567
23
1.2695601234219132
33
0
0
3DFACE
8
0
62
151
10
-6.859555610979196
20
16.054249594038414
30
0
11
-6.55
21
15.
31
0
12
-4.015258371599838
22
16.31683895608184
32
0
13
-4.015258371599838
23
16.31683895608184
33
0
0
3DFACE
8
0
62
151
10
12.05286425159095
20
19.736634920865352
30
0
11
14.5
21
22.4
31
0
12
10.949540397308983
22
21.92520042029958
32
0
13
10.949540397308983
23
21.92520042029958
33
0
0
3DFACE
8
0
62
151
10
5.7514718625761425
20
0.848528137423857
30
0
11
5.024307792231707
21
3.8040574981198176
31
0
12
3.460175149134698
22
1.300558036704487
32
0
13
3.460175149134698
23
1.300558036704487
33
0
0
3DFACE
8
0
62
151
10
-12.25017913604873
20
12.58990621187064
30
0
11
-10.37101129854827
21
14.450621514159213
31
0
12
-12.520052172621343
22
15.
32
0
13
-12.520052172621343
23
15.
33
0
0
3DFACE
8
0
62
151
10
-1.4095389311788626
20
17.486969785011496
30
0
11
-4.015258371599838
21
16.31683895608184
31
0
12
-0.7500000000000007
22
16.700961894323342
32
0
13
-0.7500000000000007
23
16.700961894323342
33
0
0
3DFACE
8
0
62
151
10
-10.214539316095044
20
36.10079394481849
30
0
11
-10.521434647008789
21
38.71047632548908
31
0
12
-12.82511446511143
22
36.39999999999999
32
0
13
-12.82511446511143
23
36.39999999999999
33
0
0
3DFACE
8
0
62
151
10
-5.012947293390173
20
31.444384523787598
30
0
11
-2.631998389162628
21
32.294183037065324
31
0
12
-5.025
22
35.32933603184171
32
0
13
-5.025
23
35.32933603184171
33
0
0
3DFACE
8
0
62
151
10
-7.4
20
-15.
30
0
11
-5.012947293390167
21
-16.4443845237876
31
0
12
-5.012947293390167
22
-13.5556154762124
32
0
13
-5.012947293390167
23
-13.5556154762124
33
0
0
3DFACE
8
0
62
151
10
-6.6499999999999995
20
39.75
30
0
11
-10.521434647008789
21
38.71047632548908
31
0
12
-6.7
22
37.5
32
0
13
-6.7
23
37.5
33
0
0
3DFACE
8
0
62
151
10
-9.64375
20
42.01635044642857
30
0
11
-7.25
21
44.8
31
0
12
-10.875
22
44.8
32
0
13
-10.875
23
44.8
33
0
0
3DFACE
8
0
62
151
10
-7.25
20
44.8
30
0
11
-9.64375
21
42.01635044642857
31
0
12
-6.6
22
42.
32
0
13
-6.6
23
42.
33
0
0
3DFACE
8
0
62
151
10
-6.6
20
42.
30
0
11
-3.625
21
44.8
31
0
12
-7.25
22
44.8
32
0
13
-7.25
23
44.8
33
0
0
3DFACE
8
0
62
151
10
-0.7500000000000007
20
-1.2990381056766576
30
0
11
-1.4095389311788626
21
-0.513030214988503
31
0
12
-3.535010731786757
22
-1.269560123421914
32
0
13
-3.535010731786757
23
-1.269560123421914
33
0
0
3DFACE
8
0
62
151
10
-6.6
20
42.
30
0
11
-3.3
21
42.
31
0
12
-3.625
22
44.8
32
0
13
-3.625
23
44.8
33
0
0
3DFACE
8
0
62
151
10
3.1
20
21.85
30
0
11
0
21
21.85
31
0
12
1.5960199841394904
22
20.76438770242487
32
0
13
1.5960199841394904
23
20.76438770242487
33
0
0
3DFACE
8
0
62
151
10
7.9757134794945275
20
-35.59081950083846
30
0
11
5.025
21
-35.32933603184171
31
0
12
6.7
22
-37.5
32
0
13
6.7
23
-37.5
33
0
0
3DFACE
8
0
62
151
10
-7.4
20
30.
30
0
11
-7.7221825406947975
21
29.222182540694796
31
0
12
-5.038004207575584
22
28.565994389899224
32
0
13
-5.038004207575584
23
28.565994389899224
33
0
0
3DFACE
8
0
62
151
10
-11.829729961209907
20
-4.2212221242133054
30
0
11
-14.5
21
-2.8
31
0
12
-14.5
22
-5.6
32
0
13
-14.5
23
-5.6
33
0
0
3DFACE
8
0
62
151
10
0
20
-37.5
30
0
11
-0.0841479243187774
21
-33.64791710724299
31
0
12
-3.35
22
-37.5
32
0
13
-3.35
23
-37.5
33
0
0
3DFACE
8
0
62
151
10
0
20
21.85
30
0
11
-2.4699303807223822
21
20.072517671497714
31
0
12
-0.7499999999999997
22
19.299038105676658
32
0
13
-0.7499999999999997
23
19.299038105676658
33
0
0
3DFACE
8
0
62
151
10
-2.4699303807223822
20
20.072517671497714
30
0
11
-1.4095389311788624
21
18.513030214988504
31
0
12
-0.7499999999999997
22
19.299038105676658
32
0
13
-0.7499999999999997
23
19.299038105676658
33
0
0
3DFACE
8
0
62
151
10
-7.055615476212401
20
26.512947293390166
30
0
11
-7.7221825406947975
21
29.222182540694796
31
0
12
-8.5
22
28.9
32
0
13
-8.5
23
28.9
33
0
0
3DFACE
8
0
62
151
10
-5.038004207575584
20
28.565994389899224
30
0
11
-7.7221825406947975
21
29.222182540694796
31
0
12
-7.055615476212401
22
26.512947293390166
32
0
13
-7.055615476212401
23
26.512947293390166
33
0
0
3DFACE
8
0
62
151
10
-7.055615476212388
20
33.48705270660983
30
0
11
-7.7221825406947975
21
30.7778174593052
31
0
12
-5.012947293390173
22
31.444384523787598
32
0
13
-5.012947293390173
23
31.444384523787598
33
0
0
3DFACE
8
0
62
151
10
-3.
20
26.7
30
0
11
-7.055615476212401
21
26.512947293390166
31
0
12
-3.05
22
24.275
32
0
13
-3.05
23
24.275
33
0
0
3DFACE
8
0
62
151
10
-7.833455223532099
20
19.63592074956182
30
0
11
-8.500000000000007
21
23.193814447235294
31
0
12
-10.772552290974414
22
19.976195395656408
32
0
13
-10.772552290974414
23
19.976195395656408
33
0
0
3DFACE
8
0
62
151
10
-7.055615476212388
20
33.48705270660983
30
0
11
-5.025
21
35.32933603184171
31
0
12
-7.975713479494526
22
35.59081950083846
32
0
13
-7.975713479494526
23
35.59081950083846
33
0
0
3DFACE
8
0
62
151
10
-2.4699303807223822
20
20.072517671497714
30
0
11
0
21
21.85
31
0
12
-3.1
22
21.85
32
0
13
-3.1
23
21.85
33
0
0
3DFACE
8
0
62
151
10
-7.055615476212401
20
26.512947293390166
30
0
11
-3.
21
26.7
31
0
12
-5.038004207575584
22
28.565994389899224
32
0
13
-5.038004207575584
23
28.565994389899224
33
0
0
3DFACE
8
0
62
151
10
-4.015258371599838
20
16.31683895608184
30
0
11
-1.4095389311788626
21
17.486969785011496
31
0
12
-3.2055121958500985
22
18.
32
0
13
-3.2055121958500985
23
18.
33
0
0
3DFACE
8
0
62
151
10
-3.625
20
44.8
30
0
11
-3.3
21
42.
31
0
12
0
22
44.8
32
0
13
0
23
44.8
33
0
0
3DFACE
8
0
62
151
10
-8.5
20
-16.1
30
0
11
-9.944384523787605
21
-18.487052706609834
31
0
12
-7.055615476212395
22
-18.487052706609834
32
0
13
-7.055615476212395
23
-18.487052706609834
33
0
0
3DFACE
8
0
62
151
10
-7.833455223532099
20
19.63592074956182
30
0
11
-8.777513934632905
21
16.93015181166782
31
0
12
-7.689940724646322
22
16.77378239094131
32
0
13
-7.689940724646322
23
16.77378239094131
33
0
0
3DFACE
8
0
62
151
10
-5.3999999999999995
20
0
30
0
11
-5.7514718625761425
21
-0.8485281374238572
31
0
12
-3.535010731786757
22
-1.269560123421914
32
0
13
-3.535010731786757
23
-1.269560123421914
33
0
0
3DFACE
8
0
62
151
10
7.055615476212395
20
18.487052706609834
30
0
11
3.6954999324244904
21
19.345051976135277
31
0
12
5.012947293390167
22
16.4443845237876
32
0
13
5.012947293390167
23
16.4443845237876
33
0
0
3DFACE
8
0
62
151
10
-10.77255229097441
20
10.023804604343598
30
0
11
-12.25017913604873
21
12.58990621187064
31
0
12
-14.5
22
11.2
32
0
13
-14.5
23
11.2
33
0
0
3DFACE
8
0
62
151
10
3.4601751491346975
20
-1.3005580367044887
30
0
11
1.9722406245487876
21
-3.416020966469877
31
0
12
5.024307792231706
22
-3.8040574981198176
32
0
13
5.024307792231706
23
-3.8040574981198176
33
0
0
3DFACE
8
0
62
151
10
3.35
20
-37.5
30
0
11
5.025
21
-35.32933603184171
31
0
12
2.3126788456585743
22
-34.9679560975458
32
0
13
2.3126788456585743
23
-34.9679560975458
33
0
0
3DFACE
8
0
62
151
10
1.1490666646784666
20
17.035818585470192
30
0
11
3.1010885780450197
21
16.871296063768707
31
0
12
1.5
22
18.
32
0
13
1.5
23
18.
33
0
0
3DFACE
8
0
62
151
10
-7.975713479494526
20
35.59081950083846
30
0
11
-5.025
21
35.32933603184171
31
0
12
-6.7
22
37.5
32
0
13
-6.7
23
37.5
33
0
0
3DFACE
8
0
62
151
10
7.055615476212388
20
-26.512947293390166
30
0
11
5.038004207575586
21
-28.565994389899217
31
0
12
7.7221825406947975
22
-29.2221825406948
32
0
13
7.7221825406947975
23
-29.2221825406948
33
0
0
3DFACE
8
0
62
151
10
1.5960199841394898
20
-20.76438770242487
30
0
11
1.1490666646784666
21
-18.964181414529808
31
0
12
0.26047226650039496
22
-19.47721162951831
32
0
13
0.26047226650039496
23
-19.47721162951831
33
0
0
3DFACE
8
0
62
151
10
3.6015698180094797
20
-19.310864210386995
30
0
11
3.1
21
-21.85
31
0
12
6.227447709025585
22
-19.9761953956564
32
0
13
6.227447709025585
23
-19.9761953956564
33
0
0
3DFACE
8
0
62
151
10
3.6015698180094797
20
-19.310864210386995
30
0
11
1.1490666646784666
21
-18.964181414529808
31
0
12
1.5960199841394898
22
-20.76438770242487
32
0
13
1.5960199841394898
23
-20.76438770242487
33
0
0
3DFACE
8
0
62
151
10
7.055615476212388
20
-33.48705270660983
30
0
11
5.025
21
-35.32933603184171
31
0
12
7.9757134794945275
22
-35.59081950083846
32
0
13
7.9757134794945275
23
-35.59081950083846
33
0
0
3DFACE
8
0
62
151
10
5.038004207575586
20
-28.565994389899217
30
0
11
7.4
21
-30.
31
0
12
7.7221825406947975
22
-29.2221825406948
32
0
13
7.7221825406947975
23
-29.2221825406948
33
0
0
3DFACE
8
0
62
151
10
10.404057498119817
20
-1.575692207768293
30
0
11
11.846296935140424
21
-4.204360249785974
31
0
12
14.5
22
-2.8
32
0
13
14.5
23
-2.8
33
0
0
3DFACE
8
0
62
151
10
3.625
20
-44.8
30
0
11
7.25
21
-44.8
31
0
12
6.6
22
-42.
32
0
13
6.6
23
-42.
33
0
0
3DFACE
8
0
62
151
10
-14.5
20
-33.599999999999994
30
0
11
-12.683811742404906
21
-30.
31
0
12
-14.5
22
-27.999999999999996
32
0
13
-14.5
23
-27.999999999999996
33
0
0
3DFACE
8
0
62
151
10
9.64375
20
-42.01635044642857
30
0
11
6.6
21
-42.
31
0
12
7.25
22
-44.8
32
0
13
7.25
23
-44.8
33
0
0
3DFACE
8
0
62
151
10
-14.5
20
-11.2
30
0
11
-14.5
21
-13.999999999999998
31
0
12
-11.867384428564229
22
-13.605183699964723
32
0
13
-11.867384428564229
23
-13.605183699964723
33
0
0
3DFACE
8
0
62
151
10
-9.9443845237876
20
-11.512947293390166
30
0
11
-9.277817459305203
21
-14.222182540694797
31
0
12
-8.5
22
-13.9
32
0
13
-8.5
23
-13.9
33
0
0
3DFACE
8
0
62
151
10
6.7
20
-37.5
30
0
11
6.6499999999999995
21
-39.75
31
0
12
10.521434647008789
22
-38.71047632548908
32
0
13
10.521434647008789
23
-38.71047632548908
33
0
0
3DFACE
8
0
62
151
10
7.055615476212388
20
-26.512947293390166
30
0
11
7.7221825406947975
21
-29.2221825406948
31
0
12
8.5
22
-28.9
32
0
13
8.5
23
-28.9
33
0
0
3DFACE
8
0
62
151
10
5.012947293390173
20
-31.444384523787598
30
0
11
7.4
21
-30.
31
0
12
5.038004207575586
22
-28.565994389899217
32
0
13
5.038004207575586
23
-28.565994389899217
33
0
0
3DFACE
8
0
62
151
10
8.5
20
-31.1
30
0
11
7.7221825406947975
21
-30.7778174593052
31
0
12
7.055615476212388
22
-33.48705270660983
32
0
13
7.055615476212388
23
-33.48705270660983
33
0
0
3DFACE
8
0
62
151
10
12.82511446511143
20
-36.39999999999999
30
0
11
10.214539316095047
21
-36.10079394481849
31
0
12
10.521434647008789
22
-38.71047632548908
32
0
13
10.521434647008789
23
-38.71047632548908
33
0
0
3DFACE
8
0
62
151
10
10.875
20
-44.8
30
0
11
9.64375
21
-42.01635044642857
31
0
12
7.25
22
-44.8
32
0
13
7.25
23
-44.8
33
0
0
3DFACE
8
0
62
151
10
3.625
20
-44.8
30
0
11
6.6
21
-42.
31
0
12
3.3
22
-42.
32
0
13
3.3
23
-42.
33
0
0
3DFACE
8
0
62
151
10
0
20
-44.8
30
0
11
3.625
21
-44.8
31
0
12
3.3
22
-42.
32
0
13
3.3
23
-42.
33
0
0
3DFACE
8
0
62
151
10
6.62898870145173
20
-15.549378485840787
30
0
11
3.9610942194959726
21
-16.558279608979554
31
0
12
7.223021568806693
22
-16.473711669990802
32
0
13
7.223021568806693
23
-16.473711669990802
33
0
0
3DFACE
8
0
62
151
10
3.460175149134698
20
1.300558036704487
30
0
11
1.972240624548789
21
3.416020966469877
31
0
12
1.149066664678467
22
0.9641814145298089
32
0
13
1.149066664678467
23
0.9641814145298089
33
0
0
3DFACE
8
0
62
151
10
-5.723794779834105
20
11.796088382303664
30
0
11
-7.6899407246463225
21
13.22621760905869
31
0
12
-7.819342993729563
22
10.26592653621116
32
0
13
-7.819342993729563
23
10.26592653621116
33
0
0
3DFACE
8
0
62
151
10
3.9610942194959726
20
-16.558279608979554
30
0
11
2.385465670953314
21
-13.868252258197485
31
0
12
1.149066664678467
22
-17.035818585470192
32
0
13
1.149066664678467
23
-17.035818585470192
33
0
0
3DFACE
8
0
62
151
10
1.149066664678467
20
-17.035818585470192
30
0
11
2.385465670953314
21
-13.868252258197485
31
0
12
0.2604722665003956
22
-16.52278837048169
32
0
13
0.2604722665003956
23
-16.52278837048169
33
0
0
3DFACE
8
0
62
151
10
-2.8247227593009936
20
-15.629776174492465
30
0
11
-5.012947293390167
21
-16.4443845237876
31
0
12
-3.5105069330268366
22
-18.
32
0
13
-3.5105069330268366
23
-18.
33
0
0
3DFACE
8
0
62
151
10
3.4601751491346975
20
-1.3005580367044887
30
0
11
1.1490666646784666
21
-0.9641814145298093
31
0
12
1.9722406245487876
22
-3.416020966469877
32
0
13
1.9722406245487876
23
-3.416020966469877
33
0
0
3DFACE
8
0
62
151
10
3.4601751491346975
20
-1.3005580367044887
30
0
11
1.5
21
0
31
0
12
1.1490666646784666
22
-0.9641814145298093
32
0
13
1.1490666646784666
23
-0.9641814145298093
33
0
0
3DFACE
8
0
62
151
10
1.972240624548789
20
3.416020966469877
30
0
11
-0.7167852265353267
21
4.065091023820362
31
0
12
0.2604722665003956
22
1.477211629518312
32
0
13
0.2604722665003956
23
1.477211629518312
33
0
0
3DFACE
8
0
62
151
10
3.9610942194959726
20
-16.558279608979554
30
0
11
6.62898870145173
21
-15.549378485840787
31
0
12
6.62898870145173
22
-14.450621514159213
32
0
13
6.62898870145173
23
-14.450621514159213
33
0
0
3DFACE
8
0
62
151
10
2.385465670953314
20
-13.868252258197485
30
0
11
4.724829369767699
21
-12.573845153797727
31
0
12
2.437763780666964
22
-11.201616836843362
32
0
13
2.437763780666964
23
-11.201616836843362
33
0
0
3DFACE
8
0
62
151
10
14.5
20
-19.599999999999998
30
0
11
11.181600237248924
21
-18.09473164726117
31
0
12
11.799278359617983
22
-21.050146341548476
32
0
13
11.799278359617983
23
-21.050146341548476
33
0
0
3DFACE
8
0
62
151
10
6.227447709025585
20
-19.9761953956564
30
0
11
7.223021568806693
21
-16.473711669990802
31
0
12
3.9610942194959726
22
-16.558279608979554
32
0
13
3.9610942194959726
23
-16.558279608979554
33
0
0
3DFACE
8
0
62
151
10
4.953525611368032
20
-24.995912921510556
30
0
11
5.038004207575586
21
-28.565994389899217
31
0
12
7.055615476212388
22
-26.512947293390166
32
0
13
7.055615476212388
23
-26.512947293390166
33
0
0
3DFACE
8
0
62
151
10
6.62898870145173
20
-14.450621514159213
30
0
11
7.223021568806694
21
-13.526288330009196
31
0
12
4.724829369767699
22
-12.573845153797727
32
0
13
4.724829369767699
23
-12.573845153797727
33
0
0
3DFACE
8
0
62
151
10
3.
20
-26.7
30
0
11
1.4999999999999998
21
-30.135638809653962
31
0
12
5.038004207575586
22
-28.565994389899217
32
0
13
5.038004207575586
23
-28.565994389899217
33
0
0
3DFACE
8
0
62
151
10
5.7514718625761425
20
-0.8485281374238569
30
0
11
5.3999999999999995
21
0
31
0
12
3.4601751491346975
22
-1.3005580367044887
32
0
13
3.4601751491346975
23
-1.3005580367044887
33
0
0
3DFACE
8
0
62
151
10
8.175692207768291
20
-3.8040574981198176
30
0
11
6.6
21
-1.2
31
0
12
5.024307792231706
22
-3.8040574981198176
32
0
13
5.024307792231706
23
-3.8040574981198176
33
0
0
3DFACE
8
0
62
151
10
5.038004207575586
20
-28.565994389899217
30
0
11
4.953525611368032
21
-24.995912921510556
31
0
12
3.
22
-26.7
32
0
13
3.
23
-26.7
33
0
0
3DFACE
8
0
62
151
10
6.6
20
-1.2
30
0
11
5.7514718625761425
21
-0.8485281374238569
31
0
12
5.024307792231706
22
-3.8040574981198176
32
0
13
5.024307792231706
23
-3.8040574981198176
33
0
0
3DFACE
8
0
62
151
10
3.4601751491346975
20
-1.3005580367044887
30
0
11
5.3999999999999995
21
0
31
0
12
3.460175149134698
22
1.300558036704487
32
0
13
3.460175149134698
23
1.300558036704487
33
0
0
3DFACE
8
0
62
151
10
11.597470412104254
20
-11.425328586400955
30
0
11
9.126823141068135
21
-10.640349292988235
31
0
12
9.310059275353678
22
-13.22621760905869
32
0
13
9.310059275353678
23
-13.22621760905869
33
0
0
3DFACE
8
0
62
151
10
6.62898870145173
20
-14.450621514159213
30
0
11
4.724829369767699
21
-12.573845153797727
31
0
12
3.9610942194959726
22
-16.558279608979554
32
0
13
3.9610942194959726
23
-16.558279608979554
33
0
0
3DFACE
8
0
62
151
10
1.5
20
-18.
30
0
11
1.1490666646784666
21
-18.964181414529808
31
0
12
3.6015698180094797
22
-19.310864210386995
32
0
13
3.6015698180094797
23
-19.310864210386995
33
0
0
3DFACE
8
0
62
151
10
9.944384523787612
20
-26.512947293390166
30
0
11
9.277817459305203
21
-29.2221825406948
31
0
12
11.885746135482057
22
-28.59757803193104
32
0
13
11.885746135482057
23
-28.59757803193104
33
0
0
3DFACE
8
0
62
151
10
-3.5350107317867567
20
1.2695601234219132
30
0
11
-0.7499999999999997
21
1.299038105676658
31
0
12
-0.7167852265353267
22
4.065091023820362
32
0
13
-0.7167852265353267
23
4.065091023820362
33
0
0
3DFACE
8
0
62
151
10
0.2604722665003956
20
-16.52278837048169
30
0
11
2.385465670953314
21
-13.868252258197485
31
0
12
-0.6961601895823865
22
-14.051879373279787
32
0
13
-0.6961601895823865
23
-14.051879373279787
33
0
0
3DFACE
8
0
62
151
10
9.126823141068135
20
-10.640349292988235
30
0
11
8.222486065367095
21
-13.06984818833218
31
0
12
9.310059275353678
22
-13.22621760905869
32
0
13
9.310059275353678
23
-13.22621760905869
33
0
0
3DFACE
8
0
62
151
10
9.9443845237876
20
-33.48705270660984
30
0
11
8.5
21
-31.1
31
0
12
7.055615476212388
22
-33.48705270660983
32
0
13
7.055615476212388
23
-33.48705270660983
33
0
0
3DFACE
8
0
62
151
10
9.277817459305203
20
-30.777817459305204
30
0
11
8.5
21
-31.1
31
0
12
9.9443845237876
22
-33.48705270660984
32
0
13
9.9443845237876
23
-33.48705270660984
33
0
0
3DFACE
8
0
62
151
10
-8.777513934632907
20
13.06984818833218
30
0
11
-9.776978431193307
21
13.526288330009196
31
0
12
-10.77255229097441
22
10.023804604343598
32
0
13
-10.77255229097441
23
10.023804604343598
33
0
0
3DFACE
8
0
62
151
10
-5.7514718625761425
20
0.8485281374238569
30
0
11
-5.120542508100092
21
3.5717263418992395
31
0
12
-6.6
22
1.2
32
0
13
-6.6
23
1.2
33
0
0
3DFACE
8
0
62
151
10
-4.462857122755995
20
-31.185412104536265
30
0
11
-6.55
21
-30.
31
0
12
-6.859555610979196
22
-31.054249594038414
32
0
13
-6.859555610979196
23
-31.054249594038414
33
0
0
3DFACE
8
0
62
151
10
11.885746135482057
20
-28.59757803193104
30
0
11
9.277817459305203
21
-29.2221825406948
31
0
12
9.6
22
-30.
32
0
13
9.6
23
-30.
33
0
0
3DFACE
8
0
62
151
10
9.944384523787612
20
-26.512947293390166
30
0
11
8.5
21
-28.9
31
0
12
9.277817459305203
22
-29.2221825406948
32
0
13
9.277817459305203
23
-29.2221825406948
33
0
0
3DFACE
8
0
62
151
10
11.886301699552384
20
-31.402652090241656
30
0
11
9.6
21
-30.
31
0
12
9.277817459305203
22
-30.777817459305204
32
0
13
9.277817459305203
23
-30.777817459305204
33
0
0
3DFACE
8
0
62
151
10
-5.120542508100093
20
-3.5717263418992395
30
0
11
-3.043356372501972
21
-4.9314099733525225
31
0
12
-3.535010731786757
22
-1.269560123421914
32
0
13
-3.535010731786757
23
-1.269560123421914
33
0
0
3DFACE
8
0
62
151
10
10.875
20
-44.8
30
0
11
14.5
21
-44.8
31
0
12
12.6875
22
-42.
32
0
13
12.6875
23
-42.
33
0
0
3DFACE
8
0
62
151
10
-5.821655111157889
20
-23.05785742102436
30
0
11
-3.0500000000000003
21
-24.275
31
0
12
-3.1
22
-21.85
32
0
13
-3.1
23
-21.85
33
0
0
3DFACE
8
0
62
151
10
-6.859555610979196
20
-28.945750405961586
30
0
11
-5.74462146119249
21
-26.820123653859785
31
0
12
-7.689940724646322
22
-28.22621760905869
32
0
13
-7.689940724646322
23
-28.22621760905869
33
0
0
3DFACE
8
0
62
151
10
11.886301699552384
20
-31.402652090241656
30
0
11
14.5
21
-33.599999999999994
31
0
12
14.5
22
-30.799999999999997
32
0
13
14.5
23
-30.799999999999997
33
0
0
3DFACE
8
0
62
151
10
11.886301699552384
20
-31.402652090241656
30
0
11
14.5
21
-30.799999999999997
31
0
12
11.885746135482057
22
-28.59757803193104
32
0
13
11.885746135482057
23
-28.59757803193104
33
0
0
3DFACE
8
0
62
151
10
2.154932719843789
20
14.267547042337972
30
0
11
3.1010885780450197
21
16.871296063768707
31
0
12
1.1490666646784666
22
17.035818585470192
32
0
13
1.1490666646784666
23
17.035818585470192
33
0
0
3DFACE
8
0
62
151
10
14.5
20
-22.4
30
0
11
11.799278359617983
21
-21.050146341548476
31
0
12
10.918309845934132
22
-23.797328557691593
32
0
13
10.918309845934132
23
-23.797328557691593
33
0
0
3DFACE
8
0
62
151
10
-0.7499999999999997
20
-16.700961894323342
30
0
11
0.2604722665003956
21
-16.52278837048169
31
0
12
-0.6961601895823865
22
-14.051879373279787
32
0
13
-0.6961601895823865
23
-14.051879373279787
33
0
0
3DFACE
8
0
62
151
10
-5.012947293390167
20
-13.5556154762124
30
0
11
-5.012947293390167
21
-16.4443845237876
31
0
12
-2.8247227593009936
22
-15.629776174492465
32
0
13
-2.8247227593009936
23
-15.629776174492465
33
0
0
3DFACE
8
0
62
151
10
11.885746135482057
20
-28.59757803193104
30
0
11
14.5
21
-25.199999999999996
31
0
12
9.944384523787612
22
-26.512947293390166
32
0
13
9.944384523787612
23
-26.512947293390166
33
0
0
3DFACE
8
0
62
151
10
3.6954999324244904
20
19.345051976135277
30
0
11
3.1010885780450197
21
16.871296063768707
31
0
12
5.012947293390167
22
16.4443845237876
32
0
13
5.012947293390167
23
16.4443845237876
33
0
0
3DFACE
8
0
62
151
10
10.214539316095047
20
-36.10079394481849
30
0
11
12.82511446511143
21
-36.39999999999999
31
0
12
9.9443845237876
22
-33.48705270660984
32
0
13
9.9443845237876
23
-33.48705270660984
33
0
0
3DFACE
8
0
62
151
10
10.521434647008789
20
-38.71047632548908
30
0
11
6.6499999999999995
21
-39.75
31
0
12
9.64375
22
-42.01635044642857
32
0
13
9.64375
23
-42.01635044642857
33
0
0
3DFACE
8
0
62
151
10
7.223021568806693
20
-16.473711669990802
30
0
11
6.227447709025585
21
-19.9761953956564
31
0
12
8.222486065367093
22
-16.93015181166782
32
0
13
8.222486065367093
23
-16.93015181166782
33
0
0
3DFACE
8
0
62
151
10
9.6
20
-30.
30
0
11
11.886301699552384
21
-31.402652090241656
31
0
12
11.885746135482057
22
-28.59757803193104
32
0
13
11.885746135482057
23
-28.59757803193104
33
0
0
3DFACE
8
0
62
151
10
6.227447709025585
20
-19.9761953956564
30
0
11
9.159244573388515
21
-19.585146721879724
31
0
12
8.222486065367093
22
-16.93015181166782
32
0
13
8.222486065367093
23
-16.93015181166782
33
0
0
3DFACE
8
0
62
151
10
9.310059275353678
20
-16.77378239094131
30
0
11
9.159244573388515
21
-19.585146721879724
31
0
12
11.181600237248924
22
-18.09473164726117
32
0
13
11.181600237248924
23
-18.09473164726117
33
0
0
3DFACE
8
0
62
151
10
-0.7500000000000007
20
-19.299038105676658
30
0
11
0
21
-21.85
31
0
12
0.26047226650039496
22
-19.47721162951831
32
0
13
0.26047226650039496
23
-19.47721162951831
33
0
0
3DFACE
8
0
62
151
10
10.404057498119816
20
1.5756922077682929
30
0
11
10.404057498119817
21
-1.575692207768293
31
0
12
14.5
22
0
32
0
13
14.5
23
0
33
0
0
3DFACE
8
0
62
151
10
8.175692207768291
20
-3.8040574981198176
30
0
11
10.404057498119817
21
-1.575692207768293
31
0
12
7.448528137423857
22
-0.8485281374238572
32
0
13
7.448528137423857
23
-0.8485281374238572
33
0
0
3DFACE
8
0
62
151
10
6.227447709025592
20
-10.023804604343594
30
0
11
8.222486065367095
21
-13.06984818833218
31
0
12
9.126823141068135
22
-10.640349292988235
32
0
13
9.126823141068135
23
-10.640349292988235
33
0
0
3DFACE
8
0
62
151
10
-9.6
20
30.
30
0
11
-11.886301699552384
21
31.40265209024166
31
0
12
-11.885746135482057
22
28.59757803193104
32
0
13
-11.885746135482057
23
28.59757803193104
33
0
0
3DFACE
8
0
62
151
10
-2.7457228671199068
20
-12.857074258035608
30
0
11
-2.4747733827164926
21
-10.500200733751806
31
0
12
-5.012947293390167
22
-13.5556154762124
32
0
13
-5.012947293390167
23
-13.5556154762124
33
0
0
3DFACE
8
0
62
151
10
10.45
20
-15.
30
0
11
12.321403619069308
21
-13.877934657230698
31
0
12
10.140444389020804
22
-13.945750405961585
32
0
13
10.140444389020804
23
-13.945750405961585
33
0
0
3DFACE
8
0
62
151
10
11.181600237248924
20
-18.09473164726117
30
0
11
9.159244573388515
21
-19.585146721879724
31
0
12
11.799278359617983
22
-21.050146341548476
32
0
13
11.799278359617983
23
-21.050146341548476
33
0
0
3DFACE
8
0
62
151
10
-14.5
20
30.799999999999997
30
0
11
-14.5
21
27.999999999999996
31
0
12
-11.885746135482057
22
28.59757803193104
32
0
13
-11.885746135482057
23
28.59757803193104
33
0
0
3DFACE
8
0
62
151
10
14.5
20
-13.999999999999998
30
0
11
12.321403619069308
21
-13.877934657230698
31
0
12
12.36996676883508
22
-16.136324770121064
32
0
13
12.36996676883508
23
-16.136324770121064
33
0
0
3DFACE
8
0
62
151
10
9.310059275353678
20
-16.77378239094131
30
0
11
11.181600237248924
21
-18.09473164726117
31
0
12
10.140444389020804
22
-16.054249594038414
32
0
13
10.140444389020804
23
-16.054249594038414
33
0
0
3DFACE
8
0
62
151
10
-7.055615476212395
20
-18.487052706609834
30
0
11
-3.5105069330268366
21
-18.
31
0
12
-5.012947293390167
22
-16.4443845237876
32
0
13
-5.012947293390167
23
-16.4443845237876
33
0
0
3DFACE
8
0
62
151
10
11.597470412104254
20
-11.425328586400955
30
0
11
12.321403619069308
21
-13.877934657230698
31
0
12
14.5
22
-11.2
32
0
13
14.5
23
-11.2
33
0
0
3DFACE
8
0
62
151
10
9.310059275353678
20
-13.22621760905869
30
0
11
10.140444389020804
21
-13.945750405961585
31
0
12
11.597470412104254
22
-11.425328586400955
32
0
13
11.597470412104254
23
-11.425328586400955
33
0
0
3DFACE
8
0
62
151
10
3.8845635423319105
20
6.806301331472094
30
0
11
1.8283903708189748
21
8.714769373765755
31
0
12
1.1841986787487568
22
6.04595405342653
32
0
13
1.1841986787487568
23
6.04595405342653
33
0
0
3DFACE
8
0
62
151
10
7.448528137423857
20
-0.8485281374238572
30
0
11
10.404057498119817
21
-1.575692207768293
31
0
12
7.8
22
0
32
0
13
7.8
23
0
33
0
0
3DFACE
8
0
62
151
10
0.26047226650039496
20
16.52278837048169
30
0
11
-0.8284635332961265
21
13.30154982540142
31
0
12
2.154932719843789
22
14.267547042337972
32
0
13
2.154932719843789
23
14.267547042337972
33
0
0
3DFACE
8
0
62
151
10
-3.0466066177499713
20
10.444722560605053
30
0
11
-4.383176218360677
21
7.760116864793855
31
0
12
-1.2478390787787879
22
8.045147310690572
32
0
13
-1.2478390787787879
23
8.045147310690572
33
0
0
3DFACE
8
0
62
151
10
11.597470412104254
20
-11.425328586400955
30
0
11
12.131944918352175
21
-9.033086799401628
31
0
12
9.126823141068135
22
-10.640349292988235
32
0
13
9.126823141068135
23
-10.640349292988235
33
0
0
3DFACE
8
0
62
151
10
-3.0929259378330367
20
5.373866319073639
30
0
11
-3.5350107317867567
21
1.2695601234219132
31
0
12
-0.7167852265353267
22
4.065091023820362
32
0
13
-0.7167852265353267
23
4.065091023820362
33
0
0
3DFACE
8
0
62
151
10
10.45
20
-15.
30
0
11
12.36996676883508
21
-16.136324770121064
31
0
12
12.321403619069308
22
-13.877934657230698
32
0
13
12.321403619069308
23
-13.877934657230698
33
0
0
3DFACE
8
0
62
151
10
10.140444389020804
20
-16.054249594038414
30
0
11
11.181600237248924
21
-18.09473164726117
31
0
12
12.36996676883508
22
-16.136324770121064
32
0
13
12.36996676883508
23
-16.136324770121064
33
0
0
3DFACE
8
0
62
151
10
10.404057498119816
20
1.5756922077682929
30
0
11
7.8
21
0
31
0
12
10.404057498119817
22
-1.575692207768293
32
0
13
10.404057498119817
23
-1.575692207768293
33
0
0
3DFACE
8
0
62
151
10
-2.469930380722383
20
-20.07251767149771
30
0
11
-1.4095389311788626
21
-18.513030214988504
31
0
12
-3.5105069330268366
22
-18.
32
0
13
-3.5105069330268366
23
-18.
33
0
0
3DFACE
8
0
62
151
10
8.5
20
-28.9
30
0
11
9.944384523787612
21
-26.512947293390166
31
0
12
7.055615476212388
22
-26.512947293390166
32
0
13
7.055615476212388
23
-26.512947293390166
33
0
0
3DFACE
8
0
62
151
10
-12.07594712142914
20
-27.70187832864007
30
0
11
-14.5
21
-27.999999999999996
31
0
12
-12.683811742404906
22
-30.
32
0
13
-12.683811742404906
23
-30.
33
0
0
3DFACE
8
0
62
151
10
6.7
20
-37.5
30
0
11
5.025
21
-35.32933603184171
31
0
12
3.35
22
-37.5
32
0
13
3.35
23
-37.5
33
0
0
3DFACE
8
0
62
151
10
1.1490666646784666
20
17.035818585470192
30
0
11
0.26047226650039496
21
16.52278837048169
31
0
12
2.154932719843789
22
14.267547042337972
32
0
13
2.154932719843789
23
14.267547042337972
33
0
0
3DFACE
8
0
62
151
10
7.7221825406947975
20
-30.7778174593052
30
0
11
7.4
21
-30.
31
0
12
5.012947293390173
22
-31.444384523787598
32
0
13
5.012947293390173
23
-31.444384523787598
33
0
0
3DFACE
8
0
62
151
10
9.944384523787605
20
18.487052706609834
30
0
11
7.055615476212395
21
18.487052706609834
31
0
12
8.5
22
16.1
32
0
13
8.5
23
16.1
33
0
0
3DFACE
8
0
62
151
10
7.7221825406947975
20
15.777817459305203
30
0
11
5.012947293390167
21
16.4443845237876
31
0
12
7.4
22
15.
32
0
13
7.4
23
15.
33
0
0
3DFACE
8
0
62
151
10
1.5960199841394904
20
20.76438770242487
30
0
11
0.2604722665003956
21
19.47721162951831
31
0
12
1.149066664678467
22
18.964181414529808
32
0
13
1.149066664678467
23
18.964181414529808
33
0
0
3DFACE
8
0
62
151
10
0
20
21.85
30
0
11
-0.7499999999999997
21
19.299038105676658
31
0
12
0.2604722665003956
22
19.47721162951831
32
0
13
0.2604722665003956
23
19.47721162951831
33
0
0
3DFACE
8
0
62
151
10
-14.5
20
0
30
0
11
-10.404057498119817
21
-1.5756922077682929
31
0
12
-10.404057498119816
22
1.575692207768293
32
0
13
-10.404057498119816
23
1.575692207768293
33
0
0
3DFACE
8
0
62
151
10
0
20
-26.7
30
0
11
1.4999999999999998
21
-30.135638809653962
31
0
12
3.
22
-26.7
32
0
13
3.
23
-26.7
33
0
0
3DFACE
8
0
62
151
10
1.5
20
0
30
0
11
3.460175149134698
21
1.300558036704487
31
0
12
1.149066664678467
22
0.9641814145298089
32
0
13
1.149066664678467
23
0.9641814145298089
33
0
0
3DFACE
8
0
62
151
10
-0.8284635332961265
20
13.30154982540142
30
0
11
0.26047226650039496
21
16.52278837048169
31
0
12
-0.7500000000000007
22
16.700961894323342
32
0
13
-0.7500000000000007
23
16.700961894323342
33
0
0
3DFACE
8
0
62
151
10
-11.885746135482057
20
28.59757803193104
30
0
11
-14.5
21
27.999999999999996
31
0
12
-14.5
22
25.199999999999996
32
0
13
-14.5
23
25.199999999999996
33
0
0
3DFACE
8
0
62
151
10
14.5
20
-25.199999999999996
30
0
11
11.885746135482057
21
-28.59757803193104
31
0
12
14.5
22
-27.999999999999996
32
0
13
14.5
23
-27.999999999999996
33
0
0
3DFACE
8
0
62
151
10
7.7221825406947975
20
14.222182540694797
30
0
11
7.4
21
15.
31
0
12
5.012947293390167
22
13.5556154762124
32
0
13
5.012947293390167
23
13.5556154762124
33
0
0
3DFACE
8
0
62
151
10
5.7514718625761425
20
0.848528137423857
30
0
11
6.6
21
1.2
31
0
12
5.024307792231707
22
3.8040574981198176
32
0
13
5.024307792231707
23
3.8040574981198176
33
0
0
3DFACE
8
0
62
151
10
1.5
20
18.
30
0
11
3.6954999324244904
21
19.345051976135277
31
0
12
1.149066664678467
22
18.964181414529808
32
0
13
1.149066664678467
23
18.964181414529808
33
0
0
3DFACE
8
0
62
151
10
5.012947293390173
20
-31.444384523787598
30
0
11
7.055615476212388
21
-33.48705270660983
31
0
12
7.7221825406947975
22
-30.7778174593052
32
0
13
7.7221825406947975
23
-30.7778174593052
33
0
0
3DFACE
8
0
62
151
10
5.0407137887699225
20
27.776851743185947
30
0
11
3.
21
26.7
31
0
12
4.633756695343884
22
24.307654777223586
32
0
13
4.633756695343884
23
24.307654777223586
33
0
0
3DFACE
8
0
62
151
10
5.012947293390167
20
13.5556154762124
30
0
11
7.4
21
15.
31
0
12
5.012947293390167
22
16.4443845237876
32
0
13
5.012947293390167
23
16.4443845237876
33
0
0
3DFACE
8
0
62
151
10
2.154932719843789
20
14.267547042337972
30
0
11
5.012947293390167
21
16.4443845237876
31
0
12
3.1010885780450197
22
16.871296063768707
32
0
13
3.1010885780450197
23
16.871296063768707
33
0
0
3DFACE
8
0
62
151
10
1.5960199841394904
20
20.76438770242487
30
0
11
1.149066664678467
21
18.964181414529808
31
0
12
3.6954999324244904
22
19.345051976135277
32
0
13
3.6954999324244904
23
19.345051976135277
33
0
0
3DFACE
8
0
62
151
10
8.5
20
13.9
30
0
11
7.055615476212401
21
11.512947293390166
31
0
12
9.9443845237876
22
11.512947293390166
32
0
13
9.9443845237876
23
11.512947293390166
33
0
0
3DFACE
8
0
62
151
10
5.3999999999999995
20
0
30
0
11
5.7514718625761425
21
0.848528137423857
31
0
12
3.460175149134698
22
1.300558036704487
32
0
13
3.460175149134698
23
1.300558036704487
33
0
0
3DFACE
8
0
62
151
10
3.4601751491346975
20
-1.3005580367044887
30
0
11
3.460175149134698
21
1.300558036704487
31
0
12
1.5
22
0
32
0
13
1.5
23
0
33
0
0
3DFACE
8
0
62
151
10
-7.819342993729563
20
10.26592653621116
30
0
11
-7.6899407246463225
21
13.22621760905869
31
0
12
-8.777513934632907
22
13.06984818833218
32
0
13
-8.777513934632907
23
13.06984818833218
33
0
0
3DFACE
8
0
62
151
10
4.373967044895441
20
30.
30
0
11
6.62898870145173
21
30.549378485840787
31
0
12
5.024200026928035
22
32.23376100713609
32
0
13
5.024200026928035
23
32.23376100713609
33
0
0
3DFACE
8
0
62
151
10
4.373967044895441
20
30.
30
0
11
2.530942450441416
21
32.62102198472766
31
0
12
1.2528326220815624
22
29.588165228230597
32
0
13
1.2528326220815624
23
29.588165228230597
33
0
0
3DFACE
8
0
62
151
10
-10.68528073653574
20
-6.999999999999999
30
0
11
-14.5
21
-5.6
31
0
12
-14.5
22
-8.399999999999999
32
0
13
-14.5
23
-8.399999999999999
33
0
0
3DFACE
8
0
62
151
10
-0.7167852265353294
20
-4.065091023820364
30
0
11
1.9722406245487876
21
-3.416020966469877
31
0
12
0.26047226650039496
22
-1.4772116295183122
32
0
13
0.26047226650039496
23
-1.4772116295183122
33
0
0
3DFACE
8
0
62
151
10
0
20
42.
30
0
11
0
21
44.8
31
0
12
-3.3
22
42.
32
0
13
-3.3
23
42.
33
0
0
3DFACE
8
0
62
151
10
0
20
44.8
30
0
11
0
21
42.
31
0
12
3.3
22
42.
32
0
13
3.3
23
42.
33
0
0
3DFACE
8
0
62
151
10
0
20
44.8
30
0
11
3.3
21
42.
31
0
12
3.625
22
44.8
32
0
13
3.625
23
44.8
33
0
0
3DFACE
8
0
62
151
10
-7.819342993729561
20
-25.26592653621115
30
0
11
-8.5
21
-21.756782961191714
31
0
12
-10.772552290974414
22
-25.023804604343592
32
0
13
-10.772552290974414
23
-25.023804604343592
33
0
0
3DFACE
8
0
62
151
10
-9.277817459305203
20
30.7778174593052
30
0
11
-9.944384523787612
21
33.48705270660983
31
0
12
-11.886301699552384
22
31.40265209024166
32
0
13
-11.886301699552384
23
31.40265209024166
33
0
0
3DFACE
8
0
62
151
10
3.625
20
44.8
30
0
11
6.6
21
42.
31
0
12
7.25
22
44.8
32
0
13
7.25
23
44.8
33
0
0
3DFACE
8
0
62
151
10
4.373967044895441
20
30.
30
0
11
3.
21
26.7
31
0
12
5.0407137887699225
22
27.776851743185947
32
0
13
5.0407137887699225
23
27.776851743185947
33
0
0
3DFACE
8
0
62
151
10
1.4999999999999998
20
-30.135638809653962
30
0
11
2.64649530644883
21
-32.427321142697345
31
0
12
5.012947293390173
22
-31.444384523787598
32
0
13
5.012947293390173
23
-31.444384523787598
33
0
0
3DFACE
8
0
62
151
10
-5.012947293390173
20
31.444384523787598
30
0
11
-7.7221825406947975
21
30.7778174593052
31
0
12
-7.4
22
30.
32
0
13
-7.4
23
30.
33
0
0
3DFACE
8
0
62
151
10
7.223021568806693
20
28.526288330009198
30
0
11
6.62898870145173
21
29.450621514159213
31
0
12
5.0407137887699225
22
27.776851743185947
32
0
13
5.0407137887699225
23
27.776851743185947
33
0
0
3DFACE
8
0
62
151
10
-8.408875303750817
20
-6.2042408250193635
30
0
11
-8.715933706809778
21
-8.993980406720059
31
0
12
-6.36004279814599
22
-7.476066175826471
32
0
13
-6.36004279814599
23
-7.476066175826471
33
0
0
3DFACE
8
0
62
151
10
5.0407137887699225
20
27.776851743185947
30
0
11
6.62898870145173
21
29.450621514159213
31
0
12
4.373967044895441
22
30.
32
0
13
4.373967044895441
23
30.
33
0
0
3DFACE
8
0
62
151
10
6.6499999999999995
20
39.75
30
0
11
10.521434647008789
21
38.71047632548908
31
0
12
9.64375
22
42.01635044642857
32
0
13
9.64375
23
42.01635044642857
33
0
0
3DFACE
8
0
62
151
10
-9.944384523787605
20
-18.487052706609834
30
0
11
-9.277817459305203
21
-15.777817459305203
31
0
12
-11.868118977845391
22
-16.395120560309767
32
0
13
-11.868118977845391
23
-16.395120560309767
33
0
0
3DFACE
8
0
62
151
10
6.7
20
37.5
30
0
11
9.01226103813708
21
36.837577630213296
31
0
12
6.6499999999999995
22
39.75
32
0
13
6.6499999999999995
23
39.75
33
0
0
3DFACE
8
0
62
151
10
-7.689940724646322
20
-28.22621760905869
30
0
11
-7.819342993729561
21
-25.26592653621115
31
0
12
-8.777513934632905
22
-28.06984818833218
32
0
13
-8.777513934632905
23
-28.06984818833218
33
0
0
3DFACE
8
0
62
151
10
7.223021568806694
20
31.473711669990802
30
0
11
8.222486065367095
21
31.93015181166782
31
0
12
6.4703875928898995
22
34.44423125282538
32
0
13
6.4703875928898995
23
34.44423125282538
33
0
0
3DFACE
8
0
62
151
10
9.64375
20
42.01635044642857
30
0
11
7.25
21
44.8
31
0
12
6.6
22
42.
32
0
13
6.6
23
42.
33
0
0
3DFACE
8
0
62
151
10
9.310059275353678
20
31.77378239094131
30
0
11
9.137739616025758
21
34.43557645807128
31
0
12
8.222486065367095
22
31.93015181166782
32
0
13
8.222486065367095
23
31.93015181166782
33
0
0
3DFACE
8
0
62
151
10
6.4703875928898995
20
34.44423125282538
30
0
11
5.024200026928035
21
32.23376100713609
31
0
12
7.223021568806694
22
31.473711669990802
32
0
13
7.223021568806694
23
31.473711669990802
33
0
0
3DFACE
8
0
62
151
10
6.785983966309024
20
26.246828410149746
30
0
11
7.223021568806693
21
28.526288330009198
31
0
12
5.0407137887699225
22
27.776851743185947
32
0
13
5.0407137887699225
23
27.776851743185947
33
0
0
3DFACE
8
0
62
151
10
4.373967044895441
20
30.
30
0
11
6.62898870145173
21
29.450621514159213
31
0
12
6.62898870145173
22
30.549378485840787
32
0
13
6.62898870145173
23
30.549378485840787
33
0
0
3DFACE
8
0
62
151
10
7.055615476212395
20
18.487052706609834
30
0
11
5.012947293390167
21
16.4443845237876
31
0
12
7.7221825406947975
22
15.777817459305203
32
0
13
7.7221825406947975
23
15.777817459305203
33
0
0
3DFACE
8
0
62
151
10
-6.55
20
-30.
30
0
11
-4.462857122755995
21
-31.185412104536265
31
0
12
-4.368801821913782
22
-28.786970767335173
32
0
13
-4.368801821913782
23
-28.786970767335173
33
0
0
3DFACE
8
0
62
151
10
7.055615476212401
20
11.512947293390166
30
0
11
7.7221825406947975
21
14.222182540694797
31
0
12
5.012947293390167
22
13.5556154762124
32
0
13
5.012947293390167
23
13.5556154762124
33
0
0
3DFACE
8
0
62
151
10
8.5
20
13.9
30
0
11
9.9443845237876
21
11.512947293390166
31
0
12
9.277817459305203
22
14.222182540694797
32
0
13
9.277817459305203
23
14.222182540694797
33
0
0
3DFACE
8
0
62
151
10
13.226096064088127
20
2.8000000000000003
30
0
11
14.5
21
5.6
31
0
12
10.912285361617888
22
4.268787039636055
32
0
13
10.912285361617888
23
4.268787039636055
33
0
0
3DFACE
8
0
62
151
10
11.867384428564229
20
13.605183699964725
30
0
11
9.9443845237876
21
11.512947293390166
31
0
12
11.924435536877096
22
9.52072417303305
32
0
13
11.924435536877096
23
9.52072417303305
33
0
0
3DFACE
8
0
62
151
10
9.277817459305203
20
15.777817459305203
30
0
11
9.944384523787605
21
18.487052706609834
31
0
12
8.5
22
16.1
32
0
13
8.5
23
16.1
33
0
0
3DFACE
8
0
62
151
10
-5.041033684845221
20
18.99185992513998
30
0
11
-7.833455223532099
21
19.63592074956182
31
0
12
-7.689940724646322
22
16.77378239094131
32
0
13
-7.689940724646322
23
16.77378239094131
33
0
0
3DFACE
8
0
62
151
10
9.277817459305203
20
14.222182540694797
30
0
11
9.9443845237876
21
11.512947293390166
31
0
12
11.867384428564229
22
13.605183699964725
32
0
13
11.867384428564229
23
13.605183699964725
33
0
0
3DFACE
8
0
62
151
10
1.5960199841394904
20
20.76438770242487
30
0
11
3.6954999324244904
21
19.345051976135277
31
0
12
3.1
22
21.85
32
0
13
3.1
23
21.85
33
0
0
3DFACE
8
0
62
151
10
11.924435536877096
20
9.52072417303305
30
0
11
14.5
21
11.2
31
0
12
11.867384428564229
22
13.605183699964725
32
0
13
11.867384428564229
23
13.605183699964725
33
0
0
3DFACE
8
0
62
151
10
6.6
20
1.2
30
0
11
7.448528137423857
21
0.8485281374238569
31
0
12
8.175692207768293
22
3.8040574981198176
32
0
13
8.175692207768293
23
3.8040574981198176
33
0
0
3DFACE
8
0
62
151
10
14.5
20
13.999999999999998
30
0
11
11.867384428564229
21
13.605183699964725
31
0
12
14.5
22
11.2
32
0
13
14.5
23
11.2
33
0
0
3DFACE
8
0
62
151
10
0.26047226650039496
20
-1.4772116295183122
30
0
11
-0.7500000000000007
21
-1.2990381056766576
31
0
12
-0.7167852265353294
22
-4.065091023820364
32
0
13
-0.7167852265353294
23
-4.065091023820364
33
0
0
3DFACE
8
0
62
151
10
4.724829369767699
20
-12.573845153797727
30
0
11
2.385465670953314
21
-13.868252258197485
31
0
12
3.9610942194959726
22
-16.558279608979554
32
0
13
3.9610942194959726
23
-16.558279608979554
33
0
0
3DFACE
8
0
62
151
10
14.5
20
13.999999999999998
30
0
11
11.868118977845391
21
16.395120560309767
31
0
12
11.867384428564229
22
13.605183699964725
32
0
13
11.867384428564229
23
13.605183699964725
33
0
0
3DFACE
8
0
62
151
10
11.868118977845391
20
16.395120560309767
30
0
11
9.6
21
15.
31
0
12
11.867384428564229
22
13.605183699964725
32
0
13
11.867384428564229
23
13.605183699964725
33
0
0
3DFACE
8
0
62
151
10
6.6000000000000005
20
7.5109311804515
30
0
11
8.502020018972289
21
6.131099675359257
31
0
12
8.863091573106724
22
9.018139498047182
32
0
13
8.863091573106724
23
9.018139498047182
33
0
0
3DFACE
8
0
62
151
10
14.5
20
16.799999999999997
30
0
11
11.868118977845391
21
16.395120560309767
31
0
12
14.5
22
13.999999999999998
32
0
13
14.5
23
13.999999999999998
33
0
0
3DFACE
8
0
62
151
10
12.921089716863538
20
31.298149068528517
30
0
11
12.402903303986594
21
28.854004190572855
31
0
12
14.5
22
27.999999999999996
32
0
13
14.5
23
27.999999999999996
33
0
0
3DFACE
8
0
62
151
10
11.867384428564229
20
13.605183699964725
30
0
11
9.6
21
15.
31
0
12
9.277817459305203
22
14.222182540694797
32
0
13
9.277817459305203
23
14.222182540694797
33
0
0
3DFACE
8
0
62
151
10
11.868118977845391
20
16.395120560309767
30
0
11
9.944384523787605
21
18.487052706609834
31
0
12
9.277817459305203
22
15.777817459305203
32
0
13
9.277817459305203
23
15.777817459305203
33
0
0
3DFACE
8
0
62
151
10
5.024307792231706
20
-3.8040574981198176
30
0
11
1.9722406245487876
21
-3.416020966469877
31
0
12
1.1940147853164842
22
-6.086621103182862
32
0
13
1.1940147853164842
23
-6.086621103182862
33
0
0
3DFACE
8
0
62
151
10
10.912285361617888
20
4.268787039636055
30
0
11
8.175692207768293
21
3.8040574981198176
31
0
12
10.404057498119816
22
1.5756922077682929
32
0
13
10.404057498119816
23
1.5756922077682929
33
0
0
3DFACE
8
0
62
151
10
10.404057498119816
20
1.5756922077682929
30
0
11
7.448528137423857
21
0.8485281374238569
31
0
12
7.8
22
0
32
0
13
7.8
23
0
33
0
0
3DFACE
8
0
62
151
10
9.277817459305203
20
15.777817459305203
30
0
11
9.6
21
15.
31
0
12
11.868118977845391
22
16.395120560309767
32
0
13
11.868118977845391
23
16.395120560309767
33
0
0
3DFACE
8
0
62
151
10
-7.689940724646322
20
16.77378239094131
30
0
11
-6.859555610979196
21
16.054249594038414
31
0
12
-5.041033684845221
22
18.99185992513998
32
0
13
-5.041033684845221
23
18.99185992513998
33
0
0
3DFACE
8
0
62
151
10
9.310059275353678
20
28.22621760905869
30
0
11
8.222486065367093
21
28.06984818833218
31
0
12
9.088000991060674
22
25.910363277218813
32
0
13
9.088000991060674
23
25.910363277218813
33
0
0
3DFACE
8
0
62
151
10
9.310059275353678
20
28.22621760905869
30
0
11
11.820256390736422
21
26.16821986114729
31
0
12
10.140444389020804
22
28.945750405961586
32
0
13
10.140444389020804
23
28.945750405961586
33
0
0
3DFACE
8
0
62
151
10
-10.772552290974415
20
-34.976195395656404
30
0
11
-12.207814234418315
21
-32.38286751904992
31
0
12
-14.5
22
-33.599999999999994
32
0
13
-14.5
23
-33.599999999999994
33
0
0
3DFACE
8
0
62
151
10
6.4703875928898995
20
34.44423125282538
30
0
11
9.137739616025758
21
34.43557645807128
31
0
12
9.01226103813708
22
36.837577630213296
32
0
13
9.01226103813708
23
36.837577630213296
33
0
0
3DFACE
8
0
62
151
10
-11.597265021099018
20
-21.171092557552164
30
0
11
-14.5
21
-19.599999999999998
31
0
12
-14.5
22
-22.4
32
0
13
-14.5
23
-22.4
33
0
0
3DFACE
8
0
62
151
10
10.45
20
30.
30
0
11
12.921089716863538
21
31.298149068528517
31
0
12
10.140444389020804
22
31.054249594038414
32
0
13
10.140444389020804
23
31.054249594038414
33
0
0
3DFACE
8
0
62
151
10
0
20
26.7
30
0
11
1.2528326220815624
21
29.588165228230597
31
0
12
-1.9900409670008656
22
29.84899063853248
32
0
13
-1.9900409670008656
23
29.84899063853248
33
0
0
3DFACE
8
0
62
151
10
-2.469930380722383
20
-20.07251767149771
30
0
11
-3.5105069330268366
21
-18.
31
0
12
-5.338825122976608
22
-20.475544072310868
32
0
13
-5.338825122976608
23
-20.475544072310868
33
0
0
3DFACE
8
0
62
151
10
11.307077883660728
20
33.239540570672084
30
0
11
10.140444389020804
21
31.054249594038414
31
0
12
12.921089716863538
22
31.298149068528517
32
0
13
12.921089716863538
23
31.298149068528517
33
0
0
3DFACE
8
0
62
151
10
10.140444389020804
20
28.945750405961586
30
0
11
12.402903303986594
21
28.854004190572855
31
0
12
10.45
22
30.
32
0
13
10.45
23
30.
33
0
0
3DFACE
8
0
62
151
10
-2.8247227593009936
20
-15.629776174492465
30
0
11
-1.4095389311788624
21
-17.486969785011496
31
0
12
-0.7499999999999997
22
-16.700961894323342
32
0
13
-0.7499999999999997
23
-16.700961894323342
33
0
0
3DFACE
8
0
62
151
10
11.820256390736422
20
26.16821986114729
30
0
11
14.5
21
27.999999999999996
31
0
12
12.402903303986594
22
28.854004190572855
32
0
13
12.402903303986594
23
28.854004190572855
33
0
0
3DFACE
8
0
62
151
10
14.5
20
27.999999999999996
30
0
11
14.5
21
33.599999999999994
31
0
12
12.921089716863538
22
31.298149068528517
32
0
13
12.921089716863538
23
31.298149068528517
33
0
0
3DFACE
8
0
62
151
10
12.402903303986594
20
28.854004190572855
30
0
11
12.921089716863538
21
31.298149068528517
31
0
12
10.45
22
30.
32
0
13
10.45
23
30.
33
0
0
3DFACE
8
0
62
151
10
9.310059275353678
20
31.77378239094131
30
0
11
11.307077883660728
21
33.239540570672084
31
0
12
9.137739616025758
22
34.43557645807128
32
0
13
9.137739616025758
23
34.43557645807128
33
0
0
3DFACE
8
0
62
151
10
12.6875
20
42.
30
0
11
9.64375
21
42.01635044642857
31
0
12
10.521434647008789
22
38.71047632548908
32
0
13
10.521434647008789
23
38.71047632548908
33
0
0
3DFACE
8
0
62
151
10
11.307077883660728
20
33.239540570672084
30
0
11
12.587936337959642
21
36.21535406504732
31
0
12
9.137739616025758
22
34.43557645807128
32
0
13
9.137739616025758
23
34.43557645807128
33
0
0
3DFACE
8
0
62
151
10
14.5
20
39.199999999999996
30
0
11
14.5
21
44.8
31
0
12
12.6875
22
42.
32
0
13
12.6875
23
42.
33
0
0
3DFACE
8
0
62
151
10
2.530942450441416
20
32.62102198472766
30
0
11
6.4703875928898995
21
34.44423125282538
31
0
12
1.6750000000000003
22
34.99455667564867
32
0
13
1.6750000000000003
23
34.99455667564867
33
0
0
3DFACE
8
0
62
151
10
8.222486065367093
20
28.06984818833218
30
0
11
6.785983966309024
21
26.246828410149746
31
0
12
9.088000991060674
22
25.910363277218813
32
0
13
9.088000991060674
23
25.910363277218813
33
0
0
3DFACE
8
0
62
151
10
6.7
20
37.5
30
0
11
3.35
21
37.5
31
0
12
6.4703875928898995
22
34.44423125282538
32
0
13
6.4703875928898995
23
34.44423125282538
33
0
0
3DFACE
8
0
62
151
10
14.5
20
25.199999999999996
30
0
11
14.5
21
27.999999999999996
31
0
12
11.820256390736422
22
26.16821986114729
32
0
13
11.820256390736422
23
26.16821986114729
33
0
0
3DFACE
8
0
62
151
10
7.223021568806693
20
28.526288330009198
30
0
11
6.785983966309024
21
26.246828410149746
31
0
12
8.222486065367093
22
28.06984818833218
32
0
13
8.222486065367093
23
28.06984818833218
33
0
0
3DFACE
8
0
62
151
10
9.361075807680306
20
23.610561041862823
30
0
11
9.088000991060674
21
25.910363277218813
31
0
12
6.785983966309024
22
26.246828410149746
32
0
13
6.785983966309024
23
26.246828410149746
33
0
0
3DFACE
8
0
62
151
10
9.137739616025758
20
34.43557645807128
30
0
11
6.4703875928898995
21
34.44423125282538
31
0
12
8.222486065367095
22
31.93015181166782
32
0
13
8.222486065367095
23
31.93015181166782
33
0
0
3DFACE
8
0
62
151
10
11.820256390736422
20
26.16821986114729
30
0
11
12.402903303986594
21
28.854004190572855
31
0
12
10.140444389020804
22
28.945750405961586
32
0
13
10.140444389020804
23
28.945750405961586
33
0
0
3DFACE
8
0
62
151
10
7.7221825406947975
20
15.777817459305203
30
0
11
8.5
21
16.1
31
0
12
7.055615476212395
22
18.487052706609834
32
0
13
7.055615476212395
23
18.487052706609834
33
0
0
3DFACE
8
0
62
151
10
-3.5105069330268366
20
-18.
30
0
11
-7.055615476212395
21
-18.487052706609834
31
0
12
-5.338825122976608
22
-20.475544072310868
32
0
13
-5.338825122976608
23
-20.475544072310868
33
0
0
3DFACE
8
0
62
151
10
4.633756695343884
20
24.307654777223586
30
0
11
6.785983966309024
21
26.246828410149746
31
0
12
5.0407137887699225
22
27.776851743185947
32
0
13
5.0407137887699225
23
27.776851743185947
33
0
0
3DFACE
8
0
62
151
10
-0.7167852265353294
20
-4.065091023820364
30
0
11
1.1940147853164842
21
-6.086621103182862
31
0
12
1.9722406245487876
22
-3.416020966469877
32
0
13
1.9722406245487876
23
-3.416020966469877
33
0
0
3DFACE
8
0
62
151
10
8.175692207768293
20
3.8040574981198176
30
0
11
7.448528137423857
21
0.8485281374238569
31
0
12
10.404057498119816
22
1.5756922077682929
32
0
13
10.404057498119816
23
1.5756922077682929
33
0
0
3DFACE
8
0
62
151
10
-9.054165156020431
20
-38.46648653383961
30
0
11
-7.819342993729564
21
-34.73407346378883
31
0
12
-10.772552290974415
22
-34.976195395656404
32
0
13
-10.772552290974415
23
-34.976195395656404
33
0
0
3DFACE
8
0
62
151
10
0
20
21.85
30
0
11
0.2604722665003956
21
19.47721162951831
31
0
12
1.5960199841394904
22
20.76438770242487
32
0
13
1.5960199841394904
23
20.76438770242487
33
0
0
3DFACE
8
0
62
151
10
0
20
-37.5
30
0
11
3.35
21
-37.5
31
0
12
2.3126788456585743
22
-34.9679560975458
32
0
13
2.3126788456585743
23
-34.9679560975458
33
0
0
3DFACE
8
0
62
151
10
-4.368801821913782
20
-28.786970767335173
30
0
11
-4.462857122755995
21
-31.185412104536265
31
0
12
-1.5805720870381985
22
-30.097376555289266
32
0
13
-1.5805720870381985
23
-30.097376555289266
33
0
0
3DFACE
8
0
62
151
10
-12.272578384145838
20
7.5054546833148255
30
0
11
-8.92529431657687
21
7.08615562037995
31
0
12
-10.77255229097441
22
10.023804604343598
32
0
13
-10.77255229097441
23
10.023804604343598
33
0
0
3DFACE
8
0
62
151
10
-5.723794779834105
20
11.796088382303664
30
0
11
-7.819342993729563
21
10.26592653621116
31
0
12
-6.756766419721261
22
8.114138293724096
32
0
13
-6.756766419721261
23
8.114138293724096
33
0
0
3DFACE
8
0
62
151
10
-9.776978431193307
20
16.473711669990802
30
0
11
-10.772552290974414
21
19.976195395656408
31
0
12
-11.940556623307799
22
17.211111481537962
32
0
13
-11.940556623307799
23
17.211111481537962
33
0
0
3DFACE
8
0
62
151
10
-14.5
20
19.599999999999998
30
0
11
-11.940556623307799
21
17.211111481537962
31
0
12
-10.772552290974414
22
19.976195395656408
32
0
13
-10.772552290974414
23
19.976195395656408
33
0
0
3DFACE
8
0
62
151
10
-5.652247130575093
20
23.115639116094332
30
0
11
-5.041033684845221
21
18.99185992513998
31
0
12
-3.1
22
21.85
32
0
13
-3.1
23
21.85
33
0
0
3DFACE
8
0
62
151
10
-9.944384523787612
20
26.512947293390166
30
0
11
-8.500000000000007
21
23.193814447235294
31
0
12
-7.055615476212401
22
26.512947293390166
32
0
13
-7.055615476212401
23
26.512947293390166
33
0
0
3DFACE
8
0
62
151
10
-6.859555610979196
20
13.945750405961585
30
0
11
-7.6899407246463225
21
13.22621760905869
31
0
12
-5.723794779834105
22
11.796088382303664
32
0
13
-5.723794779834105
23
11.796088382303664
33
0
0
3DFACE
8
0
62
151
10
-0.8284635332961265
20
13.30154982540142
30
0
11
-4.015258371599838
21
16.31683895608184
31
0
12
-4.2998657899781
22
13.766729322040813
32
0
13
-4.2998657899781
23
13.766729322040813
33
0
0
3DFACE
8
0
62
151
10
-2.4699303807223822
20
20.072517671497714
30
0
11
-3.2055121958500985
21
18.
31
0
12
-1.4095389311788624
22
18.513030214988504
32
0
13
-1.4095389311788624
23
18.513030214988504
33
0
0
3DFACE
8
0
62
151
10
-5.041033684845221
20
18.99185992513998
30
0
11
-4.015258371599838
21
16.31683895608184
31
0
12
-3.2055121958500985
22
18.
32
0
13
-3.2055121958500985
23
18.
33
0
0
3DFACE
8
0
62
151
10
3.1
20
-21.85
30
0
11
3.6015698180094797
21
-19.310864210386995
31
0
12
1.5960199841394898
22
-20.76438770242487
32
0
13
1.5960199841394898
23
-20.76438770242487
33
0
0
3DFACE
8
0
62
151
10
3.9610942194959726
20
-16.558279608979554
30
0
11
3.6015698180094797
21
-19.310864210386995
31
0
12
6.227447709025585
22
-19.9761953956564
32
0
13
6.227447709025585
23
-19.9761953956564
33
0
0
3DFACE
8
0
62
151
10
7.223021568806694
20
-13.526288330009196
30
0
11
6.227447709025592
21
-10.023804604343594
31
0
12
4.724829369767699
22
-12.573845153797727
32
0
13
4.724829369767699
23
-12.573845153797727
33
0
0
3DFACE
8
0
62
151
10
1.1464780416797826
20
-8.867894337704179
30
0
11
4.1233309235608795
21
-7.527731014311222
31
0
12
1.1940147853164842
22
-6.086621103182862
32
0
13
1.1940147853164842
23
-6.086621103182862
33
0
0
3DFACE
8
0
62
151
10
3.1
20
-21.85
30
0
11
5.606885539008937
21
-22.48726868800541
31
0
12
6.227447709025585
22
-19.9761953956564
32
0
13
6.227447709025585
23
-19.9761953956564
33
0
0
3DFACE
8
0
62
151
10
11.799278359617983
20
-21.050146341548476
30
0
11
14.5
21
-22.4
31
0
12
14.5
22
-19.599999999999998
32
0
13
14.5
23
-19.599999999999998
33
0
0
3DFACE
8
0
62
151
10
11.597470412104254
20
-11.425328586400955
30
0
11
14.5
21
-11.2
31
0
12
12.131944918352175
22
-9.033086799401628
32
0
13
12.131944918352175
23
-9.033086799401628
33
0
0
3DFACE
8
0
62
151
10
9.126823141068135
20
-10.640349292988235
30
0
11
10.762623250009224
21
-6.999999999999999
31
0
12
7.334613672972429
22
-6.9556050422456845
32
0
13
7.334613672972429
23
-6.9556050422456845
33
0
0
3DFACE
8
0
62
151
10
6.62898870145173
20
30.549378485840787
30
0
11
7.223021568806694
21
31.473711669990802
31
0
12
5.024200026928035
22
32.23376100713609
32
0
13
5.024200026928035
23
32.23376100713609
33
0
0
3DFACE
8
0
62
151
10
5.024200026928035
20
32.23376100713609
30
0
11
2.530942450441416
21
32.62102198472766
31
0
12
4.373967044895441
22
30.
32
0
13
4.373967044895441
23
30.
33
0
0
3DFACE
8
0
62
151
10
3.1
20
21.85
30
0
11
3.6954999324244904
21
19.345051976135277
31
0
12
5.795488041399896
22
20.560592730918476
32
0
13
5.795488041399896
23
20.560592730918476
33
0
0
3DFACE
8
0
62
151
10
10.949540397308983
20
21.92520042029958
30
0
11
7.3969112241276775
21
22.383484163286028
31
0
12
9.944384523787605
22
18.487052706609834
32
0
13
9.944384523787605
23
18.487052706609834
33
0
0
3DFACE
8
0
62
151
10
9.310059275353678
20
31.77378239094131
30
0
11
10.140444389020804
21
31.054249594038414
31
0
12
11.307077883660728
22
33.239540570672084
32
0
13
11.307077883660728
23
33.239540570672084
33
0
0
3DFACE
8
0
62
151
10
12.587936337959642
20
36.21535406504732
30
0
11
11.307077883660728
21
33.239540570672084
31
0
12
14.5
22
33.599999999999994
32
0
13
14.5
23
33.599999999999994
33
0
0
3DFACE
8
0
62
151
10
-1.9838873580520444
20
-7.176619813653321
30
0
11
-2.4747733827164926
21
-10.500200733751806
31
0
12
1.1464780416797826
22
-8.867894337704179
32
0
13
1.1464780416797826
23
-8.867894337704179
33
0
0
3DFACE
8
0
62
151
10
-2.4747733827164926
20
-10.500200733751806
30
0
11
-2.7457228671199068
21
-12.857074258035608
31
0
12
-0.1169870938397588
22
-11.540653319613929
32
0
13
-0.1169870938397588
23
-11.540653319613929
33
0
0
3DFACE
8
0
62
151
10
1.1841986787487568
20
6.04595405342653
30
0
11
-0.7167852265353267
21
4.065091023820362
31
0
12
1.972240624548789
22
3.416020966469877
32
0
13
1.972240624548789
23
3.416020966469877
33
0
0
3DFACE
8
0
62
151
10
-5.723794779834105
20
11.796088382303664
30
0
11
-4.383176218360677
21
7.760116864793855
31
0
12
-3.0466066177499713
22
10.444722560605053
32
0
13
-3.0466066177499713
23
10.444722560605053
33
0
0
3DFACE
8
0
62
151
10
2.437763780666964
20
-11.201616836843362
30
0
11
-0.1169870938397588
21
-11.540653319613929
31
0
12
2.385465670953314
22
-13.868252258197485
32
0
13
2.385465670953314
23
-13.868252258197485
33
0
0
3DFACE
8
0
62
151
10
-2.8247227593009936
20
-15.629776174492465
30
0
11
-0.6961601895823865
21
-14.051879373279787
31
0
12
-2.7457228671199068
22
-12.857074258035608
32
0
13
-2.7457228671199068
23
-12.857074258035608
33
0
0
3DFACE
8
0
62
151
10
-5.723794779834105
20
11.796088382303664
30
0
11
-6.756766419721261
21
8.114138293724096
31
0
12
-4.383176218360677
22
7.760116864793855
32
0
13
-4.383176218360677
23
7.760116864793855
33
0
0
3DFACE
8
0
62
151
10
-4.2998657899781
20
13.766729322040813
30
0
11
-5.723794779834105
21
11.796088382303664
31
0
12
-3.0466066177499713
22
10.444722560605053
32
0
13
-3.0466066177499713
23
10.444722560605053
33
0
0
3DFACE
8
0
62
151
10
3.35
20
37.5
30
0
11
1.6750000000000003
21
34.99455667564867
31
0
12
6.4703875928898995
22
34.44423125282538
32
0
13
6.4703875928898995
23
34.44423125282538
33
0
0
3DFACE
8
0
62
151
10
1.6750000000000003
20
34.99455667564867
30
0
11
3.35
21
37.5
31
0
12
0
22
37.5
32
0
13
0
23
37.5
33
0
0
3DFACE
8
0
62
151
10
9.361075807680306
20
23.610561041862823
30
0
11
6.785983966309024
21
26.246828410149746
31
0
12
7.3969112241276775
22
22.383484163286028
32
0
13
7.3969112241276775
23
22.383484163286028
33
0
0
3DFACE
8
0
62
151
10
9.088000991060674
20
25.910363277218813
30
0
11
9.361075807680306
21
23.610561041862823
31
0
12
11.820256390736422
22
26.16821986114729
32
0
13
11.820256390736422
23
26.16821986114729
33
0
0
3DFACE
8
0
62
151
10
12.921089716863538
20
31.298149068528517
30
0
11
14.5
21
33.599999999999994
31
0
12
11.307077883660728
22
33.239540570672084
32
0
13
11.307077883660728
23
33.239540570672084
33
0
0
3DFACE
8
0
62
151
10
10.521434647008789
20
38.71047632548908
30
0
11
9.01226103813708
21
36.837577630213296
31
0
12
12.587936337959642
22
36.21535406504732
32
0
13
12.587936337959642
23
36.21535406504732
33
0
0
3DFACE
8
0
62
151
10
-6.6499999999999995
20
39.75
30
0
11
-6.6
21
42.
31
0
12
-9.64375
22
42.01635044642857
32
0
13
-9.64375
23
42.01635044642857
33
0
0
3DFACE
8
0
62
151
10
-10.521434647008789
20
38.71047632548908
30
0
11
-14.5
21
39.199999999999996
31
0
12
-12.82511446511143
22
36.39999999999999
32
0
13
-12.82511446511143
23
36.39999999999999
33
0
0
3DFACE
8
0
62
151
10
6.6499999999999995
20
-39.75
30
0
11
6.6
21
-42.
31
0
12
9.64375
22
-42.01635044642857
32
0
13
9.64375
23
-42.01635044642857
33
0
0
3DFACE
8
0
62
151
10
10.521434647008789
20
-38.71047632548908
30
0
11
14.5
21
-39.199999999999996
31
0
12
12.82511446511143
22
-36.39999999999999
32
0
13
12.82511446511143
23
-36.39999999999999
33
0
0
3DFACE
8
0
62
151
10
9.01226103813708
20
36.837577630213296
30
0
11
6.7
21
37.5
31
0
12
6.4703875928898995
22
34.44423125282538
32
0
13
6.4703875928898995
23
34.44423125282538
33
0
0
3DFACE
8
0
62
151
10
10.521434647008789
20
38.71047632548908
30
0
11
14.5
21
39.199999999999996
31
0
12
12.6875
22
42.
32
0
13
12.6875
23
42.
33
0
0
3DFACE
8
0
62
151
10
-2.029416067008105
20
34.7493754414887
30
0
11
0
21
37.5
31
0
12
-3.35
22
37.5
32
0
13
-3.35
23
37.5
33
0
0
3DFACE
8
0
62
151
10
-5.012947293390173
20
31.444384523787598
30
0
11
-5.038004207575584
21
28.565994389899224
31
0
12
-1.9900409670008656
22
29.84899063853248
32
0
13
-1.9900409670008656
23
29.84899063853248
33
0
0
3DFACE
8
0
62
151
10
7.3969112241276775
20
22.383484163286028
30
0
11
6.785983966309024
21
26.246828410149746
31
0
12
4.633756695343884
22
24.307654777223586
32
0
13
4.633756695343884
23
24.307654777223586
33
0
0
3DFACE
8
0
62
151
10
9.944384523787605
20
18.487052706609834
30
0
11
7.3969112241276775
21
22.383484163286028
31
0
12
7.055615476212395
22
18.487052706609834
32
0
13
7.055615476212395
23
18.487052706609834
33
0
0
3DFACE
8
0
62
151
10
-14.5
20
-8.399999999999999
30
0
11
-11.924435536877096
21
-9.52072417303305
31
0
12
-10.68528073653574
22
-6.999999999999999
32
0
13
-10.68528073653574
23
-6.999999999999999
33
0
0
3DFACE
8
0
62
151
10
-8.715933706809778
20
-8.993980406720059
30
0
11
-7.055615476212401
21
-11.512947293390166
31
0
12
-6.36004279814599
22
-7.476066175826471
32
0
13
-6.36004279814599
23
-7.476066175826471
33
0
0
3DFACE
8
0
62
151
10
14.5
20
8.399999999999999
30
0
11
11.924435536877096
21
9.52072417303305
31
0
12
10.68528073653574
22
6.999999999999999
32
0
13
10.68528073653574
23
6.999999999999999
33
0
0
3DFACE
8
0
62
151
10
8.863091573106724
20
9.018139498047182
30
0
11
7.055615476212401
21
11.512947293390166
31
0
12
6.6000000000000005
22
7.5109311804515
32
0
13
6.6000000000000005
23
7.5109311804515
33
0
0
3DFACE
8
0
62
151
10
11.846296935140424
20
-4.204360249785974
30
0
11
10.762623250009224
21
-6.999999999999999
31
0
12
14.5
22
-5.6
32
0
13
14.5
23
-5.6
33
0
0
3DFACE
8
0
62
151
10
8.175692207768291
20
-3.8040574981198176
30
0
11
5.024307792231706
21
-3.8040574981198176
31
0
12
7.334613672972429
22
-6.9556050422456845
32
0
13
7.334613672972429
23
-6.9556050422456845
33
0
0
3DFACE
8
0
62
151
10
2.437763780666964
20
-11.201616836843362
30
0
11
6.227447709025592
21
-10.023804604343594
31
0
12
4.1233309235608795
22
-7.527731014311222
32
0
13
4.1233309235608795
23
-7.527731014311222
33
0
0
3DFACE
8
0
62
151
10
-6.36004279814599
20
-7.476066175826471
30
0
11
-4.087276465131844
21
-8.563995480015382
31
0
12
-3.043356372501972
22
-4.9314099733525225
32
0
13
-3.043356372501972
23
-4.9314099733525225
33
0
0
3DFACE
8
0
62
151
10
3.8845635423319105
20
6.806301331472094
30
0
11
5.024307792231707
21
3.8040574981198176
31
0
12
6.6000000000000005
22
7.5109311804515
32
0
13
6.6000000000000005
23
7.5109311804515
33
0
0
3DFACE
8
0
62
151
10
2.154932719843789
20
14.267547042337972
30
0
11
-0.8284635332961265
21
13.30154982540142
31
0
12
1.3944422164727934
22
11.526278901544108
32
0
13
1.3944422164727934
23
11.526278901544108
33
0
0
3DFACE
8
0
62
151
10
-3.0929259378330367
20
5.373866319073639
30
0
11
-4.383176218360677
21
7.760116864793855
31
0
12
-6.499601412192956
22
5.640873407333137
32
0
13
-6.499601412192956
23
5.640873407333137
33
0
0
3DFACE
8
0
62
151
10
-0.7167852265353267
20
4.065091023820362
30
0
11
1.1841986787487568
21
6.04595405342653
31
0
12
-1.2478390787787879
22
8.045147310690572
32
0
13
-1.2478390787787879
23
8.045147310690572
33
0
0
3DFACE
8
0
62
151
10
1.2528326220815624
20
29.588165228230597
30
0
11
3.
21
26.7
31
0
12
4.373967044895441
22
30.
32
0
13
4.373967044895441
23
30.
33
0
0
3DFACE
8
0
62
151
10
0.011657093469138112
20
32.48135918503435
30
0
11
-2.029416067008105
21
34.7493754414887
31
0
12
-2.631998389162628
22
32.294183037065324
32
0
13
-2.631998389162628
23
32.294183037065324
33
0
0
3DFACE
8
0
62
151
10
6.227447709025592
20
-10.023804604343594
30
0
11
2.437763780666964
21
-11.201616836843362
31
0
12
4.724829369767699
22
-12.573845153797727
32
0
13
4.724829369767699
23
-12.573845153797727
33
0
0
3DFACE
8
0
62
151
10
1.1464780416797826
20
-8.867894337704179
30
0
11
-2.4747733827164926
21
-10.500200733751806
31
0
12
-0.1169870938397588
22
-11.540653319613929
32
0
13
-0.1169870938397588
23
-11.540653319613929
33
0
0
3DFACE
8
0
62
151
10
1.1940147853164842
20
-6.086621103182862
30
0
11
-0.7167852265353294
21
-4.065091023820364
31
0
12
-1.9838873580520444
22
-7.176619813653321
32
0
13
-1.9838873580520444
23
-7.176619813653321
33
0
0
3DFACE
8
0
62
151
10
2.437763780666964
20
-11.201616836843362
30
0
11
4.1233309235608795
21
-7.527731014311222
31
0
12
1.1464780416797826
22
-8.867894337704179
32
0
13
1.1464780416797826
23
-8.867894337704179
33
0
0
3DFACE
8
0
62
151
10
3.8845635423319105
20
6.806301331472094
30
0
11
1.972240624548789
21
3.416020966469877
31
0
12
5.024307792231707
22
3.8040574981198176
32
0
13
5.024307792231707
23
3.8040574981198176
33
0
0
3DFACE
8
0
62
151
10
-1.2478390787787879
20
8.045147310690572
30
0
11
1.1841986787487568
21
6.04595405342653
31
0
12
1.8283903708189748
22
8.714769373765755
32
0
13
1.8283903708189748
23
8.714769373765755
33
0
0
3DFACE
8
0
62
151
10
4.1233309235608795
20
-7.527731014311222
30
0
11
6.227447709025592
21
-10.023804604343594
31
0
12
7.334613672972429
22
-6.9556050422456845
32
0
13
7.334613672972429
23
-6.9556050422456845
33
0
0
3DFACE
8
0
62
151
10
5.024307792231706
20
-3.8040574981198176
30
0
11
1.1940147853164842
21
-6.086621103182862
31
0
12
4.1233309235608795
22
-7.527731014311222
32
0
13
4.1233309235608795
23
-7.527731014311222
33
0
0
3DFACE
8
0
62
151
10
-1.2478390787787879
20
8.045147310690572
30
0
11
1.8283903708189748
21
8.714769373765755
31
0
12
1.3944422164727934
22
11.526278901544108
32
0
13
1.3944422164727934
23
11.526278901544108
33
0
0
3DFACE
8
0
62
151
10
-1.2478390787787879
20
8.045147310690572
30
0
11
-4.383176218360677
21
7.760116864793855
31
0
12
-3.0929259378330367
22
5.373866319073639
32
0
13
-3.0929259378330367
23
5.373866319073639
33
0
0
3DFACE
8
0
62
151
10
-14.5
20
33.599999999999994
30
0
11
-11.886301699552384
21
31.40265209024166
31
0
12
-9.944384523787612
22
33.48705270660983
32
0
13
-9.944384523787612
23
33.48705270660983
33
0
0
3DFACE
8
0
62
151
10
-7.055615476212388
20
33.48705270660983
30
0
11
-5.012947293390173
21
31.444384523787598
31
0
12
-5.025
22
35.32933603184171
32
0
13
-5.025
23
35.32933603184171
33
0
0
3DFACE
8
0
62
151
10
-5.012947293390173
20
31.444384523787598
30
0
11
-1.9900409670008656
21
29.84899063853248
31
0
12
-2.631998389162628
22
32.294183037065324
32
0
13
-2.631998389162628
23
32.294183037065324
33
0
0
3DFACE
8
0
62
151
10
-2.029416067008105
20
34.7493754414887
30
0
11
0.011657093469138112
21
32.48135918503435
31
0
12
1.6750000000000003
22
34.99455667564867
32
0
13
1.6750000000000003
23
34.99455667564867
33
0
0
3DFACE
8
0
62
151
10
-3.35
20
37.5
30
0
11
-5.025
21
35.32933603184171
31
0
12
-2.029416067008105
22
34.7493754414887
32
0
13
-2.029416067008105
23
34.7493754414887
33
0
0
3DFACE
8
0
62
151
10
7.055615476212388
20
-33.48705270660983
30
0
11
5.012947293390173
21
-31.444384523787598
31
0
12
5.025
22
-35.32933603184171
32
0
13
5.025
23
-35.32933603184171
33
0
0
3DFACE
8
0
62
151
10
-0.0841479243187774
20
-33.64791710724299
30
0
11
2.3126788456585743
21
-34.9679560975458
31
0
12
2.64649530644883
22
-32.427321142697345
32
0
13
2.64649530644883
23
-32.427321142697345
33
0
0
3DFACE
8
0
62
151
10
14.5
20
-33.599999999999994
30
0
11
11.886301699552384
21
-31.402652090241656
31
0
12
9.9443845237876
22
-33.48705270660984
32
0
13
9.9443845237876
23
-33.48705270660984
33
0
0
3DFACE
8
0
62
151
10
-8.92529431657687
20
7.08615562037995
30
0
11
-11.32992443798668
21
4.729924437986678
31
0
12
-8.175692207768293
22
3.8040574981198176
32
0
13
-8.175692207768293
23
3.8040574981198176
33
0
0
3DFACE
8
0
62
151
10
-12.272578384145838
20
7.5054546833148255
30
0
11
-11.32992443798668
21
4.729924437986678
31
0
12
-8.92529431657687
22
7.08615562037995
32
0
13
-8.92529431657687
23
7.08615562037995
33
0
0
3DFACE
8
0
62
151
10
-8.408875303750817
20
-6.2042408250193635
30
0
11
-8.175692207768293
21
-3.8040574981198176
31
0
12
-11.829729961209907
22
-4.2212221242133054
32
0
13
-11.829729961209907
23
-4.2212221242133054
33
0
0
3DFACE
8
0
62
151
10
-7.055615476212401
20
-11.512947293390166
30
0
11
-5.012947293390167
21
-13.5556154762124
31
0
12
-2.4747733827164926
22
-10.500200733751806
32
0
13
-2.4747733827164926
23
-10.500200733751806
33
0
0
3DFACE
8
0
62
151
10
0
20
-26.7
30
0
11
-3.
21
-26.7
31
0
12
-1.5805720870381985
22
-30.097376555289266
32
0
13
-1.5805720870381985
23
-30.097376555289266
33
0
0
3DFACE
8
0
62
151
10
-2.5922091444637223
20
-32.98337355109748
30
0
11
-3.35
21
-37.5
31
0
12
-0.0841479243187774
22
-33.64791710724299
32
0
13
-0.0841479243187774
23
-33.64791710724299
33
0
0
3DFACE
8
0
62
151
10
-2.5922091444637223
20
-32.98337355109748
30
0
11
-4.462857122755995
21
-31.185412104536265
31
0
12
-4.917545792477696
22
-34.134372549973065
32
0
13
-4.917545792477696
23
-34.134372549973065
33
0
0
3DFACE
8
0
62
151
10
0
20
-26.7
30
0
11
-1.5805720870381985
21
-30.097376555289266
31
0
12
1.4999999999999998
22
-30.135638809653962
32
0
13
1.4999999999999998
23
-30.135638809653962
33
0
0
3DFACE
8
0
62
151
10
6.6000000000000005
20
7.5109311804515
30
0
11
7.055615476212401
21
11.512947293390166
31
0
12
4.153257810205318
22
10.653257810205318
32
0
13
4.153257810205318
23
10.653257810205318
33
0
0
3DFACE
8
0
62
151
10
8.175692207768293
20
3.8040574981198176
30
0
11
8.502020018972289
21
6.131099675359257
31
0
12
5.024307792231707
22
3.8040574981198176
32
0
13
5.024307792231707
23
3.8040574981198176
33
0
0
3DFACE
8
0
62
151
10
3.8845635423319105
20
6.806301331472094
30
0
11
1.1841986787487568
21
6.04595405342653
31
0
12
1.972240624548789
22
3.416020966469877
32
0
13
1.972240624548789
23
3.416020966469877
33
0
0
3DFACE
8
0
62
151
10
4.153257810205318
20
10.653257810205318
30
0
11
3.8845635423319105
21
6.806301331472094
31
0
12
6.6000000000000005
22
7.5109311804515
32
0
13
6.6000000000000005
23
7.5109311804515
33
0
0
3DFACE
8
0
62
151
10
14.5
20
-16.799999999999997
30
0
11
11.181600237248924
21
-18.09473164726117
31
0
12
14.5
22
-19.599999999999998
32
0
13
14.5
23
-19.599999999999998
33
0
0
3DFACE
8
0
62
151
10
8.130211041649149
20
-23.055964471469462
30
0
11
11.799278359617983
21
-21.050146341548476
31
0
12
9.159244573388515
22
-19.585146721879724
32
0
13
9.159244573388515
23
-19.585146721879724
33
0
0
3DFACE
8
0
62
151
10
11.799278359617983
20
-21.050146341548476
30
0
11
8.130211041649149
21
-23.055964471469462
31
0
12
10.918309845934132
22
-23.797328557691593
32
0
13
10.918309845934132
23
-23.797328557691593
33
0
0
3DFACE
8
0
62
151
10
-8.5
20
-21.756782961191714
30
0
11
-9.944384523787605
21
-18.487052706609834
31
0
12
-11.597265021099018
22
-21.171092557552164
32
0
13
-11.597265021099018
23
-21.171092557552164
33
0
0
3DFACE
8
0
62
151
10
10.949540397308983
20
21.92520042029958
30
0
11
14.5
21
25.199999999999996
31
0
12
11.820256390736422
22
26.16821986114729
32
0
13
11.820256390736422
23
26.16821986114729
33
0
0
3DFACE
8
0
62
151
10
-5.821655111157889
20
-23.05785742102436
30
0
11
-8.5
21
-21.756782961191714
31
0
12
-7.819342993729561
22
-25.26592653621115
32
0
13
-7.819342993729561
23
-25.26592653621115
33
0
0
3DFACE
8
0
62
151
10
-8.500000000000007
20
23.193814447235294
30
0
11
-9.944384523787612
21
26.512947293390166
31
0
12
-11.633261654245667
22
23.804157631138857
32
0
13
-11.633261654245667
23
23.804157631138857
33
0
0
3DFACE
8
0
62
151
10
-7.833455223532099
20
19.63592074956182
30
0
11
-5.041033684845221
21
18.99185992513998
31
0
12
-5.652247130575093
22
23.115639116094332
32
0
13
-5.652247130575093
23
23.115639116094332
33
0
0
3DFACE
8
0
62
151
10
-7.055615476212401
20
26.512947293390166
30
0
11
-5.652247130575093
21
23.115639116094332
31
0
12
-3.05
22
24.275
32
0
13
-3.05
23
24.275
33
0
0
3DFACE
8
0
62
151
10
-7.833455223532099
20
19.63592074956182
30
0
11
-5.652247130575093
21
23.115639116094332
31
0
12
-8.500000000000007
22
23.193814447235294
32
0
13
-8.500000000000007
23
23.193814447235294
33
0
0
3DFACE
8
0
62
151
10
7.055615476212388
20
-26.512947293390166
30
0
11
9.944384523787612
21
-26.512947293390166
31
0
12
8.130211041649149
22
-23.055964471469462
32
0
13
8.130211041649149
23
-23.055964471469462
33
0
0
3DFACE
8
0
62
151
10
8.130211041649149
20
-23.055964471469462
30
0
11
9.944384523787612
21
-26.512947293390166
31
0
12
10.918309845934132
22
-23.797328557691593
32
0
13
10.918309845934132
23
-23.797328557691593
33
0
0
3DFACE
8
0
62
151
10
14.5
20
33.599999999999994
30
0
11
14.5
21
39.199999999999996
31
0
12
12.587936337959642
22
36.21535406504732
32
0
13
12.587936337959642
23
36.21535406504732
33
0
0
3DFACE
8
0
62
151
10
14.5
20
39.199999999999996
30
0
11
10.521434647008789
21
38.71047632548908
31
0
12
12.587936337959642
22
36.21535406504732
32
0
13
12.587936337959642
23
36.21535406504732
33
0
0
3DFACE
8
0
62
151
10
-2.029416067008105
20
34.7493754414887
30
0
11
1.6750000000000003
21
34.99455667564867
31
0
12
0
22
37.5
32
0
13
0
23
37.5
33
0
0
3DFACE
8
0
62
151
10
2.530942450441416
20
32.62102198472766
30
0
11
1.6750000000000003
21
34.99455667564867
31
0
12
0.011657093469138112
22
32.48135918503435
32
0
13
0.011657093469138112
23
32.48135918503435
33
0
0
3DFACE
8
0
62
151
10
2.154932719843789
20
14.267547042337972
30
0
11
4.153257810205318
21
10.653257810205318
31
0
12
5.012947293390167
22
13.5556154762124
32
0
13
5.012947293390167
23
13.5556154762124
33
0
0
3DFACE
8
0
62
151
10
4.153257810205318
20
10.653257810205318
30
0
11
1.8283903708189748
21
8.714769373765755
31
0
12
3.8845635423319105
22
6.806301331472094
32
0
13
3.8845635423319105
23
6.806301331472094
33
0
0
3DFACE
8
0
62
151
10
1.3944422164727934
20
11.526278901544108
30
0
11
-0.8284635332961265
21
13.30154982540142
31
0
12
-3.0466066177499713
22
10.444722560605053
32
0
13
-3.0466066177499713
23
10.444722560605053
33
0
0
3DFACE
8
0
62
151
10
4.153257810205318
20
10.653257810205318
30
0
11
1.3944422164727934
21
11.526278901544108
31
0
12
1.8283903708189748
22
8.714769373765755
32
0
13
1.8283903708189748
23
8.714769373765755
33
0
0
3DFACE
8
0
62
151
10
9.126823141068135
20
-10.640349292988235
30
0
11
7.334613672972429
21
-6.9556050422456845
31
0
12
6.227447709025592
22
-10.023804604343594
32
0
13
6.227447709025592
23
-10.023804604343594
33
0
0
3DFACE
8
0
62
151
10
-1.9900409670008656
20
29.84899063853248
30
0
11
-3.
21
26.7
31
0
12
0
22
26.7
32
0
13
0
23
26.7
33
0
0
3DFACE
8
0
62
151
10
10.762623250009224
20
-6.999999999999999
30
0
11
8.175692207768291
21
-3.8040574981198176
31
0
12
7.334613672972429
22
-6.9556050422456845
32
0
13
7.334613672972429
23
-6.9556050422456845
33
0
0
3DFACE
8
0
62
151
10
1.3944422164727934
20
11.526278901544108
30
0
11
-3.0466066177499713
21
10.444722560605053
31
0
12
-1.2478390787787879
22
8.045147310690572
32
0
13
-1.2478390787787879
23
8.045147310690572
33
0
0
3DFACE
8
0
62
151
10
-4.2998657899781
20
13.766729322040813
30
0
11
-3.0466066177499713
21
10.444722560605053
31
0
12
-0.8284635332961265
22
13.30154982540142
32
0
13
-0.8284635332961265
23
13.30154982540142
33
0
0
3DFACE
8
0
62
151
10
-14.5
20
5.6
30
0
11
-14.5
21
0
31
0
12
-13.564062151022739
22
2.8
32
0
13
-13.564062151022739
23
2.8
33
0
0
3DFACE
8
0
62
151
10
-10.404057498119816
20
1.575692207768293
30
0
11
-13.564062151022739
21
2.8
31
0
12
-14.5
22
0
32
0
13
-14.5
23
0
33
0
0
3DFACE
8
0
62
151
10
-8.175692207768293
20
3.8040574981198176
30
0
11
-5.120542508100092
21
3.5717263418992395
31
0
12
-6.499601412192956
22
5.640873407333137
32
0
13
-6.499601412192956
23
5.640873407333137
33
0
0
3DFACE
8
0
62
151
10
-10.77255229097441
20
10.023804604343598
30
0
11
-8.92529431657687
21
7.08615562037995
31
0
12
-7.819342993729563
22
10.26592653621116
32
0
13
-7.819342993729563
23
10.26592653621116
33
0
0
3DFACE
8
0
62
151
10
-14.5
20
11.2
30
0
11
-12.272578384145838
21
7.5054546833148255
31
0
12
-10.77255229097441
22
10.023804604343598
32
0
13
-10.77255229097441
23
10.023804604343598
33
0
0
3DFACE
8
0
62
151
10
-14.5
20
5.6
30
0
11
-11.32992443798668
21
4.729924437986678
31
0
12
-12.272578384145838
22
7.5054546833148255
32
0
13
-12.272578384145838
23
7.5054546833148255
33
0
0
3DFACE
8
0
62
151
10
1.4999999999999998
20
-30.135638809653962
30
0
11
-1.5805720870381985
21
-30.097376555289266
31
0
12
-0.0841479243187774
22
-33.64791710724299
32
0
13
-0.0841479243187774
23
-33.64791710724299
33
0
0
3DFACE
8
0
62
151
10
-1.5805720870381985
20
-30.097376555289266
30
0
11
-4.462857122755995
21
-31.185412104536265
31
0
12
-2.5922091444637223
22
-32.98337355109748
32
0
13
-2.5922091444637223
23
-32.98337355109748
33
0
0
3DFACE
8
0
62
151
10
2.64649530644883
20
-32.427321142697345
30
0
11
5.025
21
-35.32933603184171
31
0
12
5.012947293390173
22
-31.444384523787598
32
0
13
5.012947293390173
23
-31.444384523787598
33
0
0
3DFACE
8
0
62
151
10
0
20
-37.5
30
0
11
2.3126788456585743
21
-34.9679560975458
31
0
12
-0.0841479243187774
22
-33.64791710724299
32
0
13
-0.0841479243187774
23
-33.64791710724299
33
0
0
3DFACE
8
0
62
151
10
2.530942450441416
20
32.62102198472766
30
0
11
0.011657093469138112
21
32.48135918503435
31
0
12
1.2528326220815624
22
29.588165228230597
32
0
13
1.2528326220815624
23
29.588165228230597
33
0
0
3DFACE
8
0
62
151
10
6.4703875928898995
20
34.44423125282538
30
0
11
2.530942450441416
21
32.62102198472766
31
0
12
5.024200026928035
22
32.23376100713609
32
0
13
5.024200026928035
23
32.23376100713609
33
0
0
3DFACE
8
0
62
151
10
-3.35
20
-37.5
30
0
11
-2.5922091444637223
21
-32.98337355109748
31
0
12
-4.917545792477696
22
-34.134372549973065
32
0
13
-4.917545792477696
23
-34.134372549973065
33
0
0
3DFACE
8
0
62
151
10
-1.5805720870381985
20
-30.097376555289266
30
0
11
-2.5922091444637223
21
-32.98337355109748
31
0
12
-0.0841479243187774
22
-33.64791710724299
32
0
13
-0.0841479243187774
23
-33.64791710724299
33
0
0
3DFACE
8
0
62
151
10
-14.5
20
-44.8
30
0
11
-10.875
21
-44.8
31
0
12
-12.6875
22
-42.
32
0
13
-12.6875
23
-42.
33
0
0
3DFACE
8
0
62
151
10
-7.25
20
-44.8
30
0
11
-9.0625
21
-43.25302304964539
31
0
12
-10.875
22
-44.8
32
0
13
-10.875
23
-44.8
33
0
0
3DFACE
8
0
62
151
10
-6.6499999999999995
20
-39.75
30
0
11
-6.7
21
-37.5
31
0
12
-9.054165156020431
22
-38.46648653383961
32
0
13
-9.054165156020431
23
-38.46648653383961
33
0
0
3DFACE
8
0
62
151
10
-9.0625
20
-43.25302304964539
30
0
11
-12.6875
21
-42.
31
0
12
-10.875
22
-44.8
32
0
13
-10.875
23
-44.8
33
0
0
3DFACE
8
0
62
151
10
-10.521434647008789
20
38.71047632548908
30
0
11
-12.6875
21
42.
31
0
12
-14.5
22
39.199999999999996
32
0
13
-14.5
23
39.199999999999996
33
0
0
3DFACE
8
0
62
151
10
-10.875
20
44.8
30
0
11
-14.5
21
44.8
31
0
12
-12.6875
22
42.
32
0
13
-12.6875
23
42.
33
0
0
3DFACE
8
0
62
151
10
-10.875
20
44.8
30
0
11
-12.6875
21
42.
31
0
12
-9.64375
22
42.01635044642857
32
0
13
-9.64375
23
42.01635044642857
33
0
0
3DFACE
8
0
62
151
10
-10.521434647008789
20
38.71047632548908
30
0
11
-9.64375
21
42.01635044642857
31
0
12
-12.6875
22
42.
32
0
13
-12.6875
23
42.
33
0
0
3DFACE
8
0
62
151
10
14.5
20
-44.8
30
0
11
14.5
21
-39.199999999999996
31
0
12
12.6875
22
-42.
32
0
13
12.6875
23
-42.
33
0
0
3DFACE
8
0
62
151
10
10.521434647008789
20
-38.71047632548908
30
0
11
12.6875
21
-42.
31
0
12
14.5
22
-39.199999999999996
32
0
13
14.5
23
-39.199999999999996
33
0
0
3DFACE
8
0
62
151
10
10.875
20
-44.8
30
0
11
12.6875
21
-42.
31
0
12
9.64375
22
-42.01635044642857
32
0
13
9.64375
23
-42.01635044642857
33
0
0
3DFACE
8
0
62
151
10
10.521434647008789
20
-38.71047632548908
30
0
11
9.64375
21
-42.01635044642857
31
0
12
12.6875
22
-42.
32
0
13
12.6875
23
-42.
33
0
0
3DFACE
8
0
62
151
10
14.5
20
44.8
30
0
11
10.875
21
44.8
31
0
12
12.6875
22
42.
32
0
13
12.6875
23
42.
33
0
0
3DFACE
8
0
62
151
10
12.6875
20
42.
30
0
11
10.875
21
44.8
31
0
12
9.64375
22
42.01635044642857
32
0
13
9.64375
23
42.01635044642857
33
0
0
3DFACE
8
0
62
151
10
7.25
20
44.8
30
0
11
9.64375
21
42.01635044642857
31
0
12
10.875
22
44.8
32
0
13
10.875
23
44.8
33
0
0
3DFACE
8
0
62
151
10
9.64375
20
42.01635044642857
30
0
11
6.6
21
42.
31
0
12
6.6499999999999995
22
39.75
32
0
13
6.6499999999999995
23
39.75
33
0
0
3DFACE
8
0
62
151
10
-14.5
20
-33.599999999999994
30
0
11
-14.5
21
-39.199999999999996
31
0
12
-13.416002771104921
22
-36.39999999999999
32
0
13
-13.416002771104921
23
-36.39999999999999
33
0
0
3DFACE
8
0
62
151
10
-11.586532227032272
20
-38.71809499865929
30
0
11
-13.416002771104921
21
-36.39999999999999
31
0
12
-14.5
22
-39.199999999999996
32
0
13
-14.5
23
-39.199999999999996
33
0
0
3DFACE
8
0
62
151
10
-12.6875
20
-42.
30
0
11
-11.586532227032272
21
-38.71809499865929
31
0
12
-14.5
22
-39.199999999999996
32
0
13
-14.5
23
-39.199999999999996
33
0
0
3DFACE
8
0
62
151
10
-11.586532227032272
20
-38.71809499865929
30
0
11
-9.643749999999999
21
-40.942083333333336
31
0
12
-9.054165156020431
22
-38.46648653383961
32
0
13
-9.054165156020431
23
-38.46648653383961
33
0
0
3DFACE
8
0
62
151
10
-6.6499999999999995
20
-39.75
30
0
11
-9.054165156020431
21
-38.46648653383961
31
0
12
-9.643749999999999
22
-40.942083333333336
32
0
13
-9.643749999999999
23
-40.942083333333336
33
0
0
3DFACE
8
0
62
151
10
-9.054165156020431
20
-38.46648653383961
30
0
11
-6.7
21
-37.5
31
0
12
-7.819342993729564
22
-34.73407346378883
32
0
13
-7.819342993729564
23
-34.73407346378883
33
0
0
3DFACE
8
0
62
151
10
3.
20
26.7
30
0
11
3.1
21
21.85
31
0
12
4.633756695343884
22
24.307654777223586
32
0
13
4.633756695343884
23
24.307654777223586
33
0
0
3DFACE
8
0
62
151
10
4.633756695343884
20
24.307654777223586
30
0
11
3.1
21
21.85
31
0
12
5.795488041399896
22
20.560592730918476
32
0
13
5.795488041399896
23
20.560592730918476
33
0
0
3DFACE
8
0
62
151
10
12.587936337959642
20
36.21535406504732
30
0
11
9.01226103813708
21
36.837577630213296
31
0
12
9.137739616025758
22
34.43557645807128
32
0
13
9.137739616025758
23
34.43557645807128
33
0
0
3DFACE
8
0
62
151
10
6.6499999999999995
20
39.75
30
0
11
9.01226103813708
21
36.837577630213296
31
0
12
10.521434647008789
22
38.71047632548908
32
0
13
10.521434647008789
23
38.71047632548908
33
0
0
3DFACE
8
0
62
151
10
7.055615476212395
20
18.487052706609834
30
0
11
7.3969112241276775
21
22.383484163286028
31
0
12
5.795488041399896
22
20.560592730918476
32
0
13
5.795488041399896
23
20.560592730918476
33
0
0
3DFACE
8
0
62
151
10
5.795488041399896
20
20.560592730918476
30
0
11
7.3969112241276775
21
22.383484163286028
31
0
12
4.633756695343884
22
24.307654777223586
32
0
13
4.633756695343884
23
24.307654777223586
33
0
0
3DFACE
8
0
62
151
10
14.5
20
-8.399999999999999
30
0
11
10.762623250009224
21
-6.999999999999999
31
0
12
12.131944918352175
22
-9.033086799401628
32
0
13
12.131944918352175
23
-9.033086799401628
33
0
0
3DFACE
8
0
62
151
10
9.126823141068135
20
-10.640349292988235
30
0
11
12.131944918352175
21
-9.033086799401628
31
0
12
10.762623250009224
22
-6.999999999999999
32
0
13
10.762623250009224
23
-6.999999999999999
33
0
0
3DFACE
8
0
62
151
10
10.404057498119817
20
-1.575692207768293
30
0
11
14.5
21
-2.8
31
0
12
14.5
22
0
32
0
13
14.5
23
0
33
0
0
3DFACE
8
0
62
151
10
8.175692207768291
20
-3.8040574981198176
30
0
11
11.846296935140424
21
-4.204360249785974
31
0
12
10.404057498119817
22
-1.575692207768293
32
0
13
10.404057498119817
23
-1.575692207768293
33
0
0
3DFACE
8
0
62
151
10
0.011657093469138112
20
32.48135918503435
30
0
11
-2.631998389162628
21
32.294183037065324
31
0
12
-1.9900409670008656
22
29.84899063853248
32
0
13
-1.9900409670008656
23
29.84899063853248
33
0
0
3DFACE
8
0
62
151
10
11.846296935140424
20
-4.204360249785974
30
0
11
14.5
21
-5.6
31
0
12
14.5
22
-2.8
32
0
13
14.5
23
-2.8
33
0
0
3DFACE
8
0
62
151
10
-5.025
20
35.32933603184171
30
0
11
-2.631998389162628
21
32.294183037065324
31
0
12
-2.029416067008105
22
34.7493754414887
32
0
13
-2.029416067008105
23
34.7493754414887
33
0
0
3DFACE
8
0
62
151
10
-9.944384523787605
20
-18.487052706609834
30
0
11
-11.868118977845391
21
-16.395120560309767
31
0
12
-14.5
22
-19.599999999999998
32
0
13
-14.5
23
-19.599999999999998
33
0
0
3DFACE
8
0
62
151
10
-10.772552290974414
20
-25.023804604343592
30
0
11
-11.597265021099018
21
-21.171092557552164
31
0
12
-14.5
22
-22.4
32
0
13
-14.5
23
-22.4
33
0
0
3DFACE
8
0
62
151
10
-5.821655111157889
20
-23.05785742102436
30
0
11
-7.819342993729561
21
-25.26592653621115
31
0
12
-5.74462146119249
22
-26.820123653859785
32
0
13
-5.74462146119249
23
-26.820123653859785
33
0
0
3DFACE
8
0
62
151
10
-14.5
20
-19.599999999999998
30
0
11
-11.597265021099018
21
-21.171092557552164
31
0
12
-9.944384523787605
22
-18.487052706609834
32
0
13
-9.944384523787605
23
-18.487052706609834
33
0
0
3DFACE
8
0
62
151
10
-5.338825122976608
20
-20.475544072310868
30
0
11
-5.821655111157889
21
-23.05785742102436
31
0
12
-3.1
22
-21.85
32
0
13
-3.1
23
-21.85
33
0
0
3DFACE
8
0
62
151
10
-2.469930380722383
20
-20.07251767149771
30
0
11
-5.338825122976608
21
-20.475544072310868
31
0
12
-3.1
22
-21.85
32
0
13
-3.1
23
-21.85
33
0
0
3DFACE
8
0
62
151
10
-8.5
20
-21.756782961191714
30
0
11
-5.338825122976608
21
-20.475544072310868
31
0
12
-7.055615476212395
22
-18.487052706609834
32
0
13
-7.055615476212395
23
-18.487052706609834
33
0
0
3DFACE
8
0
62
151
10
-9.944384523787612
20
26.512947293390166
30
0
11
-11.885746135482057
21
28.59757803193104
31
0
12
-14.5
22
25.199999999999996
32
0
13
-14.5
23
25.199999999999996
33
0
0
3DFACE
8
0
62
151
10
-10.772552290974414
20
19.976195395656408
30
0
11
-11.633261654245667
21
23.804157631138857
31
0
12
-14.5
22
22.4
32
0
13
-14.5
23
22.4
33
0
0
3DFACE
8
0
62
151
10
4.953525611368032
20
-24.995912921510556
30
0
11
3.1
21
-21.85
31
0
12
3.
22
-26.7
32
0
13
3.
23
-26.7
33
0
0
3DFACE
8
0
62
151
10
-14.5
20
25.199999999999996
30
0
11
-11.633261654245667
21
23.804157631138857
31
0
12
-9.944384523787612
22
26.512947293390166
32
0
13
-9.944384523787612
23
26.512947293390166
33
0
0
3DFACE
8
0
62
151
10
8.130211041649149
20
-23.055964471469462
30
0
11
5.606885539008937
21
-22.48726868800541
31
0
12
4.953525611368032
22
-24.995912921510556
32
0
13
4.953525611368032
23
-24.995912921510556
33
0
0
3DFACE
8
0
62
151
10
9.944384523787612
20
-26.512947293390166
30
0
11
14.5
21
-25.199999999999996
31
0
12
10.918309845934132
22
-23.797328557691593
32
0
13
10.918309845934132
23
-23.797328557691593
33
0
0
3DFACE
8
0
62
151
10
14.5
20
-22.4
30
0
11
10.918309845934132
21
-23.797328557691593
31
0
12
14.5
22
-25.199999999999996
32
0
13
14.5
23
-25.199999999999996
33
0
0
3DFACE
8
0
62
151
10
-7.819342993729563
20
10.26592653621116
30
0
11
-8.92529431657687
21
7.08615562037995
31
0
12
-6.756766419721261
22
8.114138293724096
32
0
13
-6.756766419721261
23
8.114138293724096
33
0
0
3DFACE
8
0
62
151
10
-8.92529431657687
20
7.08615562037995
30
0
11
-8.175692207768293
21
3.8040574981198176
31
0
12
-6.499601412192956
22
5.640873407333137
32
0
13
-6.499601412192956
23
5.640873407333137
33
0
0
3DFACE
8
0
62
151
10
-6.499601412192956
20
5.640873407333137
30
0
11
-5.120542508100092
21
3.5717263418992395
31
0
12
-3.0929259378330367
22
5.373866319073639
32
0
13
-3.0929259378330367
23
5.373866319073639
33
0
0
3DFACE
8
0
62
151
10
-8.92529431657687
20
7.08615562037995
30
0
11
-6.499601412192956
21
5.640873407333137
31
0
12
-6.756766419721261
22
8.114138293724096
32
0
13
-6.756766419721261
23
8.114138293724096
33
0
0
3DFACE
8
0
62
151
10
-0.0841479243187774
20
-33.64791710724299
30
0
11
2.64649530644883
21
-32.427321142697345
31
0
12
1.4999999999999998
22
-30.135638809653962
32
0
13
1.4999999999999998
23
-30.135638809653962
33
0
0
3DFACE
8
0
62
151
10
5.025
20
-35.32933603184171
30
0
11
2.64649530644883
21
-32.427321142697345
31
0
12
2.3126788456585743
22
-34.9679560975458
32
0
13
2.3126788456585743
23
-34.9679560975458
33
0
0
3DFACE
8
0
62
151
10
-6.6
20
-42.
30
0
11
-9.0625
21
-43.25302304964539
31
0
12
-7.25
22
-44.8
32
0
13
-7.25
23
-44.8
33
0
0
3DFACE
8
0
62
151
10
-12.6875
20
-42.
30
0
11
-9.0625
21
-43.25302304964539
31
0
12
-9.643749999999999
22
-40.942083333333336
32
0
13
-9.643749999999999
23
-40.942083333333336
33
0
0
3DFACE
8
0
62
151
10
-6.6
20
-42.
30
0
11
-3.625
21
-44.8
31
0
12
-3.3
22
-42.
32
0
13
-3.3
23
-42.
33
0
0
3DFACE
8
0
62
151
10
6.6
20
42.
30
0
11
3.625
21
44.8
31
0
12
3.3
22
42.
32
0
13
3.3
23
42.
33
0
0
3DFACE
8
0
62
151
10
14.5
20
0
30
0
11
14.5
21
5.6
31
0
12
13.226096064088127
22
2.8000000000000003
32
0
13
13.226096064088127
23
2.8000000000000003
33
0
0
3DFACE
8
0
62
151
10
10.912285361617888
20
4.268787039636055
30
0
11
14.5
21
5.6
31
0
12
10.68528073653574
22
6.999999999999999
32
0
13
10.68528073653574
23
6.999999999999999
33
0
0
3DFACE
8
0
62
151
10
10.912285361617888
20
4.268787039636055
30
0
11
10.68528073653574
21
6.999999999999999
31
0
12
8.502020018972289
22
6.131099675359257
32
0
13
8.502020018972289
23
6.131099675359257
33
0
0
3DFACE
8
0
62
151
10
10.404057498119816
20
1.5756922077682929
30
0
11
13.226096064088127
21
2.8000000000000003
31
0
12
10.912285361617888
22
4.268787039636055
32
0
13
10.912285361617888
23
4.268787039636055
33
0
0
3DFACE
8
0
62
151
10
-14.5
20
39.199999999999996
30
0
11
-14.5
21
33.599999999999994
31
0
12
-12.82511446511143
22
36.39999999999999
32
0
13
-12.82511446511143
23
36.39999999999999
33
0
0
3DFACE
8
0
62
151
10
-9.944384523787612
20
33.48705270660983
30
0
11
-12.82511446511143
21
36.39999999999999
31
0
12
-14.5
22
33.599999999999994
32
0
13
-14.5
23
33.599999999999994
33
0
0
3DFACE
8
0
62
151
10
-7.975713479494526
20
35.59081950083846
30
0
11
-9.944384523787612
21
33.48705270660983
31
0
12
-7.055615476212388
22
33.48705270660983
32
0
13
-7.055615476212388
23
33.48705270660983
33
0
0
3DFACE
8
0
62
151
10
-6.7
20
37.5
30
0
11
-10.521434647008789
21
38.71047632548908
31
0
12
-10.214539316095044
22
36.10079394481849
32
0
13
-10.214539316095044
23
36.10079394481849
33
0
0
3DFACE
8
0
62
151
10
-6.7
20
37.5
30
0
11
-10.214539316095044
21
36.10079394481849
31
0
12
-7.975713479494526
22
35.59081950083846
32
0
13
-7.975713479494526
23
35.59081950083846
33
0
0
3DFACE
8
0
62
151
10
-9.944384523787612
20
33.48705270660983
30
0
11
-7.975713479494526
21
35.59081950083846
31
0
12
-10.214539316095044
22
36.10079394481849
32
0
13
-10.214539316095044
23
36.10079394481849
33
0
0
3DFACE
8
0
62
151
10
14.5
20
-39.199999999999996
30
0
11
14.5
21
-33.599999999999994
31
0
12
12.82511446511143
22
-36.39999999999999
32
0
13
12.82511446511143
23
-36.39999999999999
33
0
0
3DFACE
8
0
62
151
10
9.9443845237876
20
-33.48705270660984
30
0
11
12.82511446511143
21
-36.39999999999999
31
0
12
14.5
22
-33.599999999999994
32
0
13
14.5
23
-33.599999999999994
33
0
0
3DFACE
8
0
62
151
10
7.9757134794945275
20
-35.59081950083846
30
0
11
9.9443845237876
21
-33.48705270660984
31
0
12
7.055615476212388
22
-33.48705270660983
32
0
13
7.055615476212388
23
-33.48705270660983
33
0
0
3DFACE
8
0
62
151
10
6.7
20
-37.5
30
0
11
10.521434647008789
21
-38.71047632548908
31
0
12
10.214539316095047
22
-36.10079394481849
32
0
13
10.214539316095047
23
-36.10079394481849
33
0
0
3DFACE
8
0
62
151
10
6.7
20
-37.5
30
0
11
10.214539316095047
21
-36.10079394481849
31
0
12
7.9757134794945275
22
-35.59081950083846
32
0
13
7.9757134794945275
23
-35.59081950083846
33
0
0
3DFACE
8
0
62
151
10
9.9443845237876
20
-33.48705270660984
30
0
11
7.9757134794945275
21
-35.59081950083846
31
0
12
10.214539316095047
22
-36.10079394481849
32
0
13
10.214539316095047
23
-36.10079394481849
33
0
0
3DFACE
8
0
62
151
10
12.05286425159095
20
19.736634920865352
30
0
11
10.949540397308983
21
21.92520042029958
31
0
12
9.944384523787605
22
18.487052706609834
32
0
13
9.944384523787605
23
18.487052706609834
33
0
0
3DFACE
8
0
62
151
10
10.949540397308983
20
21.92520042029958
30
0
11
14.5
21
22.4
31
0
12
14.5
22
25.199999999999996
32
0
13
14.5
23
25.199999999999996
33
0
0
3DFACE
8
0
62
151
10
11.868118977845391
20
16.395120560309767
30
0
11
12.05286425159095
21
19.736634920865352
31
0
12
9.944384523787605
22
18.487052706609834
32
0
13
9.944384523787605
23
18.487052706609834
33
0
0
3DFACE
8
0
62
151
10
14.5
20
22.4
30
0
11
12.05286425159095
21
19.736634920865352
31
0
12
14.5
22
19.599999999999998
32
0
13
14.5
23
19.599999999999998
33
0
0
3DFACE
8
0
62
151
10
7.3969112241276775
20
22.383484163286028
30
0
11
10.949540397308983
21
21.92520042029958
31
0
12
9.361075807680306
22
23.610561041862823
32
0
13
9.361075807680306
23
23.610561041862823
33
0
0
3DFACE
8
0
62
151
10
11.820256390736422
20
26.16821986114729
30
0
11
9.361075807680306
21
23.610561041862823
31
0
12
10.949540397308983
22
21.92520042029958
32
0
13
10.949540397308983
23
21.92520042029958
33
0
0
3DFACE
8
0
62
151
10
-14.5
20
-2.8
30
0
11
-11.829729961209907
21
-4.2212221242133054
31
0
12
-10.404057498119817
22
-1.5756922077682929
32
0
13
-10.404057498119817
23
-1.5756922077682929
33
0
0
3DFACE
8
0
62
151
10
-14.5
20
-5.6
30
0
11
-10.68528073653574
21
-6.999999999999999
31
0
12
-11.829729961209907
22
-4.2212221242133054
32
0
13
-11.829729961209907
23
-4.2212221242133054
33
0
0
3DFACE
8
0
62
151
10
-14.5
20
-11.2
30
0
11
-11.924435536877096
21
-9.52072417303305
31
0
12
-14.5
22
-8.399999999999999
32
0
13
-14.5
23
-8.399999999999999
33
0
0
3DFACE
8
0
62
151
10
-8.715933706809778
20
-8.993980406720059
30
0
11
-11.924435536877096
21
-9.52072417303305
31
0
12
-9.9443845237876
22
-11.512947293390166
32
0
13
-9.9443845237876
23
-11.512947293390166
33
0
0
3DFACE
8
0
62
151
10
14.5
20
11.2
30
0
11
11.924435536877096
21
9.52072417303305
31
0
12
14.5
22
8.399999999999999
32
0
13
14.5
23
8.399999999999999
33
0
0
3DFACE
8
0
62
151
10
8.863091573106724
20
9.018139498047182
30
0
11
11.924435536877096
21
9.52072417303305
31
0
12
9.9443845237876
22
11.512947293390166
32
0
13
9.9443845237876
23
11.512947293390166
33
0
0
3DFACE
8
0
62
151
10
1.1464780416797826
20
-8.867894337704179
30
0
11
1.1940147853164842
21
-6.086621103182862
31
0
12
-1.9838873580520444
22
-7.176619813653321
32
0
13
-1.9838873580520444
23
-7.176619813653321
33
0
0
3DFACE
8
0
62
151
10
-2.4747733827164926
20
-10.500200733751806
30
0
11
-4.087276465131844
21
-8.563995480015382
31
0
12
-7.055615476212401
22
-11.512947293390166
32
0
13
-7.055615476212401
23
-11.512947293390166
33
0
0
3DFACE
8
0
62
151
10
-3.043356372501972
20
-4.9314099733525225
30
0
11
-1.9838873580520444
21
-7.176619813653321
31
0
12
-0.7167852265353294
22
-4.065091023820364
32
0
13
-0.7167852265353294
23
-4.065091023820364
33
0
0
3DFACE
8
0
62
151
10
-4.087276465131844
20
-8.563995480015382
30
0
11
-1.9838873580520444
21
-7.176619813653321
31
0
12
-3.043356372501972
22
-4.9314099733525225
32
0
13
-3.043356372501972
23
-4.9314099733525225
33
0
0
3DFACE
8
0
62
151
10
-3.535010731786757
20
-1.269560123421914
30
0
11
-3.043356372501972
21
-4.9314099733525225
31
0
12
-0.7167852265353294
22
-4.065091023820364
32
0
13
-0.7167852265353294
23
-4.065091023820364
33
0
0
3DFACE
8
0
62
151
10
-6.36004279814599
20
-7.476066175826471
30
0
11
-3.043356372501972
21
-4.9314099733525225
31
0
12
-5.120542508100093
22
-3.5717263418992395
32
0
13
-5.120542508100093
23
-3.5717263418992395
33
0
0
3DFACE
8
0
62
151
10
-7.055615476212401
20
-11.512947293390166
30
0
11
-4.087276465131844
21
-8.563995480015382
31
0
12
-6.36004279814599
22
-7.476066175826471
32
0
13
-6.36004279814599
23
-7.476066175826471
33
0
0
3DFACE
8
0
62
151
10
-2.4747733827164926
20
-10.500200733751806
30
0
11
-1.9838873580520444
21
-7.176619813653321
31
0
12
-4.087276465131844
22
-8.563995480015382
32
0
13
-4.087276465131844
23
-8.563995480015382
33
0
0
3DFACE
8
0
62
151
10
-2.8247227593009936
20
-15.629776174492465
30
0
11
-2.7457228671199068
21
-12.857074258035608
31
0
12
-5.012947293390167
22
-13.5556154762124
32
0
13
-5.012947293390167
23
-13.5556154762124
33
0
0
3DFACE
8
0
62
151
10
-0.1169870938397588
20
-11.540653319613929
30
0
11
-2.7457228671199068
21
-12.857074258035608
31
0
12
-0.6961601895823865
22
-14.051879373279787
32
0
13
-0.6961601895823865
23
-14.051879373279787
33
0
0
3DFACE
8
0
62
151
10
2.385465670953314
20
-13.868252258197485
30
0
11
-0.1169870938397588
21
-11.540653319613929
31
0
12
-0.6961601895823865
22
-14.051879373279787
32
0
13
-0.6961601895823865
23
-14.051879373279787
33
0
0
3DFACE
8
0
62
151
10
1.1464780416797826
20
-8.867894337704179
30
0
11
-0.1169870938397588
21
-11.540653319613929
31
0
12
2.437763780666964
22
-11.201616836843362
32
0
13
2.437763780666964
23
-11.201616836843362
33
0
0
3DFACE
8
0
62
151
10
-3.5350107317867567
20
1.2695601234219132
30
0
11
-3.0929259378330367
21
5.373866319073639
31
0
12
-5.120542508100092
22
3.5717263418992395
32
0
13
-5.120542508100092
23
3.5717263418992395
33
0
0
3DFACE
8
0
62
151
10
-1.2478390787787879
20
8.045147310690572
30
0
11
-3.0929259378330367
21
5.373866319073639
31
0
12
-0.7167852265353267
22
4.065091023820362
32
0
13
-0.7167852265353267
23
4.065091023820362
33
0
0
3DFACE
8
0
62
151
10
-8.715933706809778
20
-8.993980406720059
30
0
11
-8.408875303750817
21
-6.2042408250193635
31
0
12
-10.68528073653574
22
-6.999999999999999
32
0
13
-10.68528073653574
23
-6.999999999999999
33
0
0
3DFACE
8
0
62
151
10
-5.120542508100093
20
-3.5717263418992395
30
0
11
-8.408875303750817
21
-6.2042408250193635
31
0
12
-6.36004279814599
22
-7.476066175826471
32
0
13
-6.36004279814599
23
-7.476066175826471
33
0
0
3DFACE
8
0
62
151
10
-11.924435536877096
20
-9.52072417303305
30
0
11
-8.715933706809778
21
-8.993980406720059
31
0
12
-10.68528073653574
22
-6.999999999999999
32
0
13
-10.68528073653574
23
-6.999999999999999
33
0
0
3DFACE
8
0
62
151
10
-7.055615476212401
20
-11.512947293390166
30
0
11
-8.715933706809778
21
-8.993980406720059
31
0
12
-9.9443845237876
22
-11.512947293390166
32
0
13
-9.9443845237876
23
-11.512947293390166
33
0
0
3DFACE
8
0
62
151
10
10.912285361617888
20
4.268787039636055
30
0
11
8.502020018972289
21
6.131099675359257
31
0
12
8.175692207768293
22
3.8040574981198176
32
0
13
8.175692207768293
23
3.8040574981198176
33
0
0
3DFACE
8
0
62
151
10
8.863091573106724
20
9.018139498047182
30
0
11
8.502020018972289
21
6.131099675359257
31
0
12
10.68528073653574
22
6.999999999999999
32
0
13
10.68528073653574
23
6.999999999999999
33
0
0
3DFACE
8
0
62
151
10
11.924435536877096
20
9.52072417303305
30
0
11
8.863091573106724
21
9.018139498047182
31
0
12
10.68528073653574
22
6.999999999999999
32
0
13
10.68528073653574
23
6.999999999999999
33
0
0
3DFACE
8
0
62
151
10
7.055615476212401
20
11.512947293390166
30
0
11
8.863091573106724
21
9.018139498047182
31
0
12
9.9443845237876
22
11.512947293390166
32
0
13
9.9443845237876
23
11.512947293390166
33
0
0
3DFACE
8
0
62
151
10
8.130211041649149
20
-23.055964471469462
30
0
11
4.953525611368032
21
-24.995912921510556
31
0
12
7.055615476212388
22
-26.512947293390166
32
0
13
7.055615476212388
23
-26.512947293390166
33
0
0
3DFACE
8
0
62
151
10
3.1
20
-21.85
30
0
11
4.953525611368032
21
-24.995912921510556
31
0
12
5.606885539008937
22
-22.48726868800541
32
0
13
5.606885539008937
23
-22.48726868800541
33
0
0
3DFACE
8
0
62
151
10
-1.9900409670008656
20
29.84899063853248
30
0
11
1.2528326220815624
21
29.588165228230597
31
0
12
0.011657093469138112
22
32.48135918503435
32
0
13
0.011657093469138112
23
32.48135918503435
33
0
0
3DFACE
8
0
62
151
10
3.
20
26.7
30
0
11
1.2528326220815624
21
29.588165228230597
31
0
12
0
22
26.7
32
0
13
0
23
26.7
33
0
0
ENDSEC
0
EOF
