999
Created with the Wolfram Language : www.wolfram.com
0
SECTION
2
HEADER
9
$ACADVER
1
AC1009
0
ENDSEC
0
SECTION
2
ENTITIES
0
3DFACE
8
0
62
151
10
-0.7167852265353267
20
4.065091023820362
30
0
11
-0.7499999999999997
21
1.299038105676658
31
0
12
0.2604722665003956
22
1.477211629518312
32
0
13
0.2604722665003956
23
1.477211629518312
33
0
0
3DFACE
8
0
62
151
10
-14.5
20
-39.199999999999996
30
0
11
-14.5
21
-44.8
31
0
12
-12.6875
22
-42.
32
0
13
-12.6875
23
-42.
33
0
0
3DFACE
8
0
62
151
10
-9.776978431193307
20
-30.473711669990802
30
0
11
-10.772552290974415
21
-33.976195395656404
31
0
12
-8.777513934632907
22
-30.93015181166782
32
0
13
-8.777513934632907
23
-30.93015181166782
33
0
0
3DFACE
8
0
62
151
10
2.154932719843789
20
14.267547042337972
30
0
11
5.012947293390167
21
13.5556154762124
31
0
12
5.012947293390167
22
16.4443845237876
32
0
13
5.012947293390167
23
16.4443845237876
33
0
0
3DFACE
8
0
62
151
10
-1.4095389311788626
20
17.486969785011496
30
0
11
-1.4095389311788624
21
18.513030214988504
31
0
12
-3.2055121958500985
22
18.
32
0
13
-3.2055121958500985
23
18.
33
0
0
3DFACE
8
0
62
151
10
-12.520052172621343
20
-29.
30
0
11
-11.940556623307799
21
-26.788888518462038
31
0
12
-14.5
22
-27.999999999999996
32
0
13
-14.5
23
-27.999999999999996
33
0
0
3DFACE
8
0
62
151
10
-11.940556623307799
20
-26.788888518462038
30
0
11
-10.772552290974414
21
-24.023804604343592
31
0
12
-14.5
22
-25.199999999999996
32
0
13
-14.5
23
-25.199999999999996
33
0
0
3DFACE
8
0
62
151
10
-3.1
20
21.85
30
0
11
-5.041033684845221
21
18.99185992513998
31
0
12
-2.4699303807223822
22
20.072517671497714
32
0
13
-2.4699303807223822
23
20.072517671497714
33
0
0
3DFACE
8
0
62
151
10
-12.462878164085124
20
-31.546787153329987
30
0
11
-14.5
21
-33.599999999999994
31
0
12
-10.772552290974415
22
-33.976195395656404
32
0
13
-10.772552290974415
23
-33.976195395656404
33
0
0
3DFACE
8
0
62
151
10
-6.859555610979196
20
13.945750405961585
30
0
11
-4.2998657899781
21
13.766729322040813
31
0
12
-6.55
22
15.
32
0
13
-6.55
23
15.
33
0
0
3DFACE
8
0
62
151
10
-12.462878164085124
20
-31.546787153329987
30
0
11
-10.772552290974415
21
-33.976195395656404
31
0
12
-9.776978431193307
22
-30.473711669990802
32
0
13
-9.776978431193307
23
-30.473711669990802
33
0
0
3DFACE
8
0
62
151
10
-10.521434647008789
20
-38.71047632548908
30
0
11
-12.6875
21
-42.
31
0
12
-9.64375
22
-42.01635044642857
32
0
13
-9.64375
23
-42.01635044642857
33
0
0
3DFACE
8
0
62
151
10
-2.8247227593009936
20
-15.629776174492465
30
0
11
-5.012947293390167
21
-16.4443845237876
31
0
12
-3.5105069330268366
22
-18.
32
0
13
-3.5105069330268366
23
-18.
33
0
0
3DFACE
8
0
62
151
10
-10.37101129854827
20
-29.549378485840787
30
0
11
-12.462878164085124
21
-31.546787153329987
31
0
12
-9.776978431193307
22
-30.473711669990802
32
0
13
-9.776978431193307
23
-30.473711669990802
33
0
0
3DFACE
8
0
62
151
10
-9.776978431193307
20
-27.526288330009198
30
0
11
-11.940556623307799
21
-26.788888518462038
31
0
12
-10.37101129854827
22
-28.450621514159213
32
0
13
-10.37101129854827
23
-28.450621514159213
33
0
0
3DFACE
8
0
62
151
10
1.972240624548789
20
3.416020966469877
30
0
11
-0.7167852265353267
21
4.065091023820362
31
0
12
0.2604722665003956
22
1.477211629518312
32
0
13
0.2604722665003956
23
1.477211629518312
33
0
0
3DFACE
8
0
62
151
10
-8.777513934632905
20
-27.06984818833218
30
0
11
-10.772552290974414
21
-24.023804604343592
31
0
12
-9.776978431193307
22
-27.526288330009198
32
0
13
-9.776978431193307
23
-27.526288330009198
33
0
0
3DFACE
8
0
62
151
10
5.024307792231707
20
3.8040574981198176
30
0
11
6.6
21
1.2
31
0
12
8.175692207768293
22
3.8040574981198176
32
0
13
8.175692207768293
23
3.8040574981198176
33
0
0
3DFACE
8
0
62
151
10
0.2604722665003956
20
-16.52278837048169
30
0
11
2.385465670953314
21
-13.868252258197485
31
0
12
-0.6961601895823865
22
-14.051879373279787
32
0
13
-0.6961601895823865
23
-14.051879373279787
33
0
0
3DFACE
8
0
62
151
10
-11.940556623307799
20
-26.788888518462038
30
0
11
-12.520052172621343
21
-29.
31
0
12
-10.37101129854827
22
-28.450621514159213
32
0
13
-10.37101129854827
23
-28.450621514159213
33
0
0
3DFACE
8
0
62
151
10
-3.1
20
-21.85
30
0
11
0
21
-21.85
31
0
12
-2.469930380722383
22
-20.07251767149771
32
0
13
-2.469930380722383
23
-20.07251767149771
33
0
0
3DFACE
8
0
62
151
10
-12.899884302243422
20
-36.39999999999999
30
0
11
-10.521434647008789
21
-38.71047632548908
31
0
12
-9.193242372043734
22
-36.266225406886406
32
0
13
-9.193242372043734
23
-36.266225406886406
33
0
0
3DFACE
8
0
62
151
10
-5.025
20
-35.637195096773254
30
0
11
-7.819342993729564
21
-33.73407346378883
31
0
12
-6.7
22
-37.5
32
0
13
-6.7
23
-37.5
33
0
0
3DFACE
8
0
62
151
10
-7.819342993729561
20
-24.26592653621115
30
0
11
-8.5
21
-21.23606843034219
31
0
12
-10.772552290974414
22
-24.023804604343592
32
0
13
-10.772552290974414
23
-24.023804604343592
33
0
0
3DFACE
8
0
62
151
10
0.26047226650039496
20
-19.47721162951831
30
0
11
0
21
-21.85
31
0
12
1.5960199841394898
22
-20.76438770242487
32
0
13
1.5960199841394898
23
-20.76438770242487
33
0
0
3DFACE
8
0
62
151
10
-11.867384428564229
20
-13.605183699964723
30
0
11
-14.5
21
-13.999999999999998
31
0
12
-11.868118977845391
22
-16.395120560309767
32
0
13
-11.868118977845391
23
-16.395120560309767
33
0
0
3DFACE
8
0
62
151
10
-11.868118977845391
20
-16.395120560309767
30
0
11
-14.5
21
-13.999999999999998
31
0
12
-14.5
22
-16.799999999999997
32
0
13
-14.5
23
-16.799999999999997
33
0
0
3DFACE
8
0
62
151
10
0
20
-21.85
30
0
11
3.1
21
-21.85
31
0
12
1.5960199841394898
22
-20.76438770242487
32
0
13
1.5960199841394898
23
-20.76438770242487
33
0
0
3DFACE
8
0
62
151
10
12.113708190371732
20
-23.7977135815318
30
0
11
8.060719175929638
21
-22.534965302625487
31
0
12
9.944384523787612
22
-25.512947293390166
32
0
13
9.944384523787612
23
-25.512947293390166
33
0
0
3DFACE
8
0
62
151
10
-11.829729961209907
20
-4.2212221242133054
30
0
11
-8.175692207768293
21
-3.8040574981198176
31
0
12
-10.404057498119817
22
-1.5756922077682929
32
0
13
-10.404057498119817
23
-1.5756922077682929
33
0
0
3DFACE
8
0
62
151
10
-11.829729961209907
20
-4.2212221242133054
30
0
11
-10.68528073653574
21
-6.999999999999999
31
0
12
-8.408875303750817
22
-6.2042408250193635
32
0
13
-8.408875303750817
23
-6.2042408250193635
33
0
0
3DFACE
8
0
62
151
10
8.222486065367095
20
-13.06984818833218
30
0
11
6.227447709025592
21
-10.023804604343594
31
0
12
7.223021568806694
22
-13.526288330009196
32
0
13
7.223021568806694
23
-13.526288330009196
33
0
0
3DFACE
8
0
62
151
10
-11.924435536877096
20
-9.52072417303305
30
0
11
-11.867384428564229
21
-13.605183699964723
31
0
12
-9.9443845237876
22
-11.512947293390166
32
0
13
-9.9443845237876
23
-11.512947293390166
33
0
0
3DFACE
8
0
62
151
10
8.060719175929638
20
-22.534965302625487
30
0
11
6.227447709025585
21
-19.9761953956564
31
0
12
5.426065507276174
22
-23.309925537646937
32
0
13
5.426065507276174
23
-23.309925537646937
33
0
0
3DFACE
8
0
62
151
10
-5.120542508100093
20
-3.5717263418992395
30
0
11
-3.043356372501972
21
-4.9314099733525225
31
0
12
-3.535010731786757
22
-1.269560123421914
32
0
13
-3.535010731786757
23
-1.269560123421914
33
0
0
3DFACE
8
0
62
151
10
-9.6
20
-15.
30
0
11
-11.868118977845391
21
-16.395120560309767
31
0
12
-9.277817459305203
22
-15.777817459305203
32
0
13
-9.277817459305203
23
-15.777817459305203
33
0
0
3DFACE
8
0
62
151
10
-7.7221825406947975
20
-15.777817459305203
30
0
11
-8.5
21
-16.1
31
0
12
-7.055615476212395
22
-18.487052706609834
32
0
13
-7.055615476212395
23
-18.487052706609834
33
0
0
3DFACE
8
0
62
151
10
5.024307792231706
20
-3.8040574981198176
30
0
11
5.7514718625761425
21
-0.8485281374238569
31
0
12
3.4601751491346975
22
-1.3005580367044887
32
0
13
3.4601751491346975
23
-1.3005580367044887
33
0
0
3DFACE
8
0
62
151
10
-9.277817459305203
20
-14.222182540694797
30
0
11
-11.867384428564229
21
-13.605183699964723
31
0
12
-9.6
22
-15.
32
0
13
-9.6
23
-15.
33
0
0
3DFACE
8
0
62
151
10
-0.40259942131940296
20
34.46586797550632
30
0
11
-0.03397936520673017
21
31.427420561063165
31
0
12
2.6099316290495524
22
33.92485031713671
32
0
13
2.6099316290495524
23
33.92485031713671
33
0
0
3DFACE
8
0
62
151
10
-9.9443845237876
20
-11.512947293390166
30
0
11
-11.867384428564229
21
-13.605183699964723
31
0
12
-9.277817459305203
22
-14.222182540694797
32
0
13
-9.277817459305203
23
-14.222182540694797
33
0
0
3DFACE
8
0
62
151
10
-1.4095389311788624
20
-17.486969785011496
30
0
11
-3.5105069330268366
21
-18.
31
0
12
-1.4095389311788626
22
-18.513030214988504
32
0
13
-1.4095389311788626
23
-18.513030214988504
33
0
0
3DFACE
8
0
62
151
10
-8.408875303750817
20
-6.2042408250193635
30
0
11
-5.120542508100093
21
-3.5717263418992395
31
0
12
-8.175692207768293
22
-3.8040574981198176
32
0
13
-8.175692207768293
23
-3.8040574981198176
33
0
0
3DFACE
8
0
62
151
10
-8.5
20
-13.9
30
0
11
-7.055615476212401
21
-11.512947293390166
31
0
12
-9.9443845237876
22
-11.512947293390166
32
0
13
-9.9443845237876
23
-11.512947293390166
33
0
0
3DFACE
8
0
62
151
10
1.6206321152407075
20
29.152033646195427
30
0
11
3.
21
26.7
31
0
12
4.429904358011831
22
29.
32
0
13
4.429904358011831
23
29.
33
0
0
3DFACE
8
0
62
151
10
-11.867384428564229
20
-13.605183699964723
30
0
11
-11.868118977845391
21
-16.395120560309767
31
0
12
-9.6
22
-15.
32
0
13
-9.6
23
-15.
33
0
0
3DFACE
8
0
62
151
10
-8.5
20
-16.1
30
0
11
-9.277817459305203
21
-15.777817459305203
31
0
12
-9.944384523787605
22
-18.487052706609834
32
0
13
-9.944384523787605
23
-18.487052706609834
33
0
0
3DFACE
8
0
62
151
10
-7.055615476212401
20
-11.512947293390166
30
0
11
-8.5
21
-13.9
31
0
12
-7.7221825406947975
22
-14.222182540694797
32
0
13
-7.7221825406947975
23
-14.222182540694797
33
0
0
3DFACE
8
0
62
151
10
8.5
20
13.9
30
0
11
7.7221825406947975
21
14.222182540694797
31
0
12
7.055615476212401
22
11.512947293390166
32
0
13
7.055615476212401
23
11.512947293390166
33
0
0
3DFACE
8
0
62
151
10
-3.2055121958500985
20
18.
30
0
11
-2.4699303807223822
21
20.072517671497714
31
0
12
-5.041033684845221
22
18.99185992513998
32
0
13
-5.041033684845221
23
18.99185992513998
33
0
0
3DFACE
8
0
62
151
10
-6.6499999999999995
20
-39.75
30
0
11
-6.7
21
-37.5
31
0
12
-10.521434647008789
22
-38.71047632548908
32
0
13
-10.521434647008789
23
-38.71047632548908
33
0
0
3DFACE
8
0
62
151
10
-6.6499999999999995
20
-39.75
30
0
11
-10.521434647008789
21
-38.71047632548908
31
0
12
-9.64375
22
-42.01635044642857
32
0
13
-9.64375
23
-42.01635044642857
33
0
0
3DFACE
8
0
62
151
10
-3.35
20
-37.5
30
0
11
-5.025
21
-35.637195096773254
31
0
12
-6.7
22
-37.5
32
0
13
-6.7
23
-37.5
33
0
0
3DFACE
8
0
62
151
10
-10.772552290974415
20
-33.976195395656404
30
0
11
-7.819342993729564
21
-33.73407346378883
31
0
12
-8.777513934632907
22
-30.93015181166782
32
0
13
-8.777513934632907
23
-30.93015181166782
33
0
0
3DFACE
8
0
62
151
10
14.5
20
19.599999999999998
30
0
11
12.107258777168779
21
19.513982380160794
31
0
12
14.5
22
16.799999999999997
32
0
13
14.5
23
16.799999999999997
33
0
0
3DFACE
8
0
62
151
10
-7.6899407246463225
20
-30.77378239094131
30
0
11
-8.777513934632907
21
-30.93015181166782
31
0
12
-7.819342993729564
22
-33.73407346378883
32
0
13
-7.819342993729564
23
-33.73407346378883
33
0
0
3DFACE
8
0
62
151
10
-6.6
20
1.2
30
0
11
-5.120542508100092
21
3.5717263418992395
31
0
12
-8.175692207768293
22
3.8040574981198176
32
0
13
-8.175692207768293
23
3.8040574981198176
33
0
0
3DFACE
8
0
62
151
10
13.226096064088127
20
2.8000000000000003
30
0
11
14.5
21
5.6
31
0
12
10.912285361617888
22
4.268787039636055
32
0
13
10.912285361617888
23
4.268787039636055
33
0
0
3DFACE
8
0
62
151
10
-14.5
20
-11.2
30
0
11
-14.5
21
-13.999999999999998
31
0
12
-11.867384428564229
22
-13.605183699964723
32
0
13
-11.867384428564229
23
-13.605183699964723
33
0
0
3DFACE
8
0
62
151
10
-6.6
20
-42.
30
0
11
-9.64375
21
-42.01635044642857
31
0
12
-7.25
22
-44.8
32
0
13
-7.25
23
-44.8
33
0
0
3DFACE
8
0
62
151
10
-3.625
20
-44.8
30
0
11
-6.6
21
-42.
31
0
12
-7.25
22
-44.8
32
0
13
-7.25
23
-44.8
33
0
0
3DFACE
8
0
62
151
10
-3.3
20
-42.
30
0
11
-3.625
21
-44.8
31
0
12
0
22
-44.8
32
0
13
0
23
-44.8
33
0
0
3DFACE
8
0
62
151
10
-3.3
20
-42.
30
0
11
0
21
-44.8
31
0
12
0
22
-42.
32
0
13
0
23
-42.
33
0
0
3DFACE
8
0
62
151
10
-9.944384523787612
20
32.48705270660983
30
0
11
-9.277817459305203
21
29.7778174593052
31
0
12
-8.5
22
30.1
32
0
13
-8.5
23
30.1
33
0
0
3DFACE
8
0
62
151
10
-4.6134940489753
20
-30.141181112183475
30
0
11
-6.859555610979196
21
-30.054249594038414
31
0
12
-4.917545792477696
22
-33.134372549973065
32
0
13
-4.917545792477696
23
-33.134372549973065
33
0
0
3DFACE
8
0
62
151
10
-7.6899407246463225
20
-30.77378239094131
30
0
11
-4.917545792477696
21
-33.134372549973065
31
0
12
-6.859555610979196
22
-30.054249594038414
32
0
13
-6.859555610979196
23
-30.054249594038414
33
0
0
3DFACE
8
0
62
151
10
11.867384428564229
20
-27.605183699964723
30
0
11
11.868118977845393
21
-30.395120560309763
31
0
12
14.5
22
-27.999999999999996
32
0
13
14.5
23
-27.999999999999996
33
0
0
3DFACE
8
0
62
151
10
-0.7500000000000007
20
-19.299038105676658
30
0
11
0
21
-21.85
31
0
12
0.26047226650039496
22
-19.47721162951831
32
0
13
0.26047226650039496
23
-19.47721162951831
33
0
0
3DFACE
8
0
62
151
10
11.181600237248924
20
-18.09473164726117
30
0
11
9.159244573388515
21
-19.585146721879724
31
0
12
11.799278359617983
22
-21.050146341548476
32
0
13
11.799278359617983
23
-21.050146341548476
33
0
0
3DFACE
8
0
62
151
10
-6.55
20
-29.
30
0
11
-4.74438589719067
21
-27.897252202162225
31
0
12
-6.859555610979196
22
-27.945750405961586
32
0
13
-6.859555610979196
23
-27.945750405961586
33
0
0
3DFACE
8
0
62
151
10
0
20
-44.8
30
0
11
3.3
21
-42.
31
0
12
0
22
-42.
32
0
13
0
23
-42.
33
0
0
3DFACE
8
0
62
151
10
-9.9443845237876
20
-11.512947293390166
30
0
11
-9.277817459305203
21
-14.222182540694797
31
0
12
-8.5
22
-13.9
32
0
13
-8.5
23
-13.9
33
0
0
3DFACE
8
0
62
151
10
-5.879086938998724
20
-22.238664626930415
30
0
11
-3.0500000000000003
21
-24.275
31
0
12
-3.1
22
-21.85
32
0
13
-3.1
23
-21.85
33
0
0
3DFACE
8
0
62
151
10
-5.847432227686827
20
-25.938773603367405
30
0
11
-3.
21
-26.7
31
0
12
-3.0500000000000003
22
-24.275
32
0
13
-3.0500000000000003
23
-24.275
33
0
0
3DFACE
8
0
62
151
10
-5.052837000668764
20
-19.919258324810155
30
0
11
-8.5
21
-21.23606843034219
31
0
12
-5.879086938998724
22
-22.238664626930415
32
0
13
-5.879086938998724
23
-22.238664626930415
33
0
0
3DFACE
8
0
62
151
10
-5.847432227686827
20
-25.938773603367405
30
0
11
-7.819342993729561
21
-24.26592653621115
31
0
12
-7.689940724646322
22
-27.22621760905869
32
0
13
-7.689940724646322
23
-27.22621760905869
33
0
0
3DFACE
8
0
62
151
10
14.5
20
0
30
0
11
13.226096064088127
21
2.8000000000000003
31
0
12
10.404057498119816
22
1.5756922077682929
32
0
13
10.404057498119816
23
1.5756922077682929
33
0
0
3DFACE
8
0
62
151
10
-2.8247227593009936
20
-15.629776174492465
30
0
11
-3.5105069330268366
21
-18.
31
0
12
-1.4095389311788624
22
-17.486969785011496
32
0
13
-1.4095389311788624
23
-17.486969785011496
33
0
0
3DFACE
8
0
62
151
10
-10.404057498119817
20
-1.5756922077682929
30
0
11
-7.448528137423857
21
-0.8485281374238569
31
0
12
-7.8
22
0
32
0
13
-7.8
23
0
33
0
0
3DFACE
8
0
62
151
10
-7.7221825406947975
20
-14.222182540694797
30
0
11
-7.4
21
-15.
31
0
12
-5.012947293390167
22
-13.5556154762124
32
0
13
-5.012947293390167
23
-13.5556154762124
33
0
0
3DFACE
8
0
62
151
10
4.153257810205318
20
10.653257810205318
30
0
11
2.154932719843789
21
14.267547042337972
31
0
12
1.3944422164727934
22
11.526278901544108
32
0
13
1.3944422164727934
23
11.526278901544108
33
0
0
3DFACE
8
0
62
151
10
-5.120542508100093
20
-3.5717263418992395
30
0
11
-6.6
21
-1.2
31
0
12
-8.175692207768293
22
-3.8040574981198176
32
0
13
-8.175692207768293
23
-3.8040574981198176
33
0
0
3DFACE
8
0
62
151
10
-7.448528137423857
20
-0.8485281374238569
30
0
11
-8.175692207768293
21
-3.8040574981198176
31
0
12
-6.6
22
-1.2
32
0
13
-6.6
23
-1.2
33
0
0
3DFACE
8
0
62
151
10
3.460175149134698
20
1.300558036704487
30
0
11
1.972240624548789
21
3.416020966469877
31
0
12
1.149066664678467
22
0.9641814145298089
32
0
13
1.149066664678467
23
0.9641814145298089
33
0
0
3DFACE
8
0
62
151
10
-7.7221825406947975
20
-15.777817459305203
30
0
11
-5.012947293390167
21
-16.4443845237876
31
0
12
-7.4
22
-15.
32
0
13
-7.4
23
-15.
33
0
0
3DFACE
8
0
62
151
10
-9.944384523787605
20
-18.487052706609834
30
0
11
-8.5
21
-21.23606843034219
31
0
12
-7.055615476212395
22
-18.487052706609834
32
0
13
-7.055615476212395
23
-18.487052706609834
33
0
0
3DFACE
8
0
62
151
10
-0.7500000000000007
20
-19.299038105676658
30
0
11
-2.469930380722383
21
-20.07251767149771
31
0
12
0
22
-21.85
32
0
13
0
23
-21.85
33
0
0
3DFACE
8
0
62
151
10
-6.859555610979196
20
-27.945750405961586
30
0
11
-4.74438589719067
21
-27.897252202162225
31
0
12
-5.847432227686827
22
-25.938773603367405
32
0
13
-5.847432227686827
23
-25.938773603367405
33
0
0
3DFACE
8
0
62
151
10
-10.68528073653574
20
-6.999999999999999
30
0
11
-14.5
21
-5.6
31
0
12
-14.5
22
-8.399999999999999
32
0
13
-14.5
23
-8.399999999999999
33
0
0
3DFACE
8
0
62
151
10
-1.4095389311788626
20
-18.513030214988504
30
0
11
-2.469930380722383
21
-20.07251767149771
31
0
12
-0.7500000000000007
22
-19.299038105676658
32
0
13
-0.7500000000000007
23
-19.299038105676658
33
0
0
3DFACE
8
0
62
151
10
-7.055615476212395
20
-18.487052706609834
30
0
11
-5.012947293390167
21
-16.4443845237876
31
0
12
-7.7221825406947975
22
-15.777817459305203
32
0
13
-7.7221825406947975
23
-15.777817459305203
33
0
0
3DFACE
8
0
62
151
10
-5.293201890484826
20
27.671700731246418
30
0
11
-7.0580036359940275
21
25.518712821124083
31
0
12
-5.354268953729701
22
23.929211990286298
32
0
13
-5.354268953729701
23
23.929211990286298
33
0
0
3DFACE
8
0
62
151
10
-3.535010731786757
20
-1.269560123421914
30
0
11
-0.7167852265353294
21
-4.065091023820364
31
0
12
-0.7500000000000007
22
-1.2990381056766576
32
0
13
-0.7500000000000007
23
-1.2990381056766576
33
0
0
3DFACE
8
0
62
151
10
-0.6961601895823865
20
-14.051879373279787
30
0
11
-2.8247227593009936
21
-15.629776174492465
31
0
12
-0.7499999999999997
22
-16.700961894323342
32
0
13
-0.7499999999999997
23
-16.700961894323342
33
0
0
3DFACE
8
0
62
151
10
-4.74438589719067
20
-27.897252202162225
30
0
11
-6.55
21
-29.
31
0
12
-4.6134940489753
22
-30.141181112183475
32
0
13
-4.6134940489753
23
-30.141181112183475
33
0
0
3DFACE
8
0
62
151
10
-7.055615476212401
20
-11.512947293390166
30
0
11
-7.7221825406947975
21
-14.222182540694797
31
0
12
-5.012947293390167
22
-13.5556154762124
32
0
13
-5.012947293390167
23
-13.5556154762124
33
0
0
3DFACE
8
0
62
151
10
-5.012947293390167
20
-16.4443845237876
30
0
11
-5.052837000668764
21
-19.919258324810155
31
0
12
-3.5105069330268366
22
-18.
32
0
13
-3.5105069330268366
23
-18.
33
0
0
3DFACE
8
0
62
151
10
7.969289689214379
20
21.45403001572038
30
0
11
3.6954999324244904
21
19.345051976135277
31
0
12
7.055615476212395
22
18.487052706609834
32
0
13
7.055615476212395
23
18.487052706609834
33
0
0
3DFACE
8
0
62
151
10
-4.6134940489753
20
-30.141181112183475
30
0
11
-4.917545792477696
21
-33.134372549973065
31
0
12
-2.5968855248770124
22
-32.03982864648723
32
0
13
-2.5968855248770124
23
-32.03982864648723
33
0
0
3DFACE
8
0
62
151
10
-3.5350107317867567
20
1.2695601234219132
30
0
11
-3.535010731786757
21
-1.269560123421914
31
0
12
-1.4095389311788626
22
-0.513030214988503
32
0
13
-1.4095389311788626
23
-0.513030214988503
33
0
0
3DFACE
8
0
62
151
10
1.6788367460192903
20
-34.588113188846
30
0
11
3.35
21
-37.5
31
0
12
5.0249999999999995
22
-34.86208928294405
32
0
13
5.0249999999999995
23
-34.86208928294405
33
0
0
3DFACE
8
0
62
151
10
-14.5
20
16.799999999999997
30
0
11
-14.5
21
13.999999999999998
31
0
12
-12.520052172621343
22
15.
32
0
13
-12.520052172621343
23
15.
33
0
0
3DFACE
8
0
62
151
10
-9.193242372043734
20
-36.266225406886406
30
0
11
-7.819342993729564
21
-33.73407346378883
31
0
12
-10.772552290974415
22
-33.976195395656404
32
0
13
-10.772552290974415
23
-33.976195395656404
33
0
0
3DFACE
8
0
62
151
10
-10.404057498119816
20
1.575692207768293
30
0
11
-10.404057498119817
21
-1.5756922077682929
31
0
12
-7.8
22
0
32
0
13
-7.8
23
0
33
0
0
3DFACE
8
0
62
151
10
1.149066664678467
20
-17.035818585470192
30
0
11
1.5
21
-18.
31
0
12
3.9610942194959726
22
-16.558279608979554
32
0
13
3.9610942194959726
23
-16.558279608979554
33
0
0
3DFACE
8
0
62
151
10
-14.5
20
-2.8
30
0
11
-10.404057498119817
21
-1.5756922077682929
31
0
12
-14.5
22
0
32
0
13
-14.5
23
0
33
0
0
3DFACE
8
0
62
151
10
-12.272578384145838
20
7.5054546833148255
30
0
11
-14.5
21
11.2
31
0
12
-14.5
22
5.6
32
0
13
-14.5
23
5.6
33
0
0
3DFACE
8
0
62
151
10
3.9610942194959726
20
-16.558279608979554
30
0
11
1.5
21
-18.
31
0
12
3.6015698180094797
22
-19.310864210386995
32
0
13
3.6015698180094797
23
-19.310864210386995
33
0
0
3DFACE
8
0
62
151
10
12.36996676883508
20
-16.136324770121064
30
0
11
11.181600237248924
21
-18.09473164726117
31
0
12
14.5
22
-16.799999999999997
32
0
13
14.5
23
-16.799999999999997
33
0
0
3DFACE
8
0
62
151
10
-12.25017913604873
20
12.58990621187064
30
0
11
-12.520052172621343
21
15.
31
0
12
-14.5
22
13.999999999999998
32
0
13
-14.5
23
13.999999999999998
33
0
0
3DFACE
8
0
62
151
10
-12.520052172621343
20
15.
30
0
11
-11.940556623307799
21
17.211111481537962
31
0
12
-14.5
22
16.799999999999997
32
0
13
-14.5
23
16.799999999999997
33
0
0
3DFACE
8
0
62
151
10
14.5
20
-8.399999999999999
30
0
11
12.131944918352175
21
-9.033086799401628
31
0
12
14.5
22
-11.2
32
0
13
14.5
23
-11.2
33
0
0
3DFACE
8
0
62
151
10
-12.25017913604873
20
12.58990621187064
30
0
11
-14.5
21
13.999999999999998
31
0
12
-14.5
22
11.2
32
0
13
-14.5
23
11.2
33
0
0
3DFACE
8
0
62
151
10
9.310059275353678
20
-16.77378239094131
30
0
11
8.222486065367093
21
-16.93015181166782
31
0
12
9.159244573388515
22
-19.585146721879724
32
0
13
9.159244573388515
23
-19.585146721879724
33
0
0
3DFACE
8
0
62
151
10
-9.776978431193307
20
13.526288330009196
30
0
11
-12.25017913604873
21
12.58990621187064
31
0
12
-10.77255229097441
22
10.023804604343598
32
0
13
-10.77255229097441
23
10.023804604343598
33
0
0
3DFACE
8
0
62
151
10
-9.776978431193307
20
13.526288330009196
30
0
11
-10.37101129854827
21
14.450621514159213
31
0
12
-12.25017913604873
22
12.58990621187064
32
0
13
-12.25017913604873
23
12.58990621187064
33
0
0
3DFACE
8
0
62
151
10
-5.354268953729701
20
23.929211990286298
30
0
11
-5.897208902653408
21
21.663281503566314
31
0
12
-3.1
22
21.85
32
0
13
-3.1
23
21.85
33
0
0
3DFACE
8
0
62
151
10
5.012947293390167
20
13.5556154762124
30
0
11
4.153257810205318
21
10.653257810205318
31
0
12
7.055615476212401
22
11.512947293390166
32
0
13
7.055615476212401
23
11.512947293390166
33
0
0
3DFACE
8
0
62
151
10
-10.37101129854827
20
15.549378485840787
30
0
11
-12.520052172621343
21
15.
31
0
12
-10.37101129854827
22
14.450621514159213
32
0
13
-10.37101129854827
23
14.450621514159213
33
0
0
3DFACE
8
0
62
151
10
5.7514718625761425
20
0.848528137423857
30
0
11
5.024307792231707
21
3.8040574981198176
31
0
12
3.460175149134698
22
1.300558036704487
32
0
13
3.460175149134698
23
1.300558036704487
33
0
0
3DFACE
8
0
62
151
10
-8.777513934632905
20
16.93015181166782
30
0
11
-10.772552290974414
21
19.976195395656408
31
0
12
-9.776978431193307
22
16.473711669990802
32
0
13
-9.776978431193307
23
16.473711669990802
33
0
0
3DFACE
8
0
62
151
10
6.6000000000000005
20
7.5109311804515
30
0
11
5.024307792231707
21
3.8040574981198176
31
0
12
8.502020018972289
22
6.131099675359257
32
0
13
8.502020018972289
23
6.131099675359257
33
0
0
3DFACE
8
0
62
151
10
12.107258777168779
20
19.513982380160794
30
0
11
11.868118977845391
21
16.395120560309767
31
0
12
14.5
22
16.799999999999997
32
0
13
14.5
23
16.799999999999997
33
0
0
3DFACE
8
0
62
151
10
-12.520052172621343
20
15.
30
0
11
-10.37101129854827
21
15.549378485840787
31
0
12
-11.940556623307799
22
17.211111481537962
32
0
13
-11.940556623307799
23
17.211111481537962
33
0
0
3DFACE
8
0
62
151
10
-8.175692207768293
20
3.8040574981198176
30
0
11
-7.448528137423857
21
0.848528137423857
31
0
12
-6.6
22
1.2
32
0
13
-6.6
23
1.2
33
0
0
3DFACE
8
0
62
151
10
-8.175692207768293
20
3.8040574981198176
30
0
11
-11.32992443798668
21
4.729924437986678
31
0
12
-10.404057498119816
22
1.575692207768293
32
0
13
-10.404057498119816
23
1.575692207768293
33
0
0
3DFACE
8
0
62
151
10
-8.175692207768293
20
-3.8040574981198176
30
0
11
-7.448528137423857
21
-0.8485281374238569
31
0
12
-10.404057498119817
22
-1.5756922077682929
32
0
13
-10.404057498119817
23
-1.5756922077682929
33
0
0
3DFACE
8
0
62
151
10
-14.5
20
16.799999999999997
30
0
11
-11.940556623307799
21
17.211111481537962
31
0
12
-14.5
22
19.599999999999998
32
0
13
-14.5
23
19.599999999999998
33
0
0
3DFACE
8
0
62
151
10
14.5
20
-13.999999999999998
30
0
11
12.36996676883508
21
-16.136324770121064
31
0
12
14.5
22
-16.799999999999997
32
0
13
14.5
23
-16.799999999999997
33
0
0
3DFACE
8
0
62
151
10
-9.6
20
29.
30
0
11
-11.868118977845391
21
30.395120560309767
31
0
12
-11.867384428564229
22
27.605183699964723
32
0
13
-11.867384428564229
23
27.605183699964723
33
0
0
3DFACE
8
0
62
151
10
-9.944384523787612
20
32.48705270660983
30
0
11
-8.5
21
35.10860370001512
31
0
12
-11.703874749752767
22
35.16514998627047
32
0
13
-11.703874749752767
23
35.16514998627047
33
0
0
3DFACE
8
0
62
151
10
10.45
20
-15.
30
0
11
10.140444389020804
21
-16.054249594038414
31
0
12
12.36996676883508
22
-16.136324770121064
32
0
13
12.36996676883508
23
-16.136324770121064
33
0
0
3DFACE
8
0
62
151
10
-14.5
20
39.199999999999996
30
0
11
-12.6875
21
42.
31
0
12
-14.5
22
44.8
32
0
13
-14.5
23
44.8
33
0
0
3DFACE
8
0
62
151
10
-6.6499999999999995
20
39.75
30
0
11
-9.64375
21
42.01635044642857
31
0
12
-10.521434647008789
22
38.71047632548908
32
0
13
-10.521434647008789
23
38.71047632548908
33
0
0
3DFACE
8
0
62
151
10
3.1010885780450197
20
16.871296063768707
30
0
11
3.6954999324244904
21
19.345051976135277
31
0
12
1.5
22
18.
32
0
13
1.5
23
18.
33
0
0
3DFACE
8
0
62
151
10
11.597470412104254
20
-11.425328586400955
30
0
11
10.140444389020804
21
-13.945750405961585
31
0
12
12.321403619069308
22
-13.877934657230698
32
0
13
12.321403619069308
23
-13.877934657230698
33
0
0
3DFACE
8
0
62
151
10
-11.867384428564229
20
27.605183699964723
30
0
11
-13.57400582324994
21
25.2
31
0
12
-9.944384523787612
22
25.512947293390166
32
0
13
-9.944384523787612
23
25.512947293390166
33
0
0
3DFACE
8
0
62
151
10
14.5
20
-11.2
30
0
11
12.321403619069308
21
-13.877934657230698
31
0
12
14.5
22
-13.999999999999998
32
0
13
14.5
23
-13.999999999999998
33
0
0
3DFACE
8
0
62
151
10
9.944384523787605
20
18.487052706609834
30
0
11
8.5
21
16.1
31
0
12
9.277817459305203
22
15.777817459305203
32
0
13
9.277817459305203
23
15.777817459305203
33
0
0
3DFACE
8
0
62
151
10
-11.867384428564229
20
27.605183699964723
30
0
11
-9.277817459305203
21
28.2221825406948
31
0
12
-9.6
22
29.
32
0
13
-9.6
23
29.
33
0
0
3DFACE
8
0
62
151
10
-9.277817459305203
20
28.2221825406948
30
0
11
-9.944384523787612
21
25.512947293390166
31
0
12
-8.5
22
27.9
32
0
13
-8.5
23
27.9
33
0
0
3DFACE
8
0
62
151
10
-10.772552290974414
20
19.976195395656408
30
0
11
-8.495600852856601
21
22.71570761266528
31
0
12
-11.517083072801949
22
22.924587774079434
32
0
13
-11.517083072801949
23
22.924587774079434
33
0
0
3DFACE
8
0
62
151
10
-14.5
20
27.999999999999996
30
0
11
-11.868118977845391
21
30.395120560309767
31
0
12
-14.5
22
30.799999999999997
32
0
13
-14.5
23
30.799999999999997
33
0
0
3DFACE
8
0
62
151
10
7.223021568806693
20
27.526288330009198
30
0
11
6.227447709025585
21
24.0238046043436
31
0
12
8.222486065367093
22
27.06984818833218
32
0
13
8.222486065367093
23
27.06984818833218
33
0
0
3DFACE
8
0
62
151
10
-14.5
20
33.599999999999994
30
0
11
-14.5
21
30.799999999999997
31
0
12
-11.868118977845391
22
30.395120560309767
32
0
13
-11.868118977845391
23
30.395120560309767
33
0
0
3DFACE
8
0
62
151
10
-3.5105069330268366
20
-18.
30
0
11
-5.052837000668764
21
-19.919258324810155
31
0
12
-2.469930380722383
22
-20.07251767149771
32
0
13
-2.469930380722383
23
-20.07251767149771
33
0
0
3DFACE
8
0
62
151
10
-10.37101129854827
20
-28.450621514159213
30
0
11
-12.520052172621343
21
-29.
31
0
12
-10.37101129854827
22
-29.549378485840787
32
0
13
-10.37101129854827
23
-29.549378485840787
33
0
0
3DFACE
8
0
62
151
10
-8.5
20
30.1
30
0
11
-7.055615476212388
21
32.48705270660983
31
0
12
-9.944384523787612
22
32.48705270660983
32
0
13
-9.944384523787612
23
32.48705270660983
33
0
0
3DFACE
8
0
62
151
10
-4.917545792477696
20
-33.134372549973065
30
0
11
-7.6899407246463225
21
-30.77378239094131
31
0
12
-7.819342993729564
22
-33.73407346378883
32
0
13
-7.819342993729564
23
-33.73407346378883
33
0
0
3DFACE
8
0
62
151
10
-9.277817459305203
20
29.7778174593052
30
0
11
-11.868118977845391
21
30.395120560309767
31
0
12
-9.6
22
29.
32
0
13
-9.6
23
29.
33
0
0
3DFACE
8
0
62
151
10
-8.5
20
27.9
30
0
11
-9.944384523787612
21
25.512947293390166
31
0
12
-7.0580036359940275
22
25.518712821124083
32
0
13
-7.0580036359940275
23
25.518712821124083
33
0
0
3DFACE
8
0
62
151
10
-8.5
20
30.1
30
0
11
-7.7221825406947975
21
29.7778174593052
31
0
12
-7.055615476212388
22
32.48705270660983
32
0
13
-7.055615476212388
23
32.48705270660983
33
0
0
3DFACE
8
0
62
151
10
-7.448528137423857
20
0.848528137423857
30
0
11
-10.404057498119816
21
1.575692207768293
31
0
12
-7.8
22
0
32
0
13
-7.8
23
0
33
0
0
3DFACE
8
0
62
151
10
14.5
20
-5.6
30
0
11
10.762623250009224
21
-6.999999999999999
31
0
12
14.5
22
-8.399999999999999
32
0
13
14.5
23
-8.399999999999999
33
0
0
3DFACE
8
0
62
151
10
-8.777513934632907
20
13.06984818833218
30
0
11
-10.77255229097441
21
10.023804604343598
31
0
12
-7.819342993729563
22
10.26592653621116
32
0
13
-7.819342993729563
23
10.26592653621116
33
0
0
3DFACE
8
0
62
151
10
-7.448528137423857
20
0.848528137423857
30
0
11
-8.175692207768293
21
3.8040574981198176
31
0
12
-10.404057498119816
22
1.575692207768293
32
0
13
-10.404057498119816
23
1.575692207768293
33
0
0
3DFACE
8
0
62
151
10
-8.5
20
35.10860370001512
30
0
11
-5.0249999999999995
21
34.86208928294405
31
0
12
-6.7
22
37.5
32
0
13
-6.7
23
37.5
33
0
0
3DFACE
8
0
62
151
10
-6.859555610979196
20
13.945750405961585
30
0
11
-5.723794779834105
21
11.796088382303664
31
0
12
-4.2998657899781
22
13.766729322040813
32
0
13
-4.2998657899781
23
13.766729322040813
33
0
0
3DFACE
8
0
62
151
10
12.107258777168779
20
19.513982380160794
30
0
11
14.5
21
22.4
31
0
12
11.2598106750461
22
21.753277203217223
32
0
13
11.2598106750461
23
21.753277203217223
33
0
0
3DFACE
8
0
62
151
10
3.460175149134698
20
1.300558036704487
30
0
11
5.024307792231707
21
3.8040574981198176
31
0
12
1.972240624548789
22
3.416020966469877
32
0
13
1.972240624548789
23
3.416020966469877
33
0
0
3DFACE
8
0
62
151
10
-10.404057498119816
20
1.575692207768293
30
0
11
-11.32992443798668
21
4.729924437986678
31
0
12
-13.564062151022739
22
2.8
32
0
13
-13.564062151022739
23
2.8
33
0
0
3DFACE
8
0
62
151
10
-5.897208902653408
20
21.663281503566314
30
0
11
-5.354268953729701
21
23.929211990286298
31
0
12
-8.495600852856601
22
22.71570761266528
32
0
13
-8.495600852856601
23
22.71570761266528
33
0
0
3DFACE
8
0
62
151
10
-5.120542508100092
20
3.5717263418992395
30
0
11
-5.7514718625761425
21
0.8485281374238569
31
0
12
-3.5350107317867567
22
1.2695601234219132
32
0
13
-3.5350107317867567
23
1.2695601234219132
33
0
0
3DFACE
8
0
62
151
10
-11.940556623307799
20
17.211111481537962
30
0
11
-10.37101129854827
21
15.549378485840787
31
0
12
-9.776978431193307
22
16.473711669990802
32
0
13
-9.776978431193307
23
16.473711669990802
33
0
0
3DFACE
8
0
62
151
10
-1.4095389311788626
20
-0.513030214988503
30
0
11
-1.4095389311788624
21
0.5130302149885033
31
0
12
-3.5350107317867567
22
1.2695601234219132
32
0
13
-3.5350107317867567
23
1.2695601234219132
33
0
0
3DFACE
8
0
62
151
10
1.1490666646784666
20
17.035818585470192
30
0
11
3.1010885780450197
21
16.871296063768707
31
0
12
1.5
22
18.
32
0
13
1.5
23
18.
33
0
0
3DFACE
8
0
62
151
10
14.5
20
-19.599999999999998
30
0
11
11.181600237248924
21
-18.09473164726117
31
0
12
11.799278359617983
22
-21.050146341548476
32
0
13
11.799278359617983
23
-21.050146341548476
33
0
0
3DFACE
8
0
62
151
10
-5.3999999999999995
20
0
30
0
11
-3.535010731786757
21
-1.269560123421914
31
0
12
-3.5350107317867567
22
1.2695601234219132
32
0
13
-3.5350107317867567
23
1.2695601234219132
33
0
0
3DFACE
8
0
62
151
10
-4.015258371599838
20
16.31683895608184
30
0
11
-0.8284635332961265
21
13.30154982540142
31
0
12
-0.7500000000000007
22
16.700961894323342
32
0
13
-0.7500000000000007
23
16.700961894323342
33
0
0
3DFACE
8
0
62
151
10
-5.3999999999999995
20
0
30
0
11
-3.5350107317867567
21
1.2695601234219132
31
0
12
-5.7514718625761425
22
0.8485281374238569
32
0
13
-5.7514718625761425
23
0.8485281374238569
33
0
0
3DFACE
8
0
62
151
10
0.2604722665003956
20
1.477211629518312
30
0
11
1.149066664678467
21
0.9641814145298089
31
0
12
1.972240624548789
22
3.416020966469877
32
0
13
1.972240624548789
23
3.416020966469877
33
0
0
3DFACE
8
0
62
151
10
-4.2998657899781
20
13.766729322040813
30
0
11
-4.015258371599838
21
16.31683895608184
31
0
12
-6.55
22
15.
32
0
13
-6.55
23
15.
33
0
0
3DFACE
8
0
62
151
10
-1.4095389311788624
20
0.5130302149885033
30
0
11
-0.7499999999999997
21
1.299038105676658
31
0
12
-3.5350107317867567
22
1.2695601234219132
32
0
13
-3.5350107317867567
23
1.2695601234219132
33
0
0
3DFACE
8
0
62
151
10
-6.859555610979196
20
16.054249594038414
30
0
11
-6.55
21
15.
31
0
12
-4.015258371599838
22
16.31683895608184
32
0
13
-4.015258371599838
23
16.31683895608184
33
0
0
3DFACE
8
0
62
151
10
7.058003635994029
20
-25.51871282112412
30
0
11
5.426065507276174
21
-23.309925537646937
31
0
12
3.
22
-26.7
32
0
13
3.
23
-26.7
33
0
0
3DFACE
8
0
62
151
10
8.175692207768293
20
3.8040574981198176
30
0
11
7.448528137423857
21
0.8485281374238569
31
0
12
10.404057498119816
22
1.5756922077682929
32
0
13
10.404057498119816
23
1.5756922077682929
33
0
0
3DFACE
8
0
62
151
10
-10.77255229097441
20
10.023804604343598
30
0
11
-12.25017913604873
21
12.58990621187064
31
0
12
-14.5
22
11.2
32
0
13
-14.5
23
11.2
33
0
0
3DFACE
8
0
62
151
10
-1.4095389311788626
20
17.486969785011496
30
0
11
-4.015258371599838
21
16.31683895608184
31
0
12
-0.7500000000000007
22
16.700961894323342
32
0
13
-0.7500000000000007
23
16.700961894323342
33
0
0
3DFACE
8
0
62
151
10
-7.055615476212388
20
32.48705270660983
30
0
11
-8.5
21
35.10860370001512
31
0
12
-9.944384523787612
22
32.48705270660983
32
0
13
-9.944384523787612
23
32.48705270660983
33
0
0
3DFACE
8
0
62
151
10
-7.7221825406947975
20
29.7778174593052
30
0
11
-5.018712821124106
21
30.441996364005966
31
0
12
-7.055615476212388
22
32.48705270660983
32
0
13
-7.055615476212388
23
32.48705270660983
33
0
0
3DFACE
8
0
62
151
10
-8.5
20
-16.1
30
0
11
-9.944384523787605
21
-18.487052706609834
31
0
12
-7.055615476212395
22
-18.487052706609834
32
0
13
-7.055615476212395
23
-18.487052706609834
33
0
0
3DFACE
8
0
62
151
10
-6.6499999999999995
20
39.75
30
0
11
-10.521434647008789
21
38.71047632548908
31
0
12
-6.7
22
37.5
32
0
13
-6.7
23
37.5
33
0
0
3DFACE
8
0
62
151
10
-9.64375
20
42.01635044642857
30
0
11
-7.25
21
44.8
31
0
12
-10.875
22
44.8
32
0
13
-10.875
23
44.8
33
0
0
3DFACE
8
0
62
151
10
-7.25
20
44.8
30
0
11
-9.64375
21
42.01635044642857
31
0
12
-6.6
22
42.
32
0
13
-6.6
23
42.
33
0
0
3DFACE
8
0
62
151
10
-6.6
20
42.
30
0
11
-3.625
21
44.8
31
0
12
-7.25
22
44.8
32
0
13
-7.25
23
44.8
33
0
0
3DFACE
8
0
62
151
10
-7.4
20
-15.
30
0
11
-5.012947293390167
21
-16.4443845237876
31
0
12
-5.012947293390167
22
-13.5556154762124
32
0
13
-5.012947293390167
23
-13.5556154762124
33
0
0
3DFACE
8
0
62
151
10
-6.6
20
42.
30
0
11
-3.3
21
42.
31
0
12
-3.625
22
44.8
32
0
13
-3.625
23
44.8
33
0
0
3DFACE
8
0
62
151
10
7.969289689214379
20
21.45403001572038
30
0
11
3.1
21
21.85
31
0
12
3.6954999324244904
22
19.345051976135277
32
0
13
3.6954999324244904
23
19.345051976135277
33
0
0
3DFACE
8
0
62
151
10
7.7221825406947975
20
-29.7778174593052
30
0
11
7.4
21
-29.
31
0
12
5.018712821124101
22
-30.441996364005966
32
0
13
5.018712821124101
23
-30.441996364005966
33
0
0
3DFACE
8
0
62
151
10
-7.7221825406947975
20
29.7778174593052
30
0
11
-7.4
21
29.
31
0
12
-5.018712821124106
22
30.441996364005966
32
0
13
-5.018712821124106
23
30.441996364005966
33
0
0
3DFACE
8
0
62
151
10
-12.899884302243422
20
-36.39999999999999
30
0
11
-10.772552290974415
21
-33.976195395656404
31
0
12
-14.5
22
-33.599999999999994
32
0
13
-14.5
23
-33.599999999999994
33
0
0
3DFACE
8
0
62
151
10
-7.689940724646322
20
16.77378239094131
30
0
11
-5.041033684845221
21
18.99185992513998
31
0
12
-7.833455223532099
22
19.63592074956182
32
0
13
-7.833455223532099
23
19.63592074956182
33
0
0
3DFACE
8
0
62
151
10
0
20
21.85
30
0
11
-2.4699303807223822
21
20.072517671497714
31
0
12
-0.7499999999999997
22
19.299038105676658
32
0
13
-0.7499999999999997
23
19.299038105676658
33
0
0
3DFACE
8
0
62
151
10
-2.4699303807223822
20
20.072517671497714
30
0
11
-1.4095389311788624
21
18.513030214988504
31
0
12
-0.7499999999999997
22
19.299038105676658
32
0
13
-0.7499999999999997
23
19.299038105676658
33
0
0
3DFACE
8
0
62
151
10
-7.0580036359940275
20
25.518712821124083
30
0
11
-7.7221825406947975
21
28.222182540694796
31
0
12
-8.5
22
27.9
32
0
13
-8.5
23
27.9
33
0
0
3DFACE
8
0
62
151
10
-3.
20
26.7
30
0
11
-5.293201890484826
21
27.671700731246418
31
0
12
-5.354268953729701
22
23.929211990286298
32
0
13
-5.354268953729701
23
23.929211990286298
33
0
0
3DFACE
8
0
62
151
10
-6.7
20
37.5
30
0
11
-5.0249999999999995
21
34.86208928294405
31
0
12
-3.35
22
37.5
32
0
13
-3.35
23
37.5
33
0
0
3DFACE
8
0
62
151
10
-7.819342993729563
20
10.26592653621116
30
0
11
-7.6899407246463225
21
13.22621760905869
31
0
12
-8.777513934632907
22
13.06984818833218
32
0
13
-8.777513934632907
23
13.06984818833218
33
0
0
3DFACE
8
0
62
151
10
-3.5350107317867567
20
1.2695601234219132
30
0
11
-0.7499999999999997
21
1.299038105676658
31
0
12
-0.7167852265353267
22
4.065091023820362
32
0
13
-0.7167852265353267
23
4.065091023820362
33
0
0
3DFACE
8
0
62
151
10
-9.277817459305203
20
29.7778174593052
30
0
11
-9.944384523787612
21
32.48705270660983
31
0
12
-11.868118977845391
22
30.395120560309767
32
0
13
-11.868118977845391
23
30.395120560309767
33
0
0
3DFACE
8
0
62
151
10
-2.4699303807223822
20
20.072517671497714
30
0
11
0
21
21.85
31
0
12
-3.1
22
21.85
32
0
13
-3.1
23
21.85
33
0
0
3DFACE
8
0
62
151
10
-7.0580036359940275
20
25.518712821124083
30
0
11
-5.293201890484826
21
27.671700731246418
31
0
12
-7.7221825406947975
22
28.222182540694796
32
0
13
-7.7221825406947975
23
28.222182540694796
33
0
0
3DFACE
8
0
62
151
10
-4.015258371599838
20
16.31683895608184
30
0
11
-1.4095389311788626
21
17.486969785011496
31
0
12
-3.2055121958500985
22
18.
32
0
13
-3.2055121958500985
23
18.
33
0
0
3DFACE
8
0
62
151
10
-3.625
20
44.8
30
0
11
-3.3
21
42.
31
0
12
0
22
44.8
32
0
13
0
23
44.8
33
0
0
3DFACE
8
0
62
151
10
-5.293201890484826
20
27.671700731246418
30
0
11
-3.
21
26.7
31
0
12
-5.018712821124106
22
30.441996364005966
32
0
13
-5.018712821124106
23
30.441996364005966
33
0
0
3DFACE
8
0
62
151
10
-10.772552290974414
20
19.976195395656408
30
0
11
-8.777513934632905
21
16.93015181166782
31
0
12
-7.833455223532099
22
19.63592074956182
32
0
13
-7.833455223532099
23
19.63592074956182
33
0
0
3DFACE
8
0
62
151
10
-5.3999999999999995
20
0
30
0
11
-5.7514718625761425
21
-0.8485281374238572
31
0
12
-3.535010731786757
22
-1.269560123421914
32
0
13
-3.535010731786757
23
-1.269560123421914
33
0
0
3DFACE
8
0
62
151
10
7.055615476212395
20
18.487052706609834
30
0
11
3.6954999324244904
21
19.345051976135277
31
0
12
5.012947293390167
22
16.4443845237876
32
0
13
5.012947293390167
23
16.4443845237876
33
0
0
3DFACE
8
0
62
151
10
-12.25017913604873
20
12.58990621187064
30
0
11
-10.37101129854827
21
14.450621514159213
31
0
12
-12.520052172621343
22
15.
32
0
13
-12.520052172621343
23
15.
33
0
0
3DFACE
8
0
62
151
10
3.4601751491346975
20
-1.3005580367044887
30
0
11
1.9722406245487876
21
-3.416020966469877
31
0
12
5.024307792231706
22
-3.8040574981198176
32
0
13
5.024307792231706
23
-3.8040574981198176
33
0
0
3DFACE
8
0
62
151
10
5.0249999999999995
20
-34.86208928294405
30
0
11
3.35
21
-37.5
31
0
12
6.7
22
-37.5
32
0
13
6.7
23
-37.5
33
0
0
3DFACE
8
0
62
151
10
10.68528073653574
20
6.999999999999999
30
0
11
14.5
21
5.6
31
0
12
14.5
22
8.399999999999999
32
0
13
14.5
23
8.399999999999999
33
0
0
3DFACE
8
0
62
151
10
9.277817459305203
20
-29.777817459305204
30
0
11
8.5
21
-30.1
31
0
12
9.9443845237876
22
-32.48705270660984
32
0
13
9.9443845237876
23
-32.48705270660984
33
0
0
3DFACE
8
0
62
151
10
3.
20
-26.7
30
0
11
5.293201890484829
21
-27.671700731246414
31
0
12
7.058003635994029
22
-25.51871282112412
32
0
13
7.058003635994029
23
-25.51871282112412
33
0
0
3DFACE
8
0
62
151
10
1.5960199841394898
20
-20.76438770242487
30
0
11
1.1490666646784666
21
-18.964181414529808
31
0
12
0.26047226650039496
22
-19.47721162951831
32
0
13
0.26047226650039496
23
-19.47721162951831
33
0
0
3DFACE
8
0
62
151
10
3.6015698180094797
20
-19.310864210386995
30
0
11
3.1
21
-21.85
31
0
12
6.227447709025585
22
-19.9761953956564
32
0
13
6.227447709025585
23
-19.9761953956564
33
0
0
3DFACE
8
0
62
151
10
3.6015698180094797
20
-19.310864210386995
30
0
11
1.1490666646784666
21
-18.964181414529808
31
0
12
1.5960199841394898
22
-20.76438770242487
32
0
13
1.5960199841394898
23
-20.76438770242487
33
0
0
3DFACE
8
0
62
151
10
-7.833455223532099
20
19.63592074956182
30
0
11
-8.495600852856601
21
22.71570761266528
31
0
12
-10.772552290974414
22
19.976195395656408
32
0
13
-10.772552290974414
23
19.976195395656408
33
0
0
3DFACE
8
0
62
151
10
1.5000000000000002
20
-29.83129828214694
30
0
11
5.293201890484829
21
-27.671700731246414
31
0
12
3.
22
-26.7
32
0
13
3.
23
-26.7
33
0
0
3DFACE
8
0
62
151
10
-2.7457228671199068
20
-12.857074258035608
30
0
11
-2.4747733827164926
21
-10.500200733751806
31
0
12
-5.012947293390167
22
-13.5556154762124
32
0
13
-5.012947293390167
23
-13.5556154762124
33
0
0
3DFACE
8
0
62
151
10
3.625
20
-44.8
30
0
11
7.25
21
-44.8
31
0
12
6.6
22
-42.
32
0
13
6.6
23
-42.
33
0
0
3DFACE
8
0
62
151
10
-14.5
20
-27.999999999999996
30
0
11
-11.940556623307799
21
-26.788888518462038
31
0
12
-14.5
22
-25.199999999999996
32
0
13
-14.5
23
-25.199999999999996
33
0
0
3DFACE
8
0
62
151
10
9.64375
20
-42.01635044642857
30
0
11
6.6
21
-42.
31
0
12
7.25
22
-44.8
32
0
13
7.25
23
-44.8
33
0
0
3DFACE
8
0
62
151
10
-7.833455223532099
20
19.63592074956182
30
0
11
-8.777513934632905
21
16.93015181166782
31
0
12
-7.689940724646322
22
16.77378239094131
32
0
13
-7.689940724646322
23
16.77378239094131
33
0
0
3DFACE
8
0
62
151
10
-14.5
20
19.599999999999998
30
0
11
-10.772552290974414
21
19.976195395656408
31
0
12
-14.5
22
22.4
32
0
13
-14.5
23
22.4
33
0
0
3DFACE
8
0
62
151
10
6.7
20
-37.5
30
0
11
6.6499999999999995
21
-39.75
31
0
12
10.521434647008789
22
-38.71047632548908
32
0
13
10.521434647008789
23
-38.71047632548908
33
0
0
3DFACE
8
0
62
151
10
7.4
20
-29.
30
0
11
7.7221825406947975
21
-28.2221825406948
31
0
12
5.293201890484829
22
-27.671700731246414
32
0
13
5.293201890484829
23
-27.671700731246414
33
0
0
3DFACE
8
0
62
151
10
5.018712821124101
20
-30.441996364005966
30
0
11
7.4
21
-29.
31
0
12
5.293201890484829
22
-27.671700731246414
32
0
13
5.293201890484829
23
-27.671700731246414
33
0
0
3DFACE
8
0
62
151
10
8.5
20
-30.1
30
0
11
7.7221825406947975
21
-29.7778174593052
31
0
12
7.055615476212388
22
-32.48705270660983
32
0
13
7.055615476212388
23
-32.48705270660983
33
0
0
3DFACE
8
0
62
151
10
9.9443845237876
20
-32.48705270660984
30
0
11
7.055615476212388
21
-32.48705270660983
31
0
12
8.499999999999988
22
-35.10860370001512
32
0
13
8.499999999999988
23
-35.10860370001512
33
0
0
3DFACE
8
0
62
151
10
10.875
20
-44.8
30
0
11
9.64375
21
-42.01635044642857
31
0
12
7.25
22
-44.8
32
0
13
7.25
23
-44.8
33
0
0
3DFACE
8
0
62
151
10
3.625
20
-44.8
30
0
11
6.6
21
-42.
31
0
12
3.3
22
-42.
32
0
13
3.3
23
-42.
33
0
0
3DFACE
8
0
62
151
10
0
20
-44.8
30
0
11
3.625
21
-44.8
31
0
12
3.3
22
-42.
32
0
13
3.3
23
-42.
33
0
0
3DFACE
8
0
62
151
10
6.62898870145173
20
-15.549378485840787
30
0
11
3.9610942194959726
21
-16.558279608979554
31
0
12
7.223021568806693
22
-16.473711669990802
32
0
13
7.223021568806693
23
-16.473711669990802
33
0
0
3DFACE
8
0
62
151
10
9.126823141068135
20
-10.640349292988235
30
0
11
8.222486065367095
21
-13.06984818833218
31
0
12
9.310059275353678
22
-13.22621760905869
32
0
13
9.310059275353678
23
-13.22621760905869
33
0
0
3DFACE
8
0
62
151
10
-0.7167852265353294
20
-4.065091023820364
30
0
11
1.9722406245487876
21
-3.416020966469877
31
0
12
0.26047226650039496
22
-1.4772116295183122
32
0
13
0.26047226650039496
23
-1.4772116295183122
33
0
0
3DFACE
8
0
62
151
10
3.9610942194959726
20
-16.558279608979554
30
0
11
2.385465670953314
21
-13.868252258197485
31
0
12
1.149066664678467
22
-17.035818585470192
32
0
13
1.149066664678467
23
-17.035818585470192
33
0
0
3DFACE
8
0
62
151
10
1.149066664678467
20
-17.035818585470192
30
0
11
2.385465670953314
21
-13.868252258197485
31
0
12
0.2604722665003956
22
-16.52278837048169
32
0
13
0.2604722665003956
23
-16.52278837048169
33
0
0
3DFACE
8
0
62
151
10
1.5000000000000002
20
-29.83129828214694
30
0
11
3.
21
-26.7
31
0
12
0
22
-26.7
32
0
13
0
23
-26.7
33
0
0
3DFACE
8
0
62
151
10
3.4601751491346975
20
-1.3005580367044887
30
0
11
1.1490666646784666
21
-0.9641814145298093
31
0
12
1.9722406245487876
22
-3.416020966469877
32
0
13
1.9722406245487876
23
-3.416020966469877
33
0
0
3DFACE
8
0
62
151
10
3.4601751491346975
20
-1.3005580367044887
30
0
11
1.5
21
0
31
0
12
1.1490666646784666
22
-0.9641814145298093
32
0
13
1.1490666646784666
23
-0.9641814145298093
33
0
0
3DFACE
8
0
62
151
10
-11.867384428564229
20
27.605183699964723
30
0
11
-11.868118977845391
21
30.395120560309767
31
0
12
-14.5
22
27.999999999999996
32
0
13
-14.5
23
27.999999999999996
33
0
0
3DFACE
8
0
62
151
10
3.9610942194959726
20
-16.558279608979554
30
0
11
6.62898870145173
21
-15.549378485840787
31
0
12
6.62898870145173
22
-14.450621514159213
32
0
13
6.62898870145173
23
-14.450621514159213
33
0
0
3DFACE
8
0
62
151
10
2.385465670953314
20
-13.868252258197485
30
0
11
4.724829369767699
21
-12.573845153797727
31
0
12
2.437763780666964
22
-11.201616836843362
32
0
13
2.437763780666964
23
-11.201616836843362
33
0
0
3DFACE
8
0
62
151
10
-8.408875303750817
20
-6.2042408250193635
30
0
11
-8.715933706809778
21
-8.993980406720059
31
0
12
-6.36004279814599
22
-7.476066175826471
32
0
13
-6.36004279814599
23
-7.476066175826471
33
0
0
3DFACE
8
0
62
151
10
6.227447709025585
20
-19.9761953956564
30
0
11
7.223021568806693
21
-16.473711669990802
31
0
12
3.9610942194959726
22
-16.558279608979554
32
0
13
3.9610942194959726
23
-16.558279608979554
33
0
0
3DFACE
8
0
62
151
10
-11.924435536877096
20
-9.52072417303305
30
0
11
-14.5
21
-11.2
31
0
12
-11.867384428564229
22
-13.605183699964723
32
0
13
-11.867384428564229
23
-13.605183699964723
33
0
0
3DFACE
8
0
62
151
10
6.62898870145173
20
-14.450621514159213
30
0
11
7.223021568806694
21
-13.526288330009196
31
0
12
4.724829369767699
22
-12.573845153797727
32
0
13
4.724829369767699
23
-12.573845153797727
33
0
0
3DFACE
8
0
62
151
10
7.055615476212388
20
-32.48705270660983
30
0
11
5.0249999999999995
21
-34.86208928294405
31
0
12
8.499999999999988
22
-35.10860370001512
32
0
13
8.499999999999988
23
-35.10860370001512
33
0
0
3DFACE
8
0
62
151
10
5.7514718625761425
20
-0.8485281374238569
30
0
11
5.3999999999999995
21
0
31
0
12
3.4601751491346975
22
-1.3005580367044887
32
0
13
3.4601751491346975
23
-1.3005580367044887
33
0
0
3DFACE
8
0
62
151
10
8.175692207768291
20
-3.8040574981198176
30
0
11
6.6
21
-1.2
31
0
12
5.024307792231706
22
-3.8040574981198176
32
0
13
5.024307792231706
23
-3.8040574981198176
33
0
0
3DFACE
8
0
62
151
10
-12.462878164085124
20
-31.546787153329987
30
0
11
-10.37101129854827
21
-29.549378485840787
31
0
12
-12.520052172621343
22
-29.
32
0
13
-12.520052172621343
23
-29.
33
0
0
3DFACE
8
0
62
151
10
6.6
20
-1.2
30
0
11
5.7514718625761425
21
-0.8485281374238569
31
0
12
5.024307792231706
22
-3.8040574981198176
32
0
13
5.024307792231706
23
-3.8040574981198176
33
0
0
3DFACE
8
0
62
151
10
3.4601751491346975
20
-1.3005580367044887
30
0
11
5.3999999999999995
21
0
31
0
12
3.460175149134698
22
1.300558036704487
32
0
13
3.460175149134698
23
1.300558036704487
33
0
0
3DFACE
8
0
62
151
10
11.597470412104254
20
-11.425328586400955
30
0
11
9.126823141068135
21
-10.640349292988235
31
0
12
9.310059275353678
22
-13.22621760905869
32
0
13
9.310059275353678
23
-13.22621760905869
33
0
0
3DFACE
8
0
62
151
10
6.62898870145173
20
-14.450621514159213
30
0
11
4.724829369767699
21
-12.573845153797727
31
0
12
3.9610942194959726
22
-16.558279608979554
32
0
13
3.9610942194959726
23
-16.558279608979554
33
0
0
3DFACE
8
0
62
151
10
1.5
20
-18.
30
0
11
1.1490666646784666
21
-18.964181414529808
31
0
12
3.6015698180094797
22
-19.310864210386995
32
0
13
3.6015698180094797
23
-19.310864210386995
33
0
0
3DFACE
8
0
62
151
10
-5.723794779834105
20
11.796088382303664
30
0
11
-7.6899407246463225
21
13.22621760905869
31
0
12
-7.819342993729563
22
10.26592653621116
32
0
13
-7.819342993729563
23
10.26592653621116
33
0
0
3DFACE
8
0
62
151
10
5.018712821124101
20
-30.441996364005966
30
0
11
7.055615476212388
21
-32.48705270660983
31
0
12
7.7221825406947975
22
-29.7778174593052
32
0
13
7.7221825406947975
23
-29.7778174593052
33
0
0
3DFACE
8
0
62
151
10
-1.6750000000000003
20
-34.43432598691188
30
0
11
-2.5968855248770124
21
-32.03982864648723
31
0
12
-4.917545792477696
22
-33.134372549973065
32
0
13
-4.917545792477696
23
-33.134372549973065
33
0
0
3DFACE
8
0
62
151
10
-11.829729961209907
20
-4.2212221242133054
30
0
11
-14.5
21
-2.8
31
0
12
-14.5
22
-5.6
32
0
13
-14.5
23
-5.6
33
0
0
3DFACE
8
0
62
151
10
9.9443845237876
20
-32.48705270660984
30
0
11
8.5
21
-30.1
31
0
12
7.055615476212388
22
-32.48705270660983
32
0
13
7.055615476212388
23
-32.48705270660983
33
0
0
3DFACE
8
0
62
151
10
14.5
20
-27.999999999999996
30
0
11
11.868118977845393
21
-30.395120560309763
31
0
12
14.5
22
-30.799999999999997
32
0
13
14.5
23
-30.799999999999997
33
0
0
3DFACE
8
0
62
151
10
0
20
-37.5
30
0
11
-1.6750000000000003
21
-34.43432598691188
31
0
12
-3.35
22
-37.5
32
0
13
-3.35
23
-37.5
33
0
0
3DFACE
8
0
62
151
10
7.7221825406947975
20
-28.2221825406948
30
0
11
8.5
21
-27.9
31
0
12
7.058003635994029
22
-25.51871282112412
32
0
13
7.058003635994029
23
-25.51871282112412
33
0
0
3DFACE
8
0
62
151
10
-7.055615476212388
20
32.48705270660983
30
0
11
-5.0249999999999995
21
34.86208928294405
31
0
12
-8.5
22
35.10860370001512
32
0
13
-8.5
23
35.10860370001512
33
0
0
3DFACE
8
0
62
151
10
11.867384428564229
20
-27.605183699964723
30
0
11
9.277817459305203
21
-28.2221825406948
31
0
12
9.6
22
-29.
32
0
13
9.6
23
-29.
33
0
0
3DFACE
8
0
62
151
10
5.293201890484829
20
-27.671700731246414
30
0
11
7.7221825406947975
21
-28.2221825406948
31
0
12
7.058003635994029
22
-25.51871282112412
32
0
13
7.058003635994029
23
-25.51871282112412
33
0
0
3DFACE
8
0
62
151
10
11.868118977845393
20
-30.395120560309763
30
0
11
9.6
21
-29.
31
0
12
9.277817459305203
22
-29.777817459305204
32
0
13
9.277817459305203
23
-29.777817459305204
33
0
0
3DFACE
8
0
62
151
10
-5.7514718625761425
20
-0.8485281374238572
30
0
11
-5.120542508100093
21
-3.5717263418992395
31
0
12
-3.535010731786757
22
-1.269560123421914
32
0
13
-3.535010731786757
23
-1.269560123421914
33
0
0
3DFACE
8
0
62
151
10
10.875
20
-44.8
30
0
11
14.5
21
-44.8
31
0
12
12.6875
22
-42.
32
0
13
12.6875
23
-42.
33
0
0
3DFACE
8
0
62
151
10
3.6954999324244904
20
19.345051976135277
30
0
11
3.1010885780450197
21
16.871296063768707
31
0
12
5.012947293390167
22
16.4443845237876
32
0
13
5.012947293390167
23
16.4443845237876
33
0
0
3DFACE
8
0
62
151
10
2.154932719843789
20
14.267547042337972
30
0
11
3.1010885780450197
21
16.871296063768707
31
0
12
1.1490666646784666
22
17.035818585470192
32
0
13
1.1490666646784666
23
17.035818585470192
33
0
0
3DFACE
8
0
62
151
10
14.5
20
-33.599999999999994
30
0
11
14.5
21
-30.799999999999997
31
0
12
11.868118977845393
22
-30.395120560309763
32
0
13
11.868118977845393
23
-30.395120560309763
33
0
0
3DFACE
8
0
62
151
10
11.867384428564229
20
-27.605183699964723
30
0
11
9.6
21
-29.
31
0
12
11.868118977845393
22
-30.395120560309763
32
0
13
11.868118977845393
23
-30.395120560309763
33
0
0
3DFACE
8
0
62
151
10
-0.7499999999999997
20
-16.700961894323342
30
0
11
0.2604722665003956
21
-16.52278837048169
31
0
12
-0.6961601895823865
22
-14.051879373279787
32
0
13
-0.6961601895823865
23
-14.051879373279787
33
0
0
3DFACE
8
0
62
151
10
14.5
20
-25.199999999999996
30
0
11
14.5
21
-22.4
31
0
12
12.113708190371732
22
-23.7977135815318
32
0
13
12.113708190371732
23
-23.7977135815318
33
0
0
3DFACE
8
0
62
151
10
-5.052837000668764
20
-19.919258324810155
30
0
11
-5.012947293390167
21
-16.4443845237876
31
0
12
-7.055615476212395
22
-18.487052706609834
32
0
13
-7.055615476212395
23
-18.487052706609834
33
0
0
3DFACE
8
0
62
151
10
-2.469930380722383
20
-20.07251767149771
30
0
11
-1.4095389311788626
21
-18.513030214988504
31
0
12
-3.5105069330268366
22
-18.
32
0
13
-3.5105069330268366
23
-18.
33
0
0
3DFACE
8
0
62
151
10
14.5
20
-25.199999999999996
30
0
11
12.113708190371732
21
-23.7977135815318
31
0
12
11.867384428564229
22
-27.605183699964723
32
0
13
11.867384428564229
23
-27.605183699964723
33
0
0
3DFACE
8
0
62
151
10
-5.012947293390167
20
-13.5556154762124
30
0
11
-5.012947293390167
21
-16.4443845237876
31
0
12
-2.8247227593009936
22
-15.629776174492465
32
0
13
-2.8247227593009936
23
-15.629776174492465
33
0
0
3DFACE
8
0
62
151
10
8.499999999999988
20
-35.10860370001512
30
0
11
11.703874749752762
21
-35.165149986270485
31
0
12
9.9443845237876
22
-32.48705270660984
32
0
13
9.9443845237876
23
-32.48705270660984
33
0
0
3DFACE
8
0
62
151
10
10.521434647008789
20
-38.71047632548908
30
0
11
6.6499999999999995
21
-39.75
31
0
12
9.64375
22
-42.01635044642857
32
0
13
9.64375
23
-42.01635044642857
33
0
0
3DFACE
8
0
62
151
10
9.277817459305203
20
-28.2221825406948
30
0
11
9.944384523787612
21
-25.512947293390166
31
0
12
8.5
22
-27.9
32
0
13
8.5
23
-27.9
33
0
0
3DFACE
8
0
62
151
10
-2.8247227593009936
20
-15.629776174492465
30
0
11
-1.4095389311788624
21
-17.486969785011496
31
0
12
-0.7499999999999997
22
-16.700961894323342
32
0
13
-0.7499999999999997
23
-16.700961894323342
33
0
0
3DFACE
8
0
62
151
10
6.227447709025585
20
-19.9761953956564
30
0
11
9.159244573388515
21
-19.585146721879724
31
0
12
8.222486065367093
22
-16.93015181166782
32
0
13
8.222486065367093
23
-16.93015181166782
33
0
0
3DFACE
8
0
62
151
10
9.310059275353678
20
-16.77378239094131
30
0
11
9.159244573388515
21
-19.585146721879724
31
0
12
11.181600237248924
22
-18.09473164726117
32
0
13
11.181600237248924
23
-18.09473164726117
33
0
0
3DFACE
8
0
62
151
10
-7.689940724646322
20
16.77378239094131
30
0
11
-6.859555610979196
21
16.054249594038414
31
0
12
-5.041033684845221
22
18.99185992513998
32
0
13
-5.041033684845221
23
18.99185992513998
33
0
0
3DFACE
8
0
62
151
10
10.404057498119816
20
1.5756922077682929
30
0
11
10.404057498119817
21
-1.575692207768293
31
0
12
14.5
22
0
32
0
13
14.5
23
0
33
0
0
3DFACE
8
0
62
151
10
8.175692207768291
20
-3.8040574981198176
30
0
11
10.404057498119817
21
-1.575692207768293
31
0
12
7.448528137423857
22
-0.8485281374238572
32
0
13
7.448528137423857
23
-0.8485281374238572
33
0
0
3DFACE
8
0
62
151
10
6.227447709025592
20
-10.023804604343594
30
0
11
8.222486065367095
21
-13.06984818833218
31
0
12
9.126823141068135
22
-10.640349292988235
32
0
13
9.126823141068135
23
-10.640349292988235
33
0
0
3DFACE
8
0
62
151
10
-5.120542508100093
20
-3.5717263418992395
30
0
11
-5.7514718625761425
21
-0.8485281374238572
31
0
12
-6.6
22
-1.2
32
0
13
-6.6
23
-1.2
33
0
0
3DFACE
8
0
62
151
10
-14.5
20
-27.999999999999996
30
0
11
-14.5
21
-33.599999999999994
31
0
12
-12.462878164085124
22
-31.546787153329987
32
0
13
-12.462878164085124
23
-31.546787153329987
33
0
0
3DFACE
8
0
62
151
10
10.45
20
-15.
30
0
11
12.321403619069308
21
-13.877934657230698
31
0
12
10.140444389020804
22
-13.945750405961585
32
0
13
10.140444389020804
23
-13.945750405961585
33
0
0
3DFACE
8
0
62
151
10
-14.5
20
-27.999999999999996
30
0
11
-12.462878164085124
21
-31.546787153329987
31
0
12
-12.520052172621343
22
-29.
32
0
13
-12.520052172621343
23
-29.
33
0
0
3DFACE
8
0
62
151
10
-7.4
20
29.
30
0
11
-7.7221825406947975
21
28.222182540694796
31
0
12
-5.293201890484826
22
27.671700731246418
32
0
13
-5.293201890484826
23
27.671700731246418
33
0
0
3DFACE
8
0
62
151
10
14.5
20
-13.999999999999998
30
0
11
12.321403619069308
21
-13.877934657230698
31
0
12
12.36996676883508
22
-16.136324770121064
32
0
13
12.36996676883508
23
-16.136324770121064
33
0
0
3DFACE
8
0
62
151
10
9.310059275353678
20
-16.77378239094131
30
0
11
11.181600237248924
21
-18.09473164726117
31
0
12
10.140444389020804
22
-16.054249594038414
32
0
13
10.140444389020804
23
-16.054249594038414
33
0
0
3DFACE
8
0
62
151
10
3.8845635423319105
20
6.806301331472094
30
0
11
1.8283903708189748
21
8.714769373765755
31
0
12
1.1841986787487568
22
6.04595405342653
32
0
13
1.1841986787487568
23
6.04595405342653
33
0
0
3DFACE
8
0
62
151
10
11.597470412104254
20
-11.425328586400955
30
0
11
12.321403619069308
21
-13.877934657230698
31
0
12
14.5
22
-11.2
32
0
13
14.5
23
-11.2
33
0
0
3DFACE
8
0
62
151
10
9.310059275353678
20
-13.22621760905869
30
0
11
10.140444389020804
21
-13.945750405961585
31
0
12
11.597470412104254
22
-11.425328586400955
32
0
13
11.597470412104254
23
-11.425328586400955
33
0
0
3DFACE
8
0
62
151
10
0.26047226650039496
20
16.52278837048169
30
0
11
-0.8284635332961265
21
13.30154982540142
31
0
12
2.154932719843789
22
14.267547042337972
32
0
13
2.154932719843789
23
14.267547042337972
33
0
0
3DFACE
8
0
62
151
10
7.448528137423857
20
-0.8485281374238572
30
0
11
10.404057498119817
21
-1.575692207768293
31
0
12
7.8
22
0
32
0
13
7.8
23
0
33
0
0
3DFACE
8
0
62
151
10
0.26047226650039496
20
-1.4772116295183122
30
0
11
-0.7500000000000007
21
-1.2990381056766576
31
0
12
-0.7167852265353294
22
-4.065091023820364
32
0
13
-0.7167852265353294
23
-4.065091023820364
33
0
0
3DFACE
8
0
62
151
10
-0.7167852265353294
20
-4.065091023820364
30
0
11
1.1940147853164842
21
-6.086621103182862
31
0
12
1.9722406245487876
22
-3.416020966469877
32
0
13
1.9722406245487876
23
-3.416020966469877
33
0
0
3DFACE
8
0
62
151
10
11.597470412104254
20
-11.425328586400955
30
0
11
12.131944918352175
21
-9.033086799401628
31
0
12
9.126823141068135
22
-10.640349292988235
32
0
13
9.126823141068135
23
-10.640349292988235
33
0
0
3DFACE
8
0
62
151
10
-3.0466066177499713
20
10.444722560605053
30
0
11
-4.383176218360677
21
7.760116864793855
31
0
12
-1.2478390787787879
22
8.045147310690572
32
0
13
-1.2478390787787879
23
8.045147310690572
33
0
0
3DFACE
8
0
62
151
10
10.45
20
-15.
30
0
11
12.36996676883508
21
-16.136324770121064
31
0
12
12.321403619069308
22
-13.877934657230698
32
0
13
12.321403619069308
23
-13.877934657230698
33
0
0
3DFACE
8
0
62
151
10
10.140444389020804
20
-16.054249594038414
30
0
11
11.181600237248924
21
-18.09473164726117
31
0
12
12.36996676883508
22
-16.136324770121064
32
0
13
12.36996676883508
23
-16.136324770121064
33
0
0
3DFACE
8
0
62
151
10
10.404057498119816
20
1.5756922077682929
30
0
11
7.8
21
0
31
0
12
10.404057498119817
22
-1.575692207768293
32
0
13
10.404057498119817
23
-1.575692207768293
33
0
0
3DFACE
8
0
62
151
10
-3.0929259378330367
20
5.373866319073639
30
0
11
-3.5350107317867567
21
1.2695601234219132
31
0
12
-0.7167852265353267
22
4.065091023820362
32
0
13
-0.7167852265353267
23
4.065091023820362
33
0
0
3DFACE
8
0
62
151
10
7.058003635994029
20
-25.51871282112412
30
0
11
8.5
21
-27.9
31
0
12
9.944384523787612
22
-25.512947293390166
32
0
13
9.944384523787612
23
-25.512947293390166
33
0
0
3DFACE
8
0
62
151
10
-10.772552290974414
20
-24.023804604343592
30
0
11
-11.940556623307799
21
-26.788888518462038
31
0
12
-9.776978431193307
22
-27.526288330009198
32
0
13
-9.776978431193307
23
-27.526288330009198
33
0
0
3DFACE
8
0
62
151
10
9.277817459305203
20
-29.777817459305204
30
0
11
9.9443845237876
21
-32.48705270660984
31
0
12
11.868118977845393
22
-30.395120560309763
32
0
13
11.868118977845393
23
-30.395120560309763
33
0
0
3DFACE
8
0
62
151
10
1.1490666646784666
20
17.035818585470192
30
0
11
0.26047226650039496
21
16.52278837048169
31
0
12
2.154932719843789
22
14.267547042337972
32
0
13
2.154932719843789
23
14.267547042337972
33
0
0
3DFACE
8
0
62
151
10
11.867384428564229
20
13.605183699964725
30
0
11
9.9443845237876
21
11.512947293390166
31
0
12
11.924435536877096
22
9.52072417303305
32
0
13
11.924435536877096
23
9.52072417303305
33
0
0
3DFACE
8
0
62
151
10
8.222486065367093
20
-16.93015181166782
30
0
11
7.223021568806693
21
-16.473711669990802
31
0
12
6.227447709025585
22
-19.9761953956564
32
0
13
6.227447709025585
23
-19.9761953956564
33
0
0
3DFACE
8
0
62
151
10
7.7221825406947975
20
15.777817459305203
30
0
11
5.012947293390167
21
16.4443845237876
31
0
12
7.4
22
15.
32
0
13
7.4
23
15.
33
0
0
3DFACE
8
0
62
151
10
1.5960199841394904
20
20.76438770242487
30
0
11
0.2604722665003956
21
19.47721162951831
31
0
12
1.149066664678467
22
18.964181414529808
32
0
13
1.149066664678467
23
18.964181414529808
33
0
0
3DFACE
8
0
62
151
10
0
20
21.85
30
0
11
-0.7499999999999997
21
19.299038105676658
31
0
12
0.2604722665003956
22
19.47721162951831
32
0
13
0.2604722665003956
23
19.47721162951831
33
0
0
3DFACE
8
0
62
151
10
6.6000000000000005
20
7.5109311804515
30
0
11
8.502020018972289
21
6.131099675359257
31
0
12
8.863091573106724
22
9.018139498047182
32
0
13
8.863091573106724
23
9.018139498047182
33
0
0
3DFACE
8
0
62
151
10
9.944384523787605
20
18.487052706609834
30
0
11
7.055615476212395
21
18.487052706609834
31
0
12
8.5
22
16.1
32
0
13
8.5
23
16.1
33
0
0
3DFACE
8
0
62
151
10
1.5
20
0
30
0
11
3.460175149134698
21
1.300558036704487
31
0
12
1.149066664678467
22
0.9641814145298089
32
0
13
1.149066664678467
23
0.9641814145298089
33
0
0
3DFACE
8
0
62
151
10
-0.8284635332961265
20
13.30154982540142
30
0
11
0.26047226650039496
21
16.52278837048169
31
0
12
-0.7500000000000007
22
16.700961894323342
32
0
13
-0.7500000000000007
23
16.700961894323342
33
0
0
3DFACE
8
0
62
151
10
-7.4
20
29.
30
0
11
-5.293201890484826
21
27.671700731246418
31
0
12
-5.018712821124106
22
30.441996364005966
32
0
13
-5.018712821124106
23
30.441996364005966
33
0
0
3DFACE
8
0
62
151
10
10.404057498119817
20
-1.575692207768293
30
0
11
11.846296935140424
21
-4.204360249785974
31
0
12
14.5
22
-2.8
32
0
13
14.5
23
-2.8
33
0
0
3DFACE
8
0
62
151
10
7.7221825406947975
20
14.222182540694797
30
0
11
7.4
21
15.
31
0
12
5.012947293390167
22
13.5556154762124
32
0
13
5.012947293390167
23
13.5556154762124
33
0
0
3DFACE
8
0
62
151
10
5.7514718625761425
20
0.848528137423857
30
0
11
6.6
21
1.2
31
0
12
5.024307792231707
22
3.8040574981198176
32
0
13
5.024307792231707
23
3.8040574981198176
33
0
0
3DFACE
8
0
62
151
10
1.5
20
18.
30
0
11
3.6954999324244904
21
19.345051976135277
31
0
12
1.149066664678467
22
18.964181414529808
32
0
13
1.149066664678467
23
18.964181414529808
33
0
0
3DFACE
8
0
62
151
10
9.277817459305203
20
14.222182540694797
30
0
11
9.9443845237876
21
11.512947293390166
31
0
12
11.867384428564229
22
13.605183699964725
32
0
13
11.867384428564229
23
13.605183699964725
33
0
0
3DFACE
8
0
62
151
10
7.223021568806693
20
27.526288330009198
30
0
11
6.62898870145173
21
28.450621514159213
31
0
12
5.162052935387285
22
26.854831677719833
32
0
13
5.162052935387285
23
26.854831677719833
33
0
0
3DFACE
8
0
62
151
10
5.012947293390167
20
13.5556154762124
30
0
11
7.4
21
15.
31
0
12
5.012947293390167
22
16.4443845237876
32
0
13
5.012947293390167
23
16.4443845237876
33
0
0
3DFACE
8
0
62
151
10
2.154932719843789
20
14.267547042337972
30
0
11
5.012947293390167
21
16.4443845237876
31
0
12
3.1010885780450197
22
16.871296063768707
32
0
13
3.1010885780450197
23
16.871296063768707
33
0
0
3DFACE
8
0
62
151
10
1.5960199841394904
20
20.76438770242487
30
0
11
1.149066664678467
21
18.964181414529808
31
0
12
3.6954999324244904
22
19.345051976135277
32
0
13
3.6954999324244904
23
19.345051976135277
33
0
0
3DFACE
8
0
62
151
10
8.5
20
13.9
30
0
11
7.055615476212401
21
11.512947293390166
31
0
12
9.9443845237876
22
11.512947293390166
32
0
13
9.9443845237876
23
11.512947293390166
33
0
0
3DFACE
8
0
62
151
10
5.3999999999999995
20
0
30
0
11
5.7514718625761425
21
0.848528137423857
31
0
12
3.460175149134698
22
1.300558036704487
32
0
13
3.460175149134698
23
1.300558036704487
33
0
0
3DFACE
8
0
62
151
10
3.4601751491346975
20
-1.3005580367044887
30
0
11
3.460175149134698
21
1.300558036704487
31
0
12
1.5
22
0
32
0
13
1.5
23
0
33
0
0
3DFACE
8
0
62
151
10
-8.777513934632907
20
13.06984818833218
30
0
11
-9.776978431193307
21
13.526288330009196
31
0
12
-10.77255229097441
22
10.023804604343598
32
0
13
-10.77255229097441
23
10.023804604343598
33
0
0
3DFACE
8
0
62
151
10
1.6206321152407075
20
29.152033646195427
30
0
11
4.429904358011831
21
29.
31
0
12
2.5717129662275307
22
31.443833893697356
32
0
13
2.5717129662275307
23
31.443833893697356
33
0
0
3DFACE
8
0
62
151
10
1.6206321152407075
20
29.152033646195427
30
0
11
-1.1818360649109712
21
28.85343227943965
31
0
12
3.
22
26.7
32
0
13
3.
23
26.7
33
0
0
3DFACE
8
0
62
151
10
-0.7500000000000007
20
-1.2990381056766576
30
0
11
-1.4095389311788626
21
-0.513030214988503
31
0
12
-3.535010731786757
22
-1.269560123421914
32
0
13
-3.535010731786757
23
-1.269560123421914
33
0
0
3DFACE
8
0
62
151
10
8.499999999999988
20
-35.10860370001512
30
0
11
5.0249999999999995
21
-34.86208928294405
31
0
12
6.7
22
-37.5
32
0
13
6.7
23
-37.5
33
0
0
3DFACE
8
0
62
151
10
0
20
42.
30
0
11
0
21
44.8
31
0
12
-3.3
22
42.
32
0
13
-3.3
23
42.
33
0
0
3DFACE
8
0
62
151
10
0
20
44.8
30
0
11
0
21
42.
31
0
12
3.3
22
42.
32
0
13
3.3
23
42.
33
0
0
3DFACE
8
0
62
151
10
0
20
44.8
30
0
11
3.3
21
42.
31
0
12
3.625
22
44.8
32
0
13
3.625
23
44.8
33
0
0
3DFACE
8
0
62
151
10
-7.819342993729561
20
-24.26592653621115
30
0
11
-10.772552290974414
21
-24.023804604343592
31
0
12
-8.777513934632905
22
-27.06984818833218
32
0
13
-8.777513934632905
23
-27.06984818833218
33
0
0
3DFACE
8
0
62
151
10
-5.7514718625761425
20
0.8485281374238569
30
0
11
-5.120542508100092
21
3.5717263418992395
31
0
12
-6.6
22
1.2
32
0
13
-6.6
23
1.2
33
0
0
3DFACE
8
0
62
151
10
3.625
20
44.8
30
0
11
6.6
21
42.
31
0
12
7.25
22
44.8
32
0
13
7.25
23
44.8
33
0
0
3DFACE
8
0
62
151
10
3.
20
26.7
30
0
11
5.162052935387285
21
26.854831677719833
31
0
12
4.429904358011831
22
29.
32
0
13
4.429904358011831
23
29.
33
0
0
3DFACE
8
0
62
151
10
-4.917545792477696
20
-33.134372549973065
30
0
11
-5.025
21
-35.637195096773254
31
0
12
-1.6750000000000003
22
-34.43432598691188
32
0
13
-1.6750000000000003
23
-34.43432598691188
33
0
0
3DFACE
8
0
62
151
10
-9.944384523787612
20
25.512947293390166
30
0
11
-9.277817459305203
21
28.2221825406948
31
0
12
-11.867384428564229
22
27.605183699964723
32
0
13
-11.867384428564229
23
27.605183699964723
33
0
0
3DFACE
8
0
62
151
10
4.429904358011831
20
29.
30
0
11
6.62898870145173
21
28.450621514159213
31
0
12
6.62898870145173
22
29.549378485840787
32
0
13
6.62898870145173
23
29.549378485840787
33
0
0
3DFACE
8
0
62
151
10
7.448528137423857
20
-0.8485281374238572
30
0
11
6.6
21
-1.2
31
0
12
8.175692207768291
22
-3.8040574981198176
32
0
13
8.175692207768291
23
-3.8040574981198176
33
0
0
3DFACE
8
0
62
151
10
5.162052935387285
20
26.854831677719833
30
0
11
6.62898870145173
21
28.450621514159213
31
0
12
4.429904358011831
22
29.
32
0
13
4.429904358011831
23
29.
33
0
0
3DFACE
8
0
62
151
10
6.6499999999999995
20
39.75
30
0
11
10.521434647008789
21
38.71047632548908
31
0
12
9.64375
22
42.01635044642857
32
0
13
9.64375
23
42.01635044642857
33
0
0
3DFACE
8
0
62
151
10
-9.277817459305203
20
-15.777817459305203
30
0
11
-11.868118977845391
21
-16.395120560309767
31
0
12
-9.944384523787605
22
-18.487052706609834
32
0
13
-9.944384523787605
23
-18.487052706609834
33
0
0
3DFACE
8
0
62
151
10
6.6499999999999995
20
39.75
30
0
11
6.7
21
37.5
31
0
12
10.521434647008789
22
38.71047632548908
32
0
13
10.521434647008789
23
38.71047632548908
33
0
0
3DFACE
8
0
62
151
10
8.175692207768291
20
-3.8040574981198176
30
0
11
10.762623250009224
21
-6.999999999999999
31
0
12
11.846296935140424
22
-4.204360249785974
32
0
13
11.846296935140424
23
-4.204360249785974
33
0
0
3DFACE
8
0
62
151
10
7.223021568806694
20
30.473711669990802
30
0
11
8.222486065367095
21
30.93015181166782
31
0
12
6.24687308111012
22
33.933659764018856
32
0
13
6.24687308111012
23
33.933659764018856
33
0
0
3DFACE
8
0
62
151
10
9.64375
20
42.01635044642857
30
0
11
7.25
21
44.8
31
0
12
6.6
22
42.
32
0
13
6.6
23
42.
33
0
0
3DFACE
8
0
62
151
10
9.310059275353678
20
30.77378239094131
30
0
11
9.177137294492907
21
33.709593330663495
31
0
12
8.222486065367095
22
30.93015181166782
32
0
13
8.222486065367095
23
30.93015181166782
33
0
0
3DFACE
8
0
62
151
10
6.24687308111012
20
33.933659764018856
30
0
11
5.0430556135951825
21
31.221643257383498
31
0
12
7.223021568806694
22
30.473711669990802
32
0
13
7.223021568806694
23
30.473711669990802
33
0
0
3DFACE
8
0
62
151
10
3.1
20
21.85
30
0
11
6.227447709025585
21
24.0238046043436
31
0
12
3.0500000000000003
22
24.275
32
0
13
3.0500000000000003
23
24.275
33
0
0
3DFACE
8
0
62
151
10
3.1
20
21.85
30
0
11
0
21
21.85
31
0
12
1.5960199841394904
22
20.76438770242487
32
0
13
1.5960199841394904
23
20.76438770242487
33
0
0
3DFACE
8
0
62
151
10
7.055615476212395
20
18.487052706609834
30
0
11
5.012947293390167
21
16.4443845237876
31
0
12
7.7221825406947975
22
15.777817459305203
32
0
13
7.7221825406947975
23
15.777817459305203
33
0
0
3DFACE
8
0
62
151
10
-4.6134940489753
20
-30.141181112183475
30
0
11
-6.55
21
-29.
31
0
12
-6.859555610979196
22
-30.054249594038414
32
0
13
-6.859555610979196
23
-30.054249594038414
33
0
0
3DFACE
8
0
62
151
10
7.055615476212401
20
11.512947293390166
30
0
11
7.7221825406947975
21
14.222182540694797
31
0
12
5.012947293390167
22
13.5556154762124
32
0
13
5.012947293390167
23
13.5556154762124
33
0
0
3DFACE
8
0
62
151
10
8.5
20
13.9
30
0
11
9.9443845237876
21
11.512947293390166
31
0
12
9.277817459305203
22
14.222182540694797
32
0
13
9.277817459305203
23
14.222182540694797
33
0
0
3DFACE
8
0
62
151
10
-8.777513934632905
20
-27.06984818833218
30
0
11
-7.689940724646322
21
-27.22621760905869
31
0
12
-7.819342993729561
22
-24.26592653621115
32
0
13
-7.819342993729561
23
-24.26592653621115
33
0
0
3DFACE
8
0
62
151
10
-14.5
20
-22.4
30
0
11
-14.5
21
-25.199999999999996
31
0
12
-10.772552290974414
22
-24.023804604343592
32
0
13
-10.772552290974414
23
-24.023804604343592
33
0
0
3DFACE
8
0
62
151
10
-14.5
20
0
30
0
11
-10.404057498119817
21
-1.5756922077682929
31
0
12
-10.404057498119816
22
1.575692207768293
32
0
13
-10.404057498119816
23
1.575692207768293
33
0
0
3DFACE
8
0
62
151
10
-6.859555610979196
20
16.054249594038414
30
0
11
-4.015258371599838
21
16.31683895608184
31
0
12
-5.041033684845221
22
18.99185992513998
32
0
13
-5.041033684845221
23
18.99185992513998
33
0
0
3DFACE
8
0
62
151
10
-11.868118977845391
20
-16.395120560309767
30
0
11
-14.5
21
-16.799999999999997
31
0
12
-14.5
22
-19.599999999999998
32
0
13
-14.5
23
-19.599999999999998
33
0
0
3DFACE
8
0
62
151
10
3.1
20
21.85
30
0
11
1.5960199841394904
21
20.76438770242487
31
0
12
3.6954999324244904
22
19.345051976135277
32
0
13
3.6954999324244904
23
19.345051976135277
33
0
0
3DFACE
8
0
62
151
10
11.924435536877096
20
9.52072417303305
30
0
11
14.5
21
11.2
31
0
12
11.867384428564229
22
13.605183699964725
32
0
13
11.867384428564229
23
13.605183699964725
33
0
0
3DFACE
8
0
62
151
10
6.6
20
1.2
30
0
11
7.448528137423857
21
0.8485281374238569
31
0
12
8.175692207768293
22
3.8040574981198176
32
0
13
8.175692207768293
23
3.8040574981198176
33
0
0
3DFACE
8
0
62
151
10
14.5
20
13.999999999999998
30
0
11
11.867384428564229
21
13.605183699964725
31
0
12
14.5
22
11.2
32
0
13
14.5
23
11.2
33
0
0
3DFACE
8
0
62
151
10
5.024307792231706
20
-3.8040574981198176
30
0
11
1.9722406245487876
21
-3.416020966469877
31
0
12
1.1940147853164842
22
-6.086621103182862
32
0
13
1.1940147853164842
23
-6.086621103182862
33
0
0
3DFACE
8
0
62
151
10
12.321403619069308
20
27.8779346572307
30
0
11
10.140444389020804
21
27.945750405961586
31
0
12
11.168983417796914
22
25.919828938579908
32
0
13
11.168983417796914
23
25.919828938579908
33
0
0
3DFACE
8
0
62
151
10
14.5
20
13.999999999999998
30
0
11
11.868118977845391
21
16.395120560309767
31
0
12
11.867384428564229
22
13.605183699964725
32
0
13
11.867384428564229
23
13.605183699964725
33
0
0
3DFACE
8
0
62
151
10
11.868118977845391
20
16.395120560309767
30
0
11
9.6
21
15.
31
0
12
11.867384428564229
22
13.605183699964725
32
0
13
11.867384428564229
23
13.605183699964725
33
0
0
3DFACE
8
0
62
151
10
-11.696764578593317
20
-21.055251047301567
30
0
11
-10.772552290974414
21
-24.023804604343592
31
0
12
-8.5
22
-21.23606843034219
32
0
13
-8.5
23
-21.23606843034219
33
0
0
3DFACE
8
0
62
151
10
14.5
20
16.799999999999997
30
0
11
11.868118977845391
21
16.395120560309767
31
0
12
14.5
22
13.999999999999998
32
0
13
14.5
23
13.999999999999998
33
0
0
3DFACE
8
0
62
151
10
11.345124843354442
20
32.283449102827866
30
0
11
9.177137294492907
21
33.709593330663495
31
0
12
9.310059275353678
22
30.77378239094131
32
0
13
9.310059275353678
23
30.77378239094131
33
0
0
3DFACE
8
0
62
151
10
11.867384428564229
20
13.605183699964725
30
0
11
9.6
21
15.
31
0
12
9.277817459305203
22
14.222182540694797
32
0
13
9.277817459305203
23
14.222182540694797
33
0
0
3DFACE
8
0
62
151
10
11.868118977845391
20
16.395120560309767
30
0
11
9.944384523787605
21
18.487052706609834
31
0
12
9.277817459305203
22
15.777817459305203
32
0
13
9.277817459305203
23
15.777817459305203
33
0
0
3DFACE
8
0
62
151
10
11.168983417796914
20
25.919828938579908
30
0
11
10.140444389020804
21
27.945750405961586
31
0
12
9.310059275353678
22
27.22621760905869
32
0
13
9.310059275353678
23
27.22621760905869
33
0
0
3DFACE
8
0
62
151
10
10.912285361617888
20
4.268787039636055
30
0
11
8.175692207768293
21
3.8040574981198176
31
0
12
10.404057498119816
22
1.5756922077682929
32
0
13
10.404057498119816
23
1.5756922077682929
33
0
0
3DFACE
8
0
62
151
10
10.404057498119816
20
1.5756922077682929
30
0
11
7.448528137423857
21
0.8485281374238569
31
0
12
7.8
22
0
32
0
13
7.8
23
0
33
0
0
3DFACE
8
0
62
151
10
9.277817459305203
20
15.777817459305203
30
0
11
9.6
21
15.
31
0
12
11.868118977845391
22
16.395120560309767
32
0
13
11.868118977845391
23
16.395120560309767
33
0
0
3DFACE
8
0
62
151
10
-11.32992443798668
20
4.729924437986678
30
0
11
-14.5
21
5.6
31
0
12
-13.564062151022739
22
2.8
32
0
13
-13.564062151022739
23
2.8
33
0
0
3DFACE
8
0
62
151
10
7.969289689214379
20
21.45403001572038
30
0
11
11.2598106750461
21
21.753277203217223
31
0
12
9.173541421892955
22
24.315416512617
32
0
13
9.173541421892955
23
24.315416512617
33
0
0
3DFACE
8
0
62
151
10
11.168983417796914
20
25.919828938579908
30
0
11
9.310059275353678
21
27.22621760905869
31
0
12
9.173541421892955
22
24.315416512617
32
0
13
9.173541421892955
23
24.315416512617
33
0
0
3DFACE
8
0
62
151
10
7.334613672972429
20
-6.9556050422456845
30
0
11
5.024307792231706
21
-3.8040574981198176
31
0
12
4.1233309235608795
22
-7.527731014311222
32
0
13
4.1233309235608795
23
-7.527731014311222
33
0
0
3DFACE
8
0
62
151
10
9.177137294492907
20
33.709593330663495
30
0
11
9.151637339273593
21
36.397571151011974
31
0
12
6.24687308111012
22
33.933659764018856
32
0
13
6.24687308111012
23
33.933659764018856
33
0
0
3DFACE
8
0
62
151
10
-11.696764578593317
20
-21.055251047301567
30
0
11
-14.5
21
-19.599999999999998
31
0
12
-14.5
22
-22.4
32
0
13
-14.5
23
-22.4
33
0
0
3DFACE
8
0
62
151
10
12.321403619069308
20
27.8779346572307
30
0
11
12.918823093282896
21
30.29748352779572
31
0
12
10.45
22
29.
32
0
13
10.45
23
29.
33
0
0
3DFACE
8
0
62
151
10
-13.57400582324994
20
25.2
30
0
11
-11.867384428564229
21
27.605183699964723
31
0
12
-14.5
22
27.999999999999996
32
0
13
-14.5
23
27.999999999999996
33
0
0
3DFACE
8
0
62
151
10
14.5
20
-25.199999999999996
30
0
11
11.867384428564229
21
-27.605183699964723
31
0
12
14.5
22
-27.999999999999996
32
0
13
14.5
23
-27.999999999999996
33
0
0
3DFACE
8
0
62
151
10
12.918823093282896
20
30.29748352779572
30
0
11
11.345124843354442
21
32.283449102827866
31
0
12
10.140444389020804
22
30.054249594038414
32
0
13
10.140444389020804
23
30.054249594038414
33
0
0
3DFACE
8
0
62
151
10
12.321403619069308
20
27.8779346572307
30
0
11
10.45
21
29.
31
0
12
10.140444389020804
22
27.945750405961586
32
0
13
10.140444389020804
23
27.945750405961586
33
0
0
3DFACE
8
0
62
151
10
9.944384523787612
20
-25.512947293390166
30
0
11
9.277817459305203
21
-28.2221825406948
31
0
12
11.867384428564229
22
-27.605183699964723
32
0
13
11.867384428564229
23
-27.605183699964723
33
0
0
3DFACE
8
0
62
151
10
14.5
20
27.999999999999996
30
0
11
12.918823093282896
21
30.29748352779572
31
0
12
12.321403619069308
22
27.8779346572307
32
0
13
12.321403619069308
23
27.8779346572307
33
0
0
3DFACE
8
0
62
151
10
14.5
20
27.999999999999996
30
0
11
12.321403619069308
21
27.8779346572307
31
0
12
14.5
22
25.199999999999996
32
0
13
14.5
23
25.199999999999996
33
0
0
3DFACE
8
0
62
151
10
9.310059275353678
20
27.22621760905869
30
0
11
8.222486065367093
21
27.06984818833218
31
0
12
9.173541421892955
22
24.315416512617
32
0
13
9.173541421892955
23
24.315416512617
33
0
0
3DFACE
8
0
62
151
10
10.140444389020804
20
30.054249594038414
30
0
11
10.45
21
29.
31
0
12
12.918823093282896
22
30.29748352779572
32
0
13
12.918823093282896
23
30.29748352779572
33
0
0
3DFACE
8
0
62
151
10
12.6875
20
42.
30
0
11
9.64375
21
42.01635044642857
31
0
12
10.521434647008789
22
38.71047632548908
32
0
13
10.521434647008789
23
38.71047632548908
33
0
0
3DFACE
8
0
62
151
10
9.151637339273593
20
36.397571151011974
30
0
11
9.177137294492907
21
33.709593330663495
31
0
12
12.375773730643406
22
36.05018300370053
32
0
13
12.375773730643406
23
36.05018300370053
33
0
0
3DFACE
8
0
62
151
10
14.5
20
39.199999999999996
30
0
11
14.5
21
44.8
31
0
12
12.6875
22
42.
32
0
13
12.6875
23
42.
33
0
0
3DFACE
8
0
62
151
10
6.227447709025585
20
24.0238046043436
30
0
11
7.223021568806693
21
27.526288330009198
31
0
12
5.162052935387285
22
26.854831677719833
32
0
13
5.162052935387285
23
26.854831677719833
33
0
0
3DFACE
8
0
62
151
10
3.35
20
37.5
30
0
11
4.424807590265399
21
35.41333790513701
31
0
12
6.7
22
37.5
32
0
13
6.7
23
37.5
33
0
0
3DFACE
8
0
62
151
10
3.0500000000000003
20
24.275
30
0
11
5.162052935387285
21
26.854831677719833
31
0
12
3.
22
26.7
32
0
13
3.
23
26.7
33
0
0
3DFACE
8
0
62
151
10
2.6099316290495524
20
33.92485031713671
30
0
11
0
21
37.5
31
0
12
-0.40259942131940296
22
34.46586797550632
32
0
13
-0.40259942131940296
23
34.46586797550632
33
0
0
3DFACE
8
0
62
151
10
8.222486065367093
20
27.06984818833218
30
0
11
6.227447709025585
21
24.0238046043436
31
0
12
9.173541421892955
22
24.315416512617
32
0
13
9.173541421892955
23
24.315416512617
33
0
0
3DFACE
8
0
62
151
10
14.5
20
25.199999999999996
30
0
11
11.168983417796914
21
25.919828938579908
31
0
12
12.467980592303674
22
23.863880117923767
32
0
13
12.467980592303674
23
23.863880117923767
33
0
0
3DFACE
8
0
62
151
10
9.177137294492907
20
33.709593330663495
30
0
11
6.24687308111012
21
33.933659764018856
31
0
12
8.222486065367095
22
30.93015181166782
32
0
13
8.222486065367095
23
30.93015181166782
33
0
0
3DFACE
8
0
62
151
10
14.5
20
27.999999999999996
30
0
11
14.5
21
33.599999999999994
31
0
12
12.918823093282896
22
30.29748352779572
32
0
13
12.918823093282896
23
30.29748352779572
33
0
0
3DFACE
8
0
62
151
10
7.7221825406947975
20
15.777817459305203
30
0
11
8.5
21
16.1
31
0
12
7.055615476212395
22
18.487052706609834
32
0
13
7.055615476212395
23
18.487052706609834
33
0
0
3DFACE
8
0
62
151
10
-6.499601412192956
20
5.640873407333137
30
0
11
-4.383176218360677
21
7.760116864793855
31
0
12
-6.756766419721261
22
8.114138293724096
32
0
13
-6.756766419721261
23
8.114138293724096
33
0
0
3DFACE
8
0
62
151
10
0
20
21.85
30
0
11
0.2604722665003956
21
19.47721162951831
31
0
12
1.5960199841394904
22
20.76438770242487
32
0
13
1.5960199841394904
23
20.76438770242487
33
0
0
3DFACE
8
0
62
151
10
4.724829369767699
20
-12.573845153797727
30
0
11
2.385465670953314
21
-13.868252258197485
31
0
12
3.9610942194959726
22
-16.558279608979554
32
0
13
3.9610942194959726
23
-16.558279608979554
33
0
0
3DFACE
8
0
62
151
10
1.9722406245487876
20
-3.416020966469877
30
0
11
1.1490666646784666
21
-0.9641814145298093
31
0
12
0.26047226650039496
22
-1.4772116295183122
32
0
13
0.26047226650039496
23
-1.4772116295183122
33
0
0
3DFACE
8
0
62
151
10
-7.689940724646322
20
-27.22621760905869
30
0
11
-6.859555610979196
21
-27.945750405961586
31
0
12
-5.847432227686827
22
-25.938773603367405
32
0
13
-5.847432227686827
23
-25.938773603367405
33
0
0
3DFACE
8
0
62
151
10
14.5
20
22.4
30
0
11
14.5
21
25.199999999999996
31
0
12
12.467980592303674
22
23.863880117923767
32
0
13
12.467980592303674
23
23.863880117923767
33
0
0
3DFACE
8
0
62
151
10
-3.
20
-26.7
30
0
11
-5.847432227686827
21
-25.938773603367405
31
0
12
-4.74438589719067
22
-27.897252202162225
32
0
13
-4.74438589719067
23
-27.897252202162225
33
0
0
3DFACE
8
0
62
151
10
-5.879086938998724
20
-22.238664626930415
30
0
11
-5.847432227686827
21
-25.938773603367405
31
0
12
-3.0500000000000003
22
-24.275
32
0
13
-3.0500000000000003
23
-24.275
33
0
0
3DFACE
8
0
62
151
10
-1.5718832938647418
20
-29.68762524101857
30
0
11
-2.5968855248770124
21
-32.03982864648723
31
0
12
0.10489303153044238
22
-32.26551780442508
32
0
13
0.10489303153044238
23
-32.26551780442508
33
0
0
3DFACE
8
0
62
151
10
-4.74438589719067
20
-27.897252202162225
30
0
11
-4.6134940489753
21
-30.141181112183475
31
0
12
-1.5718832938647418
22
-29.68762524101857
32
0
13
-1.5718832938647418
23
-29.68762524101857
33
0
0
3DFACE
8
0
62
151
10
-12.272578384145838
20
7.5054546833148255
30
0
11
-8.92529431657687
21
7.08615562037995
31
0
12
-10.77255229097441
22
10.023804604343598
32
0
13
-10.77255229097441
23
10.023804604343598
33
0
0
3DFACE
8
0
62
151
10
-5.723794779834105
20
11.796088382303664
30
0
11
-7.819342993729563
21
10.26592653621116
31
0
12
-6.756766419721261
22
8.114138293724096
32
0
13
-6.756766419721261
23
8.114138293724096
33
0
0
3DFACE
8
0
62
151
10
-9.776978431193307
20
16.473711669990802
30
0
11
-10.772552290974414
21
19.976195395656408
31
0
12
-11.940556623307799
22
17.211111481537962
32
0
13
-11.940556623307799
23
17.211111481537962
33
0
0
3DFACE
8
0
62
151
10
-14.5
20
19.599999999999998
30
0
11
-11.940556623307799
21
17.211111481537962
31
0
12
-10.772552290974414
22
19.976195395656408
32
0
13
-10.772552290974414
23
19.976195395656408
33
0
0
3DFACE
8
0
62
151
10
-5.897208902653408
20
21.663281503566314
30
0
11
-5.041033684845221
21
18.99185992513998
31
0
12
-3.1
22
21.85
32
0
13
-3.1
23
21.85
33
0
0
3DFACE
8
0
62
151
10
-9.944384523787612
20
25.512947293390166
30
0
11
-8.495600852856601
21
22.71570761266528
31
0
12
-7.0580036359940275
22
25.518712821124083
32
0
13
-7.0580036359940275
23
25.518712821124083
33
0
0
3DFACE
8
0
62
151
10
-6.859555610979196
20
13.945750405961585
30
0
11
-7.6899407246463225
21
13.22621760905869
31
0
12
-5.723794779834105
22
11.796088382303664
32
0
13
-5.723794779834105
23
11.796088382303664
33
0
0
3DFACE
8
0
62
151
10
-0.8284635332961265
20
13.30154982540142
30
0
11
-4.015258371599838
21
16.31683895608184
31
0
12
-4.2998657899781
22
13.766729322040813
32
0
13
-4.2998657899781
23
13.766729322040813
33
0
0
3DFACE
8
0
62
151
10
-2.4699303807223822
20
20.072517671497714
30
0
11
-3.2055121958500985
21
18.
31
0
12
-1.4095389311788624
22
18.513030214988504
32
0
13
-1.4095389311788624
23
18.513030214988504
33
0
0
3DFACE
8
0
62
151
10
-5.041033684845221
20
18.99185992513998
30
0
11
-4.015258371599838
21
16.31683895608184
31
0
12
-3.2055121958500985
22
18.
32
0
13
-3.2055121958500985
23
18.
33
0
0
3DFACE
8
0
62
151
10
3.1
20
-21.85
30
0
11
3.6015698180094797
21
-19.310864210386995
31
0
12
1.5960199841394898
22
-20.76438770242487
32
0
13
1.5960199841394898
23
-20.76438770242487
33
0
0
3DFACE
8
0
62
151
10
3.9610942194959726
20
-16.558279608979554
30
0
11
3.6015698180094797
21
-19.310864210386995
31
0
12
6.227447709025585
22
-19.9761953956564
32
0
13
6.227447709025585
23
-19.9761953956564
33
0
0
3DFACE
8
0
62
151
10
7.223021568806694
20
-13.526288330009196
30
0
11
6.227447709025592
21
-10.023804604343594
31
0
12
4.724829369767699
22
-12.573845153797727
32
0
13
4.724829369767699
23
-12.573845153797727
33
0
0
3DFACE
8
0
62
151
10
1.1464780416797826
20
-8.867894337704179
30
0
11
4.1233309235608795
21
-7.527731014311222
31
0
12
1.1940147853164842
22
-6.086621103182862
32
0
13
1.1940147853164842
23
-6.086621103182862
33
0
0
3DFACE
8
0
62
151
10
8.060719175929638
20
-22.534965302625487
30
0
11
9.159244573388515
21
-19.585146721879724
31
0
12
6.227447709025585
22
-19.9761953956564
32
0
13
6.227447709025585
23
-19.9761953956564
33
0
0
3DFACE
8
0
62
151
10
11.799278359617983
20
-21.050146341548476
30
0
11
14.5
21
-22.4
31
0
12
14.5
22
-19.599999999999998
32
0
13
14.5
23
-19.599999999999998
33
0
0
3DFACE
8
0
62
151
10
11.597470412104254
20
-11.425328586400955
30
0
11
14.5
21
-11.2
31
0
12
12.131944918352175
22
-9.033086799401628
32
0
13
12.131944918352175
23
-9.033086799401628
33
0
0
3DFACE
8
0
62
151
10
9.126823141068135
20
-10.640349292988235
30
0
11
10.762623250009224
21
-6.999999999999999
31
0
12
7.334613672972429
22
-6.9556050422456845
32
0
13
7.334613672972429
23
-6.9556050422456845
33
0
0
3DFACE
8
0
62
151
10
5.0430556135951825
20
31.221643257383498
30
0
11
6.62898870145173
21
29.549378485840787
31
0
12
7.223021568806694
22
30.473711669990802
32
0
13
7.223021568806694
23
30.473711669990802
33
0
0
3DFACE
8
0
62
151
10
6.62898870145173
20
29.549378485840787
30
0
11
5.0430556135951825
21
31.221643257383498
31
0
12
4.429904358011831
22
29.
32
0
13
4.429904358011831
23
29.
33
0
0
3DFACE
8
0
62
151
10
9.310059275353678
20
30.77378239094131
30
0
11
10.140444389020804
21
30.054249594038414
31
0
12
11.345124843354442
22
32.283449102827866
32
0
13
11.345124843354442
23
32.283449102827866
33
0
0
3DFACE
8
0
62
151
10
14.5
20
39.199999999999996
30
0
11
10.521434647008789
21
38.71047632548908
31
0
12
12.375773730643406
22
36.05018300370053
32
0
13
12.375773730643406
23
36.05018300370053
33
0
0
3DFACE
8
0
62
151
10
7.969289689214379
20
21.45403001572038
30
0
11
9.173541421892955
21
24.315416512617
31
0
12
6.227447709025585
22
24.0238046043436
32
0
13
6.227447709025585
23
24.0238046043436
33
0
0
3DFACE
8
0
62
151
10
9.173541421892955
20
24.315416512617
30
0
11
11.2598106750461
21
21.753277203217223
31
0
12
12.467980592303674
22
23.863880117923767
32
0
13
12.467980592303674
23
23.863880117923767
33
0
0
3DFACE
8
0
62
151
10
12.918823093282896
20
30.29748352779572
30
0
11
14.5
21
33.599999999999994
31
0
12
11.345124843354442
22
32.283449102827866
32
0
13
11.345124843354442
23
32.283449102827866
33
0
0
3DFACE
8
0
62
151
10
11.345124843354442
20
32.283449102827866
30
0
11
14.5
21
33.599999999999994
31
0
12
12.375773730643406
22
36.05018300370053
32
0
13
12.375773730643406
23
36.05018300370053
33
0
0
3DFACE
8
0
62
151
10
-1.9838873580520444
20
-7.176619813653321
30
0
11
-2.4747733827164926
21
-10.500200733751806
31
0
12
1.1464780416797826
22
-8.867894337704179
32
0
13
1.1464780416797826
23
-8.867894337704179
33
0
0
3DFACE
8
0
62
151
10
-2.4747733827164926
20
-10.500200733751806
30
0
11
-2.7457228671199068
21
-12.857074258035608
31
0
12
-0.1169870938397588
22
-11.540653319613929
32
0
13
-0.1169870938397588
23
-11.540653319613929
33
0
0
3DFACE
8
0
62
151
10
1.1841986787487568
20
6.04595405342653
30
0
11
-0.7167852265353267
21
4.065091023820362
31
0
12
1.972240624548789
22
3.416020966469877
32
0
13
1.972240624548789
23
3.416020966469877
33
0
0
3DFACE
8
0
62
151
10
-5.723794779834105
20
11.796088382303664
30
0
11
-4.383176218360677
21
7.760116864793855
31
0
12
-3.0466066177499713
22
10.444722560605053
32
0
13
-3.0466066177499713
23
10.444722560605053
33
0
0
3DFACE
8
0
62
151
10
2.437763780666964
20
-11.201616836843362
30
0
11
-0.1169870938397588
21
-11.540653319613929
31
0
12
2.385465670953314
22
-13.868252258197485
32
0
13
2.385465670953314
23
-13.868252258197485
33
0
0
3DFACE
8
0
62
151
10
-2.8247227593009936
20
-15.629776174492465
30
0
11
-0.6961601895823865
21
-14.051879373279787
31
0
12
-2.7457228671199068
22
-12.857074258035608
32
0
13
-2.7457228671199068
23
-12.857074258035608
33
0
0
3DFACE
8
0
62
151
10
-5.723794779834105
20
11.796088382303664
30
0
11
-6.756766419721261
21
8.114138293724096
31
0
12
-4.383176218360677
22
7.760116864793855
32
0
13
-4.383176218360677
23
7.760116864793855
33
0
0
3DFACE
8
0
62
151
10
-4.2998657899781
20
13.766729322040813
30
0
11
-5.723794779834105
21
11.796088382303664
31
0
12
-3.0466066177499713
22
10.444722560605053
32
0
13
-3.0466066177499713
23
10.444722560605053
33
0
0
3DFACE
8
0
62
151
10
-0.03397936520673017
20
31.427420561063165
30
0
11
1.6206321152407075
21
29.152033646195427
31
0
12
2.5717129662275307
22
31.443833893697356
32
0
13
2.5717129662275307
23
31.443833893697356
33
0
0
3DFACE
8
0
62
151
10
-5.018712821124106
20
30.441996364005966
30
0
11
-3.
21
26.7
31
0
12
-1.1818360649109712
22
28.85343227943965
32
0
13
-1.1818360649109712
23
28.85343227943965
33
0
0
3DFACE
8
0
62
151
10
-9.193242372043734
20
-36.266225406886406
30
0
11
-10.521434647008789
21
-38.71047632548908
31
0
12
-6.7
22
-37.5
32
0
13
-6.7
23
-37.5
33
0
0
3DFACE
8
0
62
151
10
-10.521434647008789
20
-38.71047632548908
30
0
11
-14.5
21
-39.199999999999996
31
0
12
-12.6875
22
-42.
32
0
13
-12.6875
23
-42.
33
0
0
3DFACE
8
0
62
151
10
-6.6499999999999995
20
39.75
30
0
11
-6.6
21
42.
31
0
12
-9.64375
22
42.01635044642857
32
0
13
-9.64375
23
42.01635044642857
33
0
0
3DFACE
8
0
62
151
10
-14.5
20
36.39999999999999
30
0
11
-14.5
21
33.599999999999994
31
0
12
-11.703874749752767
22
35.16514998627047
32
0
13
-11.703874749752767
23
35.16514998627047
33
0
0
3DFACE
8
0
62
151
10
6.6499999999999995
20
-39.75
30
0
11
6.6
21
-42.
31
0
12
9.64375
22
-42.01635044642857
32
0
13
9.64375
23
-42.01635044642857
33
0
0
3DFACE
8
0
62
151
10
14.5
20
-36.39999999999999
30
0
11
14.5
21
-33.599999999999994
31
0
12
11.703874749752762
22
-35.165149986270485
32
0
13
11.703874749752762
23
-35.165149986270485
33
0
0
3DFACE
8
0
62
151
10
9.151637339273593
20
36.397571151011974
30
0
11
10.521434647008789
21
38.71047632548908
31
0
12
6.7
22
37.5
32
0
13
6.7
23
37.5
33
0
0
3DFACE
8
0
62
151
10
10.521434647008789
20
38.71047632548908
30
0
11
14.5
21
39.199999999999996
31
0
12
12.6875
22
42.
32
0
13
12.6875
23
42.
33
0
0
3DFACE
8
0
62
151
10
5.0430556135951825
20
31.221643257383498
30
0
11
6.24687308111012
21
33.933659764018856
31
0
12
2.6099316290495524
22
33.92485031713671
32
0
13
2.6099316290495524
23
33.92485031713671
33
0
0
3DFACE
8
0
62
151
10
-0.40259942131940296
20
34.46586797550632
30
0
11
-3.35
21
37.5
31
0
12
-5.0249999999999995
22
34.86208928294405
32
0
13
-5.0249999999999995
23
34.86208928294405
33
0
0
3DFACE
8
0
62
151
10
-14.5
20
-8.399999999999999
30
0
11
-11.924435536877096
21
-9.52072417303305
31
0
12
-10.68528073653574
22
-6.999999999999999
32
0
13
-10.68528073653574
23
-6.999999999999999
33
0
0
3DFACE
8
0
62
151
10
-8.715933706809778
20
-8.993980406720059
30
0
11
-7.055615476212401
21
-11.512947293390166
31
0
12
-6.36004279814599
22
-7.476066175826471
32
0
13
-6.36004279814599
23
-7.476066175826471
33
0
0
3DFACE
8
0
62
151
10
-14.5
20
27.999999999999996
30
0
11
-14.5
21
22.4
31
0
12
-13.57400582324994
22
25.2
32
0
13
-13.57400582324994
23
25.2
33
0
0
3DFACE
8
0
62
151
10
-13.57400582324994
20
25.2
30
0
11
-14.5
21
22.4
31
0
12
-11.517083072801949
22
22.924587774079434
32
0
13
-11.517083072801949
23
22.924587774079434
33
0
0
3DFACE
8
0
62
151
10
14.5
20
8.399999999999999
30
0
11
11.924435536877096
21
9.52072417303305
31
0
12
10.68528073653574
22
6.999999999999999
32
0
13
10.68528073653574
23
6.999999999999999
33
0
0
3DFACE
8
0
62
151
10
8.863091573106724
20
9.018139498047182
30
0
11
7.055615476212401
21
11.512947293390166
31
0
12
6.6000000000000005
22
7.5109311804515
32
0
13
6.6000000000000005
23
7.5109311804515
33
0
0
3DFACE
8
0
62
151
10
11.846296935140424
20
-4.204360249785974
30
0
11
10.762623250009224
21
-6.999999999999999
31
0
12
14.5
22
-5.6
32
0
13
14.5
23
-5.6
33
0
0
3DFACE
8
0
62
151
10
8.175692207768291
20
-3.8040574981198176
30
0
11
5.024307792231706
21
-3.8040574981198176
31
0
12
7.334613672972429
22
-6.9556050422456845
32
0
13
7.334613672972429
23
-6.9556050422456845
33
0
0
3DFACE
8
0
62
151
10
2.437763780666964
20
-11.201616836843362
30
0
11
6.227447709025592
21
-10.023804604343594
31
0
12
4.1233309235608795
22
-7.527731014311222
32
0
13
4.1233309235608795
23
-7.527731014311222
33
0
0
3DFACE
8
0
62
151
10
-6.36004279814599
20
-7.476066175826471
30
0
11
-4.087276465131844
21
-8.563995480015382
31
0
12
-3.043356372501972
22
-4.9314099733525225
32
0
13
-3.043356372501972
23
-4.9314099733525225
33
0
0
3DFACE
8
0
62
151
10
3.8845635423319105
20
6.806301331472094
30
0
11
5.024307792231707
21
3.8040574981198176
31
0
12
6.6000000000000005
22
7.5109311804515
32
0
13
6.6000000000000005
23
7.5109311804515
33
0
0
3DFACE
8
0
62
151
10
2.154932719843789
20
14.267547042337972
30
0
11
-0.8284635332961265
21
13.30154982540142
31
0
12
1.3944422164727934
22
11.526278901544108
32
0
13
1.3944422164727934
23
11.526278901544108
33
0
0
3DFACE
8
0
62
151
10
-3.0929259378330367
20
5.373866319073639
30
0
11
-4.383176218360677
21
7.760116864793855
31
0
12
-6.499601412192956
22
5.640873407333137
32
0
13
-6.499601412192956
23
5.640873407333137
33
0
0
3DFACE
8
0
62
151
10
-0.7167852265353267
20
4.065091023820362
30
0
11
1.1841986787487568
21
6.04595405342653
31
0
12
-1.2478390787787879
22
8.045147310690572
32
0
13
-1.2478390787787879
23
8.045147310690572
33
0
0
3DFACE
8
0
62
151
10
2.5717129662275307
20
31.443833893697356
30
0
11
4.429904358011831
21
29.
31
0
12
5.0430556135951825
22
31.221643257383498
32
0
13
5.0430556135951825
23
31.221643257383498
33
0
0
3DFACE
8
0
62
151
10
-1.1818360649109712
20
28.85343227943965
30
0
11
1.6206321152407075
21
29.152033646195427
31
0
12
-0.03397936520673017
22
31.427420561063165
32
0
13
-0.03397936520673017
23
31.427420561063165
33
0
0
3DFACE
8
0
62
151
10
6.227447709025592
20
-10.023804604343594
30
0
11
2.437763780666964
21
-11.201616836843362
31
0
12
4.724829369767699
22
-12.573845153797727
32
0
13
4.724829369767699
23
-12.573845153797727
33
0
0
3DFACE
8
0
62
151
10
1.1464780416797826
20
-8.867894337704179
30
0
11
-2.4747733827164926
21
-10.500200733751806
31
0
12
-0.1169870938397588
22
-11.540653319613929
32
0
13
-0.1169870938397588
23
-11.540653319613929
33
0
0
3DFACE
8
0
62
151
10
1.1940147853164842
20
-6.086621103182862
30
0
11
-0.7167852265353294
21
-4.065091023820364
31
0
12
-1.9838873580520444
22
-7.176619813653321
32
0
13
-1.9838873580520444
23
-7.176619813653321
33
0
0
3DFACE
8
0
62
151
10
2.437763780666964
20
-11.201616836843362
30
0
11
4.1233309235608795
21
-7.527731014311222
31
0
12
1.1464780416797826
22
-8.867894337704179
32
0
13
1.1464780416797826
23
-8.867894337704179
33
0
0
3DFACE
8
0
62
151
10
3.8845635423319105
20
6.806301331472094
30
0
11
1.972240624548789
21
3.416020966469877
31
0
12
5.024307792231707
22
3.8040574981198176
32
0
13
5.024307792231707
23
3.8040574981198176
33
0
0
3DFACE
8
0
62
151
10
-1.2478390787787879
20
8.045147310690572
30
0
11
1.1841986787487568
21
6.04595405342653
31
0
12
1.8283903708189748
22
8.714769373765755
32
0
13
1.8283903708189748
23
8.714769373765755
33
0
0
3DFACE
8
0
62
151
10
-1.1818360649109712
20
28.85343227943965
30
0
11
-0.03397936520673017
21
31.427420561063165
31
0
12
-2.8607086777444537
22
32.6260697734659
32
0
13
-2.8607086777444537
23
32.6260697734659
33
0
0
3DFACE
8
0
62
151
10
3.
20
26.7
30
0
11
-1.1818360649109712
21
28.85343227943965
31
0
12
-3.
22
26.7
32
0
13
-3.
23
26.7
33
0
0
3DFACE
8
0
62
151
10
4.1233309235608795
20
-7.527731014311222
30
0
11
6.227447709025592
21
-10.023804604343594
31
0
12
7.334613672972429
22
-6.9556050422456845
32
0
13
7.334613672972429
23
-6.9556050422456845
33
0
0
3DFACE
8
0
62
151
10
5.024307792231706
20
-3.8040574981198176
30
0
11
1.1940147853164842
21
-6.086621103182862
31
0
12
4.1233309235608795
22
-7.527731014311222
32
0
13
4.1233309235608795
23
-7.527731014311222
33
0
0
3DFACE
8
0
62
151
10
-1.2478390787787879
20
8.045147310690572
30
0
11
1.8283903708189748
21
8.714769373765755
31
0
12
1.3944422164727934
22
11.526278901544108
32
0
13
1.3944422164727934
23
11.526278901544108
33
0
0
3DFACE
8
0
62
151
10
-1.2478390787787879
20
8.045147310690572
30
0
11
-4.383176218360677
21
7.760116864793855
31
0
12
-3.0929259378330367
22
5.373866319073639
32
0
13
-3.0929259378330367
23
5.373866319073639
33
0
0
3DFACE
8
0
62
151
10
-5.018712821124106
20
30.441996364005966
30
0
11
-2.8607086777444537
21
32.6260697734659
31
0
12
-7.055615476212388
22
32.48705270660983
32
0
13
-7.055615476212388
23
32.48705270660983
33
0
0
3DFACE
8
0
62
151
10
-2.8607086777444537
20
32.6260697734659
30
0
11
-0.03397936520673017
21
31.427420561063165
31
0
12
-0.40259942131940296
22
34.46586797550632
32
0
13
-0.40259942131940296
23
34.46586797550632
33
0
0
3DFACE
8
0
62
151
10
5.018712821124101
20
-30.441996364005966
30
0
11
3.521480853455511
21
-32.654176970806645
31
0
12
7.055615476212388
22
-32.48705270660983
32
0
13
7.055615476212388
23
-32.48705270660983
33
0
0
3DFACE
8
0
62
151
10
-1.6750000000000003
20
-34.43432598691188
30
0
11
0
21
-37.5
31
0
12
1.6788367460192903
22
-34.588113188846
32
0
13
1.6788367460192903
23
-34.588113188846
33
0
0
3DFACE
8
0
62
151
10
-6.7
20
37.5
30
0
11
-10.521434647008789
21
38.71047632548908
31
0
12
-8.5
22
35.10860370001512
32
0
13
-8.5
23
35.10860370001512
33
0
0
3DFACE
8
0
62
151
10
-9.944384523787612
20
32.48705270660983
30
0
11
-11.703874749752767
21
35.16514998627047
31
0
12
-14.5
22
33.599999999999994
32
0
13
-14.5
23
33.599999999999994
33
0
0
3DFACE
8
0
62
151
10
-8.92529431657687
20
7.08615562037995
30
0
11
-11.32992443798668
21
4.729924437986678
31
0
12
-8.175692207768293
22
3.8040574981198176
32
0
13
-8.175692207768293
23
3.8040574981198176
33
0
0
3DFACE
8
0
62
151
10
-12.272578384145838
20
7.5054546833148255
30
0
11
-11.32992443798668
21
4.729924437986678
31
0
12
-8.92529431657687
22
7.08615562037995
32
0
13
-8.92529431657687
23
7.08615562037995
33
0
0
3DFACE
8
0
62
151
10
-8.408875303750817
20
-6.2042408250193635
30
0
11
-8.175692207768293
21
-3.8040574981198176
31
0
12
-11.829729961209907
22
-4.2212221242133054
32
0
13
-11.829729961209907
23
-4.2212221242133054
33
0
0
3DFACE
8
0
62
151
10
-7.055615476212401
20
-11.512947293390166
30
0
11
-5.012947293390167
21
-13.5556154762124
31
0
12
-2.4747733827164926
22
-10.500200733751806
32
0
13
-2.4747733827164926
23
-10.500200733751806
33
0
0
3DFACE
8
0
62
151
10
6.7
20
-37.5
30
0
11
10.521434647008789
21
-38.71047632548908
31
0
12
8.499999999999988
22
-35.10860370001512
32
0
13
8.499999999999988
23
-35.10860370001512
33
0
0
3DFACE
8
0
62
151
10
9.9443845237876
20
-32.48705270660984
30
0
11
11.703874749752762
21
-35.165149986270485
31
0
12
14.5
22
-33.599999999999994
32
0
13
14.5
23
-33.599999999999994
33
0
0
3DFACE
8
0
62
151
10
6.6000000000000005
20
7.5109311804515
30
0
11
7.055615476212401
21
11.512947293390166
31
0
12
4.153257810205318
22
10.653257810205318
32
0
13
4.153257810205318
23
10.653257810205318
33
0
0
3DFACE
8
0
62
151
10
8.175692207768293
20
3.8040574981198176
30
0
11
8.502020018972289
21
6.131099675359257
31
0
12
5.024307792231707
22
3.8040574981198176
32
0
13
5.024307792231707
23
3.8040574981198176
33
0
0
3DFACE
8
0
62
151
10
3.8845635423319105
20
6.806301331472094
30
0
11
1.1841986787487568
21
6.04595405342653
31
0
12
1.972240624548789
22
3.416020966469877
32
0
13
1.972240624548789
23
3.416020966469877
33
0
0
3DFACE
8
0
62
151
10
4.153257810205318
20
10.653257810205318
30
0
11
3.8845635423319105
21
6.806301331472094
31
0
12
6.6000000000000005
22
7.5109311804515
32
0
13
6.6000000000000005
23
7.5109311804515
33
0
0
3DFACE
8
0
62
151
10
-1.6750000000000003
20
-34.43432598691188
30
0
11
-5.025
21
-35.637195096773254
31
0
12
-3.35
22
-37.5
32
0
13
-3.35
23
-37.5
33
0
0
3DFACE
8
0
62
151
10
-7.819342993729564
20
-33.73407346378883
30
0
11
-5.025
21
-35.637195096773254
31
0
12
-4.917545792477696
22
-33.134372549973065
32
0
13
-4.917545792477696
23
-33.134372549973065
33
0
0
3DFACE
8
0
62
151
10
0
20
-37.5
30
0
11
3.35
21
-37.5
31
0
12
1.6788367460192903
22
-34.588113188846
32
0
13
1.6788367460192903
23
-34.588113188846
33
0
0
3DFACE
8
0
62
151
10
0.10489303153044238
20
-32.26551780442508
30
0
11
3.521480853455511
21
-32.654176970806645
31
0
12
1.5000000000000002
22
-29.83129828214694
32
0
13
1.5000000000000002
23
-29.83129828214694
33
0
0
3DFACE
8
0
62
151
10
14.5
20
-16.799999999999997
30
0
11
11.181600237248924
21
-18.09473164726117
31
0
12
14.5
22
-19.599999999999998
32
0
13
14.5
23
-19.599999999999998
33
0
0
3DFACE
8
0
62
151
10
8.060719175929638
20
-22.534965302625487
30
0
11
11.799278359617983
21
-21.050146341548476
31
0
12
9.159244573388515
22
-19.585146721879724
32
0
13
9.159244573388515
23
-19.585146721879724
33
0
0
3DFACE
8
0
62
151
10
12.113708190371732
20
-23.7977135815318
30
0
11
11.799278359617983
21
-21.050146341548476
31
0
12
8.060719175929638
22
-22.534965302625487
32
0
13
8.060719175929638
23
-22.534965302625487
33
0
0
3DFACE
8
0
62
151
10
-8.5
20
-21.23606843034219
30
0
11
-9.944384523787605
21
-18.487052706609834
31
0
12
-11.696764578593317
22
-21.055251047301567
32
0
13
-11.696764578593317
23
-21.055251047301567
33
0
0
3DFACE
8
0
62
151
10
-5.879086938998724
20
-22.238664626930415
30
0
11
-8.5
21
-21.23606843034219
31
0
12
-7.819342993729561
22
-24.26592653621115
32
0
13
-7.819342993729561
23
-24.26592653621115
33
0
0
3DFACE
8
0
62
151
10
-8.495600852856601
20
22.71570761266528
30
0
11
-9.944384523787612
21
25.512947293390166
31
0
12
-11.517083072801949
22
22.924587774079434
32
0
13
-11.517083072801949
23
22.924587774079434
33
0
0
3DFACE
8
0
62
151
10
-5.897208902653408
20
21.663281503566314
30
0
11
-8.495600852856601
21
22.71570761266528
31
0
12
-7.833455223532099
22
19.63592074956182
32
0
13
-7.833455223532099
23
19.63592074956182
33
0
0
3DFACE
8
0
62
151
10
5.426065507276174
20
-23.309925537646937
30
0
11
6.227447709025585
21
-19.9761953956564
31
0
12
3.1
22
-21.85
32
0
13
3.1
23
-21.85
33
0
0
3DFACE
8
0
62
151
10
9.944384523787612
20
-25.512947293390166
30
0
11
8.060719175929638
21
-22.534965302625487
31
0
12
7.058003635994029
22
-25.51871282112412
32
0
13
7.058003635994029
23
-25.51871282112412
33
0
0
3DFACE
8
0
62
151
10
7.969289689214379
20
21.45403001572038
30
0
11
6.227447709025585
21
24.0238046043436
31
0
12
3.1
22
21.85
32
0
13
3.1
23
21.85
33
0
0
3DFACE
8
0
62
151
10
9.944384523787605
20
18.487052706609834
30
0
11
7.969289689214379
21
21.45403001572038
31
0
12
7.055615476212395
22
18.487052706609834
32
0
13
7.055615476212395
23
18.487052706609834
33
0
0
3DFACE
8
0
62
151
10
6.24687308111012
20
33.933659764018856
30
0
11
4.424807590265399
21
35.41333790513701
31
0
12
2.6099316290495524
22
33.92485031713671
32
0
13
2.6099316290495524
23
33.92485031713671
33
0
0
3DFACE
8
0
62
151
10
0
20
37.5
30
0
11
2.6099316290495524
21
33.92485031713671
31
0
12
3.35
22
37.5
32
0
13
3.35
23
37.5
33
0
0
3DFACE
8
0
62
151
10
2.154932719843789
20
14.267547042337972
30
0
11
4.153257810205318
21
10.653257810205318
31
0
12
5.012947293390167
22
13.5556154762124
32
0
13
5.012947293390167
23
13.5556154762124
33
0
0
3DFACE
8
0
62
151
10
4.153257810205318
20
10.653257810205318
30
0
11
1.8283903708189748
21
8.714769373765755
31
0
12
3.8845635423319105
22
6.806301331472094
32
0
13
3.8845635423319105
23
6.806301331472094
33
0
0
3DFACE
8
0
62
151
10
1.3944422164727934
20
11.526278901544108
30
0
11
-0.8284635332961265
21
13.30154982540142
31
0
12
-3.0466066177499713
22
10.444722560605053
32
0
13
-3.0466066177499713
23
10.444722560605053
33
0
0
3DFACE
8
0
62
151
10
4.153257810205318
20
10.653257810205318
30
0
11
1.3944422164727934
21
11.526278901544108
31
0
12
1.8283903708189748
22
8.714769373765755
32
0
13
1.8283903708189748
23
8.714769373765755
33
0
0
3DFACE
8
0
62
151
10
9.126823141068135
20
-10.640349292988235
30
0
11
7.334613672972429
21
-6.9556050422456845
31
0
12
6.227447709025592
22
-10.023804604343594
32
0
13
6.227447709025592
23
-10.023804604343594
33
0
0
3DFACE
8
0
62
151
10
10.762623250009224
20
-6.999999999999999
30
0
11
8.175692207768291
21
-3.8040574981198176
31
0
12
7.334613672972429
22
-6.9556050422456845
32
0
13
7.334613672972429
23
-6.9556050422456845
33
0
0
3DFACE
8
0
62
151
10
1.3944422164727934
20
11.526278901544108
30
0
11
-3.0466066177499713
21
10.444722560605053
31
0
12
-1.2478390787787879
22
8.045147310690572
32
0
13
-1.2478390787787879
23
8.045147310690572
33
0
0
3DFACE
8
0
62
151
10
-4.2998657899781
20
13.766729322040813
30
0
11
-3.0466066177499713
21
10.444722560605053
31
0
12
-0.8284635332961265
22
13.30154982540142
32
0
13
-0.8284635332961265
23
13.30154982540142
33
0
0
3DFACE
8
0
62
151
10
-8.5
20
35.10860370001512
30
0
11
-10.521434647008789
21
38.71047632548908
31
0
12
-11.703874749752767
22
35.16514998627047
32
0
13
-11.703874749752767
23
35.16514998627047
33
0
0
3DFACE
8
0
62
151
10
-14.5
20
36.39999999999999
30
0
11
-10.521434647008789
21
38.71047632548908
31
0
12
-14.5
22
39.199999999999996
32
0
13
-14.5
23
39.199999999999996
33
0
0
3DFACE
8
0
62
151
10
-14.5
20
5.6
30
0
11
-14.5
21
0
31
0
12
-13.564062151022739
22
2.8
32
0
13
-13.564062151022739
23
2.8
33
0
0
3DFACE
8
0
62
151
10
-10.404057498119816
20
1.575692207768293
30
0
11
-13.564062151022739
21
2.8
31
0
12
-14.5
22
0
32
0
13
-14.5
23
0
33
0
0
3DFACE
8
0
62
151
10
-8.175692207768293
20
3.8040574981198176
30
0
11
-5.120542508100092
21
3.5717263418992395
31
0
12
-6.499601412192956
22
5.640873407333137
32
0
13
-6.499601412192956
23
5.640873407333137
33
0
0
3DFACE
8
0
62
151
10
-10.77255229097441
20
10.023804604343598
30
0
11
-8.92529431657687
21
7.08615562037995
31
0
12
-7.819342993729563
22
10.26592653621116
32
0
13
-7.819342993729563
23
10.26592653621116
33
0
0
3DFACE
8
0
62
151
10
-14.5
20
11.2
30
0
11
-12.272578384145838
21
7.5054546833148255
31
0
12
-10.77255229097441
22
10.023804604343598
32
0
13
-10.77255229097441
23
10.023804604343598
33
0
0
3DFACE
8
0
62
151
10
-14.5
20
5.6
30
0
11
-11.32992443798668
21
4.729924437986678
31
0
12
-12.272578384145838
22
7.5054546833148255
32
0
13
-12.272578384145838
23
7.5054546833148255
33
0
0
3DFACE
8
0
62
151
10
8.499999999999988
20
-35.10860370001512
30
0
11
10.521434647008789
21
-38.71047632548908
31
0
12
11.703874749752762
22
-35.165149986270485
32
0
13
11.703874749752762
23
-35.165149986270485
33
0
0
3DFACE
8
0
62
151
10
14.5
20
-36.39999999999999
30
0
11
10.521434647008789
21
-38.71047632548908
31
0
12
14.5
22
-39.199999999999996
32
0
13
14.5
23
-39.199999999999996
33
0
0
3DFACE
8
0
62
151
10
5.0249999999999995
20
-34.86208928294405
30
0
11
3.521480853455511
21
-32.654176970806645
31
0
12
1.6788367460192903
22
-34.588113188846
32
0
13
1.6788367460192903
23
-34.588113188846
33
0
0
3DFACE
8
0
62
151
10
1.5000000000000002
20
-29.83129828214694
30
0
11
3.521480853455511
21
-32.654176970806645
31
0
12
5.018712821124101
22
-30.441996364005966
32
0
13
5.018712821124101
23
-30.441996364005966
33
0
0
3DFACE
8
0
62
151
10
12.113708190371732
20
-23.7977135815318
30
0
11
9.944384523787612
21
-25.512947293390166
31
0
12
11.867384428564229
22
-27.605183699964723
32
0
13
11.867384428564229
23
-27.605183699964723
33
0
0
3DFACE
8
0
62
151
10
14.5
20
-22.4
30
0
11
11.799278359617983
21
-21.050146341548476
31
0
12
12.113708190371732
22
-23.7977135815318
32
0
13
12.113708190371732
23
-23.7977135815318
33
0
0
3DFACE
8
0
62
151
10
-5.879086938998724
20
-22.238664626930415
30
0
11
-7.819342993729561
21
-24.26592653621115
31
0
12
-5.847432227686827
22
-25.938773603367405
32
0
13
-5.847432227686827
23
-25.938773603367405
33
0
0
3DFACE
8
0
62
151
10
-3.1
20
-21.85
30
0
11
-2.469930380722383
21
-20.07251767149771
31
0
12
-5.052837000668764
22
-19.919258324810155
32
0
13
-5.052837000668764
23
-19.919258324810155
33
0
0
3DFACE
8
0
62
151
10
-13.57400582324994
20
25.2
30
0
11
-11.517083072801949
21
22.924587774079434
31
0
12
-9.944384523787612
22
25.512947293390166
32
0
13
-9.944384523787612
23
25.512947293390166
33
0
0
3DFACE
8
0
62
151
10
-10.772552290974414
20
19.976195395656408
30
0
11
-11.517083072801949
21
22.924587774079434
31
0
12
-14.5
22
22.4
32
0
13
-14.5
23
22.4
33
0
0
3DFACE
8
0
62
151
10
-5.041033684845221
20
18.99185992513998
30
0
11
-5.897208902653408
21
21.663281503566314
31
0
12
-7.833455223532099
22
19.63592074956182
32
0
13
-7.833455223532099
23
19.63592074956182
33
0
0
3DFACE
8
0
62
151
10
-3.1
20
21.85
30
0
11
-3.05
21
24.275
31
0
12
-5.354268953729701
22
23.929211990286298
32
0
13
-5.354268953729701
23
23.929211990286298
33
0
0
3DFACE
8
0
62
151
10
3.
20
-26.7
30
0
11
5.426065507276174
21
-23.309925537646937
31
0
12
3.1
22
-21.85
32
0
13
3.1
23
-21.85
33
0
0
3DFACE
8
0
62
151
10
7.058003635994029
20
-25.51871282112412
30
0
11
8.060719175929638
21
-22.534965302625487
31
0
12
5.426065507276174
22
-23.309925537646937
32
0
13
5.426065507276174
23
-23.309925537646937
33
0
0
3DFACE
8
0
62
151
10
7.055615476212388
20
-32.48705270660983
30
0
11
3.521480853455511
21
-32.654176970806645
31
0
12
5.0249999999999995
22
-34.86208928294405
32
0
13
5.0249999999999995
23
-34.86208928294405
33
0
0
3DFACE
8
0
62
151
10
-10.521434647008789
20
38.71047632548908
30
0
11
-14.5
21
36.39999999999999
31
0
12
-11.703874749752767
22
35.16514998627047
32
0
13
-11.703874749752767
23
35.16514998627047
33
0
0
3DFACE
8
0
62
151
10
10.521434647008789
20
-38.71047632548908
30
0
11
14.5
21
-36.39999999999999
31
0
12
11.703874749752762
22
-35.165149986270485
32
0
13
11.703874749752762
23
-35.165149986270485
33
0
0
3DFACE
8
0
62
151
10
5.293201890484829
20
-27.671700731246414
30
0
11
1.5000000000000002
21
-29.83129828214694
31
0
12
5.018712821124101
22
-30.441996364005966
32
0
13
5.018712821124101
23
-30.441996364005966
33
0
0
3DFACE
8
0
62
151
10
0
20
-26.7
30
0
11
-3.
21
-26.7
31
0
12
-1.5718832938647418
22
-29.68762524101857
32
0
13
-1.5718832938647418
23
-29.68762524101857
33
0
0
3DFACE
8
0
62
151
10
1.6788367460192903
20
-34.588113188846
30
0
11
0.10489303153044238
21
-32.26551780442508
31
0
12
-1.6750000000000003
22
-34.43432598691188
32
0
13
-1.6750000000000003
23
-34.43432598691188
33
0
0
3DFACE
8
0
62
151
10
3.521480853455511
20
-32.654176970806645
30
0
11
0.10489303153044238
21
-32.26551780442508
31
0
12
1.6788367460192903
22
-34.588113188846
32
0
13
1.6788367460192903
23
-34.588113188846
33
0
0
3DFACE
8
0
62
151
10
0.10489303153044238
20
-32.26551780442508
30
0
11
1.5000000000000002
21
-29.83129828214694
31
0
12
-1.5718832938647418
22
-29.68762524101857
32
0
13
-1.5718832938647418
23
-29.68762524101857
33
0
0
3DFACE
8
0
62
151
10
0
20
-26.7
30
0
11
-1.5718832938647418
21
-29.68762524101857
31
0
12
1.5000000000000002
22
-29.83129828214694
32
0
13
1.5000000000000002
23
-29.83129828214694
33
0
0
3DFACE
8
0
62
151
10
-4.74438589719067
20
-27.897252202162225
30
0
11
-1.5718832938647418
21
-29.68762524101857
31
0
12
-3.
22
-26.7
32
0
13
-3.
23
-26.7
33
0
0
3DFACE
8
0
62
151
10
-14.5
20
-44.8
30
0
11
-10.875
21
-44.8
31
0
12
-12.6875
22
-42.
32
0
13
-12.6875
23
-42.
33
0
0
3DFACE
8
0
62
151
10
-12.6875
20
-42.
30
0
11
-10.875
21
-44.8
31
0
12
-9.64375
22
-42.01635044642857
32
0
13
-9.64375
23
-42.01635044642857
33
0
0
3DFACE
8
0
62
151
10
-7.25
20
-44.8
30
0
11
-9.64375
21
-42.01635044642857
31
0
12
-10.875
22
-44.8
32
0
13
-10.875
23
-44.8
33
0
0
3DFACE
8
0
62
151
10
-9.64375
20
-42.01635044642857
30
0
11
-6.6
21
-42.
31
0
12
-6.6499999999999995
22
-39.75
32
0
13
-6.6499999999999995
23
-39.75
33
0
0
3DFACE
8
0
62
151
10
-10.521434647008789
20
38.71047632548908
30
0
11
-12.6875
21
42.
31
0
12
-14.5
22
39.199999999999996
32
0
13
-14.5
23
39.199999999999996
33
0
0
3DFACE
8
0
62
151
10
-10.875
20
44.8
30
0
11
-14.5
21
44.8
31
0
12
-12.6875
22
42.
32
0
13
-12.6875
23
42.
33
0
0
3DFACE
8
0
62
151
10
-10.875
20
44.8
30
0
11
-12.6875
21
42.
31
0
12
-9.64375
22
42.01635044642857
32
0
13
-9.64375
23
42.01635044642857
33
0
0
3DFACE
8
0
62
151
10
-10.521434647008789
20
38.71047632548908
30
0
11
-9.64375
21
42.01635044642857
31
0
12
-12.6875
22
42.
32
0
13
-12.6875
23
42.
33
0
0
3DFACE
8
0
62
151
10
14.5
20
-44.8
30
0
11
14.5
21
-39.199999999999996
31
0
12
12.6875
22
-42.
32
0
13
12.6875
23
-42.
33
0
0
3DFACE
8
0
62
151
10
10.521434647008789
20
-38.71047632548908
30
0
11
12.6875
21
-42.
31
0
12
14.5
22
-39.199999999999996
32
0
13
14.5
23
-39.199999999999996
33
0
0
3DFACE
8
0
62
151
10
10.875
20
-44.8
30
0
11
12.6875
21
-42.
31
0
12
9.64375
22
-42.01635044642857
32
0
13
9.64375
23
-42.01635044642857
33
0
0
3DFACE
8
0
62
151
10
10.521434647008789
20
-38.71047632548908
30
0
11
9.64375
21
-42.01635044642857
31
0
12
12.6875
22
-42.
32
0
13
12.6875
23
-42.
33
0
0
3DFACE
8
0
62
151
10
14.5
20
44.8
30
0
11
10.875
21
44.8
31
0
12
12.6875
22
42.
32
0
13
12.6875
23
42.
33
0
0
3DFACE
8
0
62
151
10
12.6875
20
42.
30
0
11
10.875
21
44.8
31
0
12
9.64375
22
42.01635044642857
32
0
13
9.64375
23
42.01635044642857
33
0
0
3DFACE
8
0
62
151
10
7.25
20
44.8
30
0
11
9.64375
21
42.01635044642857
31
0
12
10.875
22
44.8
32
0
13
10.875
23
44.8
33
0
0
3DFACE
8
0
62
151
10
9.64375
20
42.01635044642857
30
0
11
6.6
21
42.
31
0
12
6.6499999999999995
22
39.75
32
0
13
6.6499999999999995
23
39.75
33
0
0
3DFACE
8
0
62
151
10
-14.5
20
33.599999999999994
30
0
11
-11.868118977845391
21
30.395120560309767
31
0
12
-9.944384523787612
22
32.48705270660983
32
0
13
-9.944384523787612
23
32.48705270660983
33
0
0
3DFACE
8
0
62
151
10
14.5
20
-33.599999999999994
30
0
11
11.868118977845393
21
-30.395120560309763
31
0
12
9.9443845237876
22
-32.48705270660984
32
0
13
9.9443845237876
23
-32.48705270660984
33
0
0
3DFACE
8
0
62
151
10
-14.5
20
-33.599999999999994
30
0
11
-14.5
21
-39.199999999999996
31
0
12
-12.899884302243422
22
-36.39999999999999
32
0
13
-12.899884302243422
23
-36.39999999999999
33
0
0
3DFACE
8
0
62
151
10
-10.521434647008789
20
-38.71047632548908
30
0
11
-12.899884302243422
21
-36.39999999999999
31
0
12
-14.5
22
-39.199999999999996
32
0
13
-14.5
23
-39.199999999999996
33
0
0
3DFACE
8
0
62
151
10
14.5
20
25.199999999999996
30
0
11
12.321403619069308
21
27.8779346572307
31
0
12
11.168983417796914
22
25.919828938579908
32
0
13
11.168983417796914
23
25.919828938579908
33
0
0
3DFACE
8
0
62
151
10
5.162052935387285
20
26.854831677719833
30
0
11
3.0500000000000003
21
24.275
31
0
12
6.227447709025585
22
24.0238046043436
32
0
13
6.227447709025585
23
24.0238046043436
33
0
0
3DFACE
8
0
62
151
10
7.969289689214379
20
21.45403001572038
30
0
11
9.944384523787605
21
18.487052706609834
31
0
12
11.2598106750461
22
21.753277203217223
32
0
13
11.2598106750461
23
21.753277203217223
33
0
0
3DFACE
8
0
62
151
10
12.107258777168779
20
19.513982380160794
30
0
11
11.2598106750461
21
21.753277203217223
31
0
12
9.944384523787605
22
18.487052706609834
32
0
13
9.944384523787605
23
18.487052706609834
33
0
0
3DFACE
8
0
62
151
10
14.5
20
-8.399999999999999
30
0
11
10.762623250009224
21
-6.999999999999999
31
0
12
12.131944918352175
22
-9.033086799401628
32
0
13
12.131944918352175
23
-9.033086799401628
33
0
0
3DFACE
8
0
62
151
10
9.126823141068135
20
-10.640349292988235
30
0
11
12.131944918352175
21
-9.033086799401628
31
0
12
10.762623250009224
22
-6.999999999999999
32
0
13
10.762623250009224
23
-6.999999999999999
33
0
0
3DFACE
8
0
62
151
10
10.404057498119817
20
-1.575692207768293
30
0
11
14.5
21
-2.8
31
0
12
14.5
22
0
32
0
13
14.5
23
0
33
0
0
3DFACE
8
0
62
151
10
8.175692207768291
20
-3.8040574981198176
30
0
11
11.846296935140424
21
-4.204360249785974
31
0
12
10.404057498119817
22
-1.575692207768293
32
0
13
10.404057498119817
23
-1.575692207768293
33
0
0
3DFACE
8
0
62
151
10
5.0430556135951825
20
31.221643257383498
30
0
11
2.6099316290495524
21
33.92485031713671
31
0
12
2.5717129662275307
22
31.443833893697356
32
0
13
2.5717129662275307
23
31.443833893697356
33
0
0
3DFACE
8
0
62
151
10
11.846296935140424
20
-4.204360249785974
30
0
11
14.5
21
-5.6
31
0
12
14.5
22
-2.8
32
0
13
14.5
23
-2.8
33
0
0
3DFACE
8
0
62
151
10
-0.03397936520673017
20
31.427420561063165
30
0
11
2.5717129662275307
21
31.443833893697356
31
0
12
2.6099316290495524
22
33.92485031713671
32
0
13
2.6099316290495524
23
33.92485031713671
33
0
0
3DFACE
8
0
62
151
10
6.7
20
37.5
30
0
11
4.424807590265399
21
35.41333790513701
31
0
12
6.24687308111012
22
33.933659764018856
32
0
13
6.24687308111012
23
33.933659764018856
33
0
0
3DFACE
8
0
62
151
10
3.35
20
37.5
30
0
11
2.6099316290495524
21
33.92485031713671
31
0
12
4.424807590265399
22
35.41333790513701
32
0
13
4.424807590265399
23
35.41333790513701
33
0
0
3DFACE
8
0
62
151
10
-3.35
20
37.5
30
0
11
-0.40259942131940296
21
34.46586797550632
31
0
12
0
22
37.5
32
0
13
0
23
37.5
33
0
0
3DFACE
8
0
62
151
10
-2.8607086777444537
20
32.6260697734659
30
0
11
-5.018712821124106
21
30.441996364005966
31
0
12
-1.1818360649109712
22
28.85343227943965
32
0
13
-1.1818360649109712
23
28.85343227943965
33
0
0
3DFACE
8
0
62
151
10
-0.40259942131940296
20
34.46586797550632
30
0
11
-5.0249999999999995
21
34.86208928294405
31
0
12
-2.8607086777444537
22
32.6260697734659
32
0
13
-2.8607086777444537
23
32.6260697734659
33
0
0
3DFACE
8
0
62
151
10
-7.055615476212388
20
32.48705270660983
30
0
11
-2.8607086777444537
21
32.6260697734659
31
0
12
-5.0249999999999995
22
34.86208928294405
32
0
13
-5.0249999999999995
23
34.86208928294405
33
0
0
3DFACE
8
0
62
151
10
-7.819342993729563
20
10.26592653621116
30
0
11
-8.92529431657687
21
7.08615562037995
31
0
12
-6.756766419721261
22
8.114138293724096
32
0
13
-6.756766419721261
23
8.114138293724096
33
0
0
3DFACE
8
0
62
151
10
-8.92529431657687
20
7.08615562037995
30
0
11
-8.175692207768293
21
3.8040574981198176
31
0
12
-6.499601412192956
22
5.640873407333137
32
0
13
-6.499601412192956
23
5.640873407333137
33
0
0
3DFACE
8
0
62
151
10
-6.499601412192956
20
5.640873407333137
30
0
11
-5.120542508100092
21
3.5717263418992395
31
0
12
-3.0929259378330367
22
5.373866319073639
32
0
13
-3.0929259378330367
23
5.373866319073639
33
0
0
3DFACE
8
0
62
151
10
-8.92529431657687
20
7.08615562037995
30
0
11
-6.499601412192956
21
5.640873407333137
31
0
12
-6.756766419721261
22
8.114138293724096
32
0
13
-6.756766419721261
23
8.114138293724096
33
0
0
3DFACE
8
0
62
151
10
-8.5
20
-21.23606843034219
30
0
11
-5.052837000668764
21
-19.919258324810155
31
0
12
-7.055615476212395
22
-18.487052706609834
32
0
13
-7.055615476212395
23
-18.487052706609834
33
0
0
3DFACE
8
0
62
151
10
-5.052837000668764
20
-19.919258324810155
30
0
11
-5.879086938998724
21
-22.238664626930415
31
0
12
-3.1
22
-21.85
32
0
13
-3.1
23
-21.85
33
0
0
3DFACE
8
0
62
151
10
-5.354268953729701
20
23.929211990286298
30
0
11
-3.05
21
24.275
31
0
12
-3.
22
26.7
32
0
13
-3.
23
26.7
33
0
0
3DFACE
8
0
62
151
10
-8.495600852856601
20
22.71570761266528
30
0
11
-5.354268953729701
21
23.929211990286298
31
0
12
-7.0580036359940275
22
25.518712821124083
32
0
13
-7.0580036359940275
23
25.518712821124083
33
0
0
3DFACE
8
0
62
151
10
0.10489303153044238
20
-32.26551780442508
30
0
11
-2.5968855248770124
21
-32.03982864648723
31
0
12
-1.6750000000000003
22
-34.43432598691188
32
0
13
-1.6750000000000003
23
-34.43432598691188
33
0
0
3DFACE
8
0
62
151
10
-4.6134940489753
20
-30.141181112183475
30
0
11
-2.5968855248770124
21
-32.03982864648723
31
0
12
-1.5718832938647418
22
-29.68762524101857
32
0
13
-1.5718832938647418
23
-29.68762524101857
33
0
0
3DFACE
8
0
62
151
10
9.173541421892955
20
24.315416512617
30
0
11
12.467980592303674
21
23.863880117923767
31
0
12
11.168983417796914
22
25.919828938579908
32
0
13
11.168983417796914
23
25.919828938579908
33
0
0
3DFACE
8
0
62
151
10
14.5
20
22.4
30
0
11
12.467980592303674
21
23.863880117923767
31
0
12
11.2598106750461
22
21.753277203217223
32
0
13
11.2598106750461
23
21.753277203217223
33
0
0
3DFACE
8
0
62
151
10
11.868118977845391
20
16.395120560309767
30
0
11
12.107258777168779
21
19.513982380160794
31
0
12
9.944384523787605
22
18.487052706609834
32
0
13
9.944384523787605
23
18.487052706609834
33
0
0
3DFACE
8
0
62
151
10
14.5
20
22.4
30
0
11
12.107258777168779
21
19.513982380160794
31
0
12
14.5
22
19.599999999999998
32
0
13
14.5
23
19.599999999999998
33
0
0
3DFACE
8
0
62
151
10
-6.6
20
-42.
30
0
11
-3.625
21
-44.8
31
0
12
-3.3
22
-42.
32
0
13
-3.3
23
-42.
33
0
0
3DFACE
8
0
62
151
10
6.6
20
42.
30
0
11
3.625
21
44.8
31
0
12
3.3
22
42.
32
0
13
3.3
23
42.
33
0
0
3DFACE
8
0
62
151
10
14.5
20
0
30
0
11
14.5
21
5.6
31
0
12
13.226096064088127
22
2.8000000000000003
32
0
13
13.226096064088127
23
2.8000000000000003
33
0
0
3DFACE
8
0
62
151
10
10.912285361617888
20
4.268787039636055
30
0
11
14.5
21
5.6
31
0
12
10.68528073653574
22
6.999999999999999
32
0
13
10.68528073653574
23
6.999999999999999
33
0
0
3DFACE
8
0
62
151
10
10.912285361617888
20
4.268787039636055
30
0
11
10.68528073653574
21
6.999999999999999
31
0
12
8.502020018972289
22
6.131099675359257
32
0
13
8.502020018972289
23
6.131099675359257
33
0
0
3DFACE
8
0
62
151
10
10.404057498119816
20
1.5756922077682929
30
0
11
13.226096064088127
21
2.8000000000000003
31
0
12
10.912285361617888
22
4.268787039636055
32
0
13
10.912285361617888
23
4.268787039636055
33
0
0
3DFACE
8
0
62
151
10
-9.944384523787605
20
-18.487052706609834
30
0
11
-11.868118977845391
21
-16.395120560309767
31
0
12
-14.5
22
-19.599999999999998
32
0
13
-14.5
23
-19.599999999999998
33
0
0
3DFACE
8
0
62
151
10
-14.5
20
-22.4
30
0
11
-10.772552290974414
21
-24.023804604343592
31
0
12
-11.696764578593317
22
-21.055251047301567
32
0
13
-11.696764578593317
23
-21.055251047301567
33
0
0
3DFACE
8
0
62
151
10
-7.819342993729564
20
-33.73407346378883
30
0
11
-9.193242372043734
21
-36.266225406886406
31
0
12
-6.7
22
-37.5
32
0
13
-6.7
23
-37.5
33
0
0
3DFACE
8
0
62
151
10
-14.5
20
-19.599999999999998
30
0
11
-11.696764578593317
21
-21.055251047301567
31
0
12
-9.944384523787605
22
-18.487052706609834
32
0
13
-9.944384523787605
23
-18.487052706609834
33
0
0
3DFACE
8
0
62
151
10
-12.899884302243422
20
-36.39999999999999
30
0
11
-9.193242372043734
21
-36.266225406886406
31
0
12
-10.772552290974415
22
-33.976195395656404
32
0
13
-10.772552290974415
23
-33.976195395656404
33
0
0
3DFACE
8
0
62
151
10
6.24687308111012
20
33.933659764018856
30
0
11
9.151637339273593
21
36.397571151011974
31
0
12
6.7
22
37.5
32
0
13
6.7
23
37.5
33
0
0
3DFACE
8
0
62
151
10
9.177137294492907
20
33.709593330663495
30
0
11
11.345124843354442
21
32.283449102827866
31
0
12
12.375773730643406
22
36.05018300370053
32
0
13
12.375773730643406
23
36.05018300370053
33
0
0
3DFACE
8
0
62
151
10
14.5
20
39.199999999999996
30
0
11
12.375773730643406
21
36.05018300370053
31
0
12
14.5
22
33.599999999999994
32
0
13
14.5
23
33.599999999999994
33
0
0
3DFACE
8
0
62
151
10
10.521434647008789
20
38.71047632548908
30
0
11
9.151637339273593
21
36.397571151011974
31
0
12
12.375773730643406
22
36.05018300370053
32
0
13
12.375773730643406
23
36.05018300370053
33
0
0
3DFACE
8
0
62
151
10
-14.5
20
-2.8
30
0
11
-11.829729961209907
21
-4.2212221242133054
31
0
12
-10.404057498119817
22
-1.5756922077682929
32
0
13
-10.404057498119817
23
-1.5756922077682929
33
0
0
3DFACE
8
0
62
151
10
-14.5
20
-5.6
30
0
11
-10.68528073653574
21
-6.999999999999999
31
0
12
-11.829729961209907
22
-4.2212221242133054
32
0
13
-11.829729961209907
23
-4.2212221242133054
33
0
0
3DFACE
8
0
62
151
10
-14.5
20
-11.2
30
0
11
-11.924435536877096
21
-9.52072417303305
31
0
12
-14.5
22
-8.399999999999999
32
0
13
-14.5
23
-8.399999999999999
33
0
0
3DFACE
8
0
62
151
10
-8.715933706809778
20
-8.993980406720059
30
0
11
-11.924435536877096
21
-9.52072417303305
31
0
12
-9.9443845237876
22
-11.512947293390166
32
0
13
-9.9443845237876
23
-11.512947293390166
33
0
0
3DFACE
8
0
62
151
10
14.5
20
11.2
30
0
11
11.924435536877096
21
9.52072417303305
31
0
12
14.5
22
8.399999999999999
32
0
13
14.5
23
8.399999999999999
33
0
0
3DFACE
8
0
62
151
10
8.863091573106724
20
9.018139498047182
30
0
11
11.924435536877096
21
9.52072417303305
31
0
12
9.9443845237876
22
11.512947293390166
32
0
13
9.9443845237876
23
11.512947293390166
33
0
0
3DFACE
8
0
62
151
10
1.1464780416797826
20
-8.867894337704179
30
0
11
1.1940147853164842
21
-6.086621103182862
31
0
12
-1.9838873580520444
22
-7.176619813653321
32
0
13
-1.9838873580520444
23
-7.176619813653321
33
0
0
3DFACE
8
0
62
151
10
-2.4747733827164926
20
-10.500200733751806
30
0
11
-4.087276465131844
21
-8.563995480015382
31
0
12
-7.055615476212401
22
-11.512947293390166
32
0
13
-7.055615476212401
23
-11.512947293390166
33
0
0
3DFACE
8
0
62
151
10
-3.043356372501972
20
-4.9314099733525225
30
0
11
-1.9838873580520444
21
-7.176619813653321
31
0
12
-0.7167852265353294
22
-4.065091023820364
32
0
13
-0.7167852265353294
23
-4.065091023820364
33
0
0
3DFACE
8
0
62
151
10
-4.087276465131844
20
-8.563995480015382
30
0
11
-1.9838873580520444
21
-7.176619813653321
31
0
12
-3.043356372501972
22
-4.9314099733525225
32
0
13
-3.043356372501972
23
-4.9314099733525225
33
0
0
3DFACE
8
0
62
151
10
-3.535010731786757
20
-1.269560123421914
30
0
11
-3.043356372501972
21
-4.9314099733525225
31
0
12
-0.7167852265353294
22
-4.065091023820364
32
0
13
-0.7167852265353294
23
-4.065091023820364
33
0
0
3DFACE
8
0
62
151
10
-6.36004279814599
20
-7.476066175826471
30
0
11
-3.043356372501972
21
-4.9314099733525225
31
0
12
-5.120542508100093
22
-3.5717263418992395
32
0
13
-5.120542508100093
23
-3.5717263418992395
33
0
0
3DFACE
8
0
62
151
10
-7.055615476212401
20
-11.512947293390166
30
0
11
-4.087276465131844
21
-8.563995480015382
31
0
12
-6.36004279814599
22
-7.476066175826471
32
0
13
-6.36004279814599
23
-7.476066175826471
33
0
0
3DFACE
8
0
62
151
10
-2.4747733827164926
20
-10.500200733751806
30
0
11
-1.9838873580520444
21
-7.176619813653321
31
0
12
-4.087276465131844
22
-8.563995480015382
32
0
13
-4.087276465131844
23
-8.563995480015382
33
0
0
3DFACE
8
0
62
151
10
-2.8247227593009936
20
-15.629776174492465
30
0
11
-2.7457228671199068
21
-12.857074258035608
31
0
12
-5.012947293390167
22
-13.5556154762124
32
0
13
-5.012947293390167
23
-13.5556154762124
33
0
0
3DFACE
8
0
62
151
10
-0.1169870938397588
20
-11.540653319613929
30
0
11
-2.7457228671199068
21
-12.857074258035608
31
0
12
-0.6961601895823865
22
-14.051879373279787
32
0
13
-0.6961601895823865
23
-14.051879373279787
33
0
0
3DFACE
8
0
62
151
10
2.385465670953314
20
-13.868252258197485
30
0
11
-0.1169870938397588
21
-11.540653319613929
31
0
12
-0.6961601895823865
22
-14.051879373279787
32
0
13
-0.6961601895823865
23
-14.051879373279787
33
0
0
3DFACE
8
0
62
151
10
1.1464780416797826
20
-8.867894337704179
30
0
11
-0.1169870938397588
21
-11.540653319613929
31
0
12
2.437763780666964
22
-11.201616836843362
32
0
13
2.437763780666964
23
-11.201616836843362
33
0
0
3DFACE
8
0
62
151
10
-3.5350107317867567
20
1.2695601234219132
30
0
11
-3.0929259378330367
21
5.373866319073639
31
0
12
-5.120542508100092
22
3.5717263418992395
32
0
13
-5.120542508100092
23
3.5717263418992395
33
0
0
3DFACE
8
0
62
151
10
-1.2478390787787879
20
8.045147310690572
30
0
11
-3.0929259378330367
21
5.373866319073639
31
0
12
-0.7167852265353267
22
4.065091023820362
32
0
13
-0.7167852265353267
23
4.065091023820362
33
0
0
3DFACE
8
0
62
151
10
-8.715933706809778
20
-8.993980406720059
30
0
11
-8.408875303750817
21
-6.2042408250193635
31
0
12
-10.68528073653574
22
-6.999999999999999
32
0
13
-10.68528073653574
23
-6.999999999999999
33
0
0
3DFACE
8
0
62
151
10
-5.120542508100093
20
-3.5717263418992395
30
0
11
-8.408875303750817
21
-6.2042408250193635
31
0
12
-6.36004279814599
22
-7.476066175826471
32
0
13
-6.36004279814599
23
-7.476066175826471
33
0
0
3DFACE
8
0
62
151
10
-11.924435536877096
20
-9.52072417303305
30
0
11
-8.715933706809778
21
-8.993980406720059
31
0
12
-10.68528073653574
22
-6.999999999999999
32
0
13
-10.68528073653574
23
-6.999999999999999
33
0
0
3DFACE
8
0
62
151
10
-7.055615476212401
20
-11.512947293390166
30
0
11
-8.715933706809778
21
-8.993980406720059
31
0
12
-9.9443845237876
22
-11.512947293390166
32
0
13
-9.9443845237876
23
-11.512947293390166
33
0
0
3DFACE
8
0
62
151
10
10.912285361617888
20
4.268787039636055
30
0
11
8.502020018972289
21
6.131099675359257
31
0
12
8.175692207768293
22
3.8040574981198176
32
0
13
8.175692207768293
23
3.8040574981198176
33
0
0
3DFACE
8
0
62
151
10
8.863091573106724
20
9.018139498047182
30
0
11
8.502020018972289
21
6.131099675359257
31
0
12
10.68528073653574
22
6.999999999999999
32
0
13
10.68528073653574
23
6.999999999999999
33
0
0
3DFACE
8
0
62
151
10
11.924435536877096
20
9.52072417303305
30
0
11
8.863091573106724
21
9.018139498047182
31
0
12
10.68528073653574
22
6.999999999999999
32
0
13
10.68528073653574
23
6.999999999999999
33
0
0
3DFACE
8
0
62
151
10
7.055615476212401
20
11.512947293390166
30
0
11
8.863091573106724
21
9.018139498047182
31
0
12
9.9443845237876
22
11.512947293390166
32
0
13
9.9443845237876
23
11.512947293390166
33
0
0
ENDSEC
0
EOF
