  0
SECTION
  2
BLOCKS
  0
ENDSEC
  0
SECTION
  2
ENTITIES
  0
LINE
  8
0
 10
14.5
 20
44.8
 11
-14.5
 21
44.8
  0
LINE
  8
0
 10
-14.5
 20
44.8
 11
-14.5
 21
-44.8
  0
LINE
  8
0
 10
-14.5
 20
-44.8
 11
14.5
 21
-44.8
  0
LINE
  8
0
 10
14.5
 20
-44.8
 11
14.5
 21
44.8
  0
LINE
  8
0
 10
-6.7
 20
37.5
 11
-6.59999
 21
42
  0
LINE
  8
0
 10
-6.59999
 20
42
 11
6.59999
 21
42
  0
LINE
  8
0
 10
6.59999
 20
42
 11
6.7
 21
37.5
  0
LINE
  8
0
 10
6.7
 20
37.5
 11
-6.7
 21
37.5
  0
LINE
  8
0
 10
7.22301
 20
28.5263
 11
6.62898
 21
29.4506
  0
LINE
  8
0
 10
6.62898
 20
29.4506
 11
6.62898
 21
30.5494
  0
LINE
  8
0
 10
6.62898
 20
30.5494
 11
7.22301
 21
31.4737
  0
LINE
  8
0
 10
7.22301
 20
31.4737
 11
8.22247
 21
31.9301
  0
LINE
  8
0
 10
8.22247
 20
31.9301
 11
9.31006
 21
31.7738
  0
LINE
  8
0
 10
9.31006
 20
31.7738
 11
10.1404
 21
31.0542
  0
LINE
  8
0
 10
10.1404
 20
31.0542
 11
10.45
 21
30
  0
LINE
  8
0
 10
10.45
 20
30
 11
10.1404
 21
28.9457
  0
LINE
  8
0
 10
10.1404
 20
28.9457
 11
9.31006
 21
28.2262
  0
LINE
  8
0
 10
9.31006
 20
28.2262
 11
8.22247
 21
28.0698
  0
LINE
  8
0
 10
8.22247
 20
28.0698
 11
7.22301
 21
28.5263
  0
LINE
  8
0
 10
-9.27782
 20
29.2222
 11
-9.59999
 21
30
  0
LINE
  8
0
 10
-9.59999
 20
30
 11
-9.27782
 21
30.7778
  0
LINE
  8
0
 10
-9.27782
 20
30.7778
 11
-8.5
 21
31.1
  0
LINE
  8
0
 10
-8.5
 20
31.1
 11
-7.72217
 21
30.7778
  0
LINE
  8
0
 10
-7.72217
 20
30.7778
 11
-7.39999
 21
30
  0
LINE
  8
0
 10
-7.39999
 20
30
 11
-7.72217
 21
29.2222
  0
LINE
  8
0
 10
-7.72217
 20
29.2222
 11
-8.5
 21
28.9
  0
LINE
  8
0
 10
-8.5
 20
28.9
 11
-9.27782
 21
29.2222
  0
LINE
  8
0
 10
-3.09999
 20
21.85
 11
-3
 21
26.7
  0
LINE
  8
0
 10
-3
 20
26.7
 11
3
 21
26.7
  0
LINE
  8
0
 10
3
 20
26.7
 11
3.09999
 21
21.85
  0
LINE
  8
0
 10
3.09999
 20
21.85
 11
-3.09999
 21
21.85
  0
LINE
  8
0
 10
-0.75
 20
16.701
 11
-1.40953
 21
17.487
  0
LINE
  8
0
 10
-1.40953
 20
17.487
 11
-1.40953
 21
18.513
  0
LINE
  8
0
 10
-1.40953
 20
18.513
 11
-0.75
 21
19.299
  0
LINE
  8
0
 10
-0.75
 20
19.299
 11
0.260468
 21
19.4772
  0
LINE
  8
0
 10
0.260468
 20
19.4772
 11
1.14906
 21
18.9642
  0
LINE
  8
0
 10
1.14906
 20
18.9642
 11
1.5
 21
18
  0
LINE
  8
0
 10
1.5
 20
18
 11
1.14906
 21
17.0358
  0
LINE
  8
0
 10
1.14906
 20
17.0358
 11
0.260468
 21
16.5228
  0
LINE
  8
0
 10
0.260468
 20
16.5228
 11
-0.75
 21
16.701
  0
LINE
  8
0
 10
-9.77698
 20
13.5263
 11
-10.371
 21
14.4506
  0
LINE
  8
0
 10
-10.371
 20
14.4506
 11
-10.371
 21
15.5494
  0
LINE
  8
0
 10
-10.371
 20
15.5494
 11
-9.77698
 21
16.4737
  0
LINE
  8
0
 10
-9.77698
 20
16.4737
 11
-8.77751
 21
16.9301
  0
LINE
  8
0
 10
-8.77751
 20
16.9301
 11
-7.68993
 21
16.7738
  0
LINE
  8
0
 10
-7.68993
 20
16.7738
 11
-6.85954
 21
16.0542
  0
LINE
  8
0
 10
-6.85954
 20
16.0542
 11
-6.54999
 21
15
  0
LINE
  8
0
 10
-6.54999
 20
15
 11
-6.85954
 21
13.9457
  0
LINE
  8
0
 10
-6.85954
 20
13.9457
 11
-7.68993
 21
13.2262
  0
LINE
  8
0
 10
-7.68993
 20
13.2262
 11
-8.77751
 21
13.0698
  0
LINE
  8
0
 10
-8.77751
 20
13.0698
 11
-9.77698
 21
13.5263
  0
LINE
  8
0
 10
7.72217
 20
14.2222
 11
7.39999
 21
15
  0
LINE
  8
0
 10
7.39999
 20
15
 11
7.72217
 21
15.7778
  0
LINE
  8
0
 10
7.72217
 20
15.7778
 11
8.5
 21
16.1
  0
LINE
  8
0
 10
8.5
 20
16.1
 11
9.27782
 21
15.7778
  0
LINE
  8
0
 10
9.27782
 20
15.7778
 11
9.59999
 21
15
  0
LINE
  8
0
 10
9.59999
 20
15
 11
9.27782
 21
14.2222
  0
LINE
  8
0
 10
9.27782
 20
14.2222
 11
8.5
 21
13.9
  0
LINE
  8
0
 10
8.5
 20
13.9
 11
7.72217
 21
14.2222
  0
LINE
  8
0
 10
-0.75
 20
-1.29903
 11
-1.40953
 21
-0.513016
  0
LINE
  8
0
 10
-1.40953
 20
-0.513016
 11
-1.40953
 21
0.513016
  0
LINE
  8
0
 10
-1.40953
 20
0.513016
 11
-0.75
 21
1.29903
  0
LINE
  8
0
 10
-0.75
 20
1.29903
 11
0.260468
 21
1.4772
  0
LINE
  8
0
 10
0.260468
 20
1.4772
 11
1.14906
 21
0.964172
  0
LINE
  8
0
 10
1.14906
 20
0.964172
 11
1.5
 21
0
  0
LINE
  8
0
 10
1.5
 20
0
 11
1.14906
 21
-0.964172
  0
LINE
  8
0
 10
1.14906
 20
-0.964172
 11
0.260468
 21
-1.4772
  0
LINE
  8
0
 10
0.260468
 20
-1.4772
 11
-0.75
 21
-1.29903
  0
LINE
  8
0
 10
5.75146
 20
-0.848526
 11
5.39999
 21
0
  0
LINE
  8
0
 10
5.39999
 20
0
 11
5.75146
 21
0.848526
  0
LINE
  8
0
 10
5.75146
 20
0.848526
 11
6.59999
 21
1.2
  0
LINE
  8
0
 10
6.59999
 20
1.2
 11
7.44852
 21
0.848526
  0
LINE
  8
0
 10
7.44852
 20
0.848526
 11
7.79999
 21
0
  0
LINE
  8
0
 10
7.79999
 20
0
 11
7.44852
 21
-0.848526
  0
LINE
  8
0
 10
7.44852
 20
-0.848526
 11
6.59999
 21
-1.2
  0
LINE
  8
0
 10
6.59999
 20
-1.2
 11
5.75146
 21
-0.848526
  0
LINE
  8
0
 10
-7.44852
 20
-0.848526
 11
-7.79999
 21
0
  0
LINE
  8
0
 10
-7.79999
 20
0
 11
-7.44852
 21
0.848526
  0
LINE
  8
0
 10
-7.44852
 20
0.848526
 11
-6.59999
 21
1.2
  0
LINE
  8
0
 10
-6.59999
 20
1.2
 11
-5.75146
 21
0.848526
  0
LINE
  8
0
 10
-5.75146
 20
0.848526
 11
-5.39999
 21
0
  0
LINE
  8
0
 10
-5.39999
 20
0
 11
-5.75146
 21
-0.848526
  0
LINE
  8
0
 10
-5.75146
 20
-0.848526
 11
-6.59999
 21
-1.2
  0
LINE
  8
0
 10
-6.59999
 20
-1.2
 11
-7.44852
 21
-0.848526
  0
LINE
  8
0
 10
7.22301
 20
-16.4737
 11
6.62898
 21
-15.5494
  0
LINE
  8
0
 10
6.62898
 20
-15.5494
 11
6.62898
 21
-14.4506
  0
LINE
  8
0
 10
6.62898
 20
-14.4506
 11
7.22301
 21
-13.5263
  0
LINE
  8
0
 10
7.22301
 20
-13.5263
 11
8.22247
 21
-13.0698
  0
LINE
  8
0
 10
8.22247
 20
-13.0698
 11
9.31006
 21
-13.2262
  0
LINE
  8
0
 10
9.31006
 20
-13.2262
 11
10.1404
 21
-13.9457
  0
LINE
  8
0
 10
10.1404
 20
-13.9457
 11
10.45
 21
-15
  0
LINE
  8
0
 10
10.45
 20
-15
 11
10.1404
 21
-16.0542
  0
LINE
  8
0
 10
10.1404
 20
-16.0542
 11
9.31006
 21
-16.7738
  0
LINE
  8
0
 10
9.31006
 20
-16.7738
 11
8.22247
 21
-16.9301
  0
LINE
  8
0
 10
8.22247
 20
-16.9301
 11
7.22301
 21
-16.4737
  0
LINE
  8
0
 10
-9.27782
 20
-15.7778
 11
-9.59999
 21
-15
  0
LINE
  8
0
 10
-9.59999
 20
-15
 11
-9.27782
 21
-14.2222
  0
LINE
  8
0
 10
-9.27782
 20
-14.2222
 11
-8.5
 21
-13.9
  0
LINE
  8
0
 10
-8.5
 20
-13.9
 11
-7.72217
 21
-14.2222
  0
LINE
  8
0
 10
-7.72217
 20
-14.2222
 11
-7.39999
 21
-15
  0
LINE
  8
0
 10
-7.39999
 20
-15
 11
-7.72217
 21
-15.7778
  0
LINE
  8
0
 10
-7.72217
 20
-15.7778
 11
-8.5
 21
-16.1
  0
LINE
  8
0
 10
-8.5
 20
-16.1
 11
-9.27782
 21
-15.7778
  0
LINE
  8
0
 10
-0.75
 20
-19.299
 11
-1.40953
 21
-18.513
  0
LINE
  8
0
 10
-1.40953
 20
-18.513
 11
-1.40953
 21
-17.487
  0
LINE
  8
0
 10
-1.40953
 20
-17.487
 11
-0.75
 21
-16.701
  0
LINE
  8
0
 10
-0.75
 20
-16.701
 11
0.260468
 21
-16.5228
  0
LINE
  8
0
 10
0.260468
 20
-16.5228
 11
1.14906
 21
-17.0358
  0
LINE
  8
0
 10
1.14906
 20
-17.0358
 11
1.5
 21
-18
  0
LINE
  8
0
 10
1.5
 20
-18
 11
1.14906
 21
-18.9642
  0
LINE
  8
0
 10
1.14906
 20
-18.9642
 11
0.260468
 21
-19.4772
  0
LINE
  8
0
 10
0.260468
 20
-19.4772
 11
-0.75
 21
-19.299
  0
LINE
  8
0
 10
-3
 20
-26.7
 11
-3.09999
 21
-21.85
  0
LINE
  8
0
 10
-3.09999
 20
-21.85
 11
3.09999
 21
-21.85
  0
LINE
  8
0
 10
3.09999
 20
-21.85
 11
3
 21
-26.7
  0
LINE
  8
0
 10
3
 20
-26.7
 11
-3
 21
-26.7
  0
LINE
  8
0
 10
-9.77698
 20
-31.4737
 11
-10.371
 21
-30.5494
  0
LINE
  8
0
 10
-10.371
 20
-30.5494
 11
-10.371
 21
-29.4506
  0
LINE
  8
0
 10
-10.371
 20
-29.4506
 11
-9.77698
 21
-28.5263
  0
LINE
  8
0
 10
-9.77698
 20
-28.5263
 11
-8.77751
 21
-28.0698
  0
LINE
  8
0
 10
-8.77751
 20
-28.0698
 11
-7.68993
 21
-28.2262
  0
LINE
  8
0
 10
-7.68993
 20
-28.2262
 11
-6.85954
 21
-28.9457
  0
LINE
  8
0
 10
-6.85954
 20
-28.9457
 11
-6.54999
 21
-30
  0
LINE
  8
0
 10
-6.54999
 20
-30
 11
-6.85954
 21
-31.0542
  0
LINE
  8
0
 10
-6.85954
 20
-31.0542
 11
-7.68993
 21
-31.7738
  0
LINE
  8
0
 10
-7.68993
 20
-31.7738
 11
-8.77751
 21
-31.9301
  0
LINE
  8
0
 10
-8.77751
 20
-31.9301
 11
-9.77698
 21
-31.4737
  0
LINE
  8
0
 10
7.72217
 20
-30.7778
 11
7.39999
 21
-30
  0
LINE
  8
0
 10
7.39999
 20
-30
 11
7.72217
 21
-29.2222
  0
LINE
  8
0
 10
7.72217
 20
-29.2222
 11
8.5
 21
-28.9
  0
LINE
  8
0
 10
8.5
 20
-28.9
 11
9.27782
 21
-29.2222
  0
LINE
  8
0
 10
9.27782
 20
-29.2222
 11
9.59999
 21
-30
  0
LINE
  8
0
 10
9.59999
 20
-30
 11
9.27782
 21
-30.7778
  0
LINE
  8
0
 10
9.27782
 20
-30.7778
 11
8.5
 21
-31.1
  0
LINE
  8
0
 10
8.5
 20
-31.1
 11
7.72217
 21
-30.7778
  0
LINE
  8
0
 10
-6.59999
 20
-42
 11
-6.7
 21
-37.5
  0
LINE
  8
0
 10
-6.7
 20
-37.5
 11
6.7
 21
-37.5
  0
LINE
  8
0
 10
6.7
 20
-37.5
 11
6.59999
 21
-42
  0
LINE
  8
0
 10
6.59999
 20
-42
 11
-6.59999
 21
-42
  0
ENDSEC
  0
SECTION
  2
OBJECTS
  0
DICTIONARY
  0
ENDSEC
  0
EOF
