999
Created with the Wolfram Language : www.wolfram.com
0
SECTION
2
HEADER
9
$ACADVER
1
AC1009
0
ENDSEC
0
SECTION
2
ENTITIES
0
3DFACE
8
0
62
151
10
14.95
20
0
30
0
11
14.95
21
5.25625
31
0
12
12.151444603834738
22
2.0733085604645014
32
0
13
12.151444603834738
23
2.0733085604645014
33
0
0
3DFACE
8
0
62
151
10
-14.95
20
-80.1
30
0
11
-14.95
21
-84.1
31
0
12
-11.2125
22
-82.1
32
0
13
-11.2125
23
-82.1
33
0
0
3DFACE
8
0
62
151
10
-7.389132383758981
20
-79.44730832964959
30
0
11
-7.202115530337893
21
-74.79758385142473
31
0
12
-11.51892033570527
22
-78.18039643984922
32
0
13
-11.51892033570527
23
-78.18039643984922
33
0
0
3DFACE
8
0
62
151
10
11.842047778765599
20
5.798535078436684
30
0
11
12.151444603834738
21
2.0733085604645014
31
0
12
14.95
22
5.25625
32
0
13
14.95
23
5.25625
33
0
0
3DFACE
8
0
62
151
10
11.507408619029519
20
64.40368688671433
30
0
11
9.998040497252422
21
59.42223408614231
31
0
12
13.065417655049272
22
60.446875
32
0
13
13.065417655049272
23
60.446875
33
0
0
3DFACE
8
0
62
151
10
-14.95
20
-68.1
30
0
11
-10.737436867076458
21
-68.01256313292355
31
0
12
-11.446157221748635
22
-64.55156084074413
32
0
13
-11.446157221748635
23
-64.55156084074413
33
0
0
3DFACE
8
0
62
151
10
2.2097585308399257
20
1.8087102352453304
30
0
11
2.209758530839926
21
6.191289764754672
31
0
12
-1.952416148575268
22
6.297884469662092
32
0
13
-1.952416148575268
23
6.297884469662092
33
0
0
3DFACE
8
0
62
151
10
-6.281079750354985
20
-59.73499197553569
30
0
11
-10.6657911791994
21
-58.724030316305054
31
0
12
-7.295790965272298
22
-63.928568654055105
32
0
13
-7.295790965272298
23
-63.928568654055105
33
0
0
3DFACE
8
0
62
151
10
-14.95
20
-64.1
30
0
11
-14.95
21
-68.1
31
0
12
-11.446157221748635
22
-64.55156084074413
32
0
13
-11.446157221748635
23
-64.55156084074413
33
0
0
3DFACE
8
0
62
151
10
14.95
20
15.768749999999999
30
0
11
14.95
21
21.025
31
0
12
11.494072978662617
22
18.396874999999998
32
0
13
11.494072978662617
23
18.396874999999998
33
0
0
3DFACE
8
0
62
151
10
-14.95
20
-68.1
30
0
11
-14.95
21
-72.1
31
0
12
-11.25
22
-69.25
32
0
13
-11.25
23
-69.25
33
0
0
3DFACE
8
0
62
151
10
7.263803300381031
20
63.851343599645965
30
0
11
9.5
21
67.5
31
0
12
8.262563132923542
22
68.01256313292355
32
0
13
8.262563132923542
23
68.01256313292355
33
0
0
3DFACE
8
0
62
151
10
0.5641989512765374
20
80.63646672770193
30
0
11
-3.7375
21
84.1
31
0
12
-5.337844784947185
22
80.31334092138691
32
0
13
-5.337844784947185
23
80.31334092138691
33
0
0
3DFACE
8
0
62
151
10
11.157915586967855
20
-39.421875
30
0
11
14.95
21
-42.05
31
0
12
14.95
22
-36.793749999999996
32
0
13
14.95
23
-36.793749999999996
33
0
0
3DFACE
8
0
62
151
10
-10.30670564162971
20
-38.28015776098016
30
0
11
-6.108599323744283
21
-34.099999999999994
31
0
12
-10.755508163582867
22
-34.099999999999994
32
0
13
-10.755508163582867
23
-34.099999999999994
33
0
0
3DFACE
8
0
62
151
10
11.358095807149507
20
77.70728644215316
30
0
11
14.95
21
73.58749999999999
31
0
12
14.95
22
78.84375
32
0
13
14.95
23
78.84375
33
0
0
3DFACE
8
0
62
151
10
7.202115530337893
20
74.79758385142473
30
0
11
9.5
21
71.
31
0
12
11.44300976871612
22
73.94084053545784
32
0
13
11.44300976871612
23
73.94084053545784
33
0
0
3DFACE
8
0
62
151
10
-14.95
20
-32.099999999999994
30
0
11
-11.753411663757069
21
-30.099999999999994
31
0
12
-14.95
22
-28.099999999999994
32
0
13
-14.95
23
-28.099999999999994
33
0
0
3DFACE
8
0
62
151
10
14.95
20
68.33125
30
0
11
14.95
21
73.58749999999999
31
0
12
13.634690700539428
22
70.96264496438135
32
0
13
13.634690700539428
23
70.96264496438135
33
0
0
3DFACE
8
0
62
151
10
-14.95
20
-20.099999999999994
30
0
11
-14.95
21
-24.099999999999994
31
0
12
-11.730355966196793
22
-22.099999999999994
32
0
13
-11.730355966196793
23
-22.099999999999994
33
0
0
3DFACE
8
0
62
151
10
-11.547633265167034
20
-25.985677953206576
30
0
11
-11.730355966196793
21
-22.099999999999994
31
0
12
-14.95
22
-24.099999999999994
32
0
13
-14.95
23
-24.099999999999994
33
0
0
3DFACE
8
0
62
151
10
11.25
20
69.25
30
0
11
14.95
21
68.33125
31
0
12
13.634690700539428
22
70.96264496438135
32
0
13
13.634690700539428
23
70.96264496438135
33
0
0
3DFACE
8
0
62
151
10
-10.755508163582867
20
-34.099999999999994
30
0
11
-14.95
21
-32.099999999999994
31
0
12
-14.95
22
-36.099999999999994
32
0
13
-14.95
23
-36.099999999999994
33
0
0
3DFACE
8
0
62
151
10
10.737436867076458
20
68.01256313292355
30
0
11
14.95
21
68.33125
31
0
12
11.25
22
69.25
32
0
13
11.25
23
69.25
33
0
0
3DFACE
8
0
62
151
10
-6.281079750354985
20
-59.73499197553569
30
0
11
-7.295790965272298
21
-63.928568654055105
31
0
12
-3.0369699837151023
22
-62.57954396667465
32
0
13
-3.0369699837151023
23
-62.57954396667465
33
0
0
3DFACE
8
0
62
151
10
-1.8687499999999995
20
78.10760481264614
30
0
11
0.696475386272875
21
74.52127052678551
31
0
12
3.8503149092540294
22
76.98986794591939
32
0
13
3.8503149092540294
23
76.98986794591939
33
0
0
3DFACE
8
0
62
151
10
-5.202115530337904
20
9.547583851424733
30
0
11
-6.262563132923542
21
5.2374368670764575
31
0
12
-1.952416148575268
22
6.297884469662092
32
0
13
-1.952416148575268
23
6.297884469662092
33
0
0
3DFACE
8
0
62
151
10
-14.95
20
-84.1
30
0
11
-7.475
21
-84.1
31
0
12
-11.2125
22
-82.1
32
0
13
-11.2125
23
-82.1
33
0
0
3DFACE
8
0
62
151
10
14.95
20
-57.818749999999994
30
0
11
13.065417655049277
21
-60.44687499999999
31
0
12
14.95
22
-63.074999999999996
32
0
13
14.95
23
-63.074999999999996
33
0
0
3DFACE
8
0
62
151
10
-11.446157221748635
20
-64.55156084074413
30
0
11
-10.737436867076458
21
-68.01256313292355
31
0
12
-9.5
22
-67.5
32
0
13
-9.5
23
-67.5
33
0
0
3DFACE
8
0
62
151
10
-9.5
20
-71.
30
0
11
-10.737436867076458
21
-70.48743686707645
31
0
12
-11.570726104427443
22
-74.24917504526871
32
0
13
-11.570726104427443
23
-74.24917504526871
33
0
0
3DFACE
8
0
62
151
10
-11.25
20
-69.25
30
0
11
-14.95
21
-72.1
31
0
12
-10.737436867076458
22
-70.48743686707645
32
0
13
-10.737436867076458
23
-70.48743686707645
33
0
0
3DFACE
8
0
62
151
10
-14.95
20
58.05
30
0
11
-13.312791017333424
21
61.30625
31
0
12
-14.95
22
64.5625
32
0
13
-14.95
23
64.5625
33
0
0
3DFACE
8
0
62
151
10
-8.262563132923542
20
-70.48743686707645
30
0
11
-7.202115530337893
21
-74.79758385142473
31
0
12
-3.9524161485752813
22
-71.5478844696621
32
0
13
-3.9524161485752813
23
-71.5478844696621
33
0
0
3DFACE
8
0
62
151
10
-1.9524161485752662
20
1.702115530337904
30
0
11
-5.75
21
4.
31
0
12
-6.2625631329235425
22
2.7625631329235416
32
0
13
-6.2625631329235425
23
2.7625631329235416
33
0
0
3DFACE
8
0
62
151
10
-11.4380328575381
20
64.57117479100687
30
0
11
-10.075803207572832
21
59.63127918387052
31
0
12
-7.299935777028588
22
63.938575114810625
32
0
13
-7.299935777028588
23
63.938575114810625
33
0
0
3DFACE
8
0
62
151
10
-11.570726104427443
20
-74.24917504526871
30
0
11
-14.95
21
-76.1
31
0
12
-11.51892033570527
22
-78.18039643984922
32
0
13
-11.51892033570527
23
-78.18039643984922
33
0
0
3DFACE
8
0
62
151
10
3.392746126248375
20
-77.00866913735568
30
0
11
3.9524161485752813
21
-71.5478844696621
31
0
12
0.2788319096354763
22
-73.61618768155499
32
0
13
0.2788319096354763
23
-73.61618768155499
33
0
0
3DFACE
8
0
62
151
10
-5.202115530337908
20
-1.547583851424732
30
0
11
-1.9524161485752662
21
1.702115530337904
31
0
12
-6.2625631329235425
22
2.7625631329235416
32
0
13
-6.2625631329235425
23
2.7625631329235416
33
0
0
3DFACE
8
0
62
151
10
-14.95
20
-64.1
30
0
11
-11.446157221748635
21
-64.55156084074413
31
0
12
-14.95
22
-60.099999999999994
32
0
13
-14.95
23
-60.099999999999994
33
0
0
3DFACE
8
0
62
151
10
2.968667444070411
20
-62.58300717887801
30
0
11
3.9524161485752813
21
-66.9521155303379
31
0
12
7.26380330038103
22
-63.85134359964596
32
0
13
7.26380330038103
23
-63.85134359964596
33
0
0
3DFACE
8
0
62
151
10
-14.95
20
-7.074999999999996
30
0
11
-11.464552744822035
21
-5.158935668948372
31
0
12
-14.95
22
-0.5624999999999964
32
0
13
-14.95
23
-0.5624999999999964
33
0
0
3DFACE
8
0
62
151
10
-14.95
20
-36.099999999999994
30
0
11
-14.95
21
-40.099999999999994
31
0
12
-10.30670564162971
22
-38.28015776098016
32
0
13
-10.30670564162971
23
-38.28015776098016
33
0
0
3DFACE
8
0
62
151
10
9.797884469662096
20
9.547583851424731
30
0
11
8.737436867076458
21
5.2374368670764575
31
0
12
11.842047778765599
22
5.798535078436684
32
0
13
11.842047778765599
23
5.798535078436684
33
0
0
3DFACE
8
0
62
151
10
-12.325945983801937
20
2.0010277222292707
30
0
11
-9.797884469662094
21
-1.547583851424731
31
0
12
-8.737436867076458
22
2.762563132923542
32
0
13
-8.737436867076458
23
2.762563132923542
33
0
0
3DFACE
8
0
62
151
10
-8.737436867076458
20
2.762563132923542
30
0
11
-9.797884469662094
21
-1.547583851424731
31
0
12
-7.5
22
2.25
32
0
13
-7.5
23
2.25
33
0
0
3DFACE
8
0
62
151
10
3.9524161485752813
20
-66.9521155303379
30
0
11
2.968667444070411
21
-62.58300717887801
31
0
12
-0.03568426159026883
22
-65.23967251680091
32
0
13
-0.03568426159026883
23
-65.23967251680091
33
0
0
3DFACE
8
0
62
151
10
-10.737436867076458
20
-70.48743686707645
30
0
11
-14.95
21
-72.1
31
0
12
-11.570726104427443
22
-74.24917504526871
32
0
13
-11.570726104427443
23
-74.24917504526871
33
0
0
3DFACE
8
0
62
151
10
2.968667444070411
20
-62.58300717887801
30
0
11
7.26380330038103
21
-63.85134359964596
31
0
12
6.830895808360838
22
-60.52557263185712
32
0
13
6.830895808360838
23
-60.52557263185712
33
0
0
3DFACE
8
0
62
151
10
5.202115530337906
20
-1.5475838514247338
30
0
11
3.278429142553926
21
-6.828968576277886
31
0
12
7.500000000000001
22
-4.826852465720243
32
0
13
7.500000000000001
23
-4.826852465720243
33
0
0
3DFACE
8
0
62
151
10
-7.389132383758981
20
-79.44730832964959
30
0
11
-3.7375
21
-81.84183912407387
31
0
12
-1.1775420920762478
22
-77.57245790792372
32
0
13
-1.1775420920762478
23
-77.57245790792372
33
0
0
3DFACE
8
0
62
151
10
-8.737436867076458
20
2.762563132923542
30
0
11
-9.25
21
4.
31
0
12
-12.325945983801937
22
2.0010277222292707
32
0
13
-12.325945983801937
23
2.0010277222292707
33
0
0
3DFACE
8
0
62
151
10
-8.262563132923542
20
-70.48743686707645
30
0
11
-3.9524161485752813
21
-71.5478844696621
31
0
12
-7.75
22
-69.25
32
0
13
-7.75
23
-69.25
33
0
0
3DFACE
8
0
62
151
10
-10.737436867076458
20
-68.01256313292355
30
0
11
-14.95
21
-68.1
31
0
12
-11.25
22
-69.25
32
0
13
-11.25
23
-69.25
33
0
0
3DFACE
8
0
62
151
10
-14.95
20
-40.099999999999994
30
0
11
-12.06282291544549
21
-42.099999999999994
31
0
12
-10.30670564162971
22
-38.28015776098016
32
0
13
-10.30670564162971
23
-38.28015776098016
33
0
0
3DFACE
8
0
62
151
10
14.95
20
10.5125
30
0
11
11.842047778765599
21
5.798535078436684
31
0
12
14.95
22
5.25625
32
0
13
14.95
23
5.25625
33
0
0
3DFACE
8
0
62
151
10
-1.1775420920762478
20
-77.57245790792372
30
0
11
-3.6774383167332343
21
-75.07256168326676
31
0
12
-7.389132383758981
22
-79.44730832964959
32
0
13
-7.389132383758981
23
-79.44730832964959
33
0
0
3DFACE
8
0
62
151
10
-13.39164605014939
20
9.206250000000002
30
0
11
-9.797884469662092
21
9.547583851424733
31
0
12
-11.349552290247505
22
14.90164895428251
32
0
13
-11.349552290247505
23
14.90164895428251
33
0
0
3DFACE
8
0
62
151
10
-3.56540075066136
20
13.193625980108862
30
0
11
-1.898811510920833
21
16.771744449262368
31
0
12
-7.499999999999995
22
16.92491821379533
32
0
13
-7.499999999999995
23
16.92491821379533
33
0
0
3DFACE
8
0
62
151
10
7.75
20
-69.25
30
0
11
3.9524161485752813
21
-66.9521155303379
31
0
12
3.9524161485752813
22
-71.5478844696621
32
0
13
3.9524161485752813
23
-71.5478844696621
33
0
0
3DFACE
8
0
62
151
10
5.202115530337906
20
-1.5475838514247338
30
0
11
7.5
21
2.25
31
0
12
6.262563132923542
22
2.762563132923542
32
0
13
6.262563132923542
23
2.762563132923542
33
0
0
3DFACE
8
0
62
151
10
-3.341505822379356
20
41.013374702935955
30
0
11
-5.589422306197894
21
43.7149063119421
31
0
12
-6.695622455113462
22
38.5454193040401
32
0
13
-6.695622455113462
23
38.5454193040401
33
0
0
3DFACE
8
0
62
151
10
-5.202115530337904
20
9.547583851424733
30
0
11
-7.5
21
5.75
31
0
12
-6.262563132923542
22
5.2374368670764575
32
0
13
-6.262563132923542
23
5.2374368670764575
33
0
0
3DFACE
8
0
62
151
10
9.998040497252422
20
59.42223408614231
30
0
11
11.363401872587978
21
55.190625
31
0
12
14.95
22
57.818749999999994
32
0
13
14.95
23
57.818749999999994
33
0
0
3DFACE
8
0
62
151
10
11.363401872587978
20
55.190625
30
0
11
10.299942714169868
21
49.977948967561744
31
0
12
14.95
22
52.5625
32
0
13
14.95
23
52.5625
33
0
0
3DFACE
8
0
62
151
10
6.2625631329235425
20
5.237436867076458
30
0
11
7.5
21
5.75
31
0
12
5.202115530337908
22
9.547583851424733
32
0
13
5.202115530337908
23
9.547583851424733
33
0
0
3DFACE
8
0
62
151
10
-1.898811510920833
20
16.771744449262368
30
0
11
-4.6400497992579215
21
19.018832916140248
31
0
12
-7.499999999999995
22
16.92491821379533
32
0
13
-7.499999999999995
23
16.92491821379533
33
0
0
3DFACE
8
0
62
151
10
-1.9524161485752662
20
1.702115530337904
30
0
11
-5.202115530337908
21
-1.547583851424732
31
0
12
0
22
-3.5000000000000053
32
0
13
0
23
-3.5000000000000053
33
0
0
3DFACE
8
0
62
151
10
-9.835223536496656
20
-16.518087072216932
30
0
11
-14.95
21
-13.587499999999995
31
0
12
-13.418766849987502
22
-16.843749999999993
32
0
13
-13.418766849987502
23
-16.843749999999993
33
0
0
3DFACE
8
0
62
151
10
-10.737436867076458
20
68.01256313292355
30
0
11
-11.4380328575381
21
64.57117479100687
31
0
12
-9.5
22
67.5
32
0
13
-9.5
23
67.5
33
0
0
3DFACE
8
0
62
151
10
-13.808390490223838
20
67.46540622695001
30
0
11
-10.737436867076458
21
68.01256313292355
31
0
12
-11.25
22
69.25
32
0
13
-11.25
23
69.25
33
0
0
3DFACE
8
0
62
151
10
7.26380330038103
20
-63.85134359964596
30
0
11
8.262563132923542
21
-68.01256313292355
31
0
12
9.5
22
-67.5
32
0
13
9.5
23
-67.5
33
0
0
3DFACE
8
0
62
151
10
-14.95
20
71.07499999999999
30
0
11
-10.737436867076458
21
70.48743686707645
31
0
12
-11.751464925518654
22
74.68551715839443
32
0
13
-11.751464925518654
23
74.68551715839443
33
0
0
3DFACE
8
0
62
151
10
-14.95
20
64.5625
30
0
11
-11.4380328575381
21
64.57117479100687
31
0
12
-13.808390490223838
22
67.46540622695001
32
0
13
-13.808390490223838
23
67.46540622695001
33
0
0
3DFACE
8
0
62
151
10
9.998040497252422
20
59.42223408614231
30
0
11
11.507408619029519
21
64.40368688671433
31
0
12
7.263803300381031
22
63.851343599645965
32
0
13
7.263803300381031
23
63.851343599645965
33
0
0
3DFACE
8
0
62
151
10
-14.95
20
84.1
30
0
11
-14.95
21
77.58749999999999
31
0
12
-12.863941327534505
22
80.71903734536049
32
0
13
-12.863941327534505
23
80.71903734536049
33
0
0
3DFACE
8
0
62
151
10
-10.737436867076458
20
70.48743686707645
30
0
11
-14.95
21
71.07499999999999
31
0
12
-11.25
22
69.25
32
0
13
-11.25
23
69.25
33
0
0
3DFACE
8
0
62
151
10
-13.312791017333424
20
61.30625
30
0
11
-11.4380328575381
21
64.57117479100687
31
0
12
-14.95
22
64.5625
32
0
13
-14.95
23
64.5625
33
0
0
3DFACE
8
0
62
151
10
8.262563132923542
20
68.01256313292355
30
0
11
3.9524161485752813
21
66.9521155303379
31
0
12
7.263803300381031
22
63.851343599645965
32
0
13
7.263803300381031
23
63.851343599645965
33
0
0
3DFACE
8
0
62
151
10
11.507408619029523
20
-64.40368688671433
30
0
11
14.95
21
-63.074999999999996
31
0
12
13.065417655049277
22
-60.44687499999999
32
0
13
13.065417655049277
23
-60.44687499999999
33
0
0
3DFACE
8
0
62
151
10
-11.821216240847916
20
5.789906372906094
30
0
11
-14.95
21
5.950000000000003
31
0
12
-12.325945983801937
22
2.0010277222292707
32
0
13
-12.325945983801937
23
2.0010277222292707
33
0
0
3DFACE
8
0
62
151
10
-11.464552744822035
20
-5.158935668948372
30
0
11
-7.500000000000002
21
-8.854303127884187
31
0
12
-7.500000000000002
22
-4.8396135386786465
32
0
13
-7.500000000000002
23
-4.8396135386786465
33
0
0
3DFACE
8
0
62
151
10
-11.4380328575381
20
64.57117479100687
30
0
11
-10.737436867076458
21
68.01256313292355
31
0
12
-13.808390490223838
22
67.46540622695001
32
0
13
-13.808390490223838
23
67.46540622695001
33
0
0
3DFACE
8
0
62
151
10
7.2973995917518995
20
-74.56754777808105
30
0
11
9.5
21
-71.
31
0
12
8.262563132923542
22
-70.48743686707645
32
0
13
8.262563132923542
23
-70.48743686707645
33
0
0
3DFACE
8
0
62
151
10
-7.5
20
5.75
30
0
11
-9.797884469662092
21
9.547583851424733
31
0
12
-8.737436867076458
22
5.237436867076458
32
0
13
-8.737436867076458
23
5.237436867076458
33
0
0
3DFACE
8
0
62
151
10
-13.39164605014939
20
9.206250000000002
30
0
11
-11.821216240847916
21
5.789906372906094
31
0
12
-9.797884469662092
22
9.547583851424733
32
0
13
-9.797884469662092
23
9.547583851424733
33
0
0
3DFACE
8
0
62
151
10
-3.496341115200302
20
46.53809824317429
30
0
11
-3.341505822379356
21
41.013374702935955
31
0
12
0.9419463735210147
22
44.50602147142011
32
0
13
0.9419463735210147
23
44.50602147142011
33
0
0
3DFACE
8
0
62
151
10
-11.821216240847916
20
5.789906372906094
30
0
11
-12.325945983801937
21
2.0010277222292707
31
0
12
-9.25
22
4.
32
0
13
-9.25
23
4.
33
0
0
3DFACE
8
0
62
151
10
-6.262563132923542
20
5.2374368670764575
30
0
11
-5.75
21
4.
31
0
12
-1.952416148575268
22
6.297884469662092
32
0
13
-1.952416148575268
23
6.297884469662092
33
0
0
3DFACE
8
0
62
151
10
-14.95
20
5.950000000000003
30
0
11
-14.95
21
-0.5624999999999964
31
0
12
-12.325945983801937
22
2.0010277222292707
32
0
13
-12.325945983801937
23
2.0010277222292707
33
0
0
3DFACE
8
0
62
151
10
-11.4380328575381
20
64.57117479100687
30
0
11
-7.299935777028588
21
63.938575114810625
31
0
12
-9.5
22
67.5
32
0
13
-9.5
23
67.5
33
0
0
3DFACE
8
0
62
151
10
14.95
20
-73.58749999999999
30
0
11
14.95
21
-68.33125
31
0
12
13.634690700539428
22
-70.96264496438135
32
0
13
13.634690700539428
23
-70.96264496438135
33
0
0
3DFACE
8
0
62
151
10
-14.95
20
-72.1
30
0
11
-14.95
21
-76.1
31
0
12
-11.570726104427443
22
-74.24917504526871
32
0
13
-11.570726104427443
23
-74.24917504526871
33
0
0
3DFACE
8
0
62
151
10
5.202115530337908
20
9.547583851424733
30
0
11
7.5
21
5.75
31
0
12
9.797884469662096
22
9.547583851424731
32
0
13
9.797884469662096
23
9.547583851424731
33
0
0
3DFACE
8
0
62
151
10
-7.5
20
2.25
30
0
11
-9.797884469662094
21
-1.547583851424731
31
0
12
-5.202115530337908
22
-1.547583851424732
32
0
13
-5.202115530337908
23
-1.547583851424732
33
0
0
3DFACE
8
0
62
151
10
7.500000000000001
20
-4.826852465720243
30
0
11
11.121978174497656
21
-6.828968576277885
31
0
12
9.797884469662092
22
-1.5475838514247315
32
0
13
9.797884469662092
23
-1.5475838514247315
33
0
0
3DFACE
8
0
62
151
10
-11.751464925518654
20
74.68551715839443
30
0
11
-9.34375
21
79.38997002279672
31
0
12
-14.95
22
77.58749999999999
32
0
13
-14.95
23
77.58749999999999
33
0
0
3DFACE
8
0
62
151
10
-11.751464925518654
20
74.68551715839443
30
0
11
-14.95
21
77.58749999999999
31
0
12
-14.95
22
71.07499999999999
32
0
13
-14.95
23
71.07499999999999
33
0
0
3DFACE
8
0
62
151
10
5.60625
20
-80.4551026428325
30
0
11
10.390920423836576
21
-80.30349310571765
31
0
12
9.775226506746536
22
-76.9333759049409
32
0
13
9.775226506746536
23
-76.9333759049409
33
0
0
3DFACE
8
0
62
151
10
-10.737436867076458
20
70.48743686707645
30
0
11
-9.5
21
71.
31
0
12
-11.751464925518654
22
74.68551715839443
32
0
13
-11.751464925518654
23
74.68551715839443
33
0
0
3DFACE
8
0
62
151
10
-5.337844784947185
20
80.31334092138691
30
0
11
-1.8687499999999995
21
78.10760481264614
31
0
12
0.5641989512765374
22
80.63646672770193
32
0
13
0.5641989512765374
23
80.63646672770193
33
0
0
3DFACE
8
0
62
151
10
-7.534630067538433
20
-13.031424761159972
30
0
11
-11.42221283365722
21
-10.910490725254643
31
0
12
-9.835223536496656
22
-16.518087072216932
32
0
13
-9.835223536496656
23
-16.518087072216932
33
0
0
3DFACE
8
0
62
151
10
-7.75
20
69.25
30
0
11
-3.9524161485752813
21
66.9521155303379
31
0
12
-3.9524161485752813
22
71.5478844696621
32
0
13
-3.9524161485752813
23
71.5478844696621
33
0
0
3DFACE
8
0
62
151
10
-7.202115530337893
20
74.79758385142473
30
0
11
-11.751464925518654
21
74.68551715839443
31
0
12
-9.5
22
71.
32
0
13
-9.5
23
71.
33
0
0
3DFACE
8
0
62
151
10
-3.9524161485752813
20
66.9521155303379
30
0
11
-8.262563132923542
21
68.01256313292355
31
0
12
-7.299935777028588
22
63.938575114810625
32
0
13
-7.299935777028588
23
63.938575114810625
33
0
0
3DFACE
8
0
62
151
10
-3.9524161485752813
20
71.5478844696621
30
0
11
-7.202115530337893
21
74.79758385142473
31
0
12
-8.262563132923542
22
70.48743686707645
32
0
13
-8.262563132923542
23
70.48743686707645
33
0
0
3DFACE
8
0
62
151
10
-8.262563132923542
20
68.01256313292355
30
0
11
-3.9524161485752813
21
66.9521155303379
31
0
12
-7.75
22
69.25
32
0
13
-7.75
23
69.25
33
0
0
3DFACE
8
0
62
151
10
-9.34375
20
79.38997002279672
30
0
11
-7.475
21
84.1
31
0
12
-11.212499999999999
22
84.1
32
0
13
-11.212499999999999
23
84.1
33
0
0
3DFACE
8
0
62
151
10
-1.952416148575268
20
6.297884469662092
30
0
11
-5.75
21
4.
31
0
12
-1.9524161485752662
22
1.702115530337904
32
0
13
-1.9524161485752662
23
1.702115530337904
33
0
0
3DFACE
8
0
62
151
10
-9.25
20
4.
30
0
11
-8.737436867076458
21
5.237436867076458
31
0
12
-11.821216240847916
22
5.789906372906094
32
0
13
-11.821216240847916
23
5.789906372906094
33
0
0
3DFACE
8
0
62
151
10
-9.797884469662094
20
-1.547583851424731
30
0
11
-12.325945983801937
21
2.0010277222292707
31
0
12
-14.95
22
-0.5624999999999964
32
0
13
-14.95
23
-0.5624999999999964
33
0
0
3DFACE
8
0
62
151
10
-3.9524161485752813
20
71.5478844696621
30
0
11
-3.6783709398343656
21
75.07162906016562
31
0
12
-7.202115530337893
22
74.79758385142473
32
0
13
-7.202115530337893
23
74.79758385142473
33
0
0
3DFACE
8
0
62
151
10
-7.202115530337893
20
-74.79758385142473
30
0
11
-8.262563132923542
21
-70.48743686707645
31
0
12
-9.5
22
-71.
32
0
13
-9.5
23
-71.
33
0
0
3DFACE
8
0
62
151
10
-7.295790965272298
20
-63.928568654055105
30
0
11
-10.6657911791994
21
-58.724030316305054
31
0
12
-11.446157221748635
22
-64.55156084074413
32
0
13
-11.446157221748635
23
-64.55156084074413
33
0
0
3DFACE
8
0
62
151
10
-7.75
20
-69.25
30
0
11
-3.9524161485752813
21
-71.5478844696621
31
0
12
-3.9524161485752813
22
-66.9521155303379
32
0
13
-3.9524161485752813
23
-66.9521155303379
33
0
0
3DFACE
8
0
62
151
10
13.221856377695884
20
-18.396874999999998
30
0
11
10.44210760435136
21
-13.140625
31
0
12
10.086547375186509
22
-18.648586846600548
32
0
13
10.086547375186509
23
-18.648586846600548
33
0
0
3DFACE
8
0
62
151
10
9.775226506746536
20
-76.9333759049409
30
0
11
11.44300976871612
21
-73.94084053545784
31
0
12
7.2973995917518995
22
-74.56754777808105
32
0
13
7.2973995917518995
23
-74.56754777808105
33
0
0
3DFACE
8
0
62
151
10
7.75
20
-69.25
30
0
11
8.262563132923542
21
-68.01256313292355
31
0
12
3.9524161485752813
22
-66.9521155303379
32
0
13
3.9524161485752813
23
-66.9521155303379
33
0
0
3DFACE
8
0
62
151
10
9.5
20
-71.
30
0
11
11.44300976871612
21
-73.94084053545784
31
0
12
10.737436867076458
22
-70.48743686707645
32
0
13
10.737436867076458
23
-70.48743686707645
33
0
0
3DFACE
8
0
62
151
10
11.44300976871612
20
-73.94084053545784
30
0
11
9.5
21
-71.
31
0
12
7.2973995917518995
22
-74.56754777808105
32
0
13
7.2973995917518995
23
-74.56754777808105
33
0
0
3DFACE
8
0
62
151
10
-14.95
20
71.07499999999999
30
0
11
-14.95
21
64.5625
31
0
12
-13.808390490223838
22
67.46540622695001
32
0
13
-13.808390490223838
23
67.46540622695001
33
0
0
3DFACE
8
0
62
151
10
-3.9524161485752813
20
-66.9521155303379
30
0
11
-8.262563132923542
21
-68.01256313292355
31
0
12
-7.75
22
-69.25
32
0
13
-7.75
23
-69.25
33
0
0
3DFACE
8
0
62
151
10
13.634690700539428
20
-70.96264496438135
30
0
11
10.737436867076458
21
-70.48743686707645
31
0
12
11.44300976871612
22
-73.94084053545784
32
0
13
11.44300976871612
23
-73.94084053545784
33
0
0
3DFACE
8
0
62
151
10
14.95
20
-73.58749999999999
30
0
11
11.44300976871612
21
-73.94084053545784
31
0
12
14.95
22
-78.84375
32
0
13
14.95
23
-78.84375
33
0
0
3DFACE
8
0
62
151
10
-8.55058836781393
20
-42.099999999999994
30
0
11
-5.198258236466543
21
-45.09864416724243
31
0
12
-5.198258236466543
22
-38.75058727589709
32
0
13
-5.198258236466543
23
-38.75058727589709
33
0
0
3DFACE
8
0
62
151
10
-11.25
20
69.25
30
0
11
-14.95
21
71.07499999999999
31
0
12
-13.808390490223838
22
67.46540622695001
32
0
13
-13.808390490223838
23
67.46540622695001
33
0
0
3DFACE
8
0
62
151
10
2.2097585308399257
20
1.8087102352453304
30
0
11
6.262563132923542
21
2.762563132923542
31
0
12
5.75
22
4.
32
0
13
5.75
23
4.
33
0
0
3DFACE
8
0
62
151
10
-0.04051890720919005
20
-59.26613111793088
30
0
11
-0.03568426159026883
21
-65.23967251680091
31
0
12
2.968667444070411
22
-62.58300717887801
32
0
13
2.968667444070411
23
-62.58300717887801
33
0
0
3DFACE
8
0
62
151
10
-6.108599323744283
20
-34.099999999999994
30
0
11
-5.198258236466543
21
-38.75058727589709
31
0
12
-2.8561189507580345
22
-35.877727079054196
32
0
13
-2.8561189507580345
23
-35.877727079054196
33
0
0
3DFACE
8
0
62
151
10
-8.737436867076458
20
5.237436867076458
30
0
11
-9.797884469662092
21
9.547583851424733
31
0
12
-11.821216240847916
22
5.789906372906094
32
0
13
-11.821216240847916
23
5.789906372906094
33
0
0
3DFACE
8
0
62
151
10
10.737436867076458
20
-68.01256313292355
30
0
11
14.95
21
-68.33125
31
0
12
11.507408619029523
22
-64.40368688671433
32
0
13
11.507408619029523
23
-64.40368688671433
33
0
0
3DFACE
8
0
62
151
10
-8.262563132923542
20
-68.01256313292355
30
0
11
-3.9524161485752813
21
-66.9521155303379
31
0
12
-7.295790965272298
22
-63.928568654055105
32
0
13
-7.295790965272298
23
-63.928568654055105
33
0
0
3DFACE
8
0
62
151
10
11.507408619029523
20
-64.40368688671433
30
0
11
7.26380330038103
21
-63.85134359964596
31
0
12
9.5
22
-67.5
32
0
13
9.5
23
-67.5
33
0
0
3DFACE
8
0
62
151
10
9.797884469662092
20
-1.5475838514247315
30
0
11
8.737436867076458
21
2.7625631329235416
31
0
12
7.5
22
2.25
32
0
13
7.5
23
2.25
33
0
0
3DFACE
8
0
62
151
10
14.95
20
-68.33125
30
0
11
10.737436867076458
21
-68.01256313292355
31
0
12
11.25
22
-69.25
32
0
13
11.25
23
-69.25
33
0
0
3DFACE
8
0
62
151
10
14.95
20
-68.33125
30
0
11
11.25
21
-69.25
31
0
12
13.634690700539428
22
-70.96264496438135
32
0
13
13.634690700539428
23
-70.96264496438135
33
0
0
3DFACE
8
0
62
151
10
-8.262563132923542
20
-68.01256313292355
30
0
11
-7.295790965272298
21
-63.928568654055105
31
0
12
-9.5
22
-67.5
32
0
13
-9.5
23
-67.5
33
0
0
3DFACE
8
0
62
151
10
6.262563132923542
20
2.762563132923542
30
0
11
2.2097585308399257
21
1.8087102352453304
31
0
12
5.202115530337906
22
-1.5475838514247338
32
0
13
5.202115530337906
23
-1.5475838514247338
33
0
0
3DFACE
8
0
62
151
10
14.95
20
-84.1
30
0
11
14.95
21
-78.84375
31
0
12
10.390920423836576
22
-80.30349310571765
32
0
13
10.390920423836576
23
-80.30349310571765
33
0
0
3DFACE
8
0
62
151
10
5.75
20
4.
30
0
11
2.209758530839926
21
6.191289764754672
31
0
12
2.2097585308399257
22
1.8087102352453304
32
0
13
2.2097585308399257
23
1.8087102352453304
33
0
0
3DFACE
8
0
62
151
10
11.44300976871612
20
-73.94084053545784
30
0
11
14.95
21
-73.58749999999999
31
0
12
13.634690700539428
22
-70.96264496438135
32
0
13
13.634690700539428
23
-70.96264496438135
33
0
0
3DFACE
8
0
62
151
10
-5.746632586641596
20
-25.40052939656612
30
0
11
-8.432053743663575
21
-28.314850550223714
31
0
12
-4.701300889763015
22
-29.99442663270471
32
0
13
-4.701300889763015
23
-29.99442663270471
33
0
0
3DFACE
8
0
62
151
10
0.8463399740256699
20
-36.05305549817911
30
0
11
-2.8561189507580345
21
-35.877727079054196
31
0
12
-1.8459281051191567
22
-42.099999999999994
32
0
13
-1.8459281051191567
23
-42.099999999999994
33
0
0
3DFACE
8
0
62
151
10
13.634690700539428
20
-70.96264496438135
30
0
11
11.25
21
-69.25
31
0
12
10.737436867076458
22
-70.48743686707645
32
0
13
10.737436867076458
23
-70.48743686707645
33
0
0
3DFACE
8
0
62
151
10
11.507408619029523
20
-64.40368688671433
30
0
11
9.5
21
-67.5
31
0
12
10.737436867076458
22
-68.01256313292355
32
0
13
10.737436867076458
23
-68.01256313292355
33
0
0
3DFACE
8
0
62
151
10
-12.863941327534505
20
80.71903734536049
30
0
11
-9.34375
21
79.38997002279672
31
0
12
-11.212499999999999
22
84.1
32
0
13
-11.212499999999999
23
84.1
33
0
0
3DFACE
8
0
62
151
10
4.590132950940114
20
-48.096666214832986
30
0
11
1.098431874455501
21
-45.392056368975496
31
0
12
0.8917815456251985
22
-49.26507583778843
32
0
13
0.8917815456251985
23
-49.26507583778843
33
0
0
3DFACE
8
0
62
151
10
-3.6783709398343656
20
75.07162906016562
30
0
11
-3.9524161485752813
21
71.5478844696621
31
0
12
0.696475386272875
22
74.52127052678551
32
0
13
0.696475386272875
23
74.52127052678551
33
0
0
3DFACE
8
0
62
151
10
3.9524161485752813
20
71.5478844696621
30
0
11
3.8503149092540294
21
76.98986794591939
31
0
12
0.696475386272875
22
74.52127052678551
32
0
13
0.696475386272875
23
74.52127052678551
33
0
0
3DFACE
8
0
62
151
10
-7.295790965272298
20
-63.928568654055105
30
0
11
-11.446157221748635
21
-64.55156084074413
31
0
12
-9.5
22
-67.5
32
0
13
-9.5
23
-67.5
33
0
0
3DFACE
8
0
62
151
10
-11.751464925518654
20
74.68551715839443
30
0
11
-7.202115530337893
21
74.79758385142473
31
0
12
-9.34375
22
79.38997002279672
32
0
13
-9.34375
23
79.38997002279672
33
0
0
3DFACE
8
0
62
151
10
14.95
20
-63.074999999999996
30
0
11
11.507408619029523
21
-64.40368688671433
31
0
12
14.95
22
-68.33125
32
0
13
14.95
23
-68.33125
33
0
0
3DFACE
8
0
62
151
10
6.961716540341559
20
-53.37069367607546
30
0
11
7.902458405535453
21
-47.61200109395315
31
0
12
4.22074203867801
22
-51.43300239181196
32
0
13
4.22074203867801
23
-51.43300239181196
33
0
0
3DFACE
8
0
62
151
10
-11.753411663757069
20
-30.099999999999994
30
0
11
-10.755508163582867
21
-34.099999999999994
31
0
12
-8.432053743663575
22
-31.6740027151857
32
0
13
-8.432053743663575
23
-31.6740027151857
33
0
0
3DFACE
8
0
62
151
10
11.121978174497656
20
-6.828968576277885
30
0
11
14.95
21
-10.5125
31
0
12
14.95
22
-5.25625
32
0
13
14.95
23
-5.25625
33
0
0
3DFACE
8
0
62
151
10
-14.95
20
-40.099999999999994
30
0
11
-14.95
21
-44.099999999999994
31
0
12
-12.06282291544549
22
-42.099999999999994
32
0
13
-12.06282291544549
23
-42.099999999999994
33
0
0
3DFACE
8
0
62
151
10
-11.297447373988783
20
-54.403671534909236
30
0
11
-10.6657911791994
21
-58.724030316305054
31
0
12
-7.4460309587418445
22
-55.580643303315355
32
0
13
-7.4460309587418445
23
-55.580643303315355
33
0
0
3DFACE
8
0
62
151
10
3.278429142553926
20
-6.828968576277886
30
0
11
3.154686282176897
21
-12.54165122498565
31
0
12
7.500000000000001
22
-8.831084686835526
32
0
13
7.500000000000001
23
-8.831084686835526
33
0
0
3DFACE
8
0
62
151
10
6.2625631329235425
20
5.237436867076458
30
0
11
2.209758530839926
21
6.191289764754672
31
0
12
5.75
22
4.
32
0
13
5.75
23
4.
33
0
0
3DFACE
8
0
62
151
10
-3.6774383167332343
20
-75.07256168326676
30
0
11
-3.9524161485752813
21
-71.5478844696621
31
0
12
-7.202115530337893
22
-74.79758385142473
32
0
13
-7.202115530337893
23
-74.79758385142473
33
0
0
3DFACE
8
0
62
151
10
12.930943704233675
20
-2.6281249999999994
30
0
11
12.151444603834738
21
2.0733085604645014
31
0
12
9.797884469662092
22
-1.5475838514247315
32
0
13
9.797884469662092
23
-1.5475838514247315
33
0
0
3DFACE
8
0
62
151
10
-3.03946917132276
20
62.57196366393972
30
0
11
-0.040474944730980233
21
65.23770546018503
31
0
12
-3.9524161485752813
22
66.9521155303379
32
0
13
-3.9524161485752813
23
66.9521155303379
33
0
0
3DFACE
8
0
62
151
10
3.9524161485752813
20
-66.9521155303379
30
0
11
0
21
-69.25
31
0
12
3.9524161485752813
22
-71.5478844696621
32
0
13
3.9524161485752813
23
-71.5478844696621
33
0
0
3DFACE
8
0
62
151
10
14.95
20
-5.25625
30
0
11
14.95
21
0
31
0
12
12.930943704233675
22
-2.6281249999999994
32
0
13
12.930943704233675
23
-2.6281249999999994
33
0
0
3DFACE
8
0
62
151
10
-7.389132383758981
20
-79.44730832964959
30
0
11
-11.2125
21
-82.1
31
0
12
-7.475
22
-84.1
32
0
13
-7.475
23
-84.1
33
0
0
3DFACE
8
0
62
151
10
7.5
20
2.25
30
0
11
5.202115530337906
21
-1.5475838514247338
31
0
12
9.797884469662092
22
-1.5475838514247315
32
0
13
9.797884469662092
23
-1.5475838514247315
33
0
0
3DFACE
8
0
62
151
10
4.735092876508408
20
-29.391349587920686
30
0
11
7.218859181352318
21
-27.04284780125681
31
0
12
4.36461645440774
22
-25.161929367425778
32
0
13
4.36461645440774
23
-25.161929367425778
33
0
0
3DFACE
8
0
62
151
10
9.514528894654298
20
-44.678124999999994
30
0
11
12.867631730287409
21
-44.678124999999994
31
0
12
11.157915586967855
22
-39.421875
32
0
13
11.157915586967855
23
-39.421875
33
0
0
3DFACE
8
0
62
151
10
-9.7711519053052
20
-48.61397328537182
30
0
11
-14.95
21
-48.099999999999994
31
0
12
-14.95
22
-52.099999999999994
32
0
13
-14.95
23
-52.099999999999994
33
0
0
3DFACE
8
0
62
151
10
12.151444603834738
20
2.0733085604645014
30
0
11
8.737436867076458
21
2.7625631329235416
31
0
12
9.797884469662092
22
-1.5475838514247315
32
0
13
9.797884469662092
23
-1.5475838514247315
33
0
0
3DFACE
8
0
62
151
10
-7.5
20
2.25
30
0
11
-5.202115530337908
21
-1.547583851424732
31
0
12
-6.2625631329235425
22
2.7625631329235416
32
0
13
-6.2625631329235425
23
2.7625631329235416
33
0
0
3DFACE
8
0
62
151
10
0
20
-3.5000000000000053
30
0
11
2.2097585308399257
21
1.8087102352453304
31
0
12
-1.9524161485752662
22
1.702115530337904
32
0
13
-1.9524161485752662
23
1.702115530337904
33
0
0
3DFACE
8
0
62
151
10
8.421167465846796
20
24.91371086931168
30
0
11
7.766006653223418
21
21.607182202547598
31
0
12
11.54739375014256
22
23.653125
32
0
13
11.54739375014256
23
23.653125
33
0
0
3DFACE
8
0
62
151
10
-9.797884469662092
20
9.547583851424733
30
0
11
-7.5
21
5.75
31
0
12
-5.202115530337904
22
9.547583851424733
32
0
13
-5.202115530337904
23
9.547583851424733
33
0
0
3DFACE
8
0
62
151
10
9.5
20
67.5
30
0
11
11.507408619029519
21
64.40368688671433
31
0
12
10.737436867076458
22
68.01256313292355
32
0
13
10.737436867076458
23
68.01256313292355
33
0
0
3DFACE
8
0
62
151
10
7.75
20
69.25
30
0
11
3.9524161485752813
21
71.5478844696621
31
0
12
3.9524161485752813
22
66.9521155303379
32
0
13
3.9524161485752813
23
66.9521155303379
33
0
0
3DFACE
8
0
62
151
10
-7.202115530337893
20
74.79758385142473
30
0
11
-3.6783709398343656
21
75.07162906016562
31
0
12
-5.337844784947185
22
80.31334092138691
32
0
13
-5.337844784947185
23
80.31334092138691
33
0
0
3DFACE
8
0
62
151
10
3.9524161485752813
20
66.9521155303379
30
0
11
8.262563132923542
21
68.01256313292355
31
0
12
7.75
22
69.25
32
0
13
7.75
23
69.25
33
0
0
3DFACE
8
0
62
151
10
8.737436867076458
20
5.2374368670764575
30
0
11
9.25
21
4.
31
0
12
11.842047778765599
22
5.798535078436684
32
0
13
11.842047778765599
23
5.798535078436684
33
0
0
3DFACE
8
0
62
151
10
9.797884469662096
20
9.547583851424731
30
0
11
7.5
21
5.75
31
0
12
8.737436867076458
22
5.2374368670764575
32
0
13
8.737436867076458
23
5.2374368670764575
33
0
0
3DFACE
8
0
62
151
10
-9.34375
20
79.38997002279672
30
0
11
-5.337844784947185
21
80.31334092138691
31
0
12
-7.475
22
84.1
32
0
13
-7.475
23
84.1
33
0
0
3DFACE
8
0
62
151
10
7.75
20
69.25
30
0
11
8.262563132923542
21
70.48743686707645
31
0
12
3.9524161485752813
22
71.5478844696621
32
0
13
3.9524161485752813
23
71.5478844696621
33
0
0
3DFACE
8
0
62
151
10
-8.262563132923542
20
70.48743686707645
30
0
11
-7.75
21
69.25
31
0
12
-3.9524161485752813
22
71.5478844696621
32
0
13
-3.9524161485752813
23
71.5478844696621
33
0
0
3DFACE
8
0
62
151
10
-7.499999999999998
20
12.878379694769684
30
0
11
-11.349552290247505
21
14.90164895428251
31
0
12
-9.797884469662092
22
9.547583851424733
32
0
13
-9.797884469662092
23
9.547583851424733
33
0
0
3DFACE
8
0
62
151
10
7.75
20
-69.25
30
0
11
3.9524161485752813
21
-71.5478844696621
31
0
12
8.262563132923542
22
-70.48743686707645
32
0
13
8.262563132923542
23
-70.48743686707645
33
0
0
3DFACE
8
0
62
151
10
7.202115530337893
20
74.79758385142473
30
0
11
8.262563132923542
21
70.48743686707645
31
0
12
9.5
22
71.
32
0
13
9.5
23
71.
33
0
0
3DFACE
8
0
62
151
10
9.5
20
71.
30
0
11
10.737436867076458
21
70.48743686707645
31
0
12
11.44300976871612
22
73.94084053545784
32
0
13
11.44300976871612
23
73.94084053545784
33
0
0
3DFACE
8
0
62
151
10
7.202115530337893
20
74.79758385142473
30
0
11
3.9524161485752813
21
71.5478844696621
31
0
12
8.262563132923542
22
70.48743686707645
32
0
13
8.262563132923542
23
70.48743686707645
33
0
0
3DFACE
8
0
62
151
10
-11.51892033570527
20
-78.18039643984922
30
0
11
-14.95
21
-76.1
31
0
12
-14.95
22
-80.1
32
0
13
-14.95
23
-80.1
33
0
0
3DFACE
8
0
62
151
10
10.737436867076458
20
68.01256313292355
30
0
11
11.507408619029519
21
64.40368688671433
31
0
12
14.95
22
68.33125
32
0
13
14.95
23
68.33125
33
0
0
3DFACE
8
0
62
151
10
14.95
20
78.84375
30
0
11
14.95
21
84.1
31
0
12
11.212499999999999
22
81.471875
32
0
13
11.212499999999999
23
81.471875
33
0
0
3DFACE
8
0
62
151
10
-7.202115530337893
20
-74.79758385142473
30
0
11
-9.5
21
-71.
31
0
12
-11.570726104427443
22
-74.24917504526871
32
0
13
-11.570726104427443
23
-74.24917504526871
33
0
0
3DFACE
8
0
62
151
10
13.634690700539428
20
70.96264496438135
30
0
11
11.44300976871612
21
73.94084053545784
31
0
12
10.737436867076458
22
70.48743686707645
32
0
13
10.737436867076458
23
70.48743686707645
33
0
0
3DFACE
8
0
62
151
10
-7.202115530337893
20
74.79758385142473
30
0
11
-9.5
21
71.
31
0
12
-8.262563132923542
22
70.48743686707645
32
0
13
-8.262563132923542
23
70.48743686707645
33
0
0
3DFACE
8
0
62
151
10
7.26380330038103
20
-63.85134359964596
30
0
11
3.9524161485752813
21
-66.9521155303379
31
0
12
8.262563132923542
22
-68.01256313292355
32
0
13
8.262563132923542
23
-68.01256313292355
33
0
0
3DFACE
8
0
62
151
10
10.737436867076458
20
70.48743686707645
30
0
11
11.25
21
69.25
31
0
12
13.634690700539428
22
70.96264496438135
32
0
13
13.634690700539428
23
70.96264496438135
33
0
0
3DFACE
8
0
62
151
10
9.25
20
4.
30
0
11
12.151444603834738
21
2.0733085604645014
31
0
12
11.842047778765599
22
5.798535078436684
32
0
13
11.842047778765599
23
5.798535078436684
33
0
0
3DFACE
8
0
62
151
10
-1.952416148575268
20
6.297884469662092
30
0
11
-1.9524161485752662
21
1.702115530337904
31
0
12
2.2097585308399257
22
1.8087102352453304
32
0
13
2.2097585308399257
23
1.8087102352453304
33
0
0
3DFACE
8
0
62
151
10
9.797884469662096
20
9.547583851424731
30
0
11
11.842047778765599
21
5.798535078436684
31
0
12
14.95
22
10.5125
32
0
13
14.95
23
10.5125
33
0
0
3DFACE
8
0
62
151
10
0
20
11.499999999999996
30
0
11
-1.952416148575268
21
6.297884469662092
31
0
12
2.209758530839926
22
6.191289764754672
32
0
13
2.209758530839926
23
6.191289764754672
33
0
0
3DFACE
8
0
62
151
10
-1.952416148575268
20
6.297884469662092
30
0
11
0
21
11.499999999999996
31
0
12
-5.202115530337904
22
9.547583851424733
32
0
13
-5.202115530337904
23
9.547583851424733
33
0
0
3DFACE
8
0
62
151
10
11.62139859085354
20
13.281392813399279
30
0
11
14.95
21
10.5125
31
0
12
14.95
22
15.768749999999999
32
0
13
14.95
23
15.768749999999999
33
0
0
3DFACE
8
0
62
151
10
7.5000000000000036
20
12.751669517690532
30
0
11
5.202115530337908
21
9.547583851424733
31
0
12
9.797884469662096
22
9.547583851424731
32
0
13
9.797884469662096
23
9.547583851424731
33
0
0
3DFACE
8
0
62
151
10
6.2625631329235425
20
5.237436867076458
30
0
11
5.202115530337908
21
9.547583851424733
31
0
12
2.209758530839926
22
6.191289764754672
32
0
13
2.209758530839926
23
6.191289764754672
33
0
0
3DFACE
8
0
62
151
10
14.95
20
36.793749999999996
30
0
11
14.95
21
42.05
31
0
12
12.139512046431923
22
39.421875
32
0
13
12.139512046431923
23
39.421875
33
0
0
3DFACE
8
0
62
151
10
0
20
-3.5000000000000053
30
0
11
5.202115530337906
21
-1.5475838514247338
31
0
12
2.2097585308399257
22
1.8087102352453304
32
0
13
2.2097585308399257
23
1.8087102352453304
33
0
0
3DFACE
8
0
62
151
10
9.797884469662092
20
-1.5475838514247315
30
0
11
5.202115530337906
21
-1.5475838514247338
31
0
12
7.500000000000001
22
-4.826852465720243
32
0
13
7.500000000000001
23
-4.826852465720243
33
0
0
3DFACE
8
0
62
151
10
-3.56540075066136
20
13.193625980108862
30
0
11
-7.499999999999995
21
16.92491821379533
31
0
12
-7.499999999999998
22
12.878379694769684
32
0
13
-7.499999999999998
23
12.878379694769684
33
0
0
3DFACE
8
0
62
151
10
0
20
11.499999999999996
30
0
11
2.209758530839926
21
6.191289764754672
31
0
12
5.202115530337908
22
9.547583851424733
32
0
13
5.202115530337908
23
9.547583851424733
33
0
0
3DFACE
8
0
62
151
10
-5.202115530337904
20
9.547583851424733
30
0
11
-7.499999999999998
21
12.878379694769684
31
0
12
-9.797884469662092
22
9.547583851424733
32
0
13
-9.797884469662092
23
9.547583851424733
33
0
0
3DFACE
8
0
62
151
10
7.263803300381031
20
63.851343599645965
30
0
11
6.828326838331392
21
60.523986720876444
31
0
12
9.998040497252422
22
59.42223408614231
32
0
13
9.998040497252422
23
59.42223408614231
33
0
0
3DFACE
8
0
62
151
10
7.202115530337893
20
74.79758385142473
30
0
11
11.44300976871612
21
73.94084053545784
31
0
12
11.358095807149507
22
77.70728644215316
32
0
13
11.358095807149507
23
77.70728644215316
33
0
0
3DFACE
8
0
62
151
10
-7.299935777028588
20
63.938575114810625
30
0
11
-8.262563132923542
21
68.01256313292355
31
0
12
-9.5
22
67.5
32
0
13
-9.5
23
67.5
33
0
0
3DFACE
8
0
62
151
10
11.62139859085354
20
13.281392813399279
30
0
11
7.500000000000005
21
16.694566674944852
31
0
12
7.5000000000000036
22
12.751669517690532
32
0
13
7.5000000000000036
23
12.751669517690532
33
0
0
3DFACE
8
0
62
151
10
2.8737572389535586
20
21.08713746391547
30
0
11
4.332698145343891
21
17.991231681978064
31
0
12
7.766006653223418
22
21.607182202547598
32
0
13
7.766006653223418
23
21.607182202547598
33
0
0
3DFACE
8
0
62
151
10
11.507408619029519
20
64.40368688671433
30
0
11
9.5
21
67.5
31
0
12
7.263803300381031
22
63.851343599645965
32
0
13
7.263803300381031
23
63.851343599645965
33
0
0
3DFACE
8
0
62
151
10
11.44300976871612
20
73.94084053545784
30
0
11
13.634690700539428
21
70.96264496438135
31
0
12
14.95
22
73.58749999999999
32
0
13
14.95
23
73.58749999999999
33
0
0
3DFACE
8
0
62
151
10
-0.040474944730980233
20
65.23770546018503
30
0
11
-3.03946917132276
21
62.57196366393972
31
0
12
-0.0459080003946335
22
59.24663750371161
32
0
13
-0.0459080003946335
23
59.24663750371161
33
0
0
3DFACE
8
0
62
151
10
14.95
20
84.1
30
0
11
7.475
21
84.1
31
0
12
11.212499999999999
22
81.471875
32
0
13
11.212499999999999
23
81.471875
33
0
0
3DFACE
8
0
62
151
10
11.363401872587975
20
-55.190625
30
0
11
14.95
21
-57.818749999999994
31
0
12
14.95
22
-52.5625
32
0
13
14.95
23
-52.5625
33
0
0
3DFACE
8
0
62
151
10
7.26380330038103
20
-63.85134359964596
30
0
11
11.507408619029523
21
-64.40368688671433
31
0
12
9.998040497252429
22
-59.42223408614232
32
0
13
9.998040497252429
23
-59.42223408614232
33
0
0
3DFACE
8
0
62
151
10
14.95
20
73.58749999999999
30
0
11
11.358095807149507
21
77.70728644215316
31
0
12
11.44300976871612
22
73.94084053545784
32
0
13
11.44300976871612
23
73.94084053545784
33
0
0
3DFACE
8
0
62
151
10
9.998040497252422
20
59.42223408614231
30
0
11
14.95
21
57.818749999999994
31
0
12
13.065417655049272
22
60.446875
32
0
13
13.065417655049272
23
60.446875
33
0
0
3DFACE
8
0
62
151
10
14.95
20
68.33125
30
0
11
11.507408619029519
21
64.40368688671433
31
0
12
14.95
22
63.074999999999996
32
0
13
14.95
23
63.074999999999996
33
0
0
3DFACE
8
0
62
151
10
0
20
69.25
30
0
11
3.9524161485752813
21
66.9521155303379
31
0
12
3.9524161485752813
22
71.5478844696621
32
0
13
3.9524161485752813
23
71.5478844696621
33
0
0
3DFACE
8
0
62
151
10
10.299942714169868
20
49.977948967561744
30
0
11
11.363401872587978
21
55.190625
31
0
12
6.966615167248403
22
53.372812948758224
32
0
13
6.966615167248403
23
53.372812948758224
33
0
0
3DFACE
8
0
62
151
10
8.737436867076458
20
2.7625631329235416
30
0
11
12.151444603834738
21
2.0733085604645014
31
0
12
9.25
22
4.
32
0
13
9.25
23
4.
33
0
0
3DFACE
8
0
62
151
10
3.9524161485752813
20
-71.5478844696621
30
0
11
3.392746126248375
21
-77.00866913735568
31
0
12
7.2973995917518995
22
-74.56754777808105
32
0
13
7.2973995917518995
23
-74.56754777808105
33
0
0
3DFACE
8
0
62
151
10
-3.9524161485752813
20
66.9521155303379
30
0
11
-7.299935777028588
21
63.938575114810625
31
0
12
-3.03946917132276
22
62.57196366393972
32
0
13
-3.03946917132276
23
62.57196366393972
33
0
0
3DFACE
8
0
62
151
10
7.2973995917518995
20
-74.56754777808105
30
0
11
8.262563132923542
21
-70.48743686707645
31
0
12
3.9524161485752813
22
-71.5478844696621
32
0
13
3.9524161485752813
23
-71.5478844696621
33
0
0
3DFACE
8
0
62
151
10
-9.835223536496656
20
-16.518087072216932
30
0
11
-13.418766849987502
21
-16.843749999999993
31
0
12
-11.730355966196793
22
-22.099999999999994
32
0
13
-11.730355966196793
23
-22.099999999999994
33
0
0
3DFACE
8
0
62
151
10
-3.03946917132276
20
62.57196366393972
30
0
11
-7.299935777028588
21
63.938575114810625
31
0
12
-6.838718557618756
22
60.5932287065025
32
0
13
-6.838718557618756
23
60.5932287065025
33
0
0
3DFACE
8
0
62
151
10
-10.755508163582867
20
-34.099999999999994
30
0
11
-6.108599323744283
21
-34.099999999999994
31
0
12
-8.432053743663575
22
-31.6740027151857
32
0
13
-8.432053743663575
23
-31.6740027151857
33
0
0
3DFACE
8
0
62
151
10
-8.549171403152824
20
-45.47160442467812
30
0
11
-14.95
21
-44.099999999999994
31
0
12
-9.7711519053052
22
-48.61397328537182
32
0
13
-9.7711519053052
23
-48.61397328537182
33
0
0
3DFACE
8
0
62
151
10
-10.30670564162971
20
-38.28015776098016
30
0
11
-12.06282291544549
21
-42.099999999999994
31
0
12
-8.55058836781393
22
-42.099999999999994
32
0
13
-8.55058836781393
23
-42.099999999999994
33
0
0
3DFACE
8
0
62
151
10
-14.95
20
-28.099999999999994
30
0
11
-11.753411663757069
21
-30.099999999999994
31
0
12
-11.547633265167034
22
-25.985677953206576
32
0
13
-11.547633265167034
23
-25.985677953206576
33
0
0
3DFACE
8
0
62
151
10
-11.730355966196793
20
-22.099999999999994
30
0
11
-7.940091106796518
21
-22.099999999999994
31
0
12
-9.835223536496656
22
-16.518087072216932
32
0
13
-9.835223536496656
23
-16.518087072216932
33
0
0
3DFACE
8
0
62
151
10
-10.30670564162971
20
-38.28015776098016
30
0
11
-8.55058836781393
21
-42.099999999999994
31
0
12
-5.198258236466543
22
-38.75058727589709
32
0
13
-5.198258236466543
23
-38.75058727589709
33
0
0
3DFACE
8
0
62
151
10
-14.95
20
-36.099999999999994
30
0
11
-10.30670564162971
21
-38.28015776098016
31
0
12
-10.755508163582867
22
-34.099999999999994
32
0
13
-10.755508163582867
23
-34.099999999999994
33
0
0
3DFACE
8
0
62
151
10
0.010517762617236581
20
-9.464395014505328
30
0
11
-3.271820202646465
21
-6.846958333281417
31
0
12
-3.9219151711686533
22
-10.934323080671831
32
0
13
-3.9219151711686533
23
-10.934323080671831
33
0
0
3DFACE
8
0
62
151
10
-7.500000000000002
20
-4.8396135386786465
30
0
11
-5.202115530337908
21
-1.547583851424732
31
0
12
-9.797884469662094
22
-1.547583851424731
32
0
13
-9.797884469662094
23
-1.547583851424731
33
0
0
3DFACE
8
0
62
151
10
1.4985435741839086
20
-80.45968587081556
30
0
11
3.7375
21
-84.1
31
0
12
5.60625
22
-80.4551026428325
32
0
13
5.60625
23
-80.4551026428325
33
0
0
3DFACE
8
0
62
151
10
0
20
-69.25
30
0
11
-3.9524161485752813
21
-71.5478844696621
31
0
12
0.2788319096354763
22
-73.61618768155499
32
0
13
0.2788319096354763
23
-73.61618768155499
33
0
0
3DFACE
8
0
62
151
10
-11.42221283365722
20
-10.910490725254643
30
0
11
-14.95
21
-13.587499999999995
31
0
12
-9.835223536496656
22
-16.518087072216932
32
0
13
-9.835223536496656
23
-16.518087072216932
33
0
0
3DFACE
8
0
62
151
10
0.010517762617236581
20
-9.464395014505328
30
0
11
3.278429142553926
21
-6.828968576277886
31
0
12
0
22
-3.5000000000000053
32
0
13
0
23
-3.5000000000000053
33
0
0
3DFACE
8
0
62
151
10
-3.9524161485752813
20
-71.5478844696621
30
0
11
-3.6774383167332343
21
-75.07256168326676
31
0
12
0.2788319096354763
22
-73.61618768155499
32
0
13
0.2788319096354763
23
-73.61618768155499
33
0
0
3DFACE
8
0
62
151
10
-3.9524161485752813
20
-66.9521155303379
30
0
11
-3.9524161485752813
21
-71.5478844696621
31
0
12
0
22
-69.25
32
0
13
0
23
-69.25
33
0
0
3DFACE
8
0
62
151
10
-14.95
20
51.537499999999994
30
0
11
-11.200016108253745
21
54.793749999999996
31
0
12
-14.95
22
58.05
32
0
13
-14.95
23
58.05
33
0
0
3DFACE
8
0
62
151
10
-8.378022772822959
20
56.68733037211306
30
0
11
-5.162672141993251
21
51.98524596778587
31
0
12
-5.1282546943895655
22
57.681463384975494
32
0
13
-5.1282546943895655
23
57.681463384975494
33
0
0
3DFACE
8
0
62
151
10
-4.568942309434991
20
-53.012778694792175
30
0
11
1.3187557968461108
21
-53.12003072118253
31
0
12
-3.564972711549197
22
-49.28939142105912
32
0
13
-3.564972711549197
23
-49.28939142105912
33
0
0
3DFACE
8
0
62
151
10
-3.0369699837151023
20
-62.57954396667465
30
0
11
-7.295790965272298
21
-63.928568654055105
31
0
12
-3.9524161485752813
22
-66.9521155303379
32
0
13
-3.9524161485752813
23
-66.9521155303379
33
0
0
3DFACE
8
0
62
151
10
-0.04051890720919005
20
-59.26613111793088
30
0
11
2.968667444070411
21
-62.58300717887801
31
0
12
5.00412765491034
22
-57.71290849613574
32
0
13
5.00412765491034
23
-57.71290849613574
33
0
0
3DFACE
8
0
62
151
10
-11.297447373988783
20
-54.403671534909236
30
0
11
-8.116950864537387
21
-51.933223619929834
31
0
12
-9.7711519053052
22
-48.61397328537182
32
0
13
-9.7711519053052
23
-48.61397328537182
33
0
0
3DFACE
8
0
62
151
10
3.9524161485752813
20
66.9521155303379
30
0
11
2.9620363830973346
21
62.57592571316563
31
0
12
7.263803300381031
22
63.851343599645965
32
0
13
7.263803300381031
23
63.851343599645965
33
0
0
3DFACE
8
0
62
151
10
2.9620363830973346
20
62.57592571316563
30
0
11
5.004516074714867
21
57.70713424937378
31
0
12
6.828326838331392
22
60.523986720876444
32
0
13
6.828326838331392
23
60.523986720876444
33
0
0
3DFACE
8
0
62
151
10
8.421167465846796
20
24.91371086931168
30
0
11
11.54739375014256
21
23.653125
31
0
12
11.242842505093481
22
28.909374999999997
32
0
13
11.242842505093481
23
28.909374999999997
33
0
0
3DFACE
8
0
62
151
10
-13.39164605014939
20
9.206250000000002
30
0
11
-11.349552290247505
21
14.90164895428251
31
0
12
-14.95
22
12.462500000000002
32
0
13
-14.95
23
12.462500000000002
33
0
0
3DFACE
8
0
62
151
10
-3.9524161485752813
20
71.5478844696621
30
0
11
-3.9524161485752813
21
66.9521155303379
31
0
12
0
22
69.25
32
0
13
0
23
69.25
33
0
0
3DFACE
8
0
62
151
10
0
20
69.25
30
0
11
3.9524161485752813
21
71.5478844696621
31
0
12
0.696475386272875
22
74.52127052678551
32
0
13
0.696475386272875
23
74.52127052678551
33
0
0
3DFACE
8
0
62
151
10
-3.271820202646465
20
-6.846958333281417
30
0
11
-5.202115530337908
21
-1.547583851424732
31
0
12
-7.500000000000002
22
-4.8396135386786465
32
0
13
-7.500000000000002
23
-4.8396135386786465
33
0
0
3DFACE
8
0
62
151
10
-7.940091106796518
20
-22.099999999999994
30
0
11
-2.079657763234989
21
-20.388747950756656
31
0
12
-5.517032153558665
22
-17.570979817409594
32
0
13
-5.517032153558665
23
-17.570979817409594
33
0
0
3DFACE
8
0
62
151
10
-5.202115530337908
20
-1.547583851424732
30
0
11
-3.271820202646465
21
-6.846958333281417
31
0
12
0
22
-3.5000000000000053
32
0
13
0
23
-3.5000000000000053
33
0
0
3DFACE
8
0
62
151
10
11.678597789039816
20
-10.081370690431529
30
0
11
10.44210760435136
21
-13.140625
31
0
12
14.95
22
-10.5125
32
0
13
14.95
23
-10.5125
33
0
0
3DFACE
8
0
62
151
10
3.316541282357365
20
14.723118096317695
30
0
11
5.202115530337908
21
9.547583851424733
31
0
12
7.5000000000000036
22
12.751669517690532
32
0
13
7.5000000000000036
23
12.751669517690532
33
0
0
3DFACE
8
0
62
151
10
3.838057972339368
20
25.067698978170466
30
0
11
7.766006653223418
21
21.607182202547598
31
0
12
8.421167465846796
22
24.91371086931168
32
0
13
8.421167465846796
23
24.91371086931168
33
0
0
3DFACE
8
0
62
151
10
0
20
11.499999999999996
30
0
11
5.202115530337908
21
9.547583851424733
31
0
12
3.316541282357365
22
14.723118096317695
32
0
13
3.316541282357365
23
14.723118096317695
33
0
0
3DFACE
8
0
62
151
10
-4.6400497992579215
20
19.018832916140248
30
0
11
-10.250751875388143
21
22.231250000000003
31
0
12
-7.499999999999995
22
16.92491821379533
32
0
13
-7.499999999999995
23
16.92491821379533
33
0
0
3DFACE
8
0
62
151
10
-0.0459080003946335
20
59.24663750371161
30
0
11
-3.03946917132276
21
62.57196366393972
31
0
12
-5.1282546943895655
22
57.681463384975494
32
0
13
-5.1282546943895655
23
57.681463384975494
33
0
0
3DFACE
8
0
62
151
10
-0.0459080003946335
20
59.24663750371161
30
0
11
-2.5914050942523685
21
54.817922651564416
31
0
12
1.8541676206368747
22
56.42609189521095
32
0
13
1.8541676206368747
23
56.42609189521095
33
0
0
3DFACE
8
0
62
151
10
-7.389132383758981
20
-79.44730832964959
30
0
11
-7.475
21
-84.1
31
0
12
-3.7375
22
-81.84183912407387
32
0
13
-3.7375
23
-81.84183912407387
33
0
0
3DFACE
8
0
62
151
10
-11.51892033570527
20
-78.18039643984922
30
0
11
-7.202115530337893
21
-74.79758385142473
31
0
12
-11.570726104427443
22
-74.24917504526871
32
0
13
-11.570726104427443
23
-74.24917504526871
33
0
0
3DFACE
8
0
62
151
10
-14.95
20
-80.1
30
0
11
-11.2125
21
-82.1
31
0
12
-11.51892033570527
22
-78.18039643984922
32
0
13
-11.51892033570527
23
-78.18039643984922
33
0
0
3DFACE
8
0
62
151
10
-7.389132383758981
20
-79.44730832964959
30
0
11
-11.51892033570527
21
-78.18039643984922
31
0
12
-11.2125
22
-82.1
32
0
13
-11.2125
23
-82.1
33
0
0
3DFACE
8
0
62
151
10
-3.9524161485752813
20
71.5478844696621
30
0
11
0
21
69.25
31
0
12
0.696475386272875
22
74.52127052678551
32
0
13
0.696475386272875
23
74.52127052678551
33
0
0
3DFACE
8
0
62
151
10
-3.6783709398343656
20
75.07162906016562
30
0
11
-1.8687499999999995
21
78.10760481264614
31
0
12
-5.337844784947185
22
80.31334092138691
32
0
13
-5.337844784947185
23
80.31334092138691
33
0
0
3DFACE
8
0
62
151
10
3.8503149092540294
20
76.98986794591939
30
0
11
3.9524161485752813
21
71.5478844696621
31
0
12
7.202115530337893
22
74.79758385142473
32
0
13
7.202115530337893
23
74.79758385142473
33
0
0
3DFACE
8
0
62
151
10
-1.8687499999999995
20
78.10760481264614
30
0
11
-3.6783709398343656
21
75.07162906016562
31
0
12
0.696475386272875
22
74.52127052678551
32
0
13
0.696475386272875
23
74.52127052678551
33
0
0
3DFACE
8
0
62
151
10
-8.432053743663575
20
-31.6740027151857
30
0
11
-4.701300889763015
21
-29.99442663270471
31
0
12
-8.432053743663575
22
-28.314850550223714
32
0
13
-8.432053743663575
23
-28.314850550223714
33
0
0
3DFACE
8
0
62
151
10
-7.940091106796518
20
-22.099999999999994
30
0
11
-11.730355966196793
21
-22.099999999999994
31
0
12
-11.547633265167034
22
-25.985677953206576
32
0
13
-11.547633265167034
23
-25.985677953206576
33
0
0
3DFACE
8
0
62
151
10
-14.95
20
-28.099999999999994
30
0
11
-11.547633265167034
21
-25.985677953206576
31
0
12
-14.95
22
-24.099999999999994
32
0
13
-14.95
23
-24.099999999999994
33
0
0
3DFACE
8
0
62
151
10
-11.547633265167034
20
-25.985677953206576
30
0
11
-8.432053743663575
21
-28.314850550223714
31
0
12
-5.746632586641596
22
-25.40052939656612
32
0
13
-5.746632586641596
23
-25.40052939656612
33
0
0
3DFACE
8
0
62
151
10
-10.755508163582867
20
-34.099999999999994
30
0
11
-11.753411663757069
21
-30.099999999999994
31
0
12
-14.95
22
-32.099999999999994
32
0
13
-14.95
23
-32.099999999999994
33
0
0
3DFACE
8
0
62
151
10
-11.547633265167034
20
-25.985677953206576
30
0
11
-11.753411663757069
21
-30.099999999999994
31
0
12
-8.432053743663575
22
-28.314850550223714
32
0
13
-8.432053743663575
23
-28.314850550223714
33
0
0
3DFACE
8
0
62
151
10
-7.389132383758981
20
-79.44730832964959
30
0
11
-3.6774383167332343
21
-75.07256168326676
31
0
12
-7.202115530337893
22
-74.79758385142473
32
0
13
-7.202115530337893
23
-74.79758385142473
33
0
0
3DFACE
8
0
62
151
10
-3.6774383167332343
20
-75.07256168326676
30
0
11
-1.1775420920762478
21
-77.57245790792372
31
0
12
0.2788319096354763
22
-73.61618768155499
32
0
13
0.2788319096354763
23
-73.61618768155499
33
0
0
3DFACE
8
0
62
151
10
0.2788319096354763
20
-73.61618768155499
30
0
11
-1.1775420920762478
21
-77.57245790792372
31
0
12
3.392746126248375
22
-77.00866913735568
32
0
13
3.392746126248375
23
-77.00866913735568
33
0
0
3DFACE
8
0
62
151
10
0
20
-69.25
30
0
11
0.2788319096354763
21
-73.61618768155499
31
0
12
3.9524161485752813
22
-71.5478844696621
32
0
13
3.9524161485752813
23
-71.5478844696621
33
0
0
3DFACE
8
0
62
151
10
-11.464552744822035
20
-5.158935668948372
30
0
11
-7.500000000000002
21
-4.8396135386786465
31
0
12
-9.797884469662094
22
-1.547583851424731
32
0
13
-9.797884469662094
23
-1.547583851424731
33
0
0
3DFACE
8
0
62
151
10
-7.500000000000002
20
-4.8396135386786465
30
0
11
-7.500000000000002
21
-8.854303127884187
31
0
12
-3.271820202646465
22
-6.846958333281417
32
0
13
-3.271820202646465
23
-6.846958333281417
33
0
0
3DFACE
8
0
62
151
10
-3.9524161485752813
20
-66.9521155303379
30
0
11
0
21
-69.25
31
0
12
-0.03568426159026883
22
-65.23967251680091
32
0
13
-0.03568426159026883
23
-65.23967251680091
33
0
0
3DFACE
8
0
62
151
10
-6.281079750354985
20
-59.73499197553569
30
0
11
-3.0369699837151023
21
-62.57954396667465
31
0
12
-3.372790641817193
22
-56.678946848564095
32
0
13
-3.372790641817193
23
-56.678946848564095
33
0
0
3DFACE
8
0
62
151
10
6.830895808360838
20
-60.52557263185712
30
0
11
7.26380330038103
21
-63.85134359964596
31
0
12
9.998040497252429
22
-59.42223408614232
32
0
13
9.998040497252429
23
-59.42223408614232
33
0
0
3DFACE
8
0
62
151
10
-0.03568426159026883
20
-65.23967251680091
30
0
11
-0.04051890720919005
21
-59.26613111793088
31
0
12
-3.0369699837151023
22
-62.57954396667465
32
0
13
-3.0369699837151023
23
-62.57954396667465
33
0
0
3DFACE
8
0
62
151
10
11.62139859085354
20
13.281392813399279
30
0
11
7.5000000000000036
21
12.751669517690532
31
0
12
9.797884469662096
22
9.547583851424731
32
0
13
9.797884469662096
23
9.547583851424731
33
0
0
3DFACE
8
0
62
151
10
7.5000000000000036
20
12.751669517690532
30
0
11
7.500000000000005
21
16.694566674944852
31
0
12
3.316541282357365
22
14.723118096317695
32
0
13
3.316541282357365
23
14.723118096317695
33
0
0
3DFACE
8
0
62
151
10
14.95
20
10.5125
30
0
11
11.62139859085354
21
13.281392813399279
31
0
12
9.797884469662096
22
9.547583851424731
32
0
13
9.797884469662096
23
9.547583851424731
33
0
0
3DFACE
8
0
62
151
10
11.62139859085354
20
13.281392813399279
30
0
11
14.95
21
15.768749999999999
31
0
12
11.494072978662617
22
18.396874999999998
32
0
13
11.494072978662617
23
18.396874999999998
33
0
0
3DFACE
8
0
62
151
10
4.332698145343891
20
17.991231681978064
30
0
11
3.316541282357365
21
14.723118096317695
31
0
12
7.500000000000005
22
16.694566674944852
32
0
13
7.500000000000005
23
16.694566674944852
33
0
0
3DFACE
8
0
62
151
10
0
20
11.499999999999996
30
0
11
3.316541282357365
21
14.723118096317695
31
0
12
-1.898811510920833
22
16.771744449262368
32
0
13
-1.898811510920833
23
16.771744449262368
33
0
0
3DFACE
8
0
62
151
10
3.278429142553926
20
-6.828968576277886
30
0
11
5.202115530337906
21
-1.5475838514247338
31
0
12
0
22
-3.5000000000000053
32
0
13
0
23
-3.5000000000000053
33
0
0
3DFACE
8
0
62
151
10
11.121978174497656
20
-6.828968576277885
30
0
11
7.500000000000001
21
-4.826852465720243
31
0
12
7.500000000000001
22
-8.831084686835526
32
0
13
7.500000000000001
23
-8.831084686835526
33
0
0
3DFACE
8
0
62
151
10
-3.56540075066136
20
13.193625980108862
30
0
11
-5.202115530337904
21
9.547583851424733
31
0
12
0
22
11.499999999999996
32
0
13
0
23
11.499999999999996
33
0
0
3DFACE
8
0
62
151
10
-7.499999999999998
20
12.878379694769684
30
0
11
-7.499999999999995
21
16.92491821379533
31
0
12
-11.349552290247505
22
14.90164895428251
32
0
13
-11.349552290247505
23
14.90164895428251
33
0
0
3DFACE
8
0
62
151
10
3.9524161485752813
20
66.9521155303379
30
0
11
0
21
69.25
31
0
12
-0.040474944730980233
22
65.23770546018503
32
0
13
-0.040474944730980233
23
65.23770546018503
33
0
0
3DFACE
8
0
62
151
10
2.9620363830973346
20
62.57592571316563
30
0
11
-0.0459080003946335
21
59.24663750371161
31
0
12
5.004516074714867
22
57.70713424937378
32
0
13
5.004516074714867
23
57.70713424937378
33
0
0
3DFACE
8
0
62
151
10
-6.838718557618756
20
60.5932287065025
30
0
11
-7.299935777028588
21
63.938575114810625
31
0
12
-10.075803207572832
22
59.63127918387052
32
0
13
-10.075803207572832
23
59.63127918387052
33
0
0
3DFACE
8
0
62
151
10
-0.040474944730980233
20
65.23770546018503
30
0
11
-0.0459080003946335
21
59.24663750371161
31
0
12
2.9620363830973346
22
62.57592571316563
32
0
13
2.9620363830973346
23
62.57592571316563
33
0
0
3DFACE
8
0
62
151
10
-7.475
20
-84.1
30
0
11
0
21
-84.1
31
0
12
-3.7375
22
-81.84183912407387
32
0
13
-3.7375
23
-81.84183912407387
33
0
0
3DFACE
8
0
62
151
10
-3.7375
20
-81.84183912407387
30
0
11
0
21
-84.1
31
0
12
1.4985435741839086
22
-80.45968587081556
32
0
13
1.4985435741839086
23
-80.45968587081556
33
0
0
3DFACE
8
0
62
151
10
-4.701300889763015
20
-29.99442663270471
30
0
11
-6.108599323744283
21
-34.099999999999994
31
0
12
-0.776929262823751
22
-31.1514918890336
32
0
13
-0.776929262823751
23
-31.1514918890336
33
0
0
3DFACE
8
0
62
151
10
-11.753411663757069
20
-30.099999999999994
30
0
11
-8.432053743663575
21
-31.6740027151857
31
0
12
-8.432053743663575
22
-28.314850550223714
32
0
13
-8.432053743663575
23
-28.314850550223714
33
0
0
3DFACE
8
0
62
151
10
1.4985435741839086
20
-80.45968587081556
30
0
11
3.392746126248375
21
-77.00866913735568
31
0
12
-1.1775420920762478
22
-77.57245790792372
32
0
13
-1.1775420920762478
23
-77.57245790792372
33
0
0
3DFACE
8
0
62
151
10
3.392746126248375
20
-77.00866913735568
30
0
11
1.4985435741839086
21
-80.45968587081556
31
0
12
5.60625
22
-80.4551026428325
32
0
13
5.60625
23
-80.4551026428325
33
0
0
3DFACE
8
0
62
151
10
-14.95
20
-0.5624999999999964
30
0
11
-11.464552744822035
21
-5.158935668948372
31
0
12
-9.797884469662094
22
-1.547583851424731
32
0
13
-9.797884469662094
23
-1.547583851424731
33
0
0
3DFACE
8
0
62
151
10
-11.464552744822035
20
-5.158935668948372
30
0
11
-14.95
21
-7.074999999999996
31
0
12
-11.42221283365722
22
-10.910490725254643
32
0
13
-11.42221283365722
23
-10.910490725254643
33
0
0
3DFACE
8
0
62
151
10
-7.534630067538433
20
-13.031424761159972
30
0
11
-2.1469111045189404
21
-14.673110933664397
31
0
12
-3.9219151711686533
22
-10.934323080671831
32
0
13
-3.9219151711686533
23
-10.934323080671831
33
0
0
3DFACE
8
0
62
151
10
7.500000000000001
20
-4.826852465720243
30
0
11
3.278429142553926
21
-6.828968576277886
31
0
12
7.500000000000001
22
-8.831084686835526
32
0
13
7.500000000000001
23
-8.831084686835526
33
0
0
3DFACE
8
0
62
151
10
-7.4460309587418445
20
-55.580643303315355
30
0
11
-6.281079750354985
21
-59.73499197553569
31
0
12
-3.372790641817193
22
-56.678946848564095
32
0
13
-3.372790641817193
23
-56.678946848564095
33
0
0
3DFACE
8
0
62
151
10
-14.95
20
-56.099999999999994
30
0
11
-11.297447373988783
21
-54.403671534909236
31
0
12
-14.95
22
-52.099999999999994
32
0
13
-14.95
23
-52.099999999999994
33
0
0
3DFACE
8
0
62
151
10
14.95
20
-57.818749999999994
30
0
11
11.363401872587975
21
-55.190625
31
0
12
9.998040497252429
22
-59.42223408614232
32
0
13
9.998040497252429
23
-59.42223408614232
33
0
0
3DFACE
8
0
62
151
10
14.95
20
-47.30625
30
0
11
10.287529451955772
21
-49.96100860779494
31
0
12
14.95
22
-52.5625
32
0
13
14.95
23
-52.5625
33
0
0
3DFACE
8
0
62
151
10
10.850484931151827
20
34.165625
30
0
11
14.95
21
31.537499999999998
31
0
12
14.95
22
36.793749999999996
32
0
13
14.95
23
36.793749999999996
33
0
0
3DFACE
8
0
62
151
10
-11.134344261381056
20
25.746240003951325
30
0
11
-10.250751875388143
21
22.231250000000003
31
0
12
-7.531693595784375
22
24.721433066129254
32
0
13
-7.531693595784375
23
24.721433066129254
33
0
0
3DFACE
8
0
62
151
10
-1.898811510920833
20
16.771744449262368
30
0
11
3.316541282357365
21
14.723118096317695
31
0
12
4.332698145343891
22
17.991231681978064
32
0
13
4.332698145343891
23
17.991231681978064
33
0
0
3DFACE
8
0
62
151
10
0.15430682377744187
20
26.857873089435934
30
0
11
-1.059556184214629
21
20.693853083578844
31
0
12
2.8737572389535586
22
21.08713746391547
32
0
13
2.8737572389535586
23
21.08713746391547
33
0
0
3DFACE
8
0
62
151
10
-3.271820202646465
20
-6.846958333281417
30
0
11
0.010517762617236581
21
-9.464395014505328
31
0
12
0
22
-3.5000000000000053
32
0
13
0
23
-3.5000000000000053
33
0
0
3DFACE
8
0
62
151
10
-3.9219151711686533
20
-10.934323080671831
30
0
11
-3.271820202646465
21
-6.846958333281417
31
0
12
-7.500000000000002
22
-8.854303127884187
32
0
13
-7.500000000000002
23
-8.854303127884187
33
0
0
3DFACE
8
0
62
151
10
7.500000000000001
20
-8.831084686835526
30
0
11
10.44210760435136
21
-13.140625
31
0
12
11.678597789039816
22
-10.081370690431529
32
0
13
11.678597789039816
23
-10.081370690431529
33
0
0
3DFACE
8
0
62
151
10
11.121978174497656
20
-6.828968576277885
30
0
11
14.95
21
-5.25625
31
0
12
12.930943704233675
22
-2.6281249999999994
32
0
13
12.930943704233675
23
-2.6281249999999994
33
0
0
3DFACE
8
0
62
151
10
-10.820874716413442
20
18.569556063468372
30
0
11
-7.499999999999995
21
16.92491821379533
31
0
12
-10.250751875388143
22
22.231250000000003
32
0
13
-10.250751875388143
23
22.231250000000003
33
0
0
3DFACE
8
0
62
151
10
-14.95
20
18.975
30
0
11
-14.95
21
12.462500000000002
31
0
12
-11.349552290247505
22
14.90164895428251
32
0
13
-11.349552290247505
23
14.90164895428251
33
0
0
3DFACE
8
0
62
151
10
-5.1282546943895655
20
57.681463384975494
30
0
11
-5.162672141993251
21
51.98524596778587
31
0
12
-2.5914050942523685
22
54.817922651564416
32
0
13
-2.5914050942523685
23
54.817922651564416
33
0
0
3DFACE
8
0
62
151
10
14.95
20
57.818749999999994
30
0
11
11.363401872587978
21
55.190625
31
0
12
14.95
22
52.5625
32
0
13
14.95
23
52.5625
33
0
0
3DFACE
8
0
62
151
10
-14.95
20
58.05
30
0
11
-11.200016108253745
21
54.793749999999996
31
0
12
-10.075803207572832
22
59.63127918387052
32
0
13
-10.075803207572832
23
59.63127918387052
33
0
0
3DFACE
8
0
62
151
10
-9.956269307986208
20
49.57400271651672
30
0
11
-6.4670095678574695
21
48.607790909738284
31
0
12
-8.513311830409764
22
52.67587849126812
32
0
13
-8.513311830409764
23
52.67587849126812
33
0
0
3DFACE
8
0
62
151
10
-3.7375
20
-81.84183912407387
30
0
11
1.4985435741839086
21
-80.45968587081556
31
0
12
-1.1775420920762478
22
-77.57245790792372
32
0
13
-1.1775420920762478
23
-77.57245790792372
33
0
0
3DFACE
8
0
62
151
10
3.7375
20
-84.1
30
0
11
7.475
21
-84.1
31
0
12
5.60625
22
-80.4551026428325
32
0
13
5.60625
23
-80.4551026428325
33
0
0
3DFACE
8
0
62
151
10
10.390920423836576
20
-80.30349310571765
30
0
11
5.60625
21
-80.4551026428325
31
0
12
7.475
22
-84.1
32
0
13
7.475
23
-84.1
33
0
0
3DFACE
8
0
62
151
10
1.4985435741839086
20
-80.45968587081556
30
0
11
0
21
-84.1
31
0
12
3.7375
22
-84.1
32
0
13
3.7375
23
-84.1
33
0
0
3DFACE
8
0
62
151
10
7.2973995917518995
20
-74.56754777808105
30
0
11
3.392746126248375
21
-77.00866913735568
31
0
12
5.60625
22
-80.4551026428325
32
0
13
5.60625
23
-80.4551026428325
33
0
0
3DFACE
8
0
62
151
10
1.2785507521434925
20
-28.0776534048086
30
0
11
1.4230381493040607
21
-22.396556101399906
31
0
12
-1.8459281051191567
22
-26.099999999999994
32
0
13
-1.8459281051191567
23
-26.099999999999994
33
0
0
3DFACE
8
0
62
151
10
6.830791951036262
20
-12.447003877876297
30
0
11
3.154686282176897
21
-12.54165122498565
31
0
12
5.097144881282143
22
-16.54945043767518
32
0
13
5.097144881282143
23
-16.54945043767518
33
0
0
3DFACE
8
0
62
151
10
-3.372790641817193
20
-56.678946848564095
30
0
11
-3.0369699837151023
21
-62.57954396667465
31
0
12
-0.04051890720919005
22
-59.26613111793088
32
0
13
-0.04051890720919005
23
-59.26613111793088
33
0
0
3DFACE
8
0
62
151
10
-10.6657911791994
20
-58.724030316305054
30
0
11
-6.281079750354985
21
-59.73499197553569
31
0
12
-7.4460309587418445
22
-55.580643303315355
32
0
13
-7.4460309587418445
23
-55.580643303315355
33
0
0
3DFACE
8
0
62
151
10
11.494072978662617
20
18.396874999999998
30
0
11
7.766006653223418
21
21.607182202547598
31
0
12
7.500000000000005
22
16.694566674944852
32
0
13
7.500000000000005
23
16.694566674944852
33
0
0
3DFACE
8
0
62
151
10
0.15430682377744187
20
26.857873089435934
30
0
11
-4.543154597766764
21
22.562052532724692
31
0
12
-1.059556184214629
22
20.693853083578844
32
0
13
-1.059556184214629
23
20.693853083578844
33
0
0
3DFACE
8
0
62
151
10
14.95
20
-84.1
30
0
11
10.390920423836576
21
-80.30349310571765
31
0
12
11.212499999999999
22
-84.1
32
0
13
11.212499999999999
23
-84.1
33
0
0
3DFACE
8
0
62
151
10
9.775226506746536
20
-76.9333759049409
30
0
11
14.95
21
-78.84375
31
0
12
11.44300976871612
22
-73.94084053545784
32
0
13
11.44300976871612
23
-73.94084053545784
33
0
0
3DFACE
8
0
62
151
10
-7.534630067538433
20
-13.031424761159972
30
0
11
-3.9219151711686533
21
-10.934323080671831
31
0
12
-7.500000000000002
22
-8.854303127884187
32
0
13
-7.500000000000002
23
-8.854303127884187
33
0
0
3DFACE
8
0
62
151
10
-2.1469111045189404
20
-14.673110933664397
30
0
11
3.154686282176897
21
-12.54165122498565
31
0
12
0.010517762617236581
22
-9.464395014505328
32
0
13
0.010517762617236581
23
-9.464395014505328
33
0
0
3DFACE
8
0
62
151
10
1.4102391244598473
20
-15.861756760536926
30
0
11
-2.079657763234989
21
-20.388747950756656
31
0
12
1.4230381493040607
22
-22.396556101399906
32
0
13
1.4230381493040607
23
-22.396556101399906
33
0
0
3DFACE
8
0
62
151
10
14.95
20
-10.5125
30
0
11
10.44210760435136
21
-13.140625
31
0
12
14.95
22
-15.768749999999999
32
0
13
14.95
23
-15.768749999999999
33
0
0
3DFACE
8
0
62
151
10
1.857721684715911
20
-56.46258783472991
30
0
11
-0.04051890720919005
21
-59.26613111793088
31
0
12
5.00412765491034
22
-57.71290849613574
32
0
13
5.00412765491034
23
-57.71290849613574
33
0
0
3DFACE
8
0
62
151
10
-5.198258236466543
20
-45.09864416724243
30
0
11
-1.8459281051191567
21
-42.099999999999994
31
0
12
-5.198258236466543
22
-38.75058727589709
32
0
13
-5.198258236466543
23
-38.75058727589709
33
0
0
3DFACE
8
0
62
151
10
-8.116950864537387
20
-51.933223619929834
30
0
11
-11.297447373988783
21
-54.403671534909236
31
0
12
-7.4460309587418445
22
-55.580643303315355
32
0
13
-7.4460309587418445
23
-55.580643303315355
33
0
0
3DFACE
8
0
62
151
10
-11.446157221748635
20
-64.55156084074413
30
0
11
-10.6657911791994
21
-58.724030316305054
31
0
12
-14.95
22
-60.099999999999994
32
0
13
-14.95
23
-60.099999999999994
33
0
0
3DFACE
8
0
62
151
10
7.766006653223418
20
21.607182202547598
30
0
11
4.332698145343891
21
17.991231681978064
31
0
12
7.500000000000005
22
16.694566674944852
32
0
13
7.500000000000005
23
16.694566674944852
33
0
0
3DFACE
8
0
62
151
10
4.332698145343891
20
17.991231681978064
30
0
11
2.8737572389535586
21
21.08713746391547
31
0
12
-1.059556184214629
22
20.693853083578844
32
0
13
-1.059556184214629
23
20.693853083578844
33
0
0
3DFACE
8
0
62
151
10
5.60625
20
-80.4551026428325
30
0
11
9.775226506746536
21
-76.9333759049409
31
0
12
7.2973995917518995
22
-74.56754777808105
32
0
13
7.2973995917518995
23
-74.56754777808105
33
0
0
3DFACE
8
0
62
151
10
14.95
20
-78.84375
30
0
11
9.775226506746536
21
-76.9333759049409
31
0
12
10.390920423836576
22
-80.30349310571765
32
0
13
10.390920423836576
23
-80.30349310571765
33
0
0
3DFACE
8
0
62
151
10
-7.534630067538433
20
-13.031424761159972
30
0
11
-7.500000000000002
21
-8.854303127884187
31
0
12
-11.42221283365722
22
-10.910490725254643
32
0
13
-11.42221283365722
23
-10.910490725254643
33
0
0
3DFACE
8
0
62
151
10
-7.534630067538433
20
-13.031424761159972
30
0
11
-9.835223536496656
21
-16.518087072216932
31
0
12
-5.517032153558665
22
-17.570979817409594
32
0
13
-5.517032153558665
23
-17.570979817409594
33
0
0
3DFACE
8
0
62
151
10
-2.1469111045189404
20
-14.673110933664397
30
0
11
0.010517762617236581
21
-9.464395014505328
31
0
12
-3.9219151711686533
22
-10.934323080671831
32
0
13
-3.9219151711686533
23
-10.934323080671831
33
0
0
3DFACE
8
0
62
151
10
3.154686282176897
20
-12.54165122498565
30
0
11
3.278429142553926
21
-6.828968576277886
31
0
12
0.010517762617236581
22
-9.464395014505328
32
0
13
0.010517762617236581
23
-9.464395014505328
33
0
0
3DFACE
8
0
62
151
10
-7.4460309587418445
20
-55.580643303315355
30
0
11
-3.372790641817193
21
-56.678946848564095
31
0
12
-4.568942309434991
22
-53.012778694792175
32
0
13
-4.568942309434991
23
-53.012778694792175
33
0
0
3DFACE
8
0
62
151
10
-3.372790641817193
20
-56.678946848564095
30
0
11
1.3187557968461108
21
-53.12003072118253
31
0
12
-4.568942309434991
22
-53.012778694792175
32
0
13
-4.568942309434991
23
-53.012778694792175
33
0
0
3DFACE
8
0
62
151
10
-7.4460309587418445
20
-55.580643303315355
30
0
11
-4.568942309434991
21
-53.012778694792175
31
0
12
-8.116950864537387
22
-51.933223619929834
32
0
13
-8.116950864537387
23
-51.933223619929834
33
0
0
3DFACE
8
0
62
151
10
-14.95
20
-60.099999999999994
30
0
11
-10.6657911791994
21
-58.724030316305054
31
0
12
-14.95
22
-56.099999999999994
32
0
13
-14.95
23
-56.099999999999994
33
0
0
3DFACE
8
0
62
151
10
-11.464552744822035
20
-5.158935668948372
30
0
11
-11.42221283365722
21
-10.910490725254643
31
0
12
-7.500000000000002
22
-8.854303127884187
32
0
13
-7.500000000000002
23
-8.854303127884187
33
0
0
3DFACE
8
0
62
151
10
-14.95
20
-7.074999999999996
30
0
11
-14.95
21
-13.587499999999995
31
0
12
-11.42221283365722
22
-10.910490725254643
32
0
13
-11.42221283365722
23
-10.910490725254643
33
0
0
3DFACE
8
0
62
151
10
-0.04051890720919005
20
-59.26613111793088
30
0
11
1.857721684715911
21
-56.46258783472991
31
0
12
-3.372790641817193
22
-56.678946848564095
32
0
13
-3.372790641817193
23
-56.678946848564095
33
0
0
3DFACE
8
0
62
151
10
-3.564972711549197
20
-49.28939142105912
30
0
11
-9.7711519053052
21
-48.61397328537182
31
0
12
-8.116950864537387
22
-51.933223619929834
32
0
13
-8.116950864537387
23
-51.933223619929834
33
0
0
3DFACE
8
0
62
151
10
11.363401872587975
20
-55.190625
30
0
11
10.287529451955772
21
-49.96100860779494
31
0
12
6.961716540341559
22
-53.37069367607546
32
0
13
6.961716540341559
23
-53.37069367607546
33
0
0
3DFACE
8
0
62
151
10
14.95
20
-47.30625
30
0
11
14.95
21
-42.05
31
0
12
12.867631730287409
22
-44.678124999999994
32
0
13
12.867631730287409
23
-44.678124999999994
33
0
0
3DFACE
8
0
62
151
10
-8.549171403152824
20
-45.47160442467812
30
0
11
-3.564972711549197
21
-49.28939142105912
31
0
12
-5.198258236466543
22
-45.09864416724243
32
0
13
-5.198258236466543
23
-45.09864416724243
33
0
0
3DFACE
8
0
62
151
10
-12.06282291544549
20
-42.099999999999994
30
0
11
-14.95
21
-44.099999999999994
31
0
12
-8.549171403152824
22
-45.47160442467812
32
0
13
-8.549171403152824
23
-45.47160442467812
33
0
0
3DFACE
8
0
62
151
10
-3.564972711549197
20
-49.28939142105912
30
0
11
-8.116950864537387
21
-51.933223619929834
31
0
12
-4.568942309434991
22
-53.012778694792175
32
0
13
-4.568942309434991
23
-53.012778694792175
33
0
0
3DFACE
8
0
62
151
10
-9.7711519053052
20
-48.61397328537182
30
0
11
-14.95
21
-52.099999999999994
31
0
12
-11.297447373988783
22
-54.403671534909236
32
0
13
-11.297447373988783
23
-54.403671534909236
33
0
0
3DFACE
8
0
62
151
10
-10.6657911791994
20
-58.724030316305054
30
0
11
-11.297447373988783
21
-54.403671534909236
31
0
12
-14.95
22
-56.099999999999994
32
0
13
-14.95
23
-56.099999999999994
33
0
0
3DFACE
8
0
62
151
10
7.004045303197238
20
79.4586047801711
30
0
11
11.212499999999999
21
81.471875
31
0
12
7.475
22
84.1
32
0
13
7.475
23
84.1
33
0
0
3DFACE
8
0
62
151
10
7.202115530337893
20
74.79758385142473
30
0
11
11.358095807149507
21
77.70728644215316
31
0
12
7.004045303197238
22
79.4586047801711
32
0
13
7.004045303197238
23
79.4586047801711
33
0
0
3DFACE
8
0
62
151
10
3.7374999999999994
20
82.13464683673683
30
0
11
7.004045303197238
21
79.4586047801711
31
0
12
7.475
22
84.1
32
0
13
7.475
23
84.1
33
0
0
3DFACE
8
0
62
151
10
3.8503149092540294
20
76.98986794591939
30
0
11
3.7374999999999994
21
82.13464683673683
31
0
12
0.5641989512765374
22
80.63646672770193
32
0
13
0.5641989512765374
23
80.63646672770193
33
0
0
3DFACE
8
0
62
151
10
14.95
20
78.84375
30
0
11
11.212499999999999
21
81.471875
31
0
12
11.358095807149507
22
77.70728644215316
32
0
13
11.358095807149507
23
77.70728644215316
33
0
0
3DFACE
8
0
62
151
10
7.004045303197238
20
79.4586047801711
30
0
11
11.358095807149507
21
77.70728644215316
31
0
12
11.212499999999999
22
81.471875
32
0
13
11.212499999999999
23
81.471875
33
0
0
3DFACE
8
0
62
151
10
7.475
20
84.1
30
0
11
0
21
84.1
31
0
12
3.7374999999999994
22
82.13464683673683
32
0
13
3.7374999999999994
23
82.13464683673683
33
0
0
3DFACE
8
0
62
151
10
0.5641989512765374
20
80.63646672770193
30
0
11
3.7374999999999994
21
82.13464683673683
31
0
12
0
22
84.1
32
0
13
0
23
84.1
33
0
0
3DFACE
8
0
62
151
10
7.202115530337893
20
74.79758385142473
30
0
11
7.004045303197238
21
79.4586047801711
31
0
12
3.8503149092540294
22
76.98986794591939
32
0
13
3.8503149092540294
23
76.98986794591939
33
0
0
3DFACE
8
0
62
151
10
3.7374999999999994
20
82.13464683673683
30
0
11
3.8503149092540294
21
76.98986794591939
31
0
12
7.004045303197238
22
79.4586047801711
32
0
13
7.004045303197238
23
79.4586047801711
33
0
0
3DFACE
8
0
62
151
10
-3.7375
20
84.1
30
0
11
0.5641989512765374
21
80.63646672770193
31
0
12
0
22
84.1
32
0
13
0
23
84.1
33
0
0
3DFACE
8
0
62
151
10
3.8503149092540294
20
76.98986794591939
30
0
11
0.5641989512765374
21
80.63646672770193
31
0
12
-1.8687499999999995
22
78.10760481264614
32
0
13
-1.8687499999999995
23
78.10760481264614
33
0
0
3DFACE
8
0
62
151
10
12.151444603834738
20
2.0733085604645014
30
0
11
12.930943704233675
21
-2.6281249999999994
31
0
12
14.95
22
0
32
0
13
14.95
23
0
33
0
0
3DFACE
8
0
62
151
10
11.121978174497656
20
-6.828968576277885
30
0
11
12.930943704233675
21
-2.6281249999999994
31
0
12
9.797884469662092
22
-1.5475838514247315
32
0
13
9.797884469662092
23
-1.5475838514247315
33
0
0
3DFACE
8
0
62
151
10
8.851026707373396
20
-36.88623835244126
30
0
11
11.157915586967855
21
-39.421875
31
0
12
12.42573651025888
22
-34.165625
32
0
13
12.42573651025888
23
-34.165625
33
0
0
3DFACE
8
0
62
151
10
6.544137827778933
20
-39.42187499999999
30
0
11
11.157915586967855
21
-39.421875
31
0
12
8.851026707373396
22
-36.88623835244126
32
0
13
8.851026707373396
23
-36.88623835244126
33
0
0
3DFACE
8
0
62
151
10
-14.95
20
84.1
30
0
11
-12.863941327534505
21
80.71903734536049
31
0
12
-11.212499999999999
22
84.1
32
0
13
-11.212499999999999
23
84.1
33
0
0
3DFACE
8
0
62
151
10
-14.95
20
77.58749999999999
30
0
11
-9.34375
21
79.38997002279672
31
0
12
-12.863941327534505
22
80.71903734536049
32
0
13
-12.863941327534505
23
80.71903734536049
33
0
0
3DFACE
8
0
62
151
10
-14.95
20
58.05
30
0
11
-10.075803207572832
21
59.63127918387052
31
0
12
-13.312791017333424
22
61.30625
32
0
13
-13.312791017333424
23
61.30625
33
0
0
3DFACE
8
0
62
151
10
-11.4380328575381
20
64.57117479100687
30
0
11
-13.312791017333424
21
61.30625
31
0
12
-10.075803207572832
22
59.63127918387052
32
0
13
-10.075803207572832
23
59.63127918387052
33
0
0
3DFACE
8
0
62
151
10
-6.4670095678574695
20
48.607790909738284
30
0
11
-3.496341115200302
21
46.53809824317429
31
0
12
-5.162672141993251
22
51.98524596778587
32
0
13
-5.162672141993251
23
51.98524596778587
33
0
0
3DFACE
8
0
62
151
10
-6.838718557618756
20
60.5932287065025
30
0
11
-8.378022772822959
21
56.68733037211306
31
0
12
-5.1282546943895655
22
57.681463384975494
32
0
13
-5.1282546943895655
23
57.681463384975494
33
0
0
3DFACE
8
0
62
151
10
14.95
20
-57.818749999999994
30
0
11
9.998040497252429
21
-59.42223408614232
31
0
12
13.065417655049277
22
-60.44687499999999
32
0
13
13.065417655049277
23
-60.44687499999999
33
0
0
3DFACE
8
0
62
151
10
11.507408619029523
20
-64.40368688671433
30
0
11
13.065417655049277
21
-60.44687499999999
31
0
12
9.998040497252429
22
-59.42223408614232
32
0
13
9.998040497252429
23
-59.42223408614232
33
0
0
3DFACE
8
0
62
151
10
12.867631730287409
20
-44.678124999999994
30
0
11
10.287529451955772
21
-49.96100860779494
31
0
12
14.95
22
-47.30625
32
0
13
14.95
23
-47.30625
33
0
0
3DFACE
8
0
62
151
10
9.998040497252429
20
-59.42223408614232
30
0
11
11.363401872587975
21
-55.190625
31
0
12
6.961716540341559
22
-53.37069367607546
32
0
13
6.961716540341559
23
-53.37069367607546
33
0
0
3DFACE
8
0
62
151
10
5.004516074714867
20
57.70713424937378
30
0
11
6.966615167248403
21
53.372812948758224
31
0
12
9.998040497252422
22
59.42223408614231
32
0
13
9.998040497252422
23
59.42223408614231
33
0
0
3DFACE
8
0
62
151
10
6.966615167248403
20
53.372812948758224
30
0
11
0.8625461672622947
21
53.173023837441804
31
0
12
3.794498687403298
22
49.190001744518
32
0
13
3.794498687403298
23
49.190001744518
33
0
0
3DFACE
8
0
62
151
10
14.95
20
57.818749999999994
30
0
11
14.95
21
63.074999999999996
31
0
12
13.065417655049272
22
60.446875
32
0
13
13.065417655049272
23
60.446875
33
0
0
3DFACE
8
0
62
151
10
11.507408619029519
20
64.40368688671433
30
0
11
13.065417655049272
21
60.446875
31
0
12
14.95
22
63.074999999999996
32
0
13
14.95
23
63.074999999999996
33
0
0
3DFACE
8
0
62
151
10
14.95
20
21.025
30
0
11
14.95
21
26.28125
31
0
12
11.54739375014256
22
23.653125
32
0
13
11.54739375014256
23
23.653125
33
0
0
3DFACE
8
0
62
151
10
11.62139859085354
20
13.281392813399279
30
0
11
11.494072978662617
21
18.396874999999998
31
0
12
7.500000000000005
22
16.694566674944852
32
0
13
7.500000000000005
23
16.694566674944852
33
0
0
3DFACE
8
0
62
151
10
11.54739375014256
20
23.653125
30
0
11
11.494072978662617
21
18.396874999999998
31
0
12
14.95
22
21.025
32
0
13
14.95
23
21.025
33
0
0
3DFACE
8
0
62
151
10
5.980878703196817
20
34.165625
30
0
11
8.357081960094757
21
31.28244439905075
31
0
12
10.850484931151827
22
34.165625
32
0
13
10.850484931151827
23
34.165625
33
0
0
3DFACE
8
0
62
151
10
7.500000000000001
20
-8.831084686835526
30
0
11
6.830791951036262
21
-12.447003877876297
31
0
12
10.44210760435136
22
-13.140625
32
0
13
10.44210760435136
23
-13.140625
33
0
0
3DFACE
8
0
62
151
10
8.360627593431936
20
-15.77171473591479
30
0
11
6.830791951036262
21
-12.447003877876297
31
0
12
5.097144881282143
22
-16.54945043767518
32
0
13
5.097144881282143
23
-16.54945043767518
33
0
0
3DFACE
8
0
62
151
10
9.998040497252429
20
-59.42223408614232
30
0
11
5.00412765491034
21
-57.71290849613574
31
0
12
6.830895808360838
22
-60.52557263185712
32
0
13
6.830895808360838
23
-60.52557263185712
33
0
0
3DFACE
8
0
62
151
10
2.968667444070411
20
-62.58300717887801
30
0
11
6.830895808360838
21
-60.52557263185712
31
0
12
5.00412765491034
22
-57.71290849613574
32
0
13
5.00412765491034
23
-57.71290849613574
33
0
0
3DFACE
8
0
62
151
10
14.95
20
42.05
30
0
11
14.95
21
47.30625
31
0
12
10.763410850763464
22
44.678124999999994
32
0
13
10.763410850763464
23
44.678124999999994
33
0
0
3DFACE
8
0
62
151
10
-6.4670095678574695
20
48.607790909738284
30
0
11
-10.420378383327117
21
45.697171142926464
31
0
12
-5.589422306197894
22
43.7149063119421
32
0
13
-5.589422306197894
23
43.7149063119421
33
0
0
3DFACE
8
0
62
151
10
-5.202115530337904
20
9.547583851424733
30
0
11
-3.56540075066136
21
13.193625980108862
31
0
12
-7.499999999999998
22
12.878379694769684
32
0
13
-7.499999999999998
23
12.878379694769684
33
0
0
3DFACE
8
0
62
151
10
0
20
11.499999999999996
30
0
11
-1.898811510920833
21
16.771744449262368
31
0
12
-3.56540075066136
22
13.193625980108862
32
0
13
-3.56540075066136
23
13.193625980108862
33
0
0
3DFACE
8
0
62
151
10
-1.2507690132701919
20
30.87658495656663
30
0
11
-4.184128014046758
21
27.59599807233538
31
0
12
0.15430682377744187
22
26.857873089435934
32
0
13
0.15430682377744187
23
26.857873089435934
33
0
0
3DFACE
8
0
62
151
10
-10.250751875388143
20
22.231250000000003
30
0
11
-11.134344261381056
21
25.746240003951325
31
0
12
-13.728552592909079
22
22.231250000000003
32
0
13
-13.728552592909079
23
22.231250000000003
33
0
0
3DFACE
8
0
62
151
10
2.9620363830973346
20
62.57592571316563
30
0
11
6.828326838331392
21
60.523986720876444
31
0
12
7.263803300381031
22
63.851343599645965
32
0
13
7.263803300381031
23
63.851343599645965
33
0
0
3DFACE
8
0
62
151
10
5.004516074714867
20
57.70713424937378
30
0
11
9.998040497252422
21
59.42223408614231
31
0
12
6.828326838331392
22
60.523986720876444
32
0
13
6.828326838331392
23
60.523986720876444
33
0
0
3DFACE
8
0
62
151
10
-8.378022772822959
20
56.68733037211306
30
0
11
-6.838718557618756
21
60.5932287065025
31
0
12
-10.075803207572832
22
59.63127918387052
32
0
13
-10.075803207572832
23
59.63127918387052
33
0
0
3DFACE
8
0
62
151
10
-3.03946917132276
20
62.57196366393972
30
0
11
-6.838718557618756
21
60.5932287065025
31
0
12
-5.1282546943895655
22
57.681463384975494
32
0
13
-5.1282546943895655
23
57.681463384975494
33
0
0
3DFACE
8
0
62
151
10
6.961716540341559
20
-53.37069367607546
30
0
11
1.857721684715911
21
-56.46258783472991
31
0
12
5.00412765491034
22
-57.71290849613574
32
0
13
5.00412765491034
23
-57.71290849613574
33
0
0
3DFACE
8
0
62
151
10
10.390920423836576
20
-80.30349310571765
30
0
11
7.475
21
-84.1
31
0
12
11.212499999999999
22
-84.1
32
0
13
11.212499999999999
23
-84.1
33
0
0
3DFACE
8
0
62
151
10
-3.372790641817193
20
-56.678946848564095
30
0
11
1.857721684715911
21
-56.46258783472991
31
0
12
1.3187557968461108
22
-53.12003072118253
32
0
13
1.3187557968461108
23
-53.12003072118253
33
0
0
3DFACE
8
0
62
151
10
5.164989155584533
20
-43.668686790176594
30
0
11
4.590132950940114
21
-48.096666214832986
31
0
12
7.902458405535453
22
-47.61200109395315
32
0
13
7.902458405535453
23
-47.61200109395315
33
0
0
3DFACE
8
0
62
151
10
14.95
20
-52.5625
30
0
11
10.287529451955772
21
-49.96100860779494
31
0
12
11.363401872587975
22
-55.190625
32
0
13
11.363401872587975
23
-55.190625
33
0
0
3DFACE
8
0
62
151
10
7.902458405535453
20
-47.61200109395315
30
0
11
10.287529451955772
21
-49.96100860779494
31
0
12
9.514528894654298
22
-44.678124999999994
32
0
13
9.514528894654298
23
-44.678124999999994
33
0
0
3DFACE
8
0
62
151
10
6.961716540341559
20
-53.37069367607546
30
0
11
5.00412765491034
21
-57.71290849613574
31
0
12
9.998040497252429
22
-59.42223408614232
32
0
13
9.998040497252429
23
-59.42223408614232
33
0
0
3DFACE
8
0
62
151
10
12.42573651025888
20
-34.165625
30
0
11
14.95
21
-36.793749999999996
31
0
12
14.95
22
-31.537499999999998
32
0
13
14.95
23
-31.537499999999998
33
0
0
3DFACE
8
0
62
151
10
9.514528894654298
20
-44.678124999999994
30
0
11
11.157915586967855
21
-39.421875
31
0
12
6.544137827778933
22
-39.42187499999999
32
0
13
6.544137827778933
23
-39.42187499999999
33
0
0
3DFACE
8
0
62
151
10
7.707745687398577
20
-23.5264329763325
30
0
11
11.146577778818065
21
-22.64404015917847
31
0
12
10.086547375186509
22
-18.648586846600548
32
0
13
10.086547375186509
23
-18.648586846600548
33
0
0
3DFACE
8
0
62
151
10
-6.108599323744283
20
-34.099999999999994
30
0
11
-2.8561189507580345
21
-35.877727079054196
31
0
12
-0.776929262823751
22
-31.1514918890336
32
0
13
-0.776929262823751
23
-31.1514918890336
33
0
0
3DFACE
8
0
62
151
10
12.42573651025888
20
-34.165625
30
0
11
11.157915586967855
21
-39.421875
31
0
12
14.95
22
-36.793749999999996
32
0
13
14.95
23
-36.793749999999996
33
0
0
3DFACE
8
0
62
151
10
4.983726590832406
20
-35.1722379505131
30
0
11
8.851026707373396
21
-36.88623835244126
31
0
12
8.851026707373402
22
-33.458237548584954
32
0
13
8.851026707373402
23
-33.458237548584954
33
0
0
3DFACE
8
0
62
151
10
-10.075803207572832
20
59.63127918387052
30
0
11
-11.200016108253745
21
54.793749999999996
31
0
12
-8.378022772822959
22
56.68733037211306
32
0
13
-8.378022772822959
23
56.68733037211306
33
0
0
3DFACE
8
0
62
151
10
-14.95
20
51.537499999999994
30
0
11
-9.956269307986208
21
49.57400271651672
31
0
12
-11.200016108253745
22
54.793749999999996
32
0
13
-11.200016108253745
23
54.793749999999996
33
0
0
3DFACE
8
0
62
151
10
-14.95
20
38.5125
30
0
11
-10.823105038708913
21
38.60263156726051
31
0
12
-12.577458479061784
22
42.012433887030596
32
0
13
-12.577458479061784
23
42.012433887030596
33
0
0
3DFACE
8
0
62
151
10
10.850484931151827
20
34.165625
30
0
11
12.139512046431923
21
39.421875
31
0
12
8.415681817174322
22
36.253431540311446
32
0
13
8.415681817174322
23
36.253431540311446
33
0
0
3DFACE
8
0
62
151
10
-8.513311830409764
20
52.67587849126812
30
0
11
-8.378022772822959
21
56.68733037211306
31
0
12
-11.200016108253745
22
54.793749999999996
32
0
13
-11.200016108253745
23
54.793749999999996
33
0
0
3DFACE
8
0
62
151
10
1.8541676206368747
20
56.42609189521095
30
0
11
5.004516074714867
21
57.70713424937378
31
0
12
-0.0459080003946335
22
59.24663750371161
32
0
13
-0.0459080003946335
23
59.24663750371161
33
0
0
3DFACE
8
0
62
151
10
14.95
20
26.28125
30
0
11
14.95
21
31.537499999999998
31
0
12
11.242842505093481
22
28.909374999999997
32
0
13
11.242842505093481
23
28.909374999999997
33
0
0
3DFACE
8
0
62
151
10
11.494072978662617
20
18.396874999999998
30
0
11
11.54739375014256
21
23.653125
31
0
12
7.766006653223418
22
21.607182202547598
32
0
13
7.766006653223418
23
21.607182202547598
33
0
0
3DFACE
8
0
62
151
10
6.817106486976387
20
27.878395657041274
30
0
11
8.357081960094757
21
31.28244439905075
31
0
12
2.9953903791337786
22
30.56931700644531
32
0
13
2.9953903791337786
23
30.56931700644531
33
0
0
3DFACE
8
0
62
151
10
2.8737572389535586
20
21.08713746391547
30
0
11
3.838057972339368
21
25.067698978170466
31
0
12
0.15430682377744187
22
26.857873089435934
32
0
13
0.15430682377744187
23
26.857873089435934
33
0
0
3DFACE
8
0
62
151
10
11.242842505093481
20
28.909374999999997
30
0
11
11.54739375014256
21
23.653125
31
0
12
14.95
22
26.28125
32
0
13
14.95
23
26.28125
33
0
0
3DFACE
8
0
62
151
10
8.421167465846796
20
24.91371086931168
30
0
11
6.817106486976387
21
27.878395657041274
31
0
12
3.838057972339368
22
25.067698978170466
32
0
13
3.838057972339368
23
25.067698978170466
33
0
0
3DFACE
8
0
62
151
10
14.95
20
-10.5125
30
0
11
11.121978174497656
21
-6.828968576277885
31
0
12
11.678597789039816
22
-10.081370690431529
32
0
13
11.678597789039816
23
-10.081370690431529
33
0
0
3DFACE
8
0
62
151
10
7.500000000000001
20
-8.831084686835526
30
0
11
11.678597789039816
21
-10.081370690431529
31
0
12
11.121978174497656
22
-6.828968576277885
32
0
13
11.121978174497656
23
-6.828968576277885
33
0
0
3DFACE
8
0
62
151
10
7.500000000000001
20
-8.831084686835526
30
0
11
3.154686282176897
21
-12.54165122498565
31
0
12
6.830791951036262
22
-12.447003877876297
32
0
13
6.830791951036262
23
-12.447003877876297
33
0
0
3DFACE
8
0
62
151
10
5.097144881282143
20
-16.54945043767518
30
0
11
3.154686282176897
21
-12.54165122498565
31
0
12
1.4102391244598473
22
-15.861756760536926
32
0
13
1.4102391244598473
23
-15.861756760536926
33
0
0
3DFACE
8
0
62
151
10
-1.8459281051191567
20
-26.099999999999994
30
0
11
-0.776929262823751
21
-31.1514918890336
31
0
12
1.2785507521434925
22
-28.0776534048086
32
0
13
1.2785507521434925
23
-28.0776534048086
33
0
0
3DFACE
8
0
62
151
10
5.211775129367885
20
-21.001692552014486
30
0
11
10.086547375186509
21
-18.648586846600548
31
0
12
5.097144881282143
22
-16.54945043767518
32
0
13
5.097144881282143
23
-16.54945043767518
33
0
0
3DFACE
8
0
62
151
10
1.4102391244598473
20
-15.861756760536926
30
0
11
3.154686282176897
21
-12.54165122498565
31
0
12
-2.1469111045189404
22
-14.673110933664397
32
0
13
-2.1469111045189404
23
-14.673110933664397
33
0
0
3DFACE
8
0
62
151
10
4.36461645440774
20
-25.161929367425778
30
0
11
7.218859181352318
21
-27.04284780125681
31
0
12
7.707745687398577
22
-23.5264329763325
32
0
13
7.707745687398577
23
-23.5264329763325
33
0
0
3DFACE
8
0
62
151
10
1.4102391244598473
20
-15.861756760536926
30
0
11
-2.1469111045189404
21
-14.673110933664397
31
0
12
-2.079657763234989
22
-20.388747950756656
32
0
13
-2.079657763234989
23
-20.388747950756656
33
0
0
3DFACE
8
0
62
151
10
5.211775129367885
20
-21.001692552014486
30
0
11
5.097144881282143
21
-16.54945043767518
31
0
12
1.4102391244598473
22
-15.861756760536926
32
0
13
1.4102391244598473
23
-15.861756760536926
33
0
0
3DFACE
8
0
62
151
10
-5.517032153558665
20
-17.570979817409594
30
0
11
-2.079657763234989
21
-20.388747950756656
31
0
12
-2.1469111045189404
22
-14.673110933664397
32
0
13
-2.1469111045189404
23
-14.673110933664397
33
0
0
3DFACE
8
0
62
151
10
-5.746632586641596
20
-25.40052939656612
30
0
11
-2.079657763234989
21
-20.388747950756656
31
0
12
-7.940091106796518
22
-22.099999999999994
32
0
13
-7.940091106796518
23
-22.099999999999994
33
0
0
3DFACE
8
0
62
151
10
14.95
20
-15.768749999999999
30
0
11
13.221856377695884
21
-18.396874999999998
31
0
12
14.95
22
-21.025
32
0
13
14.95
23
-21.025
33
0
0
3DFACE
8
0
62
151
10
10.44210760435136
20
-13.140625
30
0
11
8.360627593431936
21
-15.77171473591479
31
0
12
10.086547375186509
22
-18.648586846600548
32
0
13
10.086547375186509
23
-18.648586846600548
33
0
0
3DFACE
8
0
62
151
10
10.763410850763464
20
44.678124999999994
30
0
11
8.291844054168129
21
42.653416509894576
31
0
12
12.139512046431923
22
39.421875
32
0
13
12.139512046431923
23
39.421875
33
0
0
3DFACE
8
0
62
151
10
5.980878703196817
20
34.165625
30
0
11
2.9953903791337786
21
30.56931700644531
31
0
12
8.357081960094757
22
31.28244439905075
32
0
13
8.357081960094757
23
31.28244439905075
33
0
0
3DFACE
8
0
62
151
10
-1.898811510920833
20
16.771744449262368
30
0
11
4.332698145343891
21
17.991231681978064
31
0
12
-1.059556184214629
22
20.693853083578844
32
0
13
-1.059556184214629
23
20.693853083578844
33
0
0
3DFACE
8
0
62
151
10
-10.250751875388143
20
22.231250000000003
30
0
11
-4.6400497992579215
21
19.018832916140248
31
0
12
-4.543154597766764
22
22.562052532724692
32
0
13
-4.543154597766764
23
22.562052532724692
33
0
0
3DFACE
8
0
62
151
10
-4.543154597766764
20
22.562052532724692
30
0
11
-4.6400497992579215
21
19.018832916140248
31
0
12
-1.059556184214629
22
20.693853083578844
32
0
13
-1.059556184214629
23
20.693853083578844
33
0
0
3DFACE
8
0
62
151
10
-1.898811510920833
20
16.771744449262368
30
0
11
-1.059556184214629
21
20.693853083578844
31
0
12
-4.6400497992579215
22
19.018832916140248
32
0
13
-4.6400497992579215
23
19.018832916140248
33
0
0
3DFACE
8
0
62
151
10
11.157915586967855
20
-39.421875
30
0
11
12.867631730287409
21
-44.678124999999994
31
0
12
14.95
22
-42.05
32
0
13
14.95
23
-42.05
33
0
0
3DFACE
8
0
62
151
10
10.287529451955772
20
-49.96100860779494
30
0
11
12.867631730287409
21
-44.678124999999994
31
0
12
9.514528894654298
22
-44.678124999999994
32
0
13
9.514528894654298
23
-44.678124999999994
33
0
0
3DFACE
8
0
62
151
10
5.164989155584533
20
-43.668686790176594
30
0
11
9.514528894654298
21
-44.678124999999994
31
0
12
6.544137827778933
22
-39.42187499999999
32
0
13
6.544137827778933
23
-39.42187499999999
33
0
0
3DFACE
8
0
62
151
10
4.590132950940114
20
-48.096666214832986
30
0
11
5.164989155584533
21
-43.668686790176594
31
0
12
1.098431874455501
22
-45.392056368975496
32
0
13
1.098431874455501
23
-45.392056368975496
33
0
0
3DFACE
8
0
62
151
10
6.961716540341559
20
-53.37069367607546
30
0
11
10.287529451955772
21
-49.96100860779494
31
0
12
7.902458405535453
22
-47.61200109395315
32
0
13
7.902458405535453
23
-47.61200109395315
33
0
0
3DFACE
8
0
62
151
10
6.961716540341559
20
-53.37069367607546
30
0
11
4.22074203867801
21
-51.43300239181196
31
0
12
1.857721684715911
22
-56.46258783472991
32
0
13
1.857721684715911
23
-56.46258783472991
33
0
0
3DFACE
8
0
62
151
10
11.27354976482026
20
-30.50705322181742
30
0
11
12.42573651025888
21
-34.165625
31
0
12
14.95
22
-31.537499999999998
32
0
13
14.95
23
-31.537499999999998
33
0
0
3DFACE
8
0
62
151
10
8.851026707373396
20
-36.88623835244126
30
0
11
12.42573651025888
21
-34.165625
31
0
12
8.851026707373402
22
-33.458237548584954
32
0
13
8.851026707373402
23
-33.458237548584954
33
0
0
3DFACE
8
0
62
151
10
14.95
20
47.30625
30
0
11
10.299942714169868
21
49.977948967561744
31
0
12
10.763410850763464
22
44.678124999999994
32
0
13
10.763410850763464
23
44.678124999999994
33
0
0
3DFACE
8
0
62
151
10
3.794498687403298
20
49.190001744518
30
0
11
0.9419463735210147
21
44.50602147142011
31
0
12
5.820277257572794
22
44.678124999999994
32
0
13
5.820277257572794
23
44.678124999999994
33
0
0
3DFACE
8
0
62
151
10
-14.95
20
51.537499999999994
30
0
11
-13.347451451124655
21
48.28124999999999
31
0
12
-9.956269307986208
22
49.57400271651672
32
0
13
-9.956269307986208
23
49.57400271651672
33
0
0
3DFACE
8
0
62
151
10
-6.4670095678574695
20
48.607790909738284
30
0
11
-9.956269307986208
21
49.57400271651672
31
0
12
-10.420378383327117
22
45.697171142926464
32
0
13
-10.420378383327117
23
45.697171142926464
33
0
0
3DFACE
8
0
62
151
10
-3.496341115200302
20
46.53809824317429
30
0
11
-0.3424424070429051
21
49.21538207549415
31
0
12
-5.162672141993251
22
51.98524596778587
32
0
13
-5.162672141993251
23
51.98524596778587
33
0
0
3DFACE
8
0
62
151
10
0.9419463735210147
20
44.50602147142011
30
0
11
3.794498687403298
21
49.190001744518
31
0
12
-0.3424424070429051
22
49.21538207549415
32
0
13
-0.3424424070429051
23
49.21538207549415
33
0
0
3DFACE
8
0
62
151
10
10.850484931151827
20
34.165625
30
0
11
11.242842505093481
21
28.909374999999997
31
0
12
14.95
22
31.537499999999998
32
0
13
14.95
23
31.537499999999998
33
0
0
3DFACE
8
0
62
151
10
8.421167465846796
20
24.91371086931168
30
0
11
11.242842505093481
21
28.909374999999997
31
0
12
6.817106486976387
22
27.878395657041274
32
0
13
6.817106486976387
23
27.878395657041274
33
0
0
3DFACE
8
0
62
151
10
6.817106486976387
20
27.878395657041274
30
0
11
11.242842505093481
21
28.909374999999997
31
0
12
8.357081960094757
22
31.28244439905075
32
0
13
8.357081960094757
23
31.28244439905075
33
0
0
3DFACE
8
0
62
151
10
10.850484931151827
20
34.165625
30
0
11
8.357081960094757
21
31.28244439905075
31
0
12
11.242842505093481
22
28.909374999999997
32
0
13
11.242842505093481
23
28.909374999999997
33
0
0
3DFACE
8
0
62
151
10
10.44210760435136
20
-13.140625
30
0
11
13.221856377695884
21
-18.396874999999998
31
0
12
14.95
22
-15.768749999999999
32
0
13
14.95
23
-15.768749999999999
33
0
0
3DFACE
8
0
62
151
10
11.146577778818065
20
-22.64404015917847
30
0
11
13.221856377695884
21
-18.396874999999998
31
0
12
10.086547375186509
22
-18.648586846600548
32
0
13
10.086547375186509
23
-18.648586846600548
33
0
0
3DFACE
8
0
62
151
10
6.830791951036262
20
-12.447003877876297
30
0
11
8.360627593431936
21
-15.77171473591479
31
0
12
10.44210760435136
22
-13.140625
32
0
13
10.44210760435136
23
-13.140625
33
0
0
3DFACE
8
0
62
151
10
5.097144881282143
20
-16.54945043767518
30
0
11
10.086547375186509
21
-18.648586846600548
31
0
12
8.360627593431936
22
-15.77171473591479
32
0
13
8.360627593431936
23
-15.77171473591479
33
0
0
3DFACE
8
0
62
151
10
5.164989155584533
20
-43.668686790176594
30
0
11
7.902458405535453
21
-47.61200109395315
31
0
12
9.514528894654298
22
-44.678124999999994
32
0
13
9.514528894654298
23
-44.678124999999994
33
0
0
3DFACE
8
0
62
151
10
7.902458405535453
20
-47.61200109395315
30
0
11
4.590132950940114
21
-48.096666214832986
31
0
12
4.22074203867801
22
-51.43300239181196
32
0
13
4.22074203867801
23
-51.43300239181196
33
0
0
3DFACE
8
0
62
151
10
0.8917815456251985
20
-49.26507583778843
30
0
11
4.22074203867801
21
-51.43300239181196
31
0
12
4.590132950940114
22
-48.096666214832986
32
0
13
4.590132950940114
23
-48.096666214832986
33
0
0
3DFACE
8
0
62
151
10
1.857721684715911
20
-56.46258783472991
30
0
11
4.22074203867801
21
-51.43300239181196
31
0
12
1.3187557968461108
22
-53.12003072118253
32
0
13
1.3187557968461108
23
-53.12003072118253
33
0
0
3DFACE
8
0
62
151
10
14.95
20
47.30625
30
0
11
14.95
21
52.5625
31
0
12
10.299942714169868
22
49.977948967561744
32
0
13
10.299942714169868
23
49.977948967561744
33
0
0
3DFACE
8
0
62
151
10
8.291844054168129
20
47.13216423268203
30
0
11
8.291844054168129
21
42.653416509894576
31
0
12
10.763410850763464
22
44.678124999999994
32
0
13
10.763410850763464
23
44.678124999999994
33
0
0
3DFACE
8
0
62
151
10
9.998040497252422
20
59.42223408614231
30
0
11
6.966615167248403
21
53.372812948758224
31
0
12
11.363401872587978
22
55.190625
32
0
13
11.363401872587978
23
55.190625
33
0
0
3DFACE
8
0
62
151
10
8.291844054168129
20
42.653416509894576
30
0
11
8.291844054168129
21
47.13216423268203
31
0
12
5.820277257572794
22
44.678124999999994
32
0
13
5.820277257572794
23
44.678124999999994
33
0
0
3DFACE
8
0
62
151
10
-8.378022772822959
20
56.68733037211306
30
0
11
-8.513311830409764
21
52.67587849126812
31
0
12
-5.162672141993251
22
51.98524596778587
32
0
13
-5.162672141993251
23
51.98524596778587
33
0
0
3DFACE
8
0
62
151
10
-11.200016108253745
20
54.793749999999996
30
0
11
-9.956269307986208
21
49.57400271651672
31
0
12
-8.513311830409764
22
52.67587849126812
32
0
13
-8.513311830409764
23
52.67587849126812
33
0
0
3DFACE
8
0
62
151
10
-14.95
20
51.537499999999994
30
0
11
-14.95
21
45.025
31
0
12
-13.347451451124655
22
48.28124999999999
32
0
13
-13.347451451124655
23
48.28124999999999
33
0
0
3DFACE
8
0
62
151
10
-14.95
20
45.025
30
0
11
-12.577458479061784
21
42.012433887030596
31
0
12
-10.420378383327117
22
45.697171142926464
32
0
13
-10.420378383327117
23
45.697171142926464
33
0
0
3DFACE
8
0
62
151
10
-8.513311830409764
20
52.67587849126812
30
0
11
-6.4670095678574695
21
48.607790909738284
31
0
12
-5.162672141993251
22
51.98524596778587
32
0
13
-5.162672141993251
23
51.98524596778587
33
0
0
3DFACE
8
0
62
151
10
-9.956269307986208
20
49.57400271651672
30
0
11
-13.347451451124655
21
48.28124999999999
31
0
12
-10.420378383327117
22
45.697171142926464
32
0
13
-10.420378383327117
23
45.697171142926464
33
0
0
3DFACE
8
0
62
151
10
-14.95
20
38.5125
30
0
11
-12.814451637604039
21
35.25625
31
0
12
-10.823105038708913
22
38.60263156726051
32
0
13
-10.823105038708913
23
38.60263156726051
33
0
0
3DFACE
8
0
62
151
10
0.13149360269060006
20
41.126997721412245
30
0
11
-3.341505822379356
21
41.013374702935955
31
0
12
-1.4106939092723136
22
35.13084249537536
32
0
13
-1.4106939092723136
23
35.13084249537536
33
0
0
3DFACE
8
0
62
151
10
-14.95
20
45.025
30
0
11
-10.420378383327117
21
45.697171142926464
31
0
12
-13.347451451124655
22
48.28124999999999
32
0
13
-13.347451451124655
23
48.28124999999999
33
0
0
3DFACE
8
0
62
151
10
-10.420378383327117
20
45.697171142926464
30
0
11
-8.746046107867471
21
42.16987306718148
31
0
12
-5.589422306197894
22
43.7149063119421
32
0
13
-5.589422306197894
23
43.7149063119421
33
0
0
3DFACE
8
0
62
151
10
-2.5914050942523685
20
54.817922651564416
30
0
11
-0.0459080003946335
21
59.24663750371161
31
0
12
-5.1282546943895655
22
57.681463384975494
32
0
13
-5.1282546943895655
23
57.681463384975494
33
0
0
3DFACE
8
0
62
151
10
6.966615167248403
20
53.372812948758224
30
0
11
1.8541676206368747
21
56.42609189521095
31
0
12
0.8625461672622947
22
53.173023837441804
32
0
13
0.8625461672622947
23
53.173023837441804
33
0
0
3DFACE
8
0
62
151
10
3.5290677319047576
20
40.39821432879235
30
0
11
5.820277257572794
21
44.678124999999994
31
0
12
0.9419463735210147
22
44.50602147142011
32
0
13
0.9419463735210147
23
44.50602147142011
33
0
0
3DFACE
8
0
62
151
10
10.850484931151827
20
34.165625
30
0
11
8.415681817174322
21
36.253431540311446
31
0
12
5.980878703196817
22
34.165625
32
0
13
5.980878703196817
23
34.165625
33
0
0
3DFACE
8
0
62
151
10
1.8541676206368747
20
56.42609189521095
30
0
11
6.966615167248403
21
53.372812948758224
31
0
12
5.004516074714867
22
57.70713424937378
32
0
13
5.004516074714867
23
57.70713424937378
33
0
0
3DFACE
8
0
62
151
10
6.932423780196398
20
50.10451884315372
30
0
11
3.794498687403298
21
49.190001744518
31
0
12
8.291844054168129
22
47.13216423268203
32
0
13
8.291844054168129
23
47.13216423268203
33
0
0
3DFACE
8
0
62
151
10
10.763410850763464
20
44.678124999999994
30
0
11
10.299942714169868
21
49.977948967561744
31
0
12
8.291844054168129
22
47.13216423268203
32
0
13
8.291844054168129
23
47.13216423268203
33
0
0
3DFACE
8
0
62
151
10
6.932423780196398
20
50.10451884315372
30
0
11
10.299942714169868
21
49.977948967561744
31
0
12
6.966615167248403
22
53.372812948758224
32
0
13
6.966615167248403
23
53.372812948758224
33
0
0
3DFACE
8
0
62
151
10
-0.3424424070429051
20
49.21538207549415
30
0
11
3.794498687403298
21
49.190001744518
31
0
12
0.8625461672622947
22
53.173023837441804
32
0
13
0.8625461672622947
23
53.173023837441804
33
0
0
3DFACE
8
0
62
151
10
5.820277257572794
20
44.678124999999994
30
0
11
8.291844054168129
21
47.13216423268203
31
0
12
3.794498687403298
22
49.190001744518
32
0
13
3.794498687403298
23
49.190001744518
33
0
0
3DFACE
8
0
62
151
10
3.5290677319047576
20
40.39821432879235
30
0
11
8.291844054168129
21
42.653416509894576
31
0
12
5.820277257572794
22
44.678124999999994
32
0
13
5.820277257572794
23
44.678124999999994
33
0
0
3DFACE
8
0
62
151
10
8.291844054168129
20
42.653416509894576
30
0
11
8.291844054168129
21
39.45840682290809
31
0
12
12.139512046431923
22
39.421875
32
0
13
12.139512046431923
23
39.421875
33
0
0
3DFACE
8
0
62
151
10
12.139512046431923
20
39.421875
30
0
11
10.850484931151827
21
34.165625
31
0
12
14.95
22
36.793749999999996
32
0
13
14.95
23
36.793749999999996
33
0
0
3DFACE
8
0
62
151
10
3.5290677319047576
20
40.39821432879235
30
0
11
8.415681817174322
21
36.253431540311446
31
0
12
8.291844054168129
22
39.45840682290809
32
0
13
8.291844054168129
23
39.45840682290809
33
0
0
3DFACE
8
0
62
151
10
12.139512046431923
20
39.421875
30
0
11
14.95
21
42.05
31
0
12
10.763410850763464
22
44.678124999999994
32
0
13
10.763410850763464
23
44.678124999999994
33
0
0
3DFACE
8
0
62
151
10
8.415681817174322
20
36.253431540311446
30
0
11
12.139512046431923
21
39.421875
31
0
12
8.291844054168129
22
39.45840682290809
32
0
13
8.291844054168129
23
39.45840682290809
33
0
0
3DFACE
8
0
62
151
10
10.299942714169868
20
49.977948967561744
30
0
11
6.932423780196398
21
50.10451884315372
31
0
12
8.291844054168129
22
47.13216423268203
32
0
13
8.291844054168129
23
47.13216423268203
33
0
0
3DFACE
8
0
62
151
10
6.966615167248403
20
53.372812948758224
30
0
11
3.794498687403298
21
49.190001744518
31
0
12
6.932423780196398
22
50.10451884315372
32
0
13
6.932423780196398
23
50.10451884315372
33
0
0
3DFACE
8
0
62
151
10
-0.3424424070429051
20
49.21538207549415
30
0
11
0.8625461672622947
21
53.173023837441804
31
0
12
-2.5914050942523685
22
54.817922651564416
32
0
13
-2.5914050942523685
23
54.817922651564416
33
0
0
3DFACE
8
0
62
151
10
-0.3424424070429051
20
49.21538207549415
30
0
11
-3.496341115200302
21
46.53809824317429
31
0
12
0.9419463735210147
22
44.50602147142011
32
0
13
0.9419463735210147
23
44.50602147142011
33
0
0
3DFACE
8
0
62
151
10
-3.341505822379356
20
41.013374702935955
30
0
11
-3.496341115200302
21
46.53809824317429
31
0
12
-5.589422306197894
22
43.7149063119421
32
0
13
-5.589422306197894
23
43.7149063119421
33
0
0
3DFACE
8
0
62
151
10
3.5290677319047576
20
40.39821432879235
30
0
11
8.291844054168129
21
39.45840682290809
31
0
12
8.291844054168129
22
42.653416509894576
32
0
13
8.291844054168129
23
42.653416509894576
33
0
0
3DFACE
8
0
62
151
10
-6.695622455113462
20
38.5454193040401
30
0
11
-10.823105038708913
21
38.60263156726051
31
0
12
-7.566986881250992
22
34.473364997699775
32
0
13
-7.566986881250992
23
34.473364997699775
33
0
0
3DFACE
8
0
62
151
10
2.2318531784114155
20
34.240531285149345
30
0
11
0.13149360269060006
21
41.126997721412245
31
0
12
-1.4106939092723136
22
35.13084249537536
32
0
13
-1.4106939092723136
23
35.13084249537536
33
0
0
3DFACE
8
0
62
151
10
0.13149360269060006
20
41.126997721412245
30
0
11
3.5290677319047576
21
40.39821432879235
31
0
12
0.9419463735210147
22
44.50602147142011
32
0
13
0.9419463735210147
23
44.50602147142011
33
0
0
3DFACE
8
0
62
151
10
8.415681817174322
20
36.253431540311446
30
0
11
3.5290677319047576
21
40.39821432879235
31
0
12
5.980878703196817
22
34.165625
32
0
13
5.980878703196817
23
34.165625
33
0
0
3DFACE
8
0
62
151
10
-6.4670095678574695
20
48.607790909738284
30
0
11
-5.589422306197894
21
43.7149063119421
31
0
12
-3.496341115200302
22
46.53809824317429
32
0
13
-3.496341115200302
23
46.53809824317429
33
0
0
3DFACE
8
0
62
151
10
-6.695622455113462
20
38.5454193040401
30
0
11
-5.589422306197894
21
43.7149063119421
31
0
12
-8.746046107867471
22
42.16987306718148
32
0
13
-8.746046107867471
23
42.16987306718148
33
0
0
3DFACE
8
0
62
151
10
-8.533000366389338
20
28.269908003600186
30
0
11
-10.862260295488467
21
31.647539225626254
31
0
12
-13.17170138669086
22
28.743750000000002
32
0
13
-13.17170138669086
23
28.743750000000002
33
0
0
3DFACE
8
0
62
151
10
3.838057972339368
20
25.067698978170466
30
0
11
2.9953903791337786
21
30.56931700644531
31
0
12
0.15430682377744187
22
26.857873089435934
32
0
13
0.15430682377744187
23
26.857873089435934
33
0
0
3DFACE
8
0
62
151
10
0.9419463735210147
20
44.50602147142011
30
0
11
-3.341505822379356
21
41.013374702935955
31
0
12
0.13149360269060006
22
41.126997721412245
32
0
13
0.13149360269060006
23
41.126997721412245
33
0
0
3DFACE
8
0
62
151
10
-6.695622455113462
20
38.5454193040401
30
0
11
-1.4106939092723136
21
35.13084249537536
31
0
12
-3.341505822379356
22
41.013374702935955
32
0
13
-3.341505822379356
23
41.013374702935955
33
0
0
3DFACE
8
0
62
151
10
2.9953903791337786
20
30.56931700644531
30
0
11
-1.2507690132701919
21
30.87658495656663
31
0
12
0.15430682377744187
22
26.857873089435934
32
0
13
0.15430682377744187
23
26.857873089435934
33
0
0
3DFACE
8
0
62
151
10
2.2318531784114155
20
34.240531285149345
30
0
11
3.5290677319047576
21
40.39821432879235
31
0
12
0.13149360269060006
22
41.126997721412245
32
0
13
0.13149360269060006
23
41.126997721412245
33
0
0
3DFACE
8
0
62
151
10
-10.823105038708913
20
38.60263156726051
30
0
11
-6.695622455113462
21
38.5454193040401
31
0
12
-8.746046107867471
22
42.16987306718148
32
0
13
-8.746046107867471
23
42.16987306718148
33
0
0
3DFACE
8
0
62
151
10
-6.695622455113462
20
38.5454193040401
30
0
11
-7.566986881250992
21
34.473364997699775
31
0
12
-4.284916415013043
22
32.89266080611639
32
0
13
-4.284916415013043
23
32.89266080611639
33
0
0
3DFACE
8
0
62
151
10
-12.577458479061784
20
42.012433887030596
30
0
11
-10.823105038708913
21
38.60263156726051
31
0
12
-8.746046107867471
22
42.16987306718148
32
0
13
-8.746046107867471
23
42.16987306718148
33
0
0
3DFACE
8
0
62
151
10
-14.95
20
38.5125
30
0
11
-14.95
21
32.
31
0
12
-12.814451637604039
22
35.25625
32
0
13
-12.814451637604039
23
35.25625
33
0
0
3DFACE
8
0
62
151
10
-10.420378383327117
20
45.697171142926464
30
0
11
-12.577458479061784
21
42.012433887030596
31
0
12
-8.746046107867471
22
42.16987306718148
32
0
13
-8.746046107867471
23
42.16987306718148
33
0
0
3DFACE
8
0
62
151
10
-14.95
20
38.5125
30
0
11
-12.577458479061784
21
42.012433887030596
31
0
12
-14.95
22
45.025
32
0
13
-14.95
23
45.025
33
0
0
3DFACE
8
0
62
151
10
-10.862260295488467
20
31.647539225626254
30
0
11
-12.814451637604039
21
35.25625
31
0
12
-14.95
22
32.
32
0
13
-14.95
23
32.
33
0
0
3DFACE
8
0
62
151
10
-7.566986881250992
20
34.473364997699775
30
0
11
-10.823105038708913
21
38.60263156726051
31
0
12
-12.814451637604039
22
35.25625
32
0
13
-12.814451637604039
23
35.25625
33
0
0
3DFACE
8
0
62
151
10
-14.95
20
12.462500000000002
30
0
11
-14.95
21
5.950000000000003
31
0
12
-13.39164605014939
22
9.206250000000002
32
0
13
-13.39164605014939
23
9.206250000000002
33
0
0
3DFACE
8
0
62
151
10
-11.821216240847916
20
5.789906372906094
30
0
11
-13.39164605014939
21
9.206250000000002
31
0
12
-14.95
22
5.950000000000003
32
0
13
-14.95
23
5.950000000000003
33
0
0
3DFACE
8
0
62
151
10
-7.475
20
84.1
30
0
11
-5.337844784947185
21
80.31334092138691
31
0
12
-3.7375
22
84.1
32
0
13
-3.7375
23
84.1
33
0
0
3DFACE
8
0
62
151
10
-5.337844784947185
20
80.31334092138691
30
0
11
-9.34375
21
79.38997002279672
31
0
12
-7.202115530337893
22
74.79758385142473
32
0
13
-7.202115530337893
23
74.79758385142473
33
0
0
3DFACE
8
0
62
151
10
1.098431874455501
20
-45.392056368975496
30
0
11
2.223021049589435
21
-40.365940442889695
31
0
12
-1.8459281051191567
22
-42.099999999999994
32
0
13
-1.8459281051191567
23
-42.099999999999994
33
0
0
3DFACE
8
0
62
151
10
-10.30670564162971
20
-38.28015776098016
30
0
11
-5.198258236466543
21
-38.75058727589709
31
0
12
-6.108599323744283
22
-34.099999999999994
32
0
13
-6.108599323744283
23
-34.099999999999994
33
0
0
3DFACE
8
0
62
151
10
4.983726590832406
20
-35.1722379505131
30
0
11
6.544137827778933
21
-39.42187499999999
31
0
12
8.851026707373396
22
-36.88623835244126
32
0
13
8.851026707373396
23
-36.88623835244126
33
0
0
3DFACE
8
0
62
151
10
4.735092876508408
20
-29.391349587920686
30
0
11
4.983726590832406
21
-35.1722379505131
31
0
12
8.851026707373402
22
-33.458237548584954
32
0
13
8.851026707373402
23
-33.458237548584954
33
0
0
3DFACE
8
0
62
151
10
1.2785507521434925
20
-28.0776534048086
30
0
11
2.6513754562353284
21
-32.37676044722885
31
0
12
4.735092876508408
22
-29.391349587920686
32
0
13
4.735092876508408
23
-29.391349587920686
33
0
0
3DFACE
8
0
62
151
10
4.983726590832406
20
-35.1722379505131
30
0
11
0.8463399740256699
21
-36.05305549817911
31
0
12
2.223021049589435
22
-40.365940442889695
32
0
13
2.223021049589435
23
-40.365940442889695
33
0
0
3DFACE
8
0
62
151
10
-1.8459281051191567
20
-42.099999999999994
30
0
11
-2.8561189507580345
21
-35.877727079054196
31
0
12
-5.198258236466543
22
-38.75058727589709
32
0
13
-5.198258236466543
23
-38.75058727589709
33
0
0
3DFACE
8
0
62
151
10
-0.776929262823751
20
-31.1514918890336
30
0
11
-2.8561189507580345
21
-35.877727079054196
31
0
12
0.8463399740256699
22
-36.05305549817911
32
0
13
0.8463399740256699
23
-36.05305549817911
33
0
0
3DFACE
8
0
62
151
10
2.6513754562353284
20
-32.37676044722885
30
0
11
0.8463399740256699
21
-36.05305549817911
31
0
12
4.983726590832406
22
-35.1722379505131
32
0
13
4.983726590832406
23
-35.1722379505131
33
0
0
3DFACE
8
0
62
151
10
-5.746632586641596
20
-25.40052939656612
30
0
11
-4.701300889763015
21
-29.99442663270471
31
0
12
-1.8459281051191567
22
-26.099999999999994
32
0
13
-1.8459281051191567
23
-26.099999999999994
33
0
0
3DFACE
8
0
62
151
10
-6.108599323744283
20
-34.099999999999994
30
0
11
-4.701300889763015
21
-29.99442663270471
31
0
12
-8.432053743663575
22
-31.6740027151857
32
0
13
-8.432053743663575
23
-31.6740027151857
33
0
0
3DFACE
8
0
62
151
10
-1.8459281051191567
20
-26.099999999999994
30
0
11
-4.701300889763015
21
-29.99442663270471
31
0
12
-0.776929262823751
22
-31.1514918890336
32
0
13
-0.776929262823751
23
-31.1514918890336
33
0
0
3DFACE
8
0
62
151
10
8.851026707373402
20
-33.458237548584954
30
0
11
12.42573651025888
21
-34.165625
31
0
12
11.27354976482026
22
-30.50705322181742
32
0
13
11.27354976482026
23
-30.50705322181742
33
0
0
3DFACE
8
0
62
151
10
1.4230381493040607
20
-22.396556101399906
30
0
11
1.2785507521434925
21
-28.0776534048086
31
0
12
4.36461645440774
22
-25.161929367425778
32
0
13
4.36461645440774
23
-25.161929367425778
33
0
0
3DFACE
8
0
62
151
10
2.6513754562353284
20
-32.37676044722885
30
0
11
1.2785507521434925
21
-28.0776534048086
31
0
12
-0.776929262823751
22
-31.1514918890336
32
0
13
-0.776929262823751
23
-31.1514918890336
33
0
0
3DFACE
8
0
62
151
10
4.36461645440774
20
-25.161929367425778
30
0
11
1.2785507521434925
21
-28.0776534048086
31
0
12
4.735092876508408
22
-29.391349587920686
32
0
13
4.735092876508408
23
-29.391349587920686
33
0
0
3DFACE
8
0
62
151
10
7.218859181352318
20
-27.04284780125681
30
0
11
8.851026707373402
21
-33.458237548584954
31
0
12
11.27354976482026
22
-30.50705322181742
32
0
13
11.27354976482026
23
-30.50705322181742
33
0
0
3DFACE
8
0
62
151
10
4.36461645440774
20
-25.161929367425778
30
0
11
5.211775129367885
21
-21.001692552014486
31
0
12
1.4230381493040607
22
-22.396556101399906
32
0
13
1.4230381493040607
23
-22.396556101399906
33
0
0
3DFACE
8
0
62
151
10
14.95
20
-26.28125
30
0
11
14.95
21
-21.025
31
0
12
11.146577778818065
22
-22.64404015917847
32
0
13
11.146577778818065
23
-22.64404015917847
33
0
0
3DFACE
8
0
62
151
10
11.146577778818065
20
-22.64404015917847
30
0
11
14.95
21
-21.025
31
0
12
13.221856377695884
22
-18.396874999999998
32
0
13
13.221856377695884
23
-18.396874999999998
33
0
0
3DFACE
8
0
62
151
10
1.4102391244598473
20
-15.861756760536926
30
0
11
1.4230381493040607
21
-22.396556101399906
31
0
12
5.211775129367885
22
-21.001692552014486
32
0
13
5.211775129367885
23
-21.001692552014486
33
0
0
3DFACE
8
0
62
151
10
-1.8459281051191567
20
-26.099999999999994
30
0
11
1.4230381493040607
21
-22.396556101399906
31
0
12
-2.079657763234989
22
-20.388747950756656
32
0
13
-2.079657763234989
23
-20.388747950756656
33
0
0
3DFACE
8
0
62
151
10
8.851026707373402
20
-33.458237548584954
30
0
11
7.218859181352318
21
-27.04284780125681
31
0
12
4.735092876508408
22
-29.391349587920686
32
0
13
4.735092876508408
23
-29.391349587920686
33
0
0
3DFACE
8
0
62
151
10
11.07140809344862
20
-26.529864920357447
30
0
11
11.27354976482026
21
-30.50705322181742
31
0
12
14.95
22
-26.28125
32
0
13
14.95
23
-26.28125
33
0
0
3DFACE
8
0
62
151
10
7.707745687398577
20
-23.5264329763325
30
0
11
10.086547375186509
21
-18.648586846600548
31
0
12
5.211775129367885
22
-21.001692552014486
32
0
13
5.211775129367885
23
-21.001692552014486
33
0
0
3DFACE
8
0
62
151
10
14.95
20
-26.28125
30
0
11
11.146577778818065
21
-22.64404015917847
31
0
12
11.07140809344862
22
-26.529864920357447
32
0
13
11.07140809344862
23
-26.529864920357447
33
0
0
3DFACE
8
0
62
151
10
-14.95
20
-13.587499999999995
30
0
11
-14.95
21
-20.099999999999994
31
0
12
-13.418766849987502
22
-16.843749999999993
32
0
13
-13.418766849987502
23
-16.843749999999993
33
0
0
3DFACE
8
0
62
151
10
-11.730355966196793
20
-22.099999999999994
30
0
11
-13.418766849987502
21
-16.843749999999993
31
0
12
-14.95
22
-20.099999999999994
32
0
13
-14.95
23
-20.099999999999994
33
0
0
3DFACE
8
0
62
151
10
-2.079657763234989
20
-20.388747950756656
30
0
11
-5.746632586641596
21
-25.40052939656612
31
0
12
-1.8459281051191567
22
-26.099999999999994
32
0
13
-1.8459281051191567
23
-26.099999999999994
33
0
0
3DFACE
8
0
62
151
10
-11.547633265167034
20
-25.985677953206576
30
0
11
-5.746632586641596
21
-25.40052939656612
31
0
12
-7.940091106796518
22
-22.099999999999994
32
0
13
-7.940091106796518
23
-22.099999999999994
33
0
0
3DFACE
8
0
62
151
10
-3.9524161485752813
20
-66.9521155303379
30
0
11
-0.03568426159026883
21
-65.23967251680091
31
0
12
-3.0369699837151023
22
-62.57954396667465
32
0
13
-3.0369699837151023
23
-62.57954396667465
33
0
0
3DFACE
8
0
62
151
10
3.9524161485752813
20
-66.9521155303379
30
0
11
-0.03568426159026883
21
-65.23967251680091
31
0
12
0
22
-69.25
32
0
13
0
23
-69.25
33
0
0
3DFACE
8
0
62
151
10
3.9524161485752813
20
66.9521155303379
30
0
11
-0.040474944730980233
21
65.23770546018503
31
0
12
2.9620363830973346
22
62.57592571316563
32
0
13
2.9620363830973346
23
62.57592571316563
33
0
0
3DFACE
8
0
62
151
10
-3.9524161485752813
20
66.9521155303379
30
0
11
-0.040474944730980233
21
65.23770546018503
31
0
12
0
22
69.25
32
0
13
0
23
69.25
33
0
0
3DFACE
8
0
62
151
10
-8.549171403152824
20
-45.47160442467812
30
0
11
-5.198258236466543
21
-45.09864416724243
31
0
12
-8.55058836781393
22
-42.099999999999994
32
0
13
-8.55058836781393
23
-42.099999999999994
33
0
0
3DFACE
8
0
62
151
10
-2.099267481692612
20
-46.30450437019574
30
0
11
-5.198258236466543
21
-45.09864416724243
31
0
12
-3.564972711549197
22
-49.28939142105912
32
0
13
-3.564972711549197
23
-49.28939142105912
33
0
0
3DFACE
8
0
62
151
10
-12.06282291544549
20
-42.099999999999994
30
0
11
-8.549171403152824
21
-45.47160442467812
31
0
12
-8.55058836781393
22
-42.099999999999994
32
0
13
-8.55058836781393
23
-42.099999999999994
33
0
0
3DFACE
8
0
62
151
10
-3.564972711549197
20
-49.28939142105912
30
0
11
-8.549171403152824
21
-45.47160442467812
31
0
12
-9.7711519053052
22
-48.61397328537182
32
0
13
-9.7711519053052
23
-48.61397328537182
33
0
0
3DFACE
8
0
62
151
10
-10.820874716413442
20
18.569556063468372
30
0
11
-11.349552290247505
21
14.90164895428251
31
0
12
-7.499999999999995
22
16.92491821379533
32
0
13
-7.499999999999995
23
16.92491821379533
33
0
0
3DFACE
8
0
62
151
10
-9.7711519053052
20
-48.61397328537182
30
0
11
-14.95
21
-44.099999999999994
31
0
12
-14.95
22
-48.099999999999994
32
0
13
-14.95
23
-48.099999999999994
33
0
0
3DFACE
8
0
62
151
10
-4.543154597766764
20
22.562052532724692
30
0
11
0.15430682377744187
21
26.857873089435934
31
0
12
-4.184128014046758
22
27.59599807233538
32
0
13
-4.184128014046758
23
27.59599807233538
33
0
0
3DFACE
8
0
62
151
10
-13.728552592909079
20
22.231250000000003
30
0
11
-10.820874716413442
21
18.569556063468372
31
0
12
-10.250751875388143
22
22.231250000000003
32
0
13
-10.250751875388143
23
22.231250000000003
33
0
0
3DFACE
8
0
62
151
10
-14.95
20
18.975
30
0
11
-11.349552290247505
21
14.90164895428251
31
0
12
-10.820874716413442
22
18.569556063468372
32
0
13
-10.820874716413442
23
18.569556063468372
33
0
0
3DFACE
8
0
62
151
10
5.980878703196817
20
34.165625
30
0
11
2.2318531784114155
21
34.240531285149345
31
0
12
2.9953903791337786
22
30.56931700644531
32
0
13
2.9953903791337786
23
30.56931700644531
33
0
0
3DFACE
8
0
62
151
10
2.9953903791337786
20
30.56931700644531
30
0
11
2.2318531784114155
21
34.240531285149345
31
0
12
-1.2507690132701919
22
30.87658495656663
32
0
13
-1.2507690132701919
23
30.87658495656663
33
0
0
3DFACE
8
0
62
151
10
3.5290677319047576
20
40.39821432879235
30
0
11
2.2318531784114155
21
34.240531285149345
31
0
12
5.980878703196817
22
34.165625
32
0
13
5.980878703196817
23
34.165625
33
0
0
3DFACE
8
0
62
151
10
-1.2507690132701919
20
30.87658495656663
30
0
11
2.2318531784114155
21
34.240531285149345
31
0
12
-1.4106939092723136
22
35.13084249537536
32
0
13
-1.4106939092723136
23
35.13084249537536
33
0
0
3DFACE
8
0
62
151
10
-1.4106939092723136
20
35.13084249537536
30
0
11
-4.284916415013043
21
32.89266080611639
31
0
12
-1.2507690132701919
22
30.87658495656663
32
0
13
-1.2507690132701919
23
30.87658495656663
33
0
0
3DFACE
8
0
62
151
10
-8.533000366389338
20
28.269908003600186
30
0
11
-4.184128014046758
21
27.59599807233538
31
0
12
-4.284916415013043
22
32.89266080611639
32
0
13
-4.284916415013043
23
32.89266080611639
33
0
0
3DFACE
8
0
62
151
10
-6.695622455113462
20
38.5454193040401
30
0
11
-4.284916415013043
21
32.89266080611639
31
0
12
-1.4106939092723136
22
35.13084249537536
32
0
13
-1.4106939092723136
23
35.13084249537536
33
0
0
3DFACE
8
0
62
151
10
-4.284916415013043
20
32.89266080611639
30
0
11
-7.566986881250992
21
34.473364997699775
31
0
12
-8.533000366389338
22
28.269908003600186
32
0
13
-8.533000366389338
23
28.269908003600186
33
0
0
3DFACE
8
0
62
151
10
-12.814451637604039
20
35.25625
30
0
11
-10.862260295488467
21
31.647539225626254
31
0
12
-7.566986881250992
22
34.473364997699775
32
0
13
-7.566986881250992
23
34.473364997699775
33
0
0
3DFACE
8
0
62
151
10
-4.543154597766764
20
22.562052532724692
30
0
11
-7.531693595784375
21
24.721433066129254
31
0
12
-10.250751875388143
22
22.231250000000003
32
0
13
-10.250751875388143
23
22.231250000000003
33
0
0
3DFACE
8
0
62
151
10
-13.17170138669086
20
28.743750000000002
30
0
11
-10.862260295488467
21
31.647539225626254
31
0
12
-14.95
22
32.
32
0
13
-14.95
23
32.
33
0
0
3DFACE
8
0
62
151
10
-7.566986881250992
20
34.473364997699775
30
0
11
-10.862260295488467
21
31.647539225626254
31
0
12
-8.533000366389338
22
28.269908003600186
32
0
13
-8.533000366389338
23
28.269908003600186
33
0
0
3DFACE
8
0
62
151
10
-4.284916415013043
20
32.89266080611639
30
0
11
-4.184128014046758
21
27.59599807233538
31
0
12
-1.2507690132701919
22
30.87658495656663
32
0
13
-1.2507690132701919
23
30.87658495656663
33
0
0
3DFACE
8
0
62
151
10
-4.184128014046758
20
27.59599807233538
30
0
11
-8.533000366389338
21
28.269908003600186
31
0
12
-7.531693595784375
22
24.721433066129254
32
0
13
-7.531693595784375
23
24.721433066129254
33
0
0
3DFACE
8
0
62
151
10
-14.95
20
32.
30
0
11
-14.95
21
25.4875
31
0
12
-13.17170138669086
22
28.743750000000002
32
0
13
-13.17170138669086
23
28.743750000000002
33
0
0
3DFACE
8
0
62
151
10
-13.728552592909079
20
22.231250000000003
30
0
11
-11.134344261381056
21
25.746240003951325
31
0
12
-14.95
22
25.4875
32
0
13
-14.95
23
25.4875
33
0
0
3DFACE
8
0
62
151
10
-8.533000366389338
20
28.269908003600186
30
0
11
-13.17170138669086
21
28.743750000000002
31
0
12
-11.134344261381056
22
25.746240003951325
32
0
13
-11.134344261381056
23
25.746240003951325
33
0
0
3DFACE
8
0
62
151
10
-14.95
20
25.4875
30
0
11
-11.134344261381056
21
25.746240003951325
31
0
12
-13.17170138669086
22
28.743750000000002
32
0
13
-13.17170138669086
23
28.743750000000002
33
0
0
3DFACE
8
0
62
151
10
3.838057972339368
20
25.067698978170466
30
0
11
2.8737572389535586
21
21.08713746391547
31
0
12
7.766006653223418
22
21.607182202547598
32
0
13
7.766006653223418
23
21.607182202547598
33
0
0
3DFACE
8
0
62
151
10
2.9953903791337786
20
30.56931700644531
30
0
11
3.838057972339368
21
25.067698978170466
31
0
12
6.817106486976387
22
27.878395657041274
32
0
13
6.817106486976387
23
27.878395657041274
33
0
0
3DFACE
8
0
62
151
10
-7.534630067538433
20
-13.031424761159972
30
0
11
-5.517032153558665
21
-17.570979817409594
31
0
12
-2.1469111045189404
22
-14.673110933664397
32
0
13
-2.1469111045189404
23
-14.673110933664397
33
0
0
3DFACE
8
0
62
151
10
-7.940091106796518
20
-22.099999999999994
30
0
11
-5.517032153558665
21
-17.570979817409594
31
0
12
-9.835223536496656
22
-16.518087072216932
32
0
13
-9.835223536496656
23
-16.518087072216932
33
0
0
3DFACE
8
0
62
151
10
2.223021049589435
20
-40.365940442889695
30
0
11
5.164989155584533
21
-43.668686790176594
31
0
12
6.544137827778933
22
-39.42187499999999
32
0
13
6.544137827778933
23
-39.42187499999999
33
0
0
3DFACE
8
0
62
151
10
5.164989155584533
20
-43.668686790176594
30
0
11
2.223021049589435
21
-40.365940442889695
31
0
12
1.098431874455501
22
-45.392056368975496
32
0
13
1.098431874455501
23
-45.392056368975496
33
0
0
3DFACE
8
0
62
151
10
4.983726590832406
20
-35.1722379505131
30
0
11
2.223021049589435
21
-40.365940442889695
31
0
12
6.544137827778933
22
-39.42187499999999
32
0
13
6.544137827778933
23
-39.42187499999999
33
0
0
3DFACE
8
0
62
151
10
0.8463399740256699
20
-36.05305549817911
30
0
11
-1.8459281051191567
21
-42.099999999999994
31
0
12
2.223021049589435
22
-40.365940442889695
32
0
13
2.223021049589435
23
-40.365940442889695
33
0
0
3DFACE
8
0
62
151
10
-2.099267481692612
20
-46.30450437019574
30
0
11
-1.8459281051191567
21
-42.099999999999994
31
0
12
-5.198258236466543
22
-45.09864416724243
32
0
13
-5.198258236466543
23
-45.09864416724243
33
0
0
3DFACE
8
0
62
151
10
1.3187557968461108
20
-53.12003072118253
30
0
11
4.22074203867801
21
-51.43300239181196
31
0
12
0.8917815456251985
22
-49.26507583778843
32
0
13
0.8917815456251985
23
-49.26507583778843
33
0
0
3DFACE
8
0
62
151
10
0.8917815456251985
20
-49.26507583778843
30
0
11
-3.564972711549197
21
-49.28939142105912
31
0
12
1.3187557968461108
22
-53.12003072118253
32
0
13
1.3187557968461108
23
-53.12003072118253
33
0
0
3DFACE
8
0
62
151
10
-1.8459281051191567
20
-42.099999999999994
30
0
11
-2.099267481692612
21
-46.30450437019574
31
0
12
1.098431874455501
22
-45.392056368975496
32
0
13
1.098431874455501
23
-45.392056368975496
33
0
0
3DFACE
8
0
62
151
10
1.098431874455501
20
-45.392056368975496
30
0
11
-2.099267481692612
21
-46.30450437019574
31
0
12
0.8917815456251985
22
-49.26507583778843
32
0
13
0.8917815456251985
23
-49.26507583778843
33
0
0
3DFACE
8
0
62
151
10
-3.564972711549197
20
-49.28939142105912
30
0
11
0.8917815456251985
21
-49.26507583778843
31
0
12
-2.099267481692612
22
-46.30450437019574
32
0
13
-2.099267481692612
23
-46.30450437019574
33
0
0
3DFACE
8
0
62
151
10
-0.3424424070429051
20
49.21538207549415
30
0
11
-2.5914050942523685
21
54.817922651564416
31
0
12
-5.162672141993251
22
51.98524596778587
32
0
13
-5.162672141993251
23
51.98524596778587
33
0
0
3DFACE
8
0
62
151
10
1.8541676206368747
20
56.42609189521095
30
0
11
-2.5914050942523685
21
54.817922651564416
31
0
12
0.8625461672622947
22
53.173023837441804
32
0
13
0.8625461672622947
23
53.173023837441804
33
0
0
3DFACE
8
0
62
151
10
0.8463399740256699
20
-36.05305549817911
30
0
11
2.6513754562353284
21
-32.37676044722885
31
0
12
-0.776929262823751
22
-31.1514918890336
32
0
13
-0.776929262823751
23
-31.1514918890336
33
0
0
3DFACE
8
0
62
151
10
4.983726590832406
20
-35.1722379505131
30
0
11
4.735092876508408
21
-29.391349587920686
31
0
12
2.6513754562353284
22
-32.37676044722885
32
0
13
2.6513754562353284
23
-32.37676044722885
33
0
0
3DFACE
8
0
62
151
10
7.707745687398577
20
-23.5264329763325
30
0
11
11.07140809344862
21
-26.529864920357447
31
0
12
11.146577778818065
22
-22.64404015917847
32
0
13
11.146577778818065
23
-22.64404015917847
33
0
0
3DFACE
8
0
62
151
10
14.95
20
-26.28125
30
0
11
11.27354976482026
21
-30.50705322181742
31
0
12
14.95
22
-31.537499999999998
32
0
13
14.95
23
-31.537499999999998
33
0
0
3DFACE
8
0
62
151
10
11.27354976482026
20
-30.50705322181742
30
0
11
11.07140809344862
21
-26.529864920357447
31
0
12
7.218859181352318
22
-27.04284780125681
32
0
13
7.218859181352318
23
-27.04284780125681
33
0
0
3DFACE
8
0
62
151
10
4.36461645440774
20
-25.161929367425778
30
0
11
7.707745687398577
21
-23.5264329763325
31
0
12
5.211775129367885
22
-21.001692552014486
32
0
13
5.211775129367885
23
-21.001692552014486
33
0
0
3DFACE
8
0
62
151
10
11.07140809344862
20
-26.529864920357447
30
0
11
7.707745687398577
21
-23.5264329763325
31
0
12
7.218859181352318
22
-27.04284780125681
32
0
13
7.218859181352318
23
-27.04284780125681
33
0
0
3DFACE
8
0
62
151
10
-14.95
20
25.4875
30
0
11
-14.95
21
18.975
31
0
12
-13.728552592909079
22
22.231250000000003
32
0
13
-13.728552592909079
23
22.231250000000003
33
0
0
3DFACE
8
0
62
151
10
-10.820874716413442
20
18.569556063468372
30
0
11
-13.728552592909079
21
22.231250000000003
31
0
12
-14.95
22
18.975
32
0
13
-14.95
23
18.975
33
0
0
3DFACE
8
0
62
151
10
-4.184128014046758
20
27.59599807233538
30
0
11
-7.531693595784375
21
24.721433066129254
31
0
12
-4.543154597766764
22
22.562052532724692
32
0
13
-4.543154597766764
23
22.562052532724692
33
0
0
3DFACE
8
0
62
151
10
-11.134344261381056
20
25.746240003951325
30
0
11
-7.531693595784375
21
24.721433066129254
31
0
12
-8.533000366389338
22
28.269908003600186
32
0
13
-8.533000366389338
23
28.269908003600186
33
0
0
ENDSEC
0
EOF
