  0
SECTION
  2
BLOCKS
  0
ENDSEC
  0
SECTION
  2
ENTITIES
  0
LINE
  8
0
 10
14.95
 20
84.1
 11
-14.95
 21
84.1
  0
LINE
  8
0
 10
-14.95
 20
84.1
 11
-14.95
 21
-84.1
  0
LINE
  8
0
 10
-14.95
 20
-84.1
 11
14.95
 21
-84.1
  0
LINE
  8
0
 10
14.95
 20
-84.1
 11
14.95
 21
84.1
  0
LINE
  8
0
 10
-10.7374
 20
68.0126
 11
-11.25
 21
69.25
  0
LINE
  8
0
 10
-11.25
 20
69.25
 11
-10.7374
 21
70.4874
  0
LINE
  8
0
 10
-10.7374
 20
70.4874
 11
-9.5
 21
71
  0
LINE
  8
0
 10
-9.5
 20
71
 11
-8.26256
 21
70.4874
  0
LINE
  8
0
 10
-8.26256
 20
70.4874
 11
-7.75
 21
69.25
  0
LINE
  8
0
 10
-7.75
 20
69.25
 11
-8.26256
 21
68.0126
  0
LINE
  8
0
 10
-8.26256
 20
68.0126
 11
-9.5
 21
67.5
  0
LINE
  8
0
 10
-9.5
 20
67.5
 11
-10.7374
 21
68.0126
  0
LINE
  8
0
 10
8.26256
 20
68.0126
 11
7.75
 21
69.25
  0
LINE
  8
0
 10
7.75
 20
69.25
 11
8.26256
 21
70.4874
  0
LINE
  8
0
 10
8.26256
 20
70.4874
 11
9.5
 21
71
  0
LINE
  8
0
 10
9.5
 20
71
 11
10.7374
 21
70.4874
  0
LINE
  8
0
 10
10.7374
 20
70.4874
 11
11.25
 21
69.25
  0
LINE
  8
0
 10
11.25
 20
69.25
 11
10.7374
 21
68.0126
  0
LINE
  8
0
 10
10.7374
 20
68.0126
 11
9.5
 21
67.5
  0
LINE
  8
0
 10
9.5
 20
67.5
 11
8.26256
 21
68.0126
  0
LINE
  8
0
 10
6.26256
 20
2.76256
 11
5.75
 21
4
  0
LINE
  8
0
 10
5.75
 20
4
 11
6.26256
 21
5.23743
  0
LINE
  8
0
 10
6.26256
 20
5.23743
 11
7.5
 21
5.75
  0
LINE
  8
0
 10
7.5
 20
5.75
 11
8.73743
 21
5.23743
  0
LINE
  8
0
 10
8.73743
 20
5.23743
 11
9.25
 21
4
  0
LINE
  8
0
 10
9.25
 20
4
 11
8.73743
 21
2.76256
  0
LINE
  8
0
 10
8.73743
 20
2.76256
 11
7.5
 21
2.25
  0
LINE
  8
0
 10
7.5
 20
2.25
 11
6.26256
 21
2.76256
  0
LINE
  8
0
 10
-8.73743
 20
2.76256
 11
-9.25
 21
4
  0
LINE
  8
0
 10
-9.25
 20
4
 11
-8.73743
 21
5.23743
  0
LINE
  8
0
 10
-8.73743
 20
5.23743
 11
-7.5
 21
5.75
  0
LINE
  8
0
 10
-7.5
 20
5.75
 11
-6.26256
 21
5.23743
  0
LINE
  8
0
 10
-6.26256
 20
5.23743
 11
-5.75
 21
4
  0
LINE
  8
0
 10
-5.75
 20
4
 11
-6.26256
 21
2.76256
  0
LINE
  8
0
 10
-6.26256
 20
2.76256
 11
-7.5
 21
2.25
  0
LINE
  8
0
 10
-7.5
 20
2.25
 11
-8.73743
 21
2.76256
  0
LINE
  8
0
 10
-10.7374
 20
-70.4874
 11
-11.25
 21
-69.25
  0
LINE
  8
0
 10
-11.25
 20
-69.25
 11
-10.7374
 21
-68.0126
  0
LINE
  8
0
 10
-10.7374
 20
-68.0126
 11
-9.5
 21
-67.5
  0
LINE
  8
0
 10
-9.5
 20
-67.5
 11
-8.26256
 21
-68.0126
  0
LINE
  8
0
 10
-8.26256
 20
-68.0126
 11
-7.75
 21
-69.25
  0
LINE
  8
0
 10
-7.75
 20
-69.25
 11
-8.26256
 21
-70.4874
  0
LINE
  8
0
 10
-8.26256
 20
-70.4874
 11
-9.5
 21
-71
  0
LINE
  8
0
 10
-9.5
 20
-71
 11
-10.7374
 21
-70.4874
  0
LINE
  8
0
 10
8.26256
 20
-70.4874
 11
7.75
 21
-69.25
  0
LINE
  8
0
 10
7.75
 20
-69.25
 11
8.26256
 21
-68.0126
  0
LINE
  8
0
 10
8.26256
 20
-68.0126
 11
9.5
 21
-67.5
  0
LINE
  8
0
 10
9.5
 20
-67.5
 11
10.7374
 21
-68.0126
  0
LINE
  8
0
 10
10.7374
 20
-68.0126
 11
11.25
 21
-69.25
  0
LINE
  8
0
 10
11.25
 20
-69.25
 11
10.7374
 21
-70.4874
  0
LINE
  8
0
 10
10.7374
 20
-70.4874
 11
9.5
 21
-71
  0
LINE
  8
0
 10
9.5
 20
-71
 11
8.26256
 21
-70.4874
  0
ENDSEC
  0
SECTION
  2
OBJECTS
  0
DICTIONARY
  0
ENDSEC
  0
EOF
