  0
SECTION
  2
BLOCKS
  0
ENDSEC
  0
SECTION
  2
ENTITIES
  0
LINE
  8
0
 10
14.5
 20
44.8
 11
-14.5
 21
44.8
  0
LINE
  8
0
 10
-14.5
 20
44.8
 11
-14.5
 21
-44.8
  0
LINE
  8
0
 10
-14.5
 20
-44.8
 11
14.5
 21
-44.8
  0
LINE
  8
0
 10
14.5
 20
-44.8
 11
14.5
 21
44.8
  0
LINE
  8
0
 10
-6.7
 20
37.5
 11
-6.59999
 21
42
  0
LINE
  8
0
 10
-6.59999
 20
42
 11
6.59999
 21
42
  0
LINE
  8
0
 10
6.59999
 20
42
 11
6.7
 21
37.5
  0
LINE
  8
0
 10
6.7
 20
37.5
 11
-6.7
 21
37.5
  0
LINE
  8
0
 10
8.30885
 20
27.0594
 11
8.11957
 21
27.0875
  0
LINE
  8
0
 10
8.11957
 20
27.0875
 11
7.93394
 21
27.134
  0
LINE
  8
0
 10
7.93394
 20
27.134
 11
7.75375
 21
27.1984
  0
LINE
  8
0
 10
7.75375
 20
27.1984
 11
7.58076
 21
27.2802
  0
LINE
  8
0
 10
7.58076
 20
27.2802
 11
7.41663
 21
27.3786
  0
LINE
  8
0
 10
7.41663
 20
27.3786
 11
7.26292
 21
27.4926
  0
LINE
  8
0
 10
7.26292
 20
27.4926
 11
7.12114
 21
27.6211
  0
LINE
  8
0
 10
7.12114
 20
27.6211
 11
6.99261
 21
27.7629
  0
LINE
  8
0
 10
6.99261
 20
27.7629
 11
6.87863
 21
27.9166
  0
LINE
  8
0
 10
6.87863
 20
27.9166
 11
6.78024
 21
28.0808
  0
LINE
  8
0
 10
6.78024
 20
28.0808
 11
6.69843
 21
28.2538
  0
LINE
  8
0
 10
6.69843
 20
28.2538
 11
6.63396
 21
28.4339
  0
LINE
  8
0
 10
6.63396
 20
28.4339
 11
6.58746
 21
28.6196
  0
LINE
  8
0
 10
6.58746
 20
28.6196
 11
6.55939
 21
28.8089
  0
LINE
  8
0
 10
6.55939
 20
28.8089
 11
6.54999
 21
29
  0
LINE
  8
0
 10
6.54999
 20
29
 11
6.55939
 21
29.1911
  0
LINE
  8
0
 10
6.55939
 20
29.1911
 11
6.58746
 21
29.3804
  0
LINE
  8
0
 10
6.58746
 20
29.3804
 11
6.63396
 21
29.566
  0
LINE
  8
0
 10
6.63396
 20
29.566
 11
6.69843
 21
29.7462
  0
LINE
  8
0
 10
6.69843
 20
29.7462
 11
6.78024
 21
29.9192
  0
LINE
  8
0
 10
6.78024
 20
29.9192
 11
6.87863
 21
30.0834
  0
LINE
  8
0
 10
6.87863
 20
30.0834
 11
6.99261
 21
30.2371
  0
LINE
  8
0
 10
6.99261
 20
30.2371
 11
7.12114
 21
30.3788
  0
LINE
  8
0
 10
7.12114
 20
30.3788
 11
7.26292
 21
30.5074
  0
LINE
  8
0
 10
7.26292
 20
30.5074
 11
7.41663
 21
30.6214
  0
LINE
  8
0
 10
7.41663
 20
30.6214
 11
7.58076
 21
30.7197
  0
LINE
  8
0
 10
7.58076
 20
30.7197
 11
7.75375
 21
30.8016
  0
LINE
  8
0
 10
7.75375
 20
30.8016
 11
7.93394
 21
30.866
  0
LINE
  8
0
 10
7.93394
 20
30.866
 11
8.11957
 21
30.9125
  0
LINE
  8
0
 10
8.11957
 20
30.9125
 11
8.30885
 21
30.9406
  0
LINE
  8
0
 10
8.30885
 20
30.9406
 11
8.5
 21
30.95
  0
LINE
  8
0
 10
8.5
 20
30.95
 11
8.69113
 21
30.9406
  0
LINE
  8
0
 10
8.69113
 20
30.9406
 11
8.88042
 21
30.9125
  0
LINE
  8
0
 10
8.88042
 20
30.9125
 11
9.06604
 21
30.866
  0
LINE
  8
0
 10
9.06604
 20
30.866
 11
9.24623
 21
30.8016
  0
LINE
  8
0
 10
9.24623
 20
30.8016
 11
9.41922
 21
30.7197
  0
LINE
  8
0
 10
9.41922
 20
30.7197
 11
9.58336
 21
30.6214
  0
LINE
  8
0
 10
9.58336
 20
30.6214
 11
9.73706
 21
30.5074
  0
LINE
  8
0
 10
9.73706
 20
30.5074
 11
9.87885
 21
30.3788
  0
LINE
  8
0
 10
9.87885
 20
30.3788
 11
10.0074
 21
30.2371
  0
LINE
  8
0
 10
10.0074
 20
30.2371
 11
10.1214
 21
30.0834
  0
LINE
  8
0
 10
10.1214
 20
30.0834
 11
10.2197
 21
29.9192
  0
LINE
  8
0
 10
10.2197
 20
29.9192
 11
10.3016
 21
29.7462
  0
LINE
  8
0
 10
10.3016
 20
29.7462
 11
10.366
 21
29.566
  0
LINE
  8
0
 10
10.366
 20
29.566
 11
10.4125
 21
29.3804
  0
LINE
  8
0
 10
10.4125
 20
29.3804
 11
10.4406
 21
29.1911
  0
LINE
  8
0
 10
10.4406
 20
29.1911
 11
10.45
 21
29
  0
LINE
  8
0
 10
10.45
 20
29
 11
10.4406
 21
28.8089
  0
LINE
  8
0
 10
10.4406
 20
28.8089
 11
10.4125
 21
28.6196
  0
LINE
  8
0
 10
10.4125
 20
28.6196
 11
10.366
 21
28.4339
  0
LINE
  8
0
 10
10.366
 20
28.4339
 11
10.3016
 21
28.2538
  0
LINE
  8
0
 10
10.3016
 20
28.2538
 11
10.2197
 21
28.0808
  0
LINE
  8
0
 10
10.2197
 20
28.0808
 11
10.1214
 21
27.9166
  0
LINE
  8
0
 10
10.1214
 20
27.9166
 11
10.0074
 21
27.7629
  0
LINE
  8
0
 10
10.0074
 20
27.7629
 11
9.87885
 21
27.6211
  0
LINE
  8
0
 10
9.87885
 20
27.6211
 11
9.73706
 21
27.4926
  0
LINE
  8
0
 10
9.73706
 20
27.4926
 11
9.58336
 21
27.3786
  0
LINE
  8
0
 10
9.58336
 20
27.3786
 11
9.41922
 21
27.2802
  0
LINE
  8
0
 10
9.41922
 20
27.2802
 11
9.24623
 21
27.1984
  0
LINE
  8
0
 10
9.24623
 20
27.1984
 11
9.06604
 21
27.134
  0
LINE
  8
0
 10
9.06604
 20
27.134
 11
8.88042
 21
27.0875
  0
LINE
  8
0
 10
8.88042
 20
27.0875
 11
8.69113
 21
27.0594
  0
LINE
  8
0
 10
8.69113
 20
27.0594
 11
8.5
 21
27.05
  0
LINE
  8
0
 10
8.5
 20
27.05
 11
8.30885
 21
27.0594
  0
LINE
  8
0
 10
-8.61761
 20
27.8058
 11
-8.7341
 21
27.823
  0
LINE
  8
0
 10
-8.7341
 20
27.823
 11
-8.84833
 21
27.8517
  0
LINE
  8
0
 10
-8.84833
 20
27.8517
 11
-8.95921
 21
27.8913
  0
LINE
  8
0
 10
-8.95921
 20
27.8913
 11
-9.06567
 21
27.9417
  0
LINE
  8
0
 10
-9.06567
 20
27.9417
 11
-9.16667
 21
28.0022
  0
LINE
  8
0
 10
-9.16667
 20
28.0022
 11
-9.26126
 21
28.0724
  0
LINE
  8
0
 10
-9.26126
 20
28.0724
 11
-9.34853
 21
28.1515
  0
LINE
  8
0
 10
-9.34853
 20
28.1515
 11
-9.42761
 21
28.2387
  0
LINE
  8
0
 10
-9.42761
 20
28.2387
 11
-9.49776
 21
28.3333
  0
LINE
  8
0
 10
-9.49776
 20
28.3333
 11
-9.5583
 21
28.4343
  0
LINE
  8
0
 10
-9.5583
 20
28.4343
 11
-9.60864
 21
28.5408
  0
LINE
  8
0
 10
-9.60864
 20
28.5408
 11
-9.64832
 21
28.6517
  0
LINE
  8
0
 10
-9.64832
 20
28.6517
 11
-9.67694
 21
28.7659
  0
LINE
  8
0
 10
-9.67694
 20
28.7659
 11
-9.69421
 21
28.8824
  0
LINE
  8
0
 10
-9.69421
 20
28.8824
 11
-9.7
 21
29
  0
LINE
  8
0
 10
-9.7
 20
29
 11
-9.69421
 21
29.1176
  0
LINE
  8
0
 10
-9.69421
 20
29.1176
 11
-9.67694
 21
29.2341
  0
LINE
  8
0
 10
-9.67694
 20
29.2341
 11
-9.64832
 21
29.3483
  0
LINE
  8
0
 10
-9.64832
 20
29.3483
 11
-9.60864
 21
29.4592
  0
LINE
  8
0
 10
-9.60864
 20
29.4592
 11
-9.5583
 21
29.5657
  0
LINE
  8
0
 10
-9.5583
 20
29.5657
 11
-9.49776
 21
29.6667
  0
LINE
  8
0
 10
-9.49776
 20
29.6667
 11
-9.42761
 21
29.7613
  0
LINE
  8
0
 10
-9.42761
 20
29.7613
 11
-9.34853
 21
29.8485
  0
LINE
  8
0
 10
-9.34853
 20
29.8485
 11
-9.26126
 21
29.9276
  0
LINE
  8
0
 10
-9.26126
 20
29.9276
 11
-9.16667
 21
29.9978
  0
LINE
  8
0
 10
-9.16667
 20
29.9978
 11
-9.06567
 21
30.0583
  0
LINE
  8
0
 10
-9.06567
 20
30.0583
 11
-8.95921
 21
30.1086
  0
LINE
  8
0
 10
-8.95921
 20
30.1086
 11
-8.84833
 21
30.1483
  0
LINE
  8
0
 10
-8.84833
 20
30.1483
 11
-8.7341
 21
30.1769
  0
LINE
  8
0
 10
-8.7341
 20
30.1769
 11
-8.61761
 21
30.1942
  0
LINE
  8
0
 10
-8.61761
 20
30.1942
 11
-8.5
 21
30.2
  0
LINE
  8
0
 10
-8.5
 20
30.2
 11
-8.38237
 21
30.1942
  0
LINE
  8
0
 10
-8.38237
 20
30.1942
 11
-8.26588
 21
30.1769
  0
LINE
  8
0
 10
-8.26588
 20
30.1769
 11
-8.15166
 21
30.1483
  0
LINE
  8
0
 10
-8.15166
 20
30.1483
 11
-8.04077
 21
30.1086
  0
LINE
  8
0
 10
-8.04077
 20
30.1086
 11
-7.93431
 21
30.0583
  0
LINE
  8
0
 10
-7.93431
 20
30.0583
 11
-7.83331
 21
29.9978
  0
LINE
  8
0
 10
-7.83331
 20
29.9978
 11
-7.73872
 21
29.9276
  0
LINE
  8
0
 10
-7.73872
 20
29.9276
 11
-7.65146
 21
29.8485
  0
LINE
  8
0
 10
-7.65146
 20
29.8485
 11
-7.57237
 21
29.7613
  0
LINE
  8
0
 10
-7.57237
 20
29.7613
 11
-7.50223
 21
29.6667
  0
LINE
  8
0
 10
-7.50223
 20
29.6667
 11
-7.44168
 21
29.5657
  0
LINE
  8
0
 10
-7.44168
 20
29.5657
 11
-7.39134
 21
29.4592
  0
LINE
  8
0
 10
-7.39134
 20
29.4592
 11
-7.35167
 21
29.3483
  0
LINE
  8
0
 10
-7.35167
 20
29.3483
 11
-7.32304
 21
29.2341
  0
LINE
  8
0
 10
-7.32304
 20
29.2341
 11
-7.30577
 21
29.1176
  0
LINE
  8
0
 10
-7.30577
 20
29.1176
 11
-7.29999
 21
29
  0
LINE
  8
0
 10
-7.29999
 20
29
 11
-7.30577
 21
28.8824
  0
LINE
  8
0
 10
-7.30577
 20
28.8824
 11
-7.32304
 21
28.7659
  0
LINE
  8
0
 10
-7.32304
 20
28.7659
 11
-7.35167
 21
28.6517
  0
LINE
  8
0
 10
-7.35167
 20
28.6517
 11
-7.39134
 21
28.5408
  0
LINE
  8
0
 10
-7.39134
 20
28.5408
 11
-7.44168
 21
28.4343
  0
LINE
  8
0
 10
-7.44168
 20
28.4343
 11
-7.50223
 21
28.3333
  0
LINE
  8
0
 10
-7.50223
 20
28.3333
 11
-7.57237
 21
28.2387
  0
LINE
  8
0
 10
-7.57237
 20
28.2387
 11
-7.65146
 21
28.1515
  0
LINE
  8
0
 10
-7.65146
 20
28.1515
 11
-7.73872
 21
28.0724
  0
LINE
  8
0
 10
-7.73872
 20
28.0724
 11
-7.83331
 21
28.0022
  0
LINE
  8
0
 10
-7.83331
 20
28.0022
 11
-7.93431
 21
27.9417
  0
LINE
  8
0
 10
-7.93431
 20
27.9417
 11
-8.04077
 21
27.8913
  0
LINE
  8
0
 10
-8.04077
 20
27.8913
 11
-8.15166
 21
27.8517
  0
LINE
  8
0
 10
-8.15166
 20
27.8517
 11
-8.26588
 21
27.823
  0
LINE
  8
0
 10
-8.26588
 20
27.823
 11
-8.38237
 21
27.8058
  0
LINE
  8
0
 10
-8.38237
 20
27.8058
 11
-8.5
 21
27.8
  0
LINE
  8
0
 10
-8.5
 20
27.8
 11
-8.61761
 21
27.8058
  0
LINE
  8
0
 10
-3.09999
 20
21.85
 11
-3
 21
26.7
  0
LINE
  8
0
 10
-3
 20
26.7
 11
3
 21
26.7
  0
LINE
  8
0
 10
3
 20
26.7
 11
3.09999
 21
21.85
  0
LINE
  8
0
 10
3.09999
 20
21.85
 11
-3.09999
 21
21.85
  0
LINE
  8
0
 10
-0.147018
 20
16.5072
 11
-0.292633
 21
16.5288
  0
LINE
  8
0
 10
-0.292633
 20
16.5288
 11
-0.435425
 21
16.5646
  0
LINE
  8
0
 10
-0.435425
 20
16.5646
 11
-0.57402
 21
16.6142
  0
LINE
  8
0
 10
-0.57402
 20
16.6142
 11
-0.707092
 21
16.6771
  0
LINE
  8
0
 10
-0.707092
 20
16.6771
 11
-0.833344
 21
16.7528
  0
LINE
  8
0
 10
-0.833344
 20
16.7528
 11
-0.951584
 21
16.8405
  0
LINE
  8
0
 10
-0.951584
 20
16.8405
 11
-1.06065
 21
16.9393
  0
LINE
  8
0
 10
-1.06065
 20
16.9393
 11
-1.15952
 21
17.0484
  0
LINE
  8
0
 10
-1.15952
 20
17.0484
 11
-1.24719
 21
17.1666
  0
LINE
  8
0
 10
-1.24719
 20
17.1666
 11
-1.32288
 21
17.2929
  0
LINE
  8
0
 10
-1.32288
 20
17.2929
 11
-1.38582
 21
17.426
  0
LINE
  8
0
 10
-1.38582
 20
17.426
 11
-1.43541
 21
17.5646
  0
LINE
  8
0
 10
-1.43541
 20
17.5646
 11
-1.47118
 21
17.7074
  0
LINE
  8
0
 10
-1.47118
 20
17.7074
 11
-1.49277
 21
17.853
  0
LINE
  8
0
 10
-1.49277
 20
17.853
 11
-1.5
 21
18
  0
LINE
  8
0
 10
-1.5
 20
18
 11
-1.49277
 21
18.147
  0
LINE
  8
0
 10
-1.49277
 20
18.147
 11
-1.47118
 21
18.2926
  0
LINE
  8
0
 10
-1.47118
 20
18.2926
 11
-1.43541
 21
18.4354
  0
LINE
  8
0
 10
-1.43541
 20
18.4354
 11
-1.38582
 21
18.574
  0
LINE
  8
0
 10
-1.38582
 20
18.574
 11
-1.32288
 21
18.7071
  0
LINE
  8
0
 10
-1.32288
 20
18.7071
 11
-1.24719
 21
18.8333
  0
LINE
  8
0
 10
-1.24719
 20
18.8333
 11
-1.15952
 21
18.9516
  0
LINE
  8
0
 10
-1.15952
 20
18.9516
 11
-1.06065
 21
19.0607
  0
LINE
  8
0
 10
-1.06065
 20
19.0607
 11
-0.951584
 21
19.1595
  0
LINE
  8
0
 10
-0.951584
 20
19.1595
 11
-0.833344
 21
19.2472
  0
LINE
  8
0
 10
-0.833344
 20
19.2472
 11
-0.707092
 21
19.3229
  0
LINE
  8
0
 10
-0.707092
 20
19.3229
 11
-0.57402
 21
19.3858
  0
LINE
  8
0
 10
-0.57402
 20
19.3858
 11
-0.435425
 21
19.4354
  0
LINE
  8
0
 10
-0.435425
 20
19.4354
 11
-0.292633
 21
19.4712
  0
LINE
  8
0
 10
-0.292633
 20
19.4712
 11
-0.147018
 21
19.4928
  0
LINE
  8
0
 10
-0.147018
 20
19.4928
 11
0
 21
19.5
  0
LINE
  8
0
 10
0
 20
19.5
 11
0.147018
 21
19.4928
  0
LINE
  8
0
 10
0.147018
 20
19.4928
 11
0.292633
 21
19.4712
  0
LINE
  8
0
 10
0.292633
 20
19.4712
 11
0.435425
 21
19.4354
  0
LINE
  8
0
 10
0.435425
 20
19.4354
 11
0.57402
 21
19.3858
  0
LINE
  8
0
 10
0.57402
 20
19.3858
 11
0.707092
 21
19.3229
  0
LINE
  8
0
 10
0.707092
 20
19.3229
 11
0.833344
 21
19.2472
  0
LINE
  8
0
 10
0.833344
 20
19.2472
 11
0.951584
 21
19.1595
  0
LINE
  8
0
 10
0.951584
 20
19.1595
 11
1.06065
 21
19.0607
  0
LINE
  8
0
 10
1.06065
 20
19.0607
 11
1.15952
 21
18.9516
  0
LINE
  8
0
 10
1.15952
 20
18.9516
 11
1.24719
 21
18.8333
  0
LINE
  8
0
 10
1.24719
 20
18.8333
 11
1.32288
 21
18.7071
  0
LINE
  8
0
 10
1.32288
 20
18.7071
 11
1.38582
 21
18.574
  0
LINE
  8
0
 10
1.38582
 20
18.574
 11
1.43541
 21
18.4354
  0
LINE
  8
0
 10
1.43541
 20
18.4354
 11
1.47118
 21
18.2926
  0
LINE
  8
0
 10
1.47118
 20
18.2926
 11
1.49277
 21
18.147
  0
LINE
  8
0
 10
1.49277
 20
18.147
 11
1.5
 21
18
  0
LINE
  8
0
 10
1.5
 20
18
 11
1.49277
 21
17.853
  0
LINE
  8
0
 10
1.49277
 20
17.853
 11
1.47118
 21
17.7074
  0
LINE
  8
0
 10
1.47118
 20
17.7074
 11
1.43541
 21
17.5646
  0
LINE
  8
0
 10
1.43541
 20
17.5646
 11
1.38582
 21
17.426
  0
LINE
  8
0
 10
1.38582
 20
17.426
 11
1.32288
 21
17.2929
  0
LINE
  8
0
 10
1.32288
 20
17.2929
 11
1.24719
 21
17.1666
  0
LINE
  8
0
 10
1.24719
 20
17.1666
 11
1.15952
 21
17.0484
  0
LINE
  8
0
 10
1.15952
 20
17.0484
 11
1.06065
 21
16.9393
  0
LINE
  8
0
 10
1.06065
 20
16.9393
 11
0.951584
 21
16.8405
  0
LINE
  8
0
 10
0.951584
 20
16.8405
 11
0.833344
 21
16.7528
  0
LINE
  8
0
 10
0.833344
 20
16.7528
 11
0.707092
 21
16.6771
  0
LINE
  8
0
 10
0.707092
 20
16.6771
 11
0.57402
 21
16.6142
  0
LINE
  8
0
 10
0.57402
 20
16.6142
 11
0.435425
 21
16.5646
  0
LINE
  8
0
 10
0.435425
 20
16.5646
 11
0.292633
 21
16.5288
  0
LINE
  8
0
 10
0.292633
 20
16.5288
 11
0.147018
 21
16.5072
  0
LINE
  8
0
 10
0.147018
 20
16.5072
 11
0
 21
16.5
  0
LINE
  8
0
 10
0
 20
16.5
 11
-0.147018
 21
16.5072
  0
LINE
  8
0
 10
-8.69113
 20
13.0594
 11
-8.88042
 21
13.0875
  0
LINE
  8
0
 10
-8.88042
 20
13.0875
 11
-9.06604
 21
13.134
  0
LINE
  8
0
 10
-9.06604
 20
13.134
 11
-9.24623
 21
13.1984
  0
LINE
  8
0
 10
-9.24623
 20
13.1984
 11
-9.41922
 21
13.2802
  0
LINE
  8
0
 10
-9.41922
 20
13.2802
 11
-9.58336
 21
13.3786
  0
LINE
  8
0
 10
-9.58336
 20
13.3786
 11
-9.73706
 21
13.4926
  0
LINE
  8
0
 10
-9.73706
 20
13.4926
 11
-9.87885
 21
13.6211
  0
LINE
  8
0
 10
-9.87885
 20
13.6211
 11
-10.0074
 21
13.7629
  0
LINE
  8
0
 10
-10.0074
 20
13.7629
 11
-10.1214
 21
13.9166
  0
LINE
  8
0
 10
-10.1214
 20
13.9166
 11
-10.2197
 21
14.0808
  0
LINE
  8
0
 10
-10.2197
 20
14.0808
 11
-10.3016
 21
14.2538
  0
LINE
  8
0
 10
-10.3016
 20
14.2538
 11
-10.366
 21
14.4339
  0
LINE
  8
0
 10
-10.366
 20
14.4339
 11
-10.4125
 21
14.6196
  0
LINE
  8
0
 10
-10.4125
 20
14.6196
 11
-10.4406
 21
14.8089
  0
LINE
  8
0
 10
-10.4406
 20
14.8089
 11
-10.45
 21
15
  0
LINE
  8
0
 10
-10.45
 20
15
 11
-10.4406
 21
15.1911
  0
LINE
  8
0
 10
-10.4406
 20
15.1911
 11
-10.4125
 21
15.3804
  0
LINE
  8
0
 10
-10.4125
 20
15.3804
 11
-10.366
 21
15.566
  0
LINE
  8
0
 10
-10.366
 20
15.566
 11
-10.3016
 21
15.7462
  0
LINE
  8
0
 10
-10.3016
 20
15.7462
 11
-10.2197
 21
15.9192
  0
LINE
  8
0
 10
-10.2197
 20
15.9192
 11
-10.1214
 21
16.0834
  0
LINE
  8
0
 10
-10.1214
 20
16.0834
 11
-10.0074
 21
16.2371
  0
LINE
  8
0
 10
-10.0074
 20
16.2371
 11
-9.87885
 21
16.3788
  0
LINE
  8
0
 10
-9.87885
 20
16.3788
 11
-9.73706
 21
16.5074
  0
LINE
  8
0
 10
-9.73706
 20
16.5074
 11
-9.58336
 21
16.6214
  0
LINE
  8
0
 10
-9.58336
 20
16.6214
 11
-9.41922
 21
16.7197
  0
LINE
  8
0
 10
-9.41922
 20
16.7197
 11
-9.24623
 21
16.8016
  0
LINE
  8
0
 10
-9.24623
 20
16.8016
 11
-9.06604
 21
16.866
  0
LINE
  8
0
 10
-9.06604
 20
16.866
 11
-8.88042
 21
16.9125
  0
LINE
  8
0
 10
-8.88042
 20
16.9125
 11
-8.69113
 21
16.9406
  0
LINE
  8
0
 10
-8.69113
 20
16.9406
 11
-8.5
 21
16.95
  0
LINE
  8
0
 10
-8.5
 20
16.95
 11
-8.30885
 21
16.9406
  0
LINE
  8
0
 10
-8.30885
 20
16.9406
 11
-8.11957
 21
16.9125
  0
LINE
  8
0
 10
-8.11957
 20
16.9125
 11
-7.93394
 21
16.866
  0
LINE
  8
0
 10
-7.93394
 20
16.866
 11
-7.75375
 21
16.8016
  0
LINE
  8
0
 10
-7.75375
 20
16.8016
 11
-7.58076
 21
16.7197
  0
LINE
  8
0
 10
-7.58076
 20
16.7197
 11
-7.41663
 21
16.6214
  0
LINE
  8
0
 10
-7.41663
 20
16.6214
 11
-7.26292
 21
16.5074
  0
LINE
  8
0
 10
-7.26292
 20
16.5074
 11
-7.12114
 21
16.3788
  0
LINE
  8
0
 10
-7.12114
 20
16.3788
 11
-6.99261
 21
16.2371
  0
LINE
  8
0
 10
-6.99261
 20
16.2371
 11
-6.87863
 21
16.0834
  0
LINE
  8
0
 10
-6.87863
 20
16.0834
 11
-6.78024
 21
15.9192
  0
LINE
  8
0
 10
-6.78024
 20
15.9192
 11
-6.69843
 21
15.7462
  0
LINE
  8
0
 10
-6.69843
 20
15.7462
 11
-6.63396
 21
15.566
  0
LINE
  8
0
 10
-6.63396
 20
15.566
 11
-6.58746
 21
15.3804
  0
LINE
  8
0
 10
-6.58746
 20
15.3804
 11
-6.55939
 21
15.1911
  0
LINE
  8
0
 10
-6.55939
 20
15.1911
 11
-6.54999
 21
15
  0
LINE
  8
0
 10
-6.54999
 20
15
 11
-6.55939
 21
14.8089
  0
LINE
  8
0
 10
-6.55939
 20
14.8089
 11
-6.58746
 21
14.6196
  0
LINE
  8
0
 10
-6.58746
 20
14.6196
 11
-6.63396
 21
14.4339
  0
LINE
  8
0
 10
-6.63396
 20
14.4339
 11
-6.69843
 21
14.2538
  0
LINE
  8
0
 10
-6.69843
 20
14.2538
 11
-6.78024
 21
14.0808
  0
LINE
  8
0
 10
-6.78024
 20
14.0808
 11
-6.87863
 21
13.9166
  0
LINE
  8
0
 10
-6.87863
 20
13.9166
 11
-6.99261
 21
13.7629
  0
LINE
  8
0
 10
-6.99261
 20
13.7629
 11
-7.12114
 21
13.6211
  0
LINE
  8
0
 10
-7.12114
 20
13.6211
 11
-7.26292
 21
13.4926
  0
LINE
  8
0
 10
-7.26292
 20
13.4926
 11
-7.41663
 21
13.3786
  0
LINE
  8
0
 10
-7.41663
 20
13.3786
 11
-7.58076
 21
13.2802
  0
LINE
  8
0
 10
-7.58076
 20
13.2802
 11
-7.75375
 21
13.1984
  0
LINE
  8
0
 10
-7.75375
 20
13.1984
 11
-7.93394
 21
13.134
  0
LINE
  8
0
 10
-7.93394
 20
13.134
 11
-8.11957
 21
13.0875
  0
LINE
  8
0
 10
-8.11957
 20
13.0875
 11
-8.30885
 21
13.0594
  0
LINE
  8
0
 10
-8.30885
 20
13.0594
 11
-8.5
 21
13.05
  0
LINE
  8
0
 10
-8.5
 20
13.05
 11
-8.69113
 21
13.0594
  0
LINE
  8
0
 10
8.38237
 20
13.8058
 11
8.26588
 21
13.823
  0
LINE
  8
0
 10
8.26588
 20
13.823
 11
8.15166
 21
13.8517
  0
LINE
  8
0
 10
8.15166
 20
13.8517
 11
8.04077
 21
13.8913
  0
LINE
  8
0
 10
8.04077
 20
13.8913
 11
7.93431
 21
13.9417
  0
LINE
  8
0
 10
7.93431
 20
13.9417
 11
7.83331
 21
14.0022
  0
LINE
  8
0
 10
7.83331
 20
14.0022
 11
7.73872
 21
14.0724
  0
LINE
  8
0
 10
7.73872
 20
14.0724
 11
7.65146
 21
14.1515
  0
LINE
  8
0
 10
7.65146
 20
14.1515
 11
7.57237
 21
14.2387
  0
LINE
  8
0
 10
7.57237
 20
14.2387
 11
7.50223
 21
14.3333
  0
LINE
  8
0
 10
7.50223
 20
14.3333
 11
7.44168
 21
14.4343
  0
LINE
  8
0
 10
7.44168
 20
14.4343
 11
7.39134
 21
14.5408
  0
LINE
  8
0
 10
7.39134
 20
14.5408
 11
7.35167
 21
14.6517
  0
LINE
  8
0
 10
7.35167
 20
14.6517
 11
7.32304
 21
14.7659
  0
LINE
  8
0
 10
7.32304
 20
14.7659
 11
7.30577
 21
14.8824
  0
LINE
  8
0
 10
7.30577
 20
14.8824
 11
7.29999
 21
15
  0
LINE
  8
0
 10
7.29999
 20
15
 11
7.30577
 21
15.1176
  0
LINE
  8
0
 10
7.30577
 20
15.1176
 11
7.32304
 21
15.2341
  0
LINE
  8
0
 10
7.32304
 20
15.2341
 11
7.35167
 21
15.3483
  0
LINE
  8
0
 10
7.35167
 20
15.3483
 11
7.39134
 21
15.4592
  0
LINE
  8
0
 10
7.39134
 20
15.4592
 11
7.44168
 21
15.5657
  0
LINE
  8
0
 10
7.44168
 20
15.5657
 11
7.50223
 21
15.6667
  0
LINE
  8
0
 10
7.50223
 20
15.6667
 11
7.57237
 21
15.7613
  0
LINE
  8
0
 10
7.57237
 20
15.7613
 11
7.65146
 21
15.8485
  0
LINE
  8
0
 10
7.65146
 20
15.8485
 11
7.73872
 21
15.9276
  0
LINE
  8
0
 10
7.73872
 20
15.9276
 11
7.83331
 21
15.9978
  0
LINE
  8
0
 10
7.83331
 20
15.9978
 11
7.93431
 21
16.0583
  0
LINE
  8
0
 10
7.93431
 20
16.0583
 11
8.04077
 21
16.1086
  0
LINE
  8
0
 10
8.04077
 20
16.1086
 11
8.15166
 21
16.1483
  0
LINE
  8
0
 10
8.15166
 20
16.1483
 11
8.26588
 21
16.1769
  0
LINE
  8
0
 10
8.26588
 20
16.1769
 11
8.38237
 21
16.1942
  0
LINE
  8
0
 10
8.38237
 20
16.1942
 11
8.5
 21
16.2
  0
LINE
  8
0
 10
8.5
 20
16.2
 11
8.61761
 21
16.1942
  0
LINE
  8
0
 10
8.61761
 20
16.1942
 11
8.7341
 21
16.1769
  0
LINE
  8
0
 10
8.7341
 20
16.1769
 11
8.84833
 21
16.1483
  0
LINE
  8
0
 10
8.84833
 20
16.1483
 11
8.95921
 21
16.1086
  0
LINE
  8
0
 10
8.95921
 20
16.1086
 11
9.06567
 21
16.0583
  0
LINE
  8
0
 10
9.06567
 20
16.0583
 11
9.16667
 21
15.9978
  0
LINE
  8
0
 10
9.16667
 20
15.9978
 11
9.26126
 21
15.9276
  0
LINE
  8
0
 10
9.26126
 20
15.9276
 11
9.34853
 21
15.8485
  0
LINE
  8
0
 10
9.34853
 20
15.8485
 11
9.42761
 21
15.7613
  0
LINE
  8
0
 10
9.42761
 20
15.7613
 11
9.49776
 21
15.6667
  0
LINE
  8
0
 10
9.49776
 20
15.6667
 11
9.5583
 21
15.5657
  0
LINE
  8
0
 10
9.5583
 20
15.5657
 11
9.60864
 21
15.4592
  0
LINE
  8
0
 10
9.60864
 20
15.4592
 11
9.64832
 21
15.3483
  0
LINE
  8
0
 10
9.64832
 20
15.3483
 11
9.67694
 21
15.2341
  0
LINE
  8
0
 10
9.67694
 20
15.2341
 11
9.69421
 21
15.1176
  0
LINE
  8
0
 10
9.69421
 20
15.1176
 11
9.7
 21
15
  0
LINE
  8
0
 10
9.7
 20
15
 11
9.69421
 21
14.8824
  0
LINE
  8
0
 10
9.69421
 20
14.8824
 11
9.67694
 21
14.7659
  0
LINE
  8
0
 10
9.67694
 20
14.7659
 11
9.64832
 21
14.6517
  0
LINE
  8
0
 10
9.64832
 20
14.6517
 11
9.60864
 21
14.5408
  0
LINE
  8
0
 10
9.60864
 20
14.5408
 11
9.5583
 21
14.4343
  0
LINE
  8
0
 10
9.5583
 20
14.4343
 11
9.49776
 21
14.3333
  0
LINE
  8
0
 10
9.49776
 20
14.3333
 11
9.42761
 21
14.2387
  0
LINE
  8
0
 10
9.42761
 20
14.2387
 11
9.34853
 21
14.1515
  0
LINE
  8
0
 10
9.34853
 20
14.1515
 11
9.26126
 21
14.0724
  0
LINE
  8
0
 10
9.26126
 20
14.0724
 11
9.16667
 21
14.0022
  0
LINE
  8
0
 10
9.16667
 20
14.0022
 11
9.06567
 21
13.9417
  0
LINE
  8
0
 10
9.06567
 20
13.9417
 11
8.95921
 21
13.8913
  0
LINE
  8
0
 10
8.95921
 20
13.8913
 11
8.84833
 21
13.8517
  0
LINE
  8
0
 10
8.84833
 20
13.8517
 11
8.7341
 21
13.823
  0
LINE
  8
0
 10
8.7341
 20
13.823
 11
8.61761
 21
13.8058
  0
LINE
  8
0
 10
8.61761
 20
13.8058
 11
8.5
 21
13.8
  0
LINE
  8
0
 10
8.5
 20
13.8
 11
8.38237
 21
13.8058
  0
LINE
  8
0
 10
-0.147018
 20
-1.49277
 11
-0.292633
 21
-1.47118
  0
LINE
  8
0
 10
-0.292633
 20
-1.47118
 11
-0.435425
 21
-1.43541
  0
LINE
  8
0
 10
-0.435425
 20
-1.43541
 11
-0.57402
 21
-1.38582
  0
LINE
  8
0
 10
-0.57402
 20
-1.38582
 11
-0.707092
 21
-1.32288
  0
LINE
  8
0
 10
-0.707092
 20
-1.32288
 11
-0.833344
 21
-1.24719
  0
LINE
  8
0
 10
-0.833344
 20
-1.24719
 11
-0.951584
 21
-1.15952
  0
LINE
  8
0
 10
-0.951584
 20
-1.15952
 11
-1.06065
 21
-1.06065
  0
LINE
  8
0
 10
-1.06065
 20
-1.06065
 11
-1.15952
 21
-0.951584
  0
LINE
  8
0
 10
-1.15952
 20
-0.951584
 11
-1.24719
 21
-0.833344
  0
LINE
  8
0
 10
-1.24719
 20
-0.833344
 11
-1.32288
 21
-0.707092
  0
LINE
  8
0
 10
-1.32288
 20
-0.707092
 11
-1.38582
 21
-0.57402
  0
LINE
  8
0
 10
-1.38582
 20
-0.57402
 11
-1.43541
 21
-0.435425
  0
LINE
  8
0
 10
-1.43541
 20
-0.435425
 11
-1.47118
 21
-0.292633
  0
LINE
  8
0
 10
-1.47118
 20
-0.292633
 11
-1.49277
 21
-0.147018
  0
LINE
  8
0
 10
-1.49277
 20
-0.147018
 11
-1.5
 21
0
  0
LINE
  8
0
 10
-1.5
 20
0
 11
-1.49277
 21
0.147018
  0
LINE
  8
0
 10
-1.49277
 20
0.147018
 11
-1.47118
 21
0.292633
  0
LINE
  8
0
 10
-1.47118
 20
0.292633
 11
-1.43541
 21
0.435425
  0
LINE
  8
0
 10
-1.43541
 20
0.435425
 11
-1.38582
 21
0.57402
  0
LINE
  8
0
 10
-1.38582
 20
0.57402
 11
-1.32288
 21
0.707092
  0
LINE
  8
0
 10
-1.32288
 20
0.707092
 11
-1.24719
 21
0.833344
  0
LINE
  8
0
 10
-1.24719
 20
0.833344
 11
-1.15952
 21
0.951584
  0
LINE
  8
0
 10
-1.15952
 20
0.951584
 11
-1.06065
 21
1.06065
  0
LINE
  8
0
 10
-1.06065
 20
1.06065
 11
-0.951584
 21
1.15952
  0
LINE
  8
0
 10
-0.951584
 20
1.15952
 11
-0.833344
 21
1.24719
  0
LINE
  8
0
 10
-0.833344
 20
1.24719
 11
-0.707092
 21
1.32288
  0
LINE
  8
0
 10
-0.707092
 20
1.32288
 11
-0.57402
 21
1.38582
  0
LINE
  8
0
 10
-0.57402
 20
1.38582
 11
-0.435425
 21
1.43541
  0
LINE
  8
0
 10
-0.435425
 20
1.43541
 11
-0.292633
 21
1.47118
  0
LINE
  8
0
 10
-0.292633
 20
1.47118
 11
-0.147018
 21
1.49277
  0
LINE
  8
0
 10
-0.147018
 20
1.49277
 11
0
 21
1.5
  0
LINE
  8
0
 10
0
 20
1.5
 11
0.147018
 21
1.49277
  0
LINE
  8
0
 10
0.147018
 20
1.49277
 11
0.292633
 21
1.47118
  0
LINE
  8
0
 10
0.292633
 20
1.47118
 11
0.435425
 21
1.43541
  0
LINE
  8
0
 10
0.435425
 20
1.43541
 11
0.57402
 21
1.38582
  0
LINE
  8
0
 10
0.57402
 20
1.38582
 11
0.707092
 21
1.32288
  0
LINE
  8
0
 10
0.707092
 20
1.32288
 11
0.833344
 21
1.24719
  0
LINE
  8
0
 10
0.833344
 20
1.24719
 11
0.951584
 21
1.15952
  0
LINE
  8
0
 10
0.951584
 20
1.15952
 11
1.06065
 21
1.06065
  0
LINE
  8
0
 10
1.06065
 20
1.06065
 11
1.15952
 21
0.951584
  0
LINE
  8
0
 10
1.15952
 20
0.951584
 11
1.24719
 21
0.833344
  0
LINE
  8
0
 10
1.24719
 20
0.833344
 11
1.32288
 21
0.707092
  0
LINE
  8
0
 10
1.32288
 20
0.707092
 11
1.38582
 21
0.57402
  0
LINE
  8
0
 10
1.38582
 20
0.57402
 11
1.43541
 21
0.435425
  0
LINE
  8
0
 10
1.43541
 20
0.435425
 11
1.47118
 21
0.292633
  0
LINE
  8
0
 10
1.47118
 20
0.292633
 11
1.49277
 21
0.147018
  0
LINE
  8
0
 10
1.49277
 20
0.147018
 11
1.5
 21
0
  0
LINE
  8
0
 10
1.5
 20
0
 11
1.49277
 21
-0.147018
  0
LINE
  8
0
 10
1.49277
 20
-0.147018
 11
1.47118
 21
-0.292633
  0
LINE
  8
0
 10
1.47118
 20
-0.292633
 11
1.43541
 21
-0.435425
  0
LINE
  8
0
 10
1.43541
 20
-0.435425
 11
1.38582
 21
-0.57402
  0
LINE
  8
0
 10
1.38582
 20
-0.57402
 11
1.32288
 21
-0.707092
  0
LINE
  8
0
 10
1.32288
 20
-0.707092
 11
1.24719
 21
-0.833344
  0
LINE
  8
0
 10
1.24719
 20
-0.833344
 11
1.15952
 21
-0.951584
  0
LINE
  8
0
 10
1.15952
 20
-0.951584
 11
1.06065
 21
-1.06065
  0
LINE
  8
0
 10
1.06065
 20
-1.06065
 11
0.951584
 21
-1.15952
  0
LINE
  8
0
 10
0.951584
 20
-1.15952
 11
0.833344
 21
-1.24719
  0
LINE
  8
0
 10
0.833344
 20
-1.24719
 11
0.707092
 21
-1.32288
  0
LINE
  8
0
 10
0.707092
 20
-1.32288
 11
0.57402
 21
-1.38582
  0
LINE
  8
0
 10
0.57402
 20
-1.38582
 11
0.435425
 21
-1.43541
  0
LINE
  8
0
 10
0.435425
 20
-1.43541
 11
0.292633
 21
-1.47118
  0
LINE
  8
0
 10
0.292633
 20
-1.47118
 11
0.147018
 21
-1.49277
  0
LINE
  8
0
 10
0.147018
 20
-1.49277
 11
0
 21
-1.5
  0
LINE
  8
0
 10
0
 20
-1.5
 11
-0.147018
 21
-1.49277
  0
LINE
  8
0
 10
-6.71761
 20
-1.19421
 11
-6.83411
 21
-1.17694
  0
LINE
  8
0
 10
-6.83411
 20
-1.17694
 11
-6.94833
 21
-1.14832
  0
LINE
  8
0
 10
-6.94833
 20
-1.14832
 11
-7.05922
 21
-1.10864
  0
LINE
  8
0
 10
-7.05922
 20
-1.10864
 11
-7.16566
 21
-1.0583
  0
LINE
  8
0
 10
-7.16566
 20
-1.0583
 11
-7.26668
 21
-0.997757
  0
LINE
  8
0
 10
-7.26668
 20
-0.997757
 11
-7.36127
 21
-0.927612
  0
LINE
  8
0
 10
-7.36127
 20
-0.927612
 11
-7.44852
 21
-0.848526
  0
LINE
  8
0
 10
-7.44852
 20
-0.848526
 11
-7.5276
 21
-0.761261
  0
LINE
  8
0
 10
-7.5276
 20
-0.761261
 11
-7.59776
 21
-0.666672
  0
LINE
  8
0
 10
-7.59776
 20
-0.666672
 11
-7.65829
 21
-0.565674
  0
LINE
  8
0
 10
-7.65829
 20
-0.565674
 11
-7.70865
 21
-0.459213
  0
LINE
  8
0
 10
-7.70865
 20
-0.459213
 11
-7.74832
 21
-0.348328
  0
LINE
  8
0
 10
-7.74832
 20
-0.348328
 11
-7.77693
 21
-0.2341
  0
LINE
  8
0
 10
-7.77693
 20
-0.2341
 11
-7.79422
 21
-0.117615
  0
LINE
  8
0
 10
-7.79422
 20
-0.117615
 11
-7.79999
 21
0
  0
LINE
  8
0
 10
-7.79999
 20
0
 11
-7.79422
 21
0.117615
  0
LINE
  8
0
 10
-7.79422
 20
0.117615
 11
-7.77693
 21
0.2341
  0
LINE
  8
0
 10
-7.77693
 20
0.2341
 11
-7.74832
 21
0.348328
  0
LINE
  8
0
 10
-7.74832
 20
0.348328
 11
-7.70865
 21
0.459213
  0
LINE
  8
0
 10
-7.70865
 20
0.459213
 11
-7.65829
 21
0.565674
  0
LINE
  8
0
 10
-7.65829
 20
0.565674
 11
-7.59776
 21
0.666672
  0
LINE
  8
0
 10
-7.59776
 20
0.666672
 11
-7.5276
 21
0.761261
  0
LINE
  8
0
 10
-7.5276
 20
0.761261
 11
-7.44852
 21
0.848526
  0
LINE
  8
0
 10
-7.44852
 20
0.848526
 11
-7.36127
 21
0.927612
  0
LINE
  8
0
 10
-7.36127
 20
0.927612
 11
-7.26668
 21
0.997757
  0
LINE
  8
0
 10
-7.26668
 20
0.997757
 11
-7.16566
 21
1.0583
  0
LINE
  8
0
 10
-7.16566
 20
1.0583
 11
-7.05922
 21
1.10864
  0
LINE
  8
0
 10
-7.05922
 20
1.10864
 11
-6.94833
 21
1.14832
  0
LINE
  8
0
 10
-6.94833
 20
1.14832
 11
-6.83411
 21
1.17694
  0
LINE
  8
0
 10
-6.83411
 20
1.17694
 11
-6.71761
 21
1.19421
  0
LINE
  8
0
 10
-6.71761
 20
1.19421
 11
-6.59999
 21
1.2
  0
LINE
  8
0
 10
-6.59999
 20
1.2
 11
-6.48238
 21
1.19421
  0
LINE
  8
0
 10
-6.48238
 20
1.19421
 11
-6.36589
 21
1.17694
  0
LINE
  8
0
 10
-6.36589
 20
1.17694
 11
-6.25165
 21
1.14832
  0
LINE
  8
0
 10
-6.25165
 20
1.14832
 11
-6.14078
 21
1.10864
  0
LINE
  8
0
 10
-6.14078
 20
1.10864
 11
-6.03432
 21
1.0583
  0
LINE
  8
0
 10
-6.03432
 20
1.0583
 11
-5.9333
 21
0.997757
  0
LINE
  8
0
 10
-5.9333
 20
0.997757
 11
-5.83871
 21
0.927612
  0
LINE
  8
0
 10
-5.83871
 20
0.927612
 11
-5.75146
 21
0.848526
  0
LINE
  8
0
 10
-5.75146
 20
0.848526
 11
-5.67238
 21
0.761261
  0
LINE
  8
0
 10
-5.67238
 20
0.761261
 11
-5.60223
 21
0.666672
  0
LINE
  8
0
 10
-5.60223
 20
0.666672
 11
-5.54169
 21
0.565674
  0
LINE
  8
0
 10
-5.54169
 20
0.565674
 11
-5.49133
 21
0.459213
  0
LINE
  8
0
 10
-5.49133
 20
0.459213
 11
-5.45166
 21
0.348328
  0
LINE
  8
0
 10
-5.45166
 20
0.348328
 11
-5.42305
 21
0.2341
  0
LINE
  8
0
 10
-5.42305
 20
0.2341
 11
-5.40578
 21
0.117615
  0
LINE
  8
0
 10
-5.40578
 20
0.117615
 11
-5.39999
 21
0
  0
LINE
  8
0
 10
-5.39999
 20
0
 11
-5.40578
 21
-0.117615
  0
LINE
  8
0
 10
-5.40578
 20
-0.117615
 11
-5.42305
 21
-0.2341
  0
LINE
  8
0
 10
-5.42305
 20
-0.2341
 11
-5.45166
 21
-0.348328
  0
LINE
  8
0
 10
-5.45166
 20
-0.348328
 11
-5.49133
 21
-0.459213
  0
LINE
  8
0
 10
-5.49133
 20
-0.459213
 11
-5.54169
 21
-0.565674
  0
LINE
  8
0
 10
-5.54169
 20
-0.565674
 11
-5.60223
 21
-0.666672
  0
LINE
  8
0
 10
-5.60223
 20
-0.666672
 11
-5.67238
 21
-0.761261
  0
LINE
  8
0
 10
-5.67238
 20
-0.761261
 11
-5.75146
 21
-0.848526
  0
LINE
  8
0
 10
-5.75146
 20
-0.848526
 11
-5.83871
 21
-0.927612
  0
LINE
  8
0
 10
-5.83871
 20
-0.927612
 11
-5.9333
 21
-0.997757
  0
LINE
  8
0
 10
-5.9333
 20
-0.997757
 11
-6.03432
 21
-1.0583
  0
LINE
  8
0
 10
-6.03432
 20
-1.0583
 11
-6.14078
 21
-1.10864
  0
LINE
  8
0
 10
-6.14078
 20
-1.10864
 11
-6.25165
 21
-1.14832
  0
LINE
  8
0
 10
-6.25165
 20
-1.14832
 11
-6.36589
 21
-1.17694
  0
LINE
  8
0
 10
-6.36589
 20
-1.17694
 11
-6.48238
 21
-1.19421
  0
LINE
  8
0
 10
-6.48238
 20
-1.19421
 11
-6.59999
 21
-1.2
  0
LINE
  8
0
 10
-6.59999
 20
-1.2
 11
-6.71761
 21
-1.19421
  0
LINE
  8
0
 10
6.48238
 20
-1.19421
 11
6.36589
 21
-1.17694
  0
LINE
  8
0
 10
6.36589
 20
-1.17694
 11
6.25165
 21
-1.14832
  0
LINE
  8
0
 10
6.25165
 20
-1.14832
 11
6.14078
 21
-1.10864
  0
LINE
  8
0
 10
6.14078
 20
-1.10864
 11
6.03432
 21
-1.0583
  0
LINE
  8
0
 10
6.03432
 20
-1.0583
 11
5.9333
 21
-0.997757
  0
LINE
  8
0
 10
5.9333
 20
-0.997757
 11
5.83871
 21
-0.927612
  0
LINE
  8
0
 10
5.83871
 20
-0.927612
 11
5.75146
 21
-0.848526
  0
LINE
  8
0
 10
5.75146
 20
-0.848526
 11
5.67238
 21
-0.761261
  0
LINE
  8
0
 10
5.67238
 20
-0.761261
 11
5.60223
 21
-0.666672
  0
LINE
  8
0
 10
5.60223
 20
-0.666672
 11
5.54169
 21
-0.565674
  0
LINE
  8
0
 10
5.54169
 20
-0.565674
 11
5.49133
 21
-0.459213
  0
LINE
  8
0
 10
5.49133
 20
-0.459213
 11
5.45166
 21
-0.348328
  0
LINE
  8
0
 10
5.45166
 20
-0.348328
 11
5.42305
 21
-0.2341
  0
LINE
  8
0
 10
5.42305
 20
-0.2341
 11
5.40578
 21
-0.117615
  0
LINE
  8
0
 10
5.40578
 20
-0.117615
 11
5.39999
 21
0
  0
LINE
  8
0
 10
5.39999
 20
0
 11
5.40578
 21
0.117615
  0
LINE
  8
0
 10
5.40578
 20
0.117615
 11
5.42305
 21
0.2341
  0
LINE
  8
0
 10
5.42305
 20
0.2341
 11
5.45166
 21
0.348328
  0
LINE
  8
0
 10
5.45166
 20
0.348328
 11
5.49133
 21
0.459213
  0
LINE
  8
0
 10
5.49133
 20
0.459213
 11
5.54169
 21
0.565674
  0
LINE
  8
0
 10
5.54169
 20
0.565674
 11
5.60223
 21
0.666672
  0
LINE
  8
0
 10
5.60223
 20
0.666672
 11
5.67238
 21
0.761261
  0
LINE
  8
0
 10
5.67238
 20
0.761261
 11
5.75146
 21
0.848526
  0
LINE
  8
0
 10
5.75146
 20
0.848526
 11
5.83871
 21
0.927612
  0
LINE
  8
0
 10
5.83871
 20
0.927612
 11
5.9333
 21
0.997757
  0
LINE
  8
0
 10
5.9333
 20
0.997757
 11
6.03432
 21
1.0583
  0
LINE
  8
0
 10
6.03432
 20
1.0583
 11
6.14078
 21
1.10864
  0
LINE
  8
0
 10
6.14078
 20
1.10864
 11
6.25165
 21
1.14832
  0
LINE
  8
0
 10
6.25165
 20
1.14832
 11
6.36589
 21
1.17694
  0
LINE
  8
0
 10
6.36589
 20
1.17694
 11
6.48238
 21
1.19421
  0
LINE
  8
0
 10
6.48238
 20
1.19421
 11
6.59999
 21
1.2
  0
LINE
  8
0
 10
6.59999
 20
1.2
 11
6.71761
 21
1.19421
  0
LINE
  8
0
 10
6.71761
 20
1.19421
 11
6.83411
 21
1.17694
  0
LINE
  8
0
 10
6.83411
 20
1.17694
 11
6.94833
 21
1.14832
  0
LINE
  8
0
 10
6.94833
 20
1.14832
 11
7.05922
 21
1.10864
  0
LINE
  8
0
 10
7.05922
 20
1.10864
 11
7.16566
 21
1.0583
  0
LINE
  8
0
 10
7.16566
 20
1.0583
 11
7.26668
 21
0.997757
  0
LINE
  8
0
 10
7.26668
 20
0.997757
 11
7.36127
 21
0.927612
  0
LINE
  8
0
 10
7.36127
 20
0.927612
 11
7.44852
 21
0.848526
  0
LINE
  8
0
 10
7.44852
 20
0.848526
 11
7.5276
 21
0.761261
  0
LINE
  8
0
 10
7.5276
 20
0.761261
 11
7.59776
 21
0.666672
  0
LINE
  8
0
 10
7.59776
 20
0.666672
 11
7.65829
 21
0.565674
  0
LINE
  8
0
 10
7.65829
 20
0.565674
 11
7.70865
 21
0.459213
  0
LINE
  8
0
 10
7.70865
 20
0.459213
 11
7.74832
 21
0.348328
  0
LINE
  8
0
 10
7.74832
 20
0.348328
 11
7.77693
 21
0.2341
  0
LINE
  8
0
 10
7.77693
 20
0.2341
 11
7.79422
 21
0.117615
  0
LINE
  8
0
 10
7.79422
 20
0.117615
 11
7.79999
 21
0
  0
LINE
  8
0
 10
7.79999
 20
0
 11
7.79422
 21
-0.117615
  0
LINE
  8
0
 10
7.79422
 20
-0.117615
 11
7.77693
 21
-0.2341
  0
LINE
  8
0
 10
7.77693
 20
-0.2341
 11
7.74832
 21
-0.348328
  0
LINE
  8
0
 10
7.74832
 20
-0.348328
 11
7.70865
 21
-0.459213
  0
LINE
  8
0
 10
7.70865
 20
-0.459213
 11
7.65829
 21
-0.565674
  0
LINE
  8
0
 10
7.65829
 20
-0.565674
 11
7.59776
 21
-0.666672
  0
LINE
  8
0
 10
7.59776
 20
-0.666672
 11
7.5276
 21
-0.761261
  0
LINE
  8
0
 10
7.5276
 20
-0.761261
 11
7.44852
 21
-0.848526
  0
LINE
  8
0
 10
7.44852
 20
-0.848526
 11
7.36127
 21
-0.927612
  0
LINE
  8
0
 10
7.36127
 20
-0.927612
 11
7.26668
 21
-0.997757
  0
LINE
  8
0
 10
7.26668
 20
-0.997757
 11
7.16566
 21
-1.0583
  0
LINE
  8
0
 10
7.16566
 20
-1.0583
 11
7.05922
 21
-1.10864
  0
LINE
  8
0
 10
7.05922
 20
-1.10864
 11
6.94833
 21
-1.14832
  0
LINE
  8
0
 10
6.94833
 20
-1.14832
 11
6.83411
 21
-1.17694
  0
LINE
  8
0
 10
6.83411
 20
-1.17694
 11
6.71761
 21
-1.19421
  0
LINE
  8
0
 10
6.71761
 20
-1.19421
 11
6.59999
 21
-1.2
  0
LINE
  8
0
 10
6.59999
 20
-1.2
 11
6.48238
 21
-1.19421
  0
LINE
  8
0
 10
8.30885
 20
-16.9406
 11
8.11957
 21
-16.9125
  0
LINE
  8
0
 10
8.11957
 20
-16.9125
 11
7.93394
 21
-16.866
  0
LINE
  8
0
 10
7.93394
 20
-16.866
 11
7.75375
 21
-16.8016
  0
LINE
  8
0
 10
7.75375
 20
-16.8016
 11
7.58076
 21
-16.7197
  0
LINE
  8
0
 10
7.58076
 20
-16.7197
 11
7.41663
 21
-16.6214
  0
LINE
  8
0
 10
7.41663
 20
-16.6214
 11
7.26292
 21
-16.5074
  0
LINE
  8
0
 10
7.26292
 20
-16.5074
 11
7.12114
 21
-16.3788
  0
LINE
  8
0
 10
7.12114
 20
-16.3788
 11
6.99261
 21
-16.2371
  0
LINE
  8
0
 10
6.99261
 20
-16.2371
 11
6.87863
 21
-16.0834
  0
LINE
  8
0
 10
6.87863
 20
-16.0834
 11
6.78024
 21
-15.9192
  0
LINE
  8
0
 10
6.78024
 20
-15.9192
 11
6.69843
 21
-15.7462
  0
LINE
  8
0
 10
6.69843
 20
-15.7462
 11
6.63396
 21
-15.566
  0
LINE
  8
0
 10
6.63396
 20
-15.566
 11
6.58746
 21
-15.3804
  0
LINE
  8
0
 10
6.58746
 20
-15.3804
 11
6.55939
 21
-15.1911
  0
LINE
  8
0
 10
6.55939
 20
-15.1911
 11
6.54999
 21
-15
  0
LINE
  8
0
 10
6.54999
 20
-15
 11
6.55939
 21
-14.8089
  0
LINE
  8
0
 10
6.55939
 20
-14.8089
 11
6.58746
 21
-14.6196
  0
LINE
  8
0
 10
6.58746
 20
-14.6196
 11
6.63396
 21
-14.4339
  0
LINE
  8
0
 10
6.63396
 20
-14.4339
 11
6.69843
 21
-14.2538
  0
LINE
  8
0
 10
6.69843
 20
-14.2538
 11
6.78024
 21
-14.0808
  0
LINE
  8
0
 10
6.78024
 20
-14.0808
 11
6.87863
 21
-13.9166
  0
LINE
  8
0
 10
6.87863
 20
-13.9166
 11
6.99261
 21
-13.7629
  0
LINE
  8
0
 10
6.99261
 20
-13.7629
 11
7.12114
 21
-13.6211
  0
LINE
  8
0
 10
7.12114
 20
-13.6211
 11
7.26292
 21
-13.4926
  0
LINE
  8
0
 10
7.26292
 20
-13.4926
 11
7.41663
 21
-13.3786
  0
LINE
  8
0
 10
7.41663
 20
-13.3786
 11
7.58076
 21
-13.2802
  0
LINE
  8
0
 10
7.58076
 20
-13.2802
 11
7.75375
 21
-13.1984
  0
LINE
  8
0
 10
7.75375
 20
-13.1984
 11
7.93394
 21
-13.134
  0
LINE
  8
0
 10
7.93394
 20
-13.134
 11
8.11957
 21
-13.0875
  0
LINE
  8
0
 10
8.11957
 20
-13.0875
 11
8.30885
 21
-13.0594
  0
LINE
  8
0
 10
8.30885
 20
-13.0594
 11
8.5
 21
-13.05
  0
LINE
  8
0
 10
8.5
 20
-13.05
 11
8.69113
 21
-13.0594
  0
LINE
  8
0
 10
8.69113
 20
-13.0594
 11
8.88042
 21
-13.0875
  0
LINE
  8
0
 10
8.88042
 20
-13.0875
 11
9.06604
 21
-13.134
  0
LINE
  8
0
 10
9.06604
 20
-13.134
 11
9.24623
 21
-13.1984
  0
LINE
  8
0
 10
9.24623
 20
-13.1984
 11
9.41922
 21
-13.2802
  0
LINE
  8
0
 10
9.41922
 20
-13.2802
 11
9.58336
 21
-13.3786
  0
LINE
  8
0
 10
9.58336
 20
-13.3786
 11
9.73706
 21
-13.4926
  0
LINE
  8
0
 10
9.73706
 20
-13.4926
 11
9.87885
 21
-13.6211
  0
LINE
  8
0
 10
9.87885
 20
-13.6211
 11
10.0074
 21
-13.7629
  0
LINE
  8
0
 10
10.0074
 20
-13.7629
 11
10.1214
 21
-13.9166
  0
LINE
  8
0
 10
10.1214
 20
-13.9166
 11
10.2197
 21
-14.0808
  0
LINE
  8
0
 10
10.2197
 20
-14.0808
 11
10.3016
 21
-14.2538
  0
LINE
  8
0
 10
10.3016
 20
-14.2538
 11
10.366
 21
-14.4339
  0
LINE
  8
0
 10
10.366
 20
-14.4339
 11
10.4125
 21
-14.6196
  0
LINE
  8
0
 10
10.4125
 20
-14.6196
 11
10.4406
 21
-14.8089
  0
LINE
  8
0
 10
10.4406
 20
-14.8089
 11
10.45
 21
-15
  0
LINE
  8
0
 10
10.45
 20
-15
 11
10.4406
 21
-15.1911
  0
LINE
  8
0
 10
10.4406
 20
-15.1911
 11
10.4125
 21
-15.3804
  0
LINE
  8
0
 10
10.4125
 20
-15.3804
 11
10.366
 21
-15.566
  0
LINE
  8
0
 10
10.366
 20
-15.566
 11
10.3016
 21
-15.7462
  0
LINE
  8
0
 10
10.3016
 20
-15.7462
 11
10.2197
 21
-15.9192
  0
LINE
  8
0
 10
10.2197
 20
-15.9192
 11
10.1214
 21
-16.0834
  0
LINE
  8
0
 10
10.1214
 20
-16.0834
 11
10.0074
 21
-16.2371
  0
LINE
  8
0
 10
10.0074
 20
-16.2371
 11
9.87885
 21
-16.3788
  0
LINE
  8
0
 10
9.87885
 20
-16.3788
 11
9.73706
 21
-16.5074
  0
LINE
  8
0
 10
9.73706
 20
-16.5074
 11
9.58336
 21
-16.6214
  0
LINE
  8
0
 10
9.58336
 20
-16.6214
 11
9.41922
 21
-16.7197
  0
LINE
  8
0
 10
9.41922
 20
-16.7197
 11
9.24623
 21
-16.8016
  0
LINE
  8
0
 10
9.24623
 20
-16.8016
 11
9.06604
 21
-16.866
  0
LINE
  8
0
 10
9.06604
 20
-16.866
 11
8.88042
 21
-16.9125
  0
LINE
  8
0
 10
8.88042
 20
-16.9125
 11
8.69113
 21
-16.9406
  0
LINE
  8
0
 10
8.69113
 20
-16.9406
 11
8.5
 21
-16.95
  0
LINE
  8
0
 10
8.5
 20
-16.95
 11
8.30885
 21
-16.9406
  0
LINE
  8
0
 10
-8.61761
 20
-16.1942
 11
-8.7341
 21
-16.1769
  0
LINE
  8
0
 10
-8.7341
 20
-16.1769
 11
-8.84833
 21
-16.1483
  0
LINE
  8
0
 10
-8.84833
 20
-16.1483
 11
-8.95921
 21
-16.1086
  0
LINE
  8
0
 10
-8.95921
 20
-16.1086
 11
-9.06567
 21
-16.0583
  0
LINE
  8
0
 10
-9.06567
 20
-16.0583
 11
-9.16667
 21
-15.9978
  0
LINE
  8
0
 10
-9.16667
 20
-15.9978
 11
-9.26126
 21
-15.9276
  0
LINE
  8
0
 10
-9.26126
 20
-15.9276
 11
-9.34853
 21
-15.8485
  0
LINE
  8
0
 10
-9.34853
 20
-15.8485
 11
-9.42761
 21
-15.7613
  0
LINE
  8
0
 10
-9.42761
 20
-15.7613
 11
-9.49776
 21
-15.6667
  0
LINE
  8
0
 10
-9.49776
 20
-15.6667
 11
-9.5583
 21
-15.5657
  0
LINE
  8
0
 10
-9.5583
 20
-15.5657
 11
-9.60864
 21
-15.4592
  0
LINE
  8
0
 10
-9.60864
 20
-15.4592
 11
-9.64832
 21
-15.3483
  0
LINE
  8
0
 10
-9.64832
 20
-15.3483
 11
-9.67694
 21
-15.2341
  0
LINE
  8
0
 10
-9.67694
 20
-15.2341
 11
-9.69421
 21
-15.1176
  0
LINE
  8
0
 10
-9.69421
 20
-15.1176
 11
-9.7
 21
-15
  0
LINE
  8
0
 10
-9.7
 20
-15
 11
-9.69421
 21
-14.8824
  0
LINE
  8
0
 10
-9.69421
 20
-14.8824
 11
-9.67694
 21
-14.7659
  0
LINE
  8
0
 10
-9.67694
 20
-14.7659
 11
-9.64832
 21
-14.6517
  0
LINE
  8
0
 10
-9.64832
 20
-14.6517
 11
-9.60864
 21
-14.5408
  0
LINE
  8
0
 10
-9.60864
 20
-14.5408
 11
-9.5583
 21
-14.4343
  0
LINE
  8
0
 10
-9.5583
 20
-14.4343
 11
-9.49776
 21
-14.3333
  0
LINE
  8
0
 10
-9.49776
 20
-14.3333
 11
-9.42761
 21
-14.2387
  0
LINE
  8
0
 10
-9.42761
 20
-14.2387
 11
-9.34853
 21
-14.1515
  0
LINE
  8
0
 10
-9.34853
 20
-14.1515
 11
-9.26126
 21
-14.0724
  0
LINE
  8
0
 10
-9.26126
 20
-14.0724
 11
-9.16667
 21
-14.0022
  0
LINE
  8
0
 10
-9.16667
 20
-14.0022
 11
-9.06567
 21
-13.9417
  0
LINE
  8
0
 10
-9.06567
 20
-13.9417
 11
-8.95921
 21
-13.8913
  0
LINE
  8
0
 10
-8.95921
 20
-13.8913
 11
-8.84833
 21
-13.8517
  0
LINE
  8
0
 10
-8.84833
 20
-13.8517
 11
-8.7341
 21
-13.823
  0
LINE
  8
0
 10
-8.7341
 20
-13.823
 11
-8.61761
 21
-13.8058
  0
LINE
  8
0
 10
-8.61761
 20
-13.8058
 11
-8.5
 21
-13.8
  0
LINE
  8
0
 10
-8.5
 20
-13.8
 11
-8.38237
 21
-13.8058
  0
LINE
  8
0
 10
-8.38237
 20
-13.8058
 11
-8.26588
 21
-13.823
  0
LINE
  8
0
 10
-8.26588
 20
-13.823
 11
-8.15166
 21
-13.8517
  0
LINE
  8
0
 10
-8.15166
 20
-13.8517
 11
-8.04077
 21
-13.8913
  0
LINE
  8
0
 10
-8.04077
 20
-13.8913
 11
-7.93431
 21
-13.9417
  0
LINE
  8
0
 10
-7.93431
 20
-13.9417
 11
-7.83331
 21
-14.0022
  0
LINE
  8
0
 10
-7.83331
 20
-14.0022
 11
-7.73872
 21
-14.0724
  0
LINE
  8
0
 10
-7.73872
 20
-14.0724
 11
-7.65146
 21
-14.1515
  0
LINE
  8
0
 10
-7.65146
 20
-14.1515
 11
-7.57237
 21
-14.2387
  0
LINE
  8
0
 10
-7.57237
 20
-14.2387
 11
-7.50223
 21
-14.3333
  0
LINE
  8
0
 10
-7.50223
 20
-14.3333
 11
-7.44168
 21
-14.4343
  0
LINE
  8
0
 10
-7.44168
 20
-14.4343
 11
-7.39134
 21
-14.5408
  0
LINE
  8
0
 10
-7.39134
 20
-14.5408
 11
-7.35167
 21
-14.6517
  0
LINE
  8
0
 10
-7.35167
 20
-14.6517
 11
-7.32304
 21
-14.7659
  0
LINE
  8
0
 10
-7.32304
 20
-14.7659
 11
-7.30577
 21
-14.8824
  0
LINE
  8
0
 10
-7.30577
 20
-14.8824
 11
-7.29999
 21
-15
  0
LINE
  8
0
 10
-7.29999
 20
-15
 11
-7.30577
 21
-15.1176
  0
LINE
  8
0
 10
-7.30577
 20
-15.1176
 11
-7.32304
 21
-15.2341
  0
LINE
  8
0
 10
-7.32304
 20
-15.2341
 11
-7.35167
 21
-15.3483
  0
LINE
  8
0
 10
-7.35167
 20
-15.3483
 11
-7.39134
 21
-15.4592
  0
LINE
  8
0
 10
-7.39134
 20
-15.4592
 11
-7.44168
 21
-15.5657
  0
LINE
  8
0
 10
-7.44168
 20
-15.5657
 11
-7.50223
 21
-15.6667
  0
LINE
  8
0
 10
-7.50223
 20
-15.6667
 11
-7.57237
 21
-15.7613
  0
LINE
  8
0
 10
-7.57237
 20
-15.7613
 11
-7.65146
 21
-15.8485
  0
LINE
  8
0
 10
-7.65146
 20
-15.8485
 11
-7.73872
 21
-15.9276
  0
LINE
  8
0
 10
-7.73872
 20
-15.9276
 11
-7.83331
 21
-15.9978
  0
LINE
  8
0
 10
-7.83331
 20
-15.9978
 11
-7.93431
 21
-16.0583
  0
LINE
  8
0
 10
-7.93431
 20
-16.0583
 11
-8.04077
 21
-16.1086
  0
LINE
  8
0
 10
-8.04077
 20
-16.1086
 11
-8.15166
 21
-16.1483
  0
LINE
  8
0
 10
-8.15166
 20
-16.1483
 11
-8.26588
 21
-16.1769
  0
LINE
  8
0
 10
-8.26588
 20
-16.1769
 11
-8.38237
 21
-16.1942
  0
LINE
  8
0
 10
-8.38237
 20
-16.1942
 11
-8.5
 21
-16.2
  0
LINE
  8
0
 10
-8.5
 20
-16.2
 11
-8.61761
 21
-16.1942
  0
LINE
  8
0
 10
-0.147018
 20
-19.4928
 11
-0.292633
 21
-19.4712
  0
LINE
  8
0
 10
-0.292633
 20
-19.4712
 11
-0.435425
 21
-19.4354
  0
LINE
  8
0
 10
-0.435425
 20
-19.4354
 11
-0.57402
 21
-19.3858
  0
LINE
  8
0
 10
-0.57402
 20
-19.3858
 11
-0.707092
 21
-19.3229
  0
LINE
  8
0
 10
-0.707092
 20
-19.3229
 11
-0.833344
 21
-19.2472
  0
LINE
  8
0
 10
-0.833344
 20
-19.2472
 11
-0.951584
 21
-19.1595
  0
LINE
  8
0
 10
-0.951584
 20
-19.1595
 11
-1.06065
 21
-19.0607
  0
LINE
  8
0
 10
-1.06065
 20
-19.0607
 11
-1.15952
 21
-18.9516
  0
LINE
  8
0
 10
-1.15952
 20
-18.9516
 11
-1.24719
 21
-18.8333
  0
LINE
  8
0
 10
-1.24719
 20
-18.8333
 11
-1.32288
 21
-18.7071
  0
LINE
  8
0
 10
-1.32288
 20
-18.7071
 11
-1.38582
 21
-18.574
  0
LINE
  8
0
 10
-1.38582
 20
-18.574
 11
-1.43541
 21
-18.4354
  0
LINE
  8
0
 10
-1.43541
 20
-18.4354
 11
-1.47118
 21
-18.2926
  0
LINE
  8
0
 10
-1.47118
 20
-18.2926
 11
-1.49277
 21
-18.147
  0
LINE
  8
0
 10
-1.49277
 20
-18.147
 11
-1.5
 21
-18
  0
LINE
  8
0
 10
-1.5
 20
-18
 11
-1.49277
 21
-17.853
  0
LINE
  8
0
 10
-1.49277
 20
-17.853
 11
-1.47118
 21
-17.7074
  0
LINE
  8
0
 10
-1.47118
 20
-17.7074
 11
-1.43541
 21
-17.5646
  0
LINE
  8
0
 10
-1.43541
 20
-17.5646
 11
-1.38582
 21
-17.426
  0
LINE
  8
0
 10
-1.38582
 20
-17.426
 11
-1.32288
 21
-17.2929
  0
LINE
  8
0
 10
-1.32288
 20
-17.2929
 11
-1.24719
 21
-17.1666
  0
LINE
  8
0
 10
-1.24719
 20
-17.1666
 11
-1.15952
 21
-17.0484
  0
LINE
  8
0
 10
-1.15952
 20
-17.0484
 11
-1.06065
 21
-16.9393
  0
LINE
  8
0
 10
-1.06065
 20
-16.9393
 11
-0.951584
 21
-16.8405
  0
LINE
  8
0
 10
-0.951584
 20
-16.8405
 11
-0.833344
 21
-16.7528
  0
LINE
  8
0
 10
-0.833344
 20
-16.7528
 11
-0.707092
 21
-16.6771
  0
LINE
  8
0
 10
-0.707092
 20
-16.6771
 11
-0.57402
 21
-16.6142
  0
LINE
  8
0
 10
-0.57402
 20
-16.6142
 11
-0.435425
 21
-16.5646
  0
LINE
  8
0
 10
-0.435425
 20
-16.5646
 11
-0.292633
 21
-16.5288
  0
LINE
  8
0
 10
-0.292633
 20
-16.5288
 11
-0.147018
 21
-16.5072
  0
LINE
  8
0
 10
-0.147018
 20
-16.5072
 11
0
 21
-16.5
  0
LINE
  8
0
 10
0
 20
-16.5
 11
0.147018
 21
-16.5072
  0
LINE
  8
0
 10
0.147018
 20
-16.5072
 11
0.292633
 21
-16.5288
  0
LINE
  8
0
 10
0.292633
 20
-16.5288
 11
0.435425
 21
-16.5646
  0
LINE
  8
0
 10
0.435425
 20
-16.5646
 11
0.57402
 21
-16.6142
  0
LINE
  8
0
 10
0.57402
 20
-16.6142
 11
0.707092
 21
-16.6771
  0
LINE
  8
0
 10
0.707092
 20
-16.6771
 11
0.833344
 21
-16.7528
  0
LINE
  8
0
 10
0.833344
 20
-16.7528
 11
0.951584
 21
-16.8405
  0
LINE
  8
0
 10
0.951584
 20
-16.8405
 11
1.06065
 21
-16.9393
  0
LINE
  8
0
 10
1.06065
 20
-16.9393
 11
1.15952
 21
-17.0484
  0
LINE
  8
0
 10
1.15952
 20
-17.0484
 11
1.24719
 21
-17.1666
  0
LINE
  8
0
 10
1.24719
 20
-17.1666
 11
1.32288
 21
-17.2929
  0
LINE
  8
0
 10
1.32288
 20
-17.2929
 11
1.38582
 21
-17.426
  0
LINE
  8
0
 10
1.38582
 20
-17.426
 11
1.43541
 21
-17.5646
  0
LINE
  8
0
 10
1.43541
 20
-17.5646
 11
1.47118
 21
-17.7074
  0
LINE
  8
0
 10
1.47118
 20
-17.7074
 11
1.49277
 21
-17.853
  0
LINE
  8
0
 10
1.49277
 20
-17.853
 11
1.5
 21
-18
  0
LINE
  8
0
 10
1.5
 20
-18
 11
1.49277
 21
-18.147
  0
LINE
  8
0
 10
1.49277
 20
-18.147
 11
1.47118
 21
-18.2926
  0
LINE
  8
0
 10
1.47118
 20
-18.2926
 11
1.43541
 21
-18.4354
  0
LINE
  8
0
 10
1.43541
 20
-18.4354
 11
1.38582
 21
-18.574
  0
LINE
  8
0
 10
1.38582
 20
-18.574
 11
1.32288
 21
-18.7071
  0
LINE
  8
0
 10
1.32288
 20
-18.7071
 11
1.24719
 21
-18.8333
  0
LINE
  8
0
 10
1.24719
 20
-18.8333
 11
1.15952
 21
-18.9516
  0
LINE
  8
0
 10
1.15952
 20
-18.9516
 11
1.06065
 21
-19.0607
  0
LINE
  8
0
 10
1.06065
 20
-19.0607
 11
0.951584
 21
-19.1595
  0
LINE
  8
0
 10
0.951584
 20
-19.1595
 11
0.833344
 21
-19.2472
  0
LINE
  8
0
 10
0.833344
 20
-19.2472
 11
0.707092
 21
-19.3229
  0
LINE
  8
0
 10
0.707092
 20
-19.3229
 11
0.57402
 21
-19.3858
  0
LINE
  8
0
 10
0.57402
 20
-19.3858
 11
0.435425
 21
-19.4354
  0
LINE
  8
0
 10
0.435425
 20
-19.4354
 11
0.292633
 21
-19.4712
  0
LINE
  8
0
 10
0.292633
 20
-19.4712
 11
0.147018
 21
-19.4928
  0
LINE
  8
0
 10
0.147018
 20
-19.4928
 11
0
 21
-19.5
  0
LINE
  8
0
 10
0
 20
-19.5
 11
-0.147018
 21
-19.4928
  0
LINE
  8
0
 10
-3
 20
-26.7
 11
-3.09999
 21
-21.85
  0
LINE
  8
0
 10
-3.09999
 20
-21.85
 11
3.09999
 21
-21.85
  0
LINE
  8
0
 10
3.09999
 20
-21.85
 11
3
 21
-26.7
  0
LINE
  8
0
 10
3
 20
-26.7
 11
-3
 21
-26.7
  0
LINE
  8
0
 10
-8.69113
 20
-30.9406
 11
-8.88042
 21
-30.9125
  0
LINE
  8
0
 10
-8.88042
 20
-30.9125
 11
-9.06604
 21
-30.866
  0
LINE
  8
0
 10
-9.06604
 20
-30.866
 11
-9.24623
 21
-30.8016
  0
LINE
  8
0
 10
-9.24623
 20
-30.8016
 11
-9.41922
 21
-30.7197
  0
LINE
  8
0
 10
-9.41922
 20
-30.7197
 11
-9.58336
 21
-30.6214
  0
LINE
  8
0
 10
-9.58336
 20
-30.6214
 11
-9.73706
 21
-30.5074
  0
LINE
  8
0
 10
-9.73706
 20
-30.5074
 11
-9.87885
 21
-30.3788
  0
LINE
  8
0
 10
-9.87885
 20
-30.3788
 11
-10.0074
 21
-30.2371
  0
LINE
  8
0
 10
-10.0074
 20
-30.2371
 11
-10.1214
 21
-30.0834
  0
LINE
  8
0
 10
-10.1214
 20
-30.0834
 11
-10.2197
 21
-29.9192
  0
LINE
  8
0
 10
-10.2197
 20
-29.9192
 11
-10.3016
 21
-29.7462
  0
LINE
  8
0
 10
-10.3016
 20
-29.7462
 11
-10.366
 21
-29.566
  0
LINE
  8
0
 10
-10.366
 20
-29.566
 11
-10.4125
 21
-29.3804
  0
LINE
  8
0
 10
-10.4125
 20
-29.3804
 11
-10.4406
 21
-29.1911
  0
LINE
  8
0
 10
-10.4406
 20
-29.1911
 11
-10.45
 21
-29
  0
LINE
  8
0
 10
-10.45
 20
-29
 11
-10.4406
 21
-28.8089
  0
LINE
  8
0
 10
-10.4406
 20
-28.8089
 11
-10.4125
 21
-28.6196
  0
LINE
  8
0
 10
-10.4125
 20
-28.6196
 11
-10.366
 21
-28.4339
  0
LINE
  8
0
 10
-10.366
 20
-28.4339
 11
-10.3016
 21
-28.2538
  0
LINE
  8
0
 10
-10.3016
 20
-28.2538
 11
-10.2197
 21
-28.0808
  0
LINE
  8
0
 10
-10.2197
 20
-28.0808
 11
-10.1214
 21
-27.9166
  0
LINE
  8
0
 10
-10.1214
 20
-27.9166
 11
-10.0074
 21
-27.7629
  0
LINE
  8
0
 10
-10.0074
 20
-27.7629
 11
-9.87885
 21
-27.6211
  0
LINE
  8
0
 10
-9.87885
 20
-27.6211
 11
-9.73706
 21
-27.4926
  0
LINE
  8
0
 10
-9.73706
 20
-27.4926
 11
-9.58336
 21
-27.3786
  0
LINE
  8
0
 10
-9.58336
 20
-27.3786
 11
-9.41922
 21
-27.2802
  0
LINE
  8
0
 10
-9.41922
 20
-27.2802
 11
-9.24623
 21
-27.1984
  0
LINE
  8
0
 10
-9.24623
 20
-27.1984
 11
-9.06604
 21
-27.134
  0
LINE
  8
0
 10
-9.06604
 20
-27.134
 11
-8.88042
 21
-27.0875
  0
LINE
  8
0
 10
-8.88042
 20
-27.0875
 11
-8.69113
 21
-27.0594
  0
LINE
  8
0
 10
-8.69113
 20
-27.0594
 11
-8.5
 21
-27.05
  0
LINE
  8
0
 10
-8.5
 20
-27.05
 11
-8.30885
 21
-27.0594
  0
LINE
  8
0
 10
-8.30885
 20
-27.0594
 11
-8.11957
 21
-27.0875
  0
LINE
  8
0
 10
-8.11957
 20
-27.0875
 11
-7.93394
 21
-27.134
  0
LINE
  8
0
 10
-7.93394
 20
-27.134
 11
-7.75375
 21
-27.1984
  0
LINE
  8
0
 10
-7.75375
 20
-27.1984
 11
-7.58076
 21
-27.2802
  0
LINE
  8
0
 10
-7.58076
 20
-27.2802
 11
-7.41663
 21
-27.3786
  0
LINE
  8
0
 10
-7.41663
 20
-27.3786
 11
-7.26292
 21
-27.4926
  0
LINE
  8
0
 10
-7.26292
 20
-27.4926
 11
-7.12114
 21
-27.6211
  0
LINE
  8
0
 10
-7.12114
 20
-27.6211
 11
-6.99261
 21
-27.7629
  0
LINE
  8
0
 10
-6.99261
 20
-27.7629
 11
-6.87863
 21
-27.9166
  0
LINE
  8
0
 10
-6.87863
 20
-27.9166
 11
-6.78024
 21
-28.0808
  0
LINE
  8
0
 10
-6.78024
 20
-28.0808
 11
-6.69843
 21
-28.2538
  0
LINE
  8
0
 10
-6.69843
 20
-28.2538
 11
-6.63396
 21
-28.4339
  0
LINE
  8
0
 10
-6.63396
 20
-28.4339
 11
-6.58746
 21
-28.6196
  0
LINE
  8
0
 10
-6.58746
 20
-28.6196
 11
-6.55939
 21
-28.8089
  0
LINE
  8
0
 10
-6.55939
 20
-28.8089
 11
-6.54999
 21
-29
  0
LINE
  8
0
 10
-6.54999
 20
-29
 11
-6.55939
 21
-29.1911
  0
LINE
  8
0
 10
-6.55939
 20
-29.1911
 11
-6.58746
 21
-29.3804
  0
LINE
  8
0
 10
-6.58746
 20
-29.3804
 11
-6.63396
 21
-29.566
  0
LINE
  8
0
 10
-6.63396
 20
-29.566
 11
-6.69843
 21
-29.7462
  0
LINE
  8
0
 10
-6.69843
 20
-29.7462
 11
-6.78024
 21
-29.9192
  0
LINE
  8
0
 10
-6.78024
 20
-29.9192
 11
-6.87863
 21
-30.0834
  0
LINE
  8
0
 10
-6.87863
 20
-30.0834
 11
-6.99261
 21
-30.2371
  0
LINE
  8
0
 10
-6.99261
 20
-30.2371
 11
-7.12114
 21
-30.3788
  0
LINE
  8
0
 10
-7.12114
 20
-30.3788
 11
-7.26292
 21
-30.5074
  0
LINE
  8
0
 10
-7.26292
 20
-30.5074
 11
-7.41663
 21
-30.6214
  0
LINE
  8
0
 10
-7.41663
 20
-30.6214
 11
-7.58076
 21
-30.7197
  0
LINE
  8
0
 10
-7.58076
 20
-30.7197
 11
-7.75375
 21
-30.8016
  0
LINE
  8
0
 10
-7.75375
 20
-30.8016
 11
-7.93394
 21
-30.866
  0
LINE
  8
0
 10
-7.93394
 20
-30.866
 11
-8.11957
 21
-30.9125
  0
LINE
  8
0
 10
-8.11957
 20
-30.9125
 11
-8.30885
 21
-30.9406
  0
LINE
  8
0
 10
-8.30885
 20
-30.9406
 11
-8.5
 21
-30.95
  0
LINE
  8
0
 10
-8.5
 20
-30.95
 11
-8.69113
 21
-30.9406
  0
LINE
  8
0
 10
8.38237
 20
-30.1942
 11
8.26588
 21
-30.1769
  0
LINE
  8
0
 10
8.26588
 20
-30.1769
 11
8.15166
 21
-30.1483
  0
LINE
  8
0
 10
8.15166
 20
-30.1483
 11
8.04077
 21
-30.1086
  0
LINE
  8
0
 10
8.04077
 20
-30.1086
 11
7.93431
 21
-30.0583
  0
LINE
  8
0
 10
7.93431
 20
-30.0583
 11
7.83331
 21
-29.9978
  0
LINE
  8
0
 10
7.83331
 20
-29.9978
 11
7.73872
 21
-29.9276
  0
LINE
  8
0
 10
7.73872
 20
-29.9276
 11
7.65146
 21
-29.8485
  0
LINE
  8
0
 10
7.65146
 20
-29.8485
 11
7.57237
 21
-29.7613
  0
LINE
  8
0
 10
7.57237
 20
-29.7613
 11
7.50223
 21
-29.6667
  0
LINE
  8
0
 10
7.50223
 20
-29.6667
 11
7.44168
 21
-29.5657
  0
LINE
  8
0
 10
7.44168
 20
-29.5657
 11
7.39134
 21
-29.4592
  0
LINE
  8
0
 10
7.39134
 20
-29.4592
 11
7.35167
 21
-29.3483
  0
LINE
  8
0
 10
7.35167
 20
-29.3483
 11
7.32304
 21
-29.2341
  0
LINE
  8
0
 10
7.32304
 20
-29.2341
 11
7.30577
 21
-29.1176
  0
LINE
  8
0
 10
7.30577
 20
-29.1176
 11
7.29999
 21
-29
  0
LINE
  8
0
 10
7.29999
 20
-29
 11
7.30577
 21
-28.8824
  0
LINE
  8
0
 10
7.30577
 20
-28.8824
 11
7.32304
 21
-28.7659
  0
LINE
  8
0
 10
7.32304
 20
-28.7659
 11
7.35167
 21
-28.6517
  0
LINE
  8
0
 10
7.35167
 20
-28.6517
 11
7.39134
 21
-28.5408
  0
LINE
  8
0
 10
7.39134
 20
-28.5408
 11
7.44168
 21
-28.4343
  0
LINE
  8
0
 10
7.44168
 20
-28.4343
 11
7.50223
 21
-28.3333
  0
LINE
  8
0
 10
7.50223
 20
-28.3333
 11
7.57237
 21
-28.2387
  0
LINE
  8
0
 10
7.57237
 20
-28.2387
 11
7.65146
 21
-28.1515
  0
LINE
  8
0
 10
7.65146
 20
-28.1515
 11
7.73872
 21
-28.0724
  0
LINE
  8
0
 10
7.73872
 20
-28.0724
 11
7.83331
 21
-28.0022
  0
LINE
  8
0
 10
7.83331
 20
-28.0022
 11
7.93431
 21
-27.9417
  0
LINE
  8
0
 10
7.93431
 20
-27.9417
 11
8.04077
 21
-27.8913
  0
LINE
  8
0
 10
8.04077
 20
-27.8913
 11
8.15166
 21
-27.8517
  0
LINE
  8
0
 10
8.15166
 20
-27.8517
 11
8.26588
 21
-27.823
  0
LINE
  8
0
 10
8.26588
 20
-27.823
 11
8.38237
 21
-27.8058
  0
LINE
  8
0
 10
8.38237
 20
-27.8058
 11
8.5
 21
-27.8
  0
LINE
  8
0
 10
8.5
 20
-27.8
 11
8.61761
 21
-27.8058
  0
LINE
  8
0
 10
8.61761
 20
-27.8058
 11
8.7341
 21
-27.823
  0
LINE
  8
0
 10
8.7341
 20
-27.823
 11
8.84833
 21
-27.8517
  0
LINE
  8
0
 10
8.84833
 20
-27.8517
 11
8.95921
 21
-27.8913
  0
LINE
  8
0
 10
8.95921
 20
-27.8913
 11
9.06567
 21
-27.9417
  0
LINE
  8
0
 10
9.06567
 20
-27.9417
 11
9.16667
 21
-28.0022
  0
LINE
  8
0
 10
9.16667
 20
-28.0022
 11
9.26126
 21
-28.0724
  0
LINE
  8
0
 10
9.26126
 20
-28.0724
 11
9.34853
 21
-28.1515
  0
LINE
  8
0
 10
9.34853
 20
-28.1515
 11
9.42761
 21
-28.2387
  0
LINE
  8
0
 10
9.42761
 20
-28.2387
 11
9.49776
 21
-28.3333
  0
LINE
  8
0
 10
9.49776
 20
-28.3333
 11
9.5583
 21
-28.4343
  0
LINE
  8
0
 10
9.5583
 20
-28.4343
 11
9.60864
 21
-28.5408
  0
LINE
  8
0
 10
9.60864
 20
-28.5408
 11
9.64832
 21
-28.6517
  0
LINE
  8
0
 10
9.64832
 20
-28.6517
 11
9.67694
 21
-28.7659
  0
LINE
  8
0
 10
9.67694
 20
-28.7659
 11
9.69421
 21
-28.8824
  0
LINE
  8
0
 10
9.69421
 20
-28.8824
 11
9.7
 21
-29
  0
LINE
  8
0
 10
9.7
 20
-29
 11
9.69421
 21
-29.1176
  0
LINE
  8
0
 10
9.69421
 20
-29.1176
 11
9.67694
 21
-29.2341
  0
LINE
  8
0
 10
9.67694
 20
-29.2341
 11
9.64832
 21
-29.3483
  0
LINE
  8
0
 10
9.64832
 20
-29.3483
 11
9.60864
 21
-29.4592
  0
LINE
  8
0
 10
9.60864
 20
-29.4592
 11
9.5583
 21
-29.5657
  0
LINE
  8
0
 10
9.5583
 20
-29.5657
 11
9.49776
 21
-29.6667
  0
LINE
  8
0
 10
9.49776
 20
-29.6667
 11
9.42761
 21
-29.7613
  0
LINE
  8
0
 10
9.42761
 20
-29.7613
 11
9.34853
 21
-29.8485
  0
LINE
  8
0
 10
9.34853
 20
-29.8485
 11
9.26126
 21
-29.9276
  0
LINE
  8
0
 10
9.26126
 20
-29.9276
 11
9.16667
 21
-29.9978
  0
LINE
  8
0
 10
9.16667
 20
-29.9978
 11
9.06567
 21
-30.0583
  0
LINE
  8
0
 10
9.06567
 20
-30.0583
 11
8.95921
 21
-30.1086
  0
LINE
  8
0
 10
8.95921
 20
-30.1086
 11
8.84833
 21
-30.1483
  0
LINE
  8
0
 10
8.84833
 20
-30.1483
 11
8.7341
 21
-30.1769
  0
LINE
  8
0
 10
8.7341
 20
-30.1769
 11
8.61761
 21
-30.1942
  0
LINE
  8
0
 10
8.61761
 20
-30.1942
 11
8.5
 21
-30.2
  0
LINE
  8
0
 10
8.5
 20
-30.2
 11
8.38237
 21
-30.1942
  0
LINE
  8
0
 10
-6.59999
 20
-42
 11
-6.7
 21
-37.5
  0
LINE
  8
0
 10
-6.7
 20
-37.5
 11
6.7
 21
-37.5
  0
LINE
  8
0
 10
6.7
 20
-37.5
 11
6.59999
 21
-42
  0
LINE
  8
0
 10
6.59999
 20
-42
 11
-6.59999
 21
-42
  0
ENDSEC
  0
SECTION
  2
OBJECTS
  0
DICTIONARY
  0
ENDSEC
  0
EOF
