  0
SECTION
  2
BLOCKS
  0
ENDSEC
  0
SECTION
  2
ENTITIES
  0
LINE
  8
0
 10
14.95
 20
84.1
 11
-14.95
 21
84.1
  0
LINE
  8
0
 10
-14.95
 20
84.1
 11
-14.95
 21
-84.1
  0
LINE
  8
0
 10
-14.95
 20
-84.1
 11
14.95
 21
-84.1
  0
LINE
  8
0
 10
14.95
 20
-84.1
 11
14.95
 21
84.1
  0
LINE
  8
0
 10
-9.67152
 20
67.5084
 11
-9.8414
 21
67.5336
  0
LINE
  8
0
 10
-9.8414
 20
67.5336
 11
-10.008
 21
67.5753
  0
LINE
  8
0
 10
-10.008
 20
67.5753
 11
-10.1697
 21
67.6332
  0
LINE
  8
0
 10
-10.1697
 20
67.6332
 11
-10.3249
 21
67.7066
  0
LINE
  8
0
 10
-10.3249
 20
67.7066
 11
-10.4722
 21
67.7949
  0
LINE
  8
0
 10
-10.4722
 20
67.7949
 11
-10.6102
 21
67.8972
  0
LINE
  8
0
 10
-10.6102
 20
67.8972
 11
-10.7374
 21
68.0126
  0
LINE
  8
0
 10
-10.7374
 20
68.0126
 11
-10.8528
 21
68.1398
  0
LINE
  8
0
 10
-10.8528
 20
68.1398
 11
-10.9551
 21
68.2777
  0
LINE
  8
0
 10
-10.9551
 20
68.2777
 11
-11.0434
 21
68.425
  0
LINE
  8
0
 10
-11.0434
 20
68.425
 11
-11.1168
 21
68.5803
  0
LINE
  8
0
 10
-11.1168
 20
68.5803
 11
-11.1746
 21
68.742
  0
LINE
  8
0
 10
-11.1746
 20
68.742
 11
-11.2164
 21
68.9086
  0
LINE
  8
0
 10
-11.2164
 20
68.9086
 11
-11.2416
 21
69.0785
  0
LINE
  8
0
 10
-11.2416
 20
69.0785
 11
-11.25
 21
69.25
  0
LINE
  8
0
 10
-11.25
 20
69.25
 11
-11.2416
 21
69.4215
  0
LINE
  8
0
 10
-11.2416
 20
69.4215
 11
-11.2164
 21
69.5914
  0
LINE
  8
0
 10
-11.2164
 20
69.5914
 11
-11.1746
 21
69.758
  0
LINE
  8
0
 10
-11.1746
 20
69.758
 11
-11.1168
 21
69.9197
  0
LINE
  8
0
 10
-11.1168
 20
69.9197
 11
-11.0434
 21
70.0749
  0
LINE
  8
0
 10
-11.0434
 20
70.0749
 11
-10.9551
 21
70.2222
  0
LINE
  8
0
 10
-10.9551
 20
70.2222
 11
-10.8528
 21
70.3602
  0
LINE
  8
0
 10
-10.8528
 20
70.3602
 11
-10.7374
 21
70.4874
  0
LINE
  8
0
 10
-10.7374
 20
70.4874
 11
-10.6102
 21
70.6028
  0
LINE
  8
0
 10
-10.6102
 20
70.6028
 11
-10.4722
 21
70.7051
  0
LINE
  8
0
 10
-10.4722
 20
70.7051
 11
-10.3249
 21
70.7934
  0
LINE
  8
0
 10
-10.3249
 20
70.7934
 11
-10.1697
 21
70.8668
  0
LINE
  8
0
 10
-10.1697
 20
70.8668
 11
-10.008
 21
70.9246
  0
LINE
  8
0
 10
-10.008
 20
70.9246
 11
-9.8414
 21
70.9664
  0
LINE
  8
0
 10
-9.8414
 20
70.9664
 11
-9.67152
 21
70.9916
  0
LINE
  8
0
 10
-9.67152
 20
70.9916
 11
-9.5
 21
71
  0
LINE
  8
0
 10
-9.5
 20
71
 11
-9.32846
 21
70.9916
  0
LINE
  8
0
 10
-9.32846
 20
70.9916
 11
-9.15858
 21
70.9664
  0
LINE
  8
0
 10
-9.15858
 20
70.9664
 11
-8.99199
 21
70.9246
  0
LINE
  8
0
 10
-8.99199
 20
70.9246
 11
-8.83029
 21
70.8668
  0
LINE
  8
0
 10
-8.83029
 20
70.8668
 11
-8.67505
 21
70.7934
  0
LINE
  8
0
 10
-8.67505
 20
70.7934
 11
-8.52774
 21
70.7051
  0
LINE
  8
0
 10
-8.52774
 20
70.7051
 11
-8.3898
 21
70.6028
  0
LINE
  8
0
 10
-8.3898
 20
70.6028
 11
-8.26256
 21
70.4874
  0
LINE
  8
0
 10
-8.26256
 20
70.4874
 11
-8.14722
 21
70.3602
  0
LINE
  8
0
 10
-8.14722
 20
70.3602
 11
-8.04492
 21
70.2222
  0
LINE
  8
0
 10
-8.04492
 20
70.2222
 11
-7.95663
 21
70.0749
  0
LINE
  8
0
 10
-7.95663
 20
70.0749
 11
-7.88321
 21
69.9197
  0
LINE
  8
0
 10
-7.88321
 20
69.9197
 11
-7.82535
 21
69.758
  0
LINE
  8
0
 10
-7.82535
 20
69.758
 11
-7.78362
 21
69.5914
  0
LINE
  8
0
 10
-7.78362
 20
69.5914
 11
-7.75842
 21
69.4215
  0
LINE
  8
0
 10
-7.75842
 20
69.4215
 11
-7.75
 21
69.25
  0
LINE
  8
0
 10
-7.75
 20
69.25
 11
-7.75842
 21
69.0785
  0
LINE
  8
0
 10
-7.75842
 20
69.0785
 11
-7.78362
 21
68.9086
  0
LINE
  8
0
 10
-7.78362
 20
68.9086
 11
-7.82535
 21
68.742
  0
LINE
  8
0
 10
-7.82535
 20
68.742
 11
-7.88321
 21
68.5803
  0
LINE
  8
0
 10
-7.88321
 20
68.5803
 11
-7.95663
 21
68.425
  0
LINE
  8
0
 10
-7.95663
 20
68.425
 11
-8.04492
 21
68.2777
  0
LINE
  8
0
 10
-8.04492
 20
68.2777
 11
-8.14722
 21
68.1398
  0
LINE
  8
0
 10
-8.14722
 20
68.1398
 11
-8.26256
 21
68.0126
  0
LINE
  8
0
 10
-8.26256
 20
68.0126
 11
-8.3898
 21
67.8972
  0
LINE
  8
0
 10
-8.3898
 20
67.8972
 11
-8.52774
 21
67.7949
  0
LINE
  8
0
 10
-8.52774
 20
67.7949
 11
-8.67505
 21
67.7066
  0
LINE
  8
0
 10
-8.67505
 20
67.7066
 11
-8.83029
 21
67.6332
  0
LINE
  8
0
 10
-8.83029
 20
67.6332
 11
-8.99199
 21
67.5753
  0
LINE
  8
0
 10
-8.99199
 20
67.5753
 11
-9.15858
 21
67.5336
  0
LINE
  8
0
 10
-9.15858
 20
67.5336
 11
-9.32846
 21
67.5084
  0
LINE
  8
0
 10
-9.32846
 20
67.5084
 11
-9.5
 21
67.5
  0
LINE
  8
0
 10
-9.5
 20
67.5
 11
-9.67152
 21
67.5084
  0
LINE
  8
0
 10
9.32846
 20
67.5084
 11
9.15858
 21
67.5336
  0
LINE
  8
0
 10
9.15858
 20
67.5336
 11
8.99199
 21
67.5753
  0
LINE
  8
0
 10
8.99199
 20
67.5753
 11
8.83029
 21
67.6332
  0
LINE
  8
0
 10
8.83029
 20
67.6332
 11
8.67505
 21
67.7066
  0
LINE
  8
0
 10
8.67505
 20
67.7066
 11
8.52774
 21
67.7949
  0
LINE
  8
0
 10
8.52774
 20
67.7949
 11
8.3898
 21
67.8972
  0
LINE
  8
0
 10
8.3898
 20
67.8972
 11
8.26256
 21
68.0126
  0
LINE
  8
0
 10
8.26256
 20
68.0126
 11
8.14722
 21
68.1398
  0
LINE
  8
0
 10
8.14722
 20
68.1398
 11
8.04492
 21
68.2777
  0
LINE
  8
0
 10
8.04492
 20
68.2777
 11
7.95663
 21
68.425
  0
LINE
  8
0
 10
7.95663
 20
68.425
 11
7.88321
 21
68.5803
  0
LINE
  8
0
 10
7.88321
 20
68.5803
 11
7.82535
 21
68.742
  0
LINE
  8
0
 10
7.82535
 20
68.742
 11
7.78362
 21
68.9086
  0
LINE
  8
0
 10
7.78362
 20
68.9086
 11
7.75842
 21
69.0785
  0
LINE
  8
0
 10
7.75842
 20
69.0785
 11
7.75
 21
69.25
  0
LINE
  8
0
 10
7.75
 20
69.25
 11
7.75842
 21
69.4215
  0
LINE
  8
0
 10
7.75842
 20
69.4215
 11
7.78362
 21
69.5914
  0
LINE
  8
0
 10
7.78362
 20
69.5914
 11
7.82535
 21
69.758
  0
LINE
  8
0
 10
7.82535
 20
69.758
 11
7.88321
 21
69.9197
  0
LINE
  8
0
 10
7.88321
 20
69.9197
 11
7.95663
 21
70.0749
  0
LINE
  8
0
 10
7.95663
 20
70.0749
 11
8.04492
 21
70.2222
  0
LINE
  8
0
 10
8.04492
 20
70.2222
 11
8.14722
 21
70.3602
  0
LINE
  8
0
 10
8.14722
 20
70.3602
 11
8.26256
 21
70.4874
  0
LINE
  8
0
 10
8.26256
 20
70.4874
 11
8.3898
 21
70.6028
  0
LINE
  8
0
 10
8.3898
 20
70.6028
 11
8.52774
 21
70.7051
  0
LINE
  8
0
 10
8.52774
 20
70.7051
 11
8.67505
 21
70.7934
  0
LINE
  8
0
 10
8.67505
 20
70.7934
 11
8.83029
 21
70.8668
  0
LINE
  8
0
 10
8.83029
 20
70.8668
 11
8.99199
 21
70.9246
  0
LINE
  8
0
 10
8.99199
 20
70.9246
 11
9.15858
 21
70.9664
  0
LINE
  8
0
 10
9.15858
 20
70.9664
 11
9.32846
 21
70.9916
  0
LINE
  8
0
 10
9.32846
 20
70.9916
 11
9.5
 21
71
  0
LINE
  8
0
 10
9.5
 20
71
 11
9.67152
 21
70.9916
  0
LINE
  8
0
 10
9.67152
 20
70.9916
 11
9.8414
 21
70.9664
  0
LINE
  8
0
 10
9.8414
 20
70.9664
 11
10.008
 21
70.9246
  0
LINE
  8
0
 10
10.008
 20
70.9246
 11
10.1697
 21
70.8668
  0
LINE
  8
0
 10
10.1697
 20
70.8668
 11
10.3249
 21
70.7934
  0
LINE
  8
0
 10
10.3249
 20
70.7934
 11
10.4722
 21
70.7051
  0
LINE
  8
0
 10
10.4722
 20
70.7051
 11
10.6102
 21
70.6028
  0
LINE
  8
0
 10
10.6102
 20
70.6028
 11
10.7374
 21
70.4874
  0
LINE
  8
0
 10
10.7374
 20
70.4874
 11
10.8528
 21
70.3602
  0
LINE
  8
0
 10
10.8528
 20
70.3602
 11
10.9551
 21
70.2222
  0
LINE
  8
0
 10
10.9551
 20
70.2222
 11
11.0434
 21
70.0749
  0
LINE
  8
0
 10
11.0434
 20
70.0749
 11
11.1168
 21
69.9197
  0
LINE
  8
0
 10
11.1168
 20
69.9197
 11
11.1746
 21
69.758
  0
LINE
  8
0
 10
11.1746
 20
69.758
 11
11.2164
 21
69.5914
  0
LINE
  8
0
 10
11.2164
 20
69.5914
 11
11.2416
 21
69.4215
  0
LINE
  8
0
 10
11.2416
 20
69.4215
 11
11.25
 21
69.25
  0
LINE
  8
0
 10
11.25
 20
69.25
 11
11.2416
 21
69.0785
  0
LINE
  8
0
 10
11.2416
 20
69.0785
 11
11.2164
 21
68.9086
  0
LINE
  8
0
 10
11.2164
 20
68.9086
 11
11.1746
 21
68.742
  0
LINE
  8
0
 10
11.1746
 20
68.742
 11
11.1168
 21
68.5803
  0
LINE
  8
0
 10
11.1168
 20
68.5803
 11
11.0434
 21
68.425
  0
LINE
  8
0
 10
11.0434
 20
68.425
 11
10.9551
 21
68.2777
  0
LINE
  8
0
 10
10.9551
 20
68.2777
 11
10.8528
 21
68.1398
  0
LINE
  8
0
 10
10.8528
 20
68.1398
 11
10.7374
 21
68.0126
  0
LINE
  8
0
 10
10.7374
 20
68.0126
 11
10.6102
 21
67.8972
  0
LINE
  8
0
 10
10.6102
 20
67.8972
 11
10.4722
 21
67.7949
  0
LINE
  8
0
 10
10.4722
 20
67.7949
 11
10.3249
 21
67.7066
  0
LINE
  8
0
 10
10.3249
 20
67.7066
 11
10.1697
 21
67.6332
  0
LINE
  8
0
 10
10.1697
 20
67.6332
 11
10.008
 21
67.5753
  0
LINE
  8
0
 10
10.008
 20
67.5753
 11
9.8414
 21
67.5336
  0
LINE
  8
0
 10
9.8414
 20
67.5336
 11
9.67152
 21
67.5084
  0
LINE
  8
0
 10
9.67152
 20
67.5084
 11
9.5
 21
67.5
  0
LINE
  8
0
 10
9.5
 20
67.5
 11
9.32846
 21
67.5084
  0
LINE
  8
0
 10
-7.67152
 20
2.25842
 11
-7.8414
 21
2.28362
  0
LINE
  8
0
 10
-7.8414
 20
2.28362
 11
-8.008
 21
2.32535
  0
LINE
  8
0
 10
-8.008
 20
2.32535
 11
-8.16969
 21
2.38321
  0
LINE
  8
0
 10
-8.16969
 20
2.38321
 11
-8.32494
 21
2.45663
  0
LINE
  8
0
 10
-8.32494
 20
2.45663
 11
-8.47224
 21
2.54492
  0
LINE
  8
0
 10
-8.47224
 20
2.54492
 11
-8.61018
 21
2.64722
  0
LINE
  8
0
 10
-8.61018
 20
2.64722
 11
-8.73743
 21
2.76256
  0
LINE
  8
0
 10
-8.73743
 20
2.76256
 11
-8.85277
 21
2.8898
  0
LINE
  8
0
 10
-8.85277
 20
2.8898
 11
-8.95506
 21
3.02774
  0
LINE
  8
0
 10
-8.95506
 20
3.02774
 11
-9.04335
 21
3.17505
  0
LINE
  8
0
 10
-9.04335
 20
3.17505
 11
-9.11678
 21
3.33029
  0
LINE
  8
0
 10
-9.11678
 20
3.33029
 11
-9.17464
 21
3.49199
  0
LINE
  8
0
 10
-9.17464
 20
3.49199
 11
-9.21637
 21
3.65858
  0
LINE
  8
0
 10
-9.21637
 20
3.65858
 11
-9.24156
 21
3.82846
  0
LINE
  8
0
 10
-9.24156
 20
3.82846
 11
-9.25
 21
4
  0
LINE
  8
0
 10
-9.25
 20
4
 11
-9.24156
 21
4.17152
  0
LINE
  8
0
 10
-9.24156
 20
4.17152
 11
-9.21637
 21
4.3414
  0
LINE
  8
0
 10
-9.21637
 20
4.3414
 11
-9.17464
 21
4.508
  0
LINE
  8
0
 10
-9.17464
 20
4.508
 11
-9.11678
 21
4.66969
  0
LINE
  8
0
 10
-9.11678
 20
4.66969
 11
-9.04335
 21
4.82494
  0
LINE
  8
0
 10
-9.04335
 20
4.82494
 11
-8.95506
 21
4.97224
  0
LINE
  8
0
 10
-8.95506
 20
4.97224
 11
-8.85277
 21
5.11018
  0
LINE
  8
0
 10
-8.85277
 20
5.11018
 11
-8.73743
 21
5.23743
  0
LINE
  8
0
 10
-8.73743
 20
5.23743
 11
-8.61018
 21
5.35277
  0
LINE
  8
0
 10
-8.61018
 20
5.35277
 11
-8.47224
 21
5.45506
  0
LINE
  8
0
 10
-8.47224
 20
5.45506
 11
-8.32494
 21
5.54335
  0
LINE
  8
0
 10
-8.32494
 20
5.54335
 11
-8.16969
 21
5.61678
  0
LINE
  8
0
 10
-8.16969
 20
5.61678
 11
-8.008
 21
5.67464
  0
LINE
  8
0
 10
-8.008
 20
5.67464
 11
-7.8414
 21
5.71637
  0
LINE
  8
0
 10
-7.8414
 20
5.71637
 11
-7.67152
 21
5.74156
  0
LINE
  8
0
 10
-7.67152
 20
5.74156
 11
-7.5
 21
5.75
  0
LINE
  8
0
 10
-7.5
 20
5.75
 11
-7.32846
 21
5.74156
  0
LINE
  8
0
 10
-7.32846
 20
5.74156
 11
-7.15858
 21
5.71637
  0
LINE
  8
0
 10
-7.15858
 20
5.71637
 11
-6.99199
 21
5.67464
  0
LINE
  8
0
 10
-6.99199
 20
5.67464
 11
-6.83029
 21
5.61678
  0
LINE
  8
0
 10
-6.83029
 20
5.61678
 11
-6.67505
 21
5.54335
  0
LINE
  8
0
 10
-6.67505
 20
5.54335
 11
-6.52774
 21
5.45506
  0
LINE
  8
0
 10
-6.52774
 20
5.45506
 11
-6.3898
 21
5.35277
  0
LINE
  8
0
 10
-6.3898
 20
5.35277
 11
-6.26256
 21
5.23743
  0
LINE
  8
0
 10
-6.26256
 20
5.23743
 11
-6.14722
 21
5.11018
  0
LINE
  8
0
 10
-6.14722
 20
5.11018
 11
-6.04492
 21
4.97224
  0
LINE
  8
0
 10
-6.04492
 20
4.97224
 11
-5.95663
 21
4.82494
  0
LINE
  8
0
 10
-5.95663
 20
4.82494
 11
-5.88321
 21
4.66969
  0
LINE
  8
0
 10
-5.88321
 20
4.66969
 11
-5.82535
 21
4.508
  0
LINE
  8
0
 10
-5.82535
 20
4.508
 11
-5.78362
 21
4.3414
  0
LINE
  8
0
 10
-5.78362
 20
4.3414
 11
-5.75842
 21
4.17152
  0
LINE
  8
0
 10
-5.75842
 20
4.17152
 11
-5.75
 21
4
  0
LINE
  8
0
 10
-5.75
 20
4
 11
-5.75842
 21
3.82846
  0
LINE
  8
0
 10
-5.75842
 20
3.82846
 11
-5.78362
 21
3.65858
  0
LINE
  8
0
 10
-5.78362
 20
3.65858
 11
-5.82535
 21
3.49199
  0
LINE
  8
0
 10
-5.82535
 20
3.49199
 11
-5.88321
 21
3.33029
  0
LINE
  8
0
 10
-5.88321
 20
3.33029
 11
-5.95663
 21
3.17505
  0
LINE
  8
0
 10
-5.95663
 20
3.17505
 11
-6.04492
 21
3.02774
  0
LINE
  8
0
 10
-6.04492
 20
3.02774
 11
-6.14722
 21
2.8898
  0
LINE
  8
0
 10
-6.14722
 20
2.8898
 11
-6.26256
 21
2.76256
  0
LINE
  8
0
 10
-6.26256
 20
2.76256
 11
-6.3898
 21
2.64722
  0
LINE
  8
0
 10
-6.3898
 20
2.64722
 11
-6.52774
 21
2.54492
  0
LINE
  8
0
 10
-6.52774
 20
2.54492
 11
-6.67505
 21
2.45663
  0
LINE
  8
0
 10
-6.67505
 20
2.45663
 11
-6.83029
 21
2.38321
  0
LINE
  8
0
 10
-6.83029
 20
2.38321
 11
-6.99199
 21
2.32535
  0
LINE
  8
0
 10
-6.99199
 20
2.32535
 11
-7.15858
 21
2.28362
  0
LINE
  8
0
 10
-7.15858
 20
2.28362
 11
-7.32846
 21
2.25842
  0
LINE
  8
0
 10
-7.32846
 20
2.25842
 11
-7.5
 21
2.25
  0
LINE
  8
0
 10
-7.5
 20
2.25
 11
-7.67152
 21
2.25842
  0
LINE
  8
0
 10
7.32846
 20
2.25842
 11
7.15858
 21
2.28362
  0
LINE
  8
0
 10
7.15858
 20
2.28362
 11
6.99199
 21
2.32535
  0
LINE
  8
0
 10
6.99199
 20
2.32535
 11
6.83029
 21
2.38321
  0
LINE
  8
0
 10
6.83029
 20
2.38321
 11
6.67505
 21
2.45663
  0
LINE
  8
0
 10
6.67505
 20
2.45663
 11
6.52774
 21
2.54492
  0
LINE
  8
0
 10
6.52774
 20
2.54492
 11
6.3898
 21
2.64722
  0
LINE
  8
0
 10
6.3898
 20
2.64722
 11
6.26256
 21
2.76256
  0
LINE
  8
0
 10
6.26256
 20
2.76256
 11
6.14722
 21
2.8898
  0
LINE
  8
0
 10
6.14722
 20
2.8898
 11
6.04492
 21
3.02774
  0
LINE
  8
0
 10
6.04492
 20
3.02774
 11
5.95663
 21
3.17505
  0
LINE
  8
0
 10
5.95663
 20
3.17505
 11
5.88321
 21
3.33029
  0
LINE
  8
0
 10
5.88321
 20
3.33029
 11
5.82535
 21
3.49199
  0
LINE
  8
0
 10
5.82535
 20
3.49199
 11
5.78362
 21
3.65858
  0
LINE
  8
0
 10
5.78362
 20
3.65858
 11
5.75842
 21
3.82846
  0
LINE
  8
0
 10
5.75842
 20
3.82846
 11
5.75
 21
4
  0
LINE
  8
0
 10
5.75
 20
4
 11
5.75842
 21
4.17152
  0
LINE
  8
0
 10
5.75842
 20
4.17152
 11
5.78362
 21
4.3414
  0
LINE
  8
0
 10
5.78362
 20
4.3414
 11
5.82535
 21
4.508
  0
LINE
  8
0
 10
5.82535
 20
4.508
 11
5.88321
 21
4.66969
  0
LINE
  8
0
 10
5.88321
 20
4.66969
 11
5.95663
 21
4.82494
  0
LINE
  8
0
 10
5.95663
 20
4.82494
 11
6.04492
 21
4.97224
  0
LINE
  8
0
 10
6.04492
 20
4.97224
 11
6.14722
 21
5.11018
  0
LINE
  8
0
 10
6.14722
 20
5.11018
 11
6.26256
 21
5.23743
  0
LINE
  8
0
 10
6.26256
 20
5.23743
 11
6.3898
 21
5.35277
  0
LINE
  8
0
 10
6.3898
 20
5.35277
 11
6.52774
 21
5.45506
  0
LINE
  8
0
 10
6.52774
 20
5.45506
 11
6.67505
 21
5.54335
  0
LINE
  8
0
 10
6.67505
 20
5.54335
 11
6.83029
 21
5.61678
  0
LINE
  8
0
 10
6.83029
 20
5.61678
 11
6.99199
 21
5.67464
  0
LINE
  8
0
 10
6.99199
 20
5.67464
 11
7.15858
 21
5.71637
  0
LINE
  8
0
 10
7.15858
 20
5.71637
 11
7.32846
 21
5.74156
  0
LINE
  8
0
 10
7.32846
 20
5.74156
 11
7.5
 21
5.75
  0
LINE
  8
0
 10
7.5
 20
5.75
 11
7.67152
 21
5.74156
  0
LINE
  8
0
 10
7.67152
 20
5.74156
 11
7.8414
 21
5.71637
  0
LINE
  8
0
 10
7.8414
 20
5.71637
 11
8.008
 21
5.67464
  0
LINE
  8
0
 10
8.008
 20
5.67464
 11
8.16969
 21
5.61678
  0
LINE
  8
0
 10
8.16969
 20
5.61678
 11
8.32494
 21
5.54335
  0
LINE
  8
0
 10
8.32494
 20
5.54335
 11
8.47224
 21
5.45506
  0
LINE
  8
0
 10
8.47224
 20
5.45506
 11
8.61018
 21
5.35277
  0
LINE
  8
0
 10
8.61018
 20
5.35277
 11
8.73743
 21
5.23743
  0
LINE
  8
0
 10
8.73743
 20
5.23743
 11
8.85277
 21
5.11018
  0
LINE
  8
0
 10
8.85277
 20
5.11018
 11
8.95506
 21
4.97224
  0
LINE
  8
0
 10
8.95506
 20
4.97224
 11
9.04335
 21
4.82494
  0
LINE
  8
0
 10
9.04335
 20
4.82494
 11
9.11678
 21
4.66969
  0
LINE
  8
0
 10
9.11678
 20
4.66969
 11
9.17464
 21
4.508
  0
LINE
  8
0
 10
9.17464
 20
4.508
 11
9.21637
 21
4.3414
  0
LINE
  8
0
 10
9.21637
 20
4.3414
 11
9.24156
 21
4.17152
  0
LINE
  8
0
 10
9.24156
 20
4.17152
 11
9.25
 21
4
  0
LINE
  8
0
 10
9.25
 20
4
 11
9.24156
 21
3.82846
  0
LINE
  8
0
 10
9.24156
 20
3.82846
 11
9.21637
 21
3.65858
  0
LINE
  8
0
 10
9.21637
 20
3.65858
 11
9.17464
 21
3.49199
  0
LINE
  8
0
 10
9.17464
 20
3.49199
 11
9.11678
 21
3.33029
  0
LINE
  8
0
 10
9.11678
 20
3.33029
 11
9.04335
 21
3.17505
  0
LINE
  8
0
 10
9.04335
 20
3.17505
 11
8.95506
 21
3.02774
  0
LINE
  8
0
 10
8.95506
 20
3.02774
 11
8.85277
 21
2.8898
  0
LINE
  8
0
 10
8.85277
 20
2.8898
 11
8.73743
 21
2.76256
  0
LINE
  8
0
 10
8.73743
 20
2.76256
 11
8.61018
 21
2.64722
  0
LINE
  8
0
 10
8.61018
 20
2.64722
 11
8.47224
 21
2.54492
  0
LINE
  8
0
 10
8.47224
 20
2.54492
 11
8.32494
 21
2.45663
  0
LINE
  8
0
 10
8.32494
 20
2.45663
 11
8.16969
 21
2.38321
  0
LINE
  8
0
 10
8.16969
 20
2.38321
 11
8.008
 21
2.32535
  0
LINE
  8
0
 10
8.008
 20
2.32535
 11
7.8414
 21
2.28362
  0
LINE
  8
0
 10
7.8414
 20
2.28362
 11
7.67152
 21
2.25842
  0
LINE
  8
0
 10
7.67152
 20
2.25842
 11
7.5
 21
2.25
  0
LINE
  8
0
 10
7.5
 20
2.25
 11
7.32846
 21
2.25842
  0
LINE
  8
0
 10
-9.67152
 20
-70.9916
 11
-9.8414
 21
-70.9664
  0
LINE
  8
0
 10
-9.8414
 20
-70.9664
 11
-10.008
 21
-70.9246
  0
LINE
  8
0
 10
-10.008
 20
-70.9246
 11
-10.1697
 21
-70.8668
  0
LINE
  8
0
 10
-10.1697
 20
-70.8668
 11
-10.3249
 21
-70.7934
  0
LINE
  8
0
 10
-10.3249
 20
-70.7934
 11
-10.4722
 21
-70.7051
  0
LINE
  8
0
 10
-10.4722
 20
-70.7051
 11
-10.6102
 21
-70.6028
  0
LINE
  8
0
 10
-10.6102
 20
-70.6028
 11
-10.7374
 21
-70.4874
  0
LINE
  8
0
 10
-10.7374
 20
-70.4874
 11
-10.8528
 21
-70.3602
  0
LINE
  8
0
 10
-10.8528
 20
-70.3602
 11
-10.9551
 21
-70.2222
  0
LINE
  8
0
 10
-10.9551
 20
-70.2222
 11
-11.0434
 21
-70.0749
  0
LINE
  8
0
 10
-11.0434
 20
-70.0749
 11
-11.1168
 21
-69.9197
  0
LINE
  8
0
 10
-11.1168
 20
-69.9197
 11
-11.1746
 21
-69.758
  0
LINE
  8
0
 10
-11.1746
 20
-69.758
 11
-11.2164
 21
-69.5914
  0
LINE
  8
0
 10
-11.2164
 20
-69.5914
 11
-11.2416
 21
-69.4215
  0
LINE
  8
0
 10
-11.2416
 20
-69.4215
 11
-11.25
 21
-69.25
  0
LINE
  8
0
 10
-11.25
 20
-69.25
 11
-11.2416
 21
-69.0785
  0
LINE
  8
0
 10
-11.2416
 20
-69.0785
 11
-11.2164
 21
-68.9086
  0
LINE
  8
0
 10
-11.2164
 20
-68.9086
 11
-11.1746
 21
-68.742
  0
LINE
  8
0
 10
-11.1746
 20
-68.742
 11
-11.1168
 21
-68.5803
  0
LINE
  8
0
 10
-11.1168
 20
-68.5803
 11
-11.0434
 21
-68.425
  0
LINE
  8
0
 10
-11.0434
 20
-68.425
 11
-10.9551
 21
-68.2777
  0
LINE
  8
0
 10
-10.9551
 20
-68.2777
 11
-10.8528
 21
-68.1398
  0
LINE
  8
0
 10
-10.8528
 20
-68.1398
 11
-10.7374
 21
-68.0126
  0
LINE
  8
0
 10
-10.7374
 20
-68.0126
 11
-10.6102
 21
-67.8972
  0
LINE
  8
0
 10
-10.6102
 20
-67.8972
 11
-10.4722
 21
-67.7949
  0
LINE
  8
0
 10
-10.4722
 20
-67.7949
 11
-10.3249
 21
-67.7066
  0
LINE
  8
0
 10
-10.3249
 20
-67.7066
 11
-10.1697
 21
-67.6332
  0
LINE
  8
0
 10
-10.1697
 20
-67.6332
 11
-10.008
 21
-67.5753
  0
LINE
  8
0
 10
-10.008
 20
-67.5753
 11
-9.8414
 21
-67.5336
  0
LINE
  8
0
 10
-9.8414
 20
-67.5336
 11
-9.67152
 21
-67.5084
  0
LINE
  8
0
 10
-9.67152
 20
-67.5084
 11
-9.5
 21
-67.5
  0
LINE
  8
0
 10
-9.5
 20
-67.5
 11
-9.32846
 21
-67.5084
  0
LINE
  8
0
 10
-9.32846
 20
-67.5084
 11
-9.15858
 21
-67.5336
  0
LINE
  8
0
 10
-9.15858
 20
-67.5336
 11
-8.99199
 21
-67.5753
  0
LINE
  8
0
 10
-8.99199
 20
-67.5753
 11
-8.83029
 21
-67.6332
  0
LINE
  8
0
 10
-8.83029
 20
-67.6332
 11
-8.67505
 21
-67.7066
  0
LINE
  8
0
 10
-8.67505
 20
-67.7066
 11
-8.52774
 21
-67.7949
  0
LINE
  8
0
 10
-8.52774
 20
-67.7949
 11
-8.3898
 21
-67.8972
  0
LINE
  8
0
 10
-8.3898
 20
-67.8972
 11
-8.26256
 21
-68.0126
  0
LINE
  8
0
 10
-8.26256
 20
-68.0126
 11
-8.14722
 21
-68.1398
  0
LINE
  8
0
 10
-8.14722
 20
-68.1398
 11
-8.04492
 21
-68.2777
  0
LINE
  8
0
 10
-8.04492
 20
-68.2777
 11
-7.95663
 21
-68.425
  0
LINE
  8
0
 10
-7.95663
 20
-68.425
 11
-7.88321
 21
-68.5803
  0
LINE
  8
0
 10
-7.88321
 20
-68.5803
 11
-7.82535
 21
-68.742
  0
LINE
  8
0
 10
-7.82535
 20
-68.742
 11
-7.78362
 21
-68.9086
  0
LINE
  8
0
 10
-7.78362
 20
-68.9086
 11
-7.75842
 21
-69.0785
  0
LINE
  8
0
 10
-7.75842
 20
-69.0785
 11
-7.75
 21
-69.25
  0
LINE
  8
0
 10
-7.75
 20
-69.25
 11
-7.75842
 21
-69.4215
  0
LINE
  8
0
 10
-7.75842
 20
-69.4215
 11
-7.78362
 21
-69.5914
  0
LINE
  8
0
 10
-7.78362
 20
-69.5914
 11
-7.82535
 21
-69.758
  0
LINE
  8
0
 10
-7.82535
 20
-69.758
 11
-7.88321
 21
-69.9197
  0
LINE
  8
0
 10
-7.88321
 20
-69.9197
 11
-7.95663
 21
-70.0749
  0
LINE
  8
0
 10
-7.95663
 20
-70.0749
 11
-8.04492
 21
-70.2222
  0
LINE
  8
0
 10
-8.04492
 20
-70.2222
 11
-8.14722
 21
-70.3602
  0
LINE
  8
0
 10
-8.14722
 20
-70.3602
 11
-8.26256
 21
-70.4874
  0
LINE
  8
0
 10
-8.26256
 20
-70.4874
 11
-8.3898
 21
-70.6028
  0
LINE
  8
0
 10
-8.3898
 20
-70.6028
 11
-8.52774
 21
-70.7051
  0
LINE
  8
0
 10
-8.52774
 20
-70.7051
 11
-8.67505
 21
-70.7934
  0
LINE
  8
0
 10
-8.67505
 20
-70.7934
 11
-8.83029
 21
-70.8668
  0
LINE
  8
0
 10
-8.83029
 20
-70.8668
 11
-8.99199
 21
-70.9246
  0
LINE
  8
0
 10
-8.99199
 20
-70.9246
 11
-9.15858
 21
-70.9664
  0
LINE
  8
0
 10
-9.15858
 20
-70.9664
 11
-9.32846
 21
-70.9916
  0
LINE
  8
0
 10
-9.32846
 20
-70.9916
 11
-9.5
 21
-71
  0
LINE
  8
0
 10
-9.5
 20
-71
 11
-9.67152
 21
-70.9916
  0
LINE
  8
0
 10
9.32846
 20
-70.9916
 11
9.15858
 21
-70.9664
  0
LINE
  8
0
 10
9.15858
 20
-70.9664
 11
8.99199
 21
-70.9246
  0
LINE
  8
0
 10
8.99199
 20
-70.9246
 11
8.83029
 21
-70.8668
  0
LINE
  8
0
 10
8.83029
 20
-70.8668
 11
8.67505
 21
-70.7934
  0
LINE
  8
0
 10
8.67505
 20
-70.7934
 11
8.52774
 21
-70.7051
  0
LINE
  8
0
 10
8.52774
 20
-70.7051
 11
8.3898
 21
-70.6028
  0
LINE
  8
0
 10
8.3898
 20
-70.6028
 11
8.26256
 21
-70.4874
  0
LINE
  8
0
 10
8.26256
 20
-70.4874
 11
8.14722
 21
-70.3602
  0
LINE
  8
0
 10
8.14722
 20
-70.3602
 11
8.04492
 21
-70.2222
  0
LINE
  8
0
 10
8.04492
 20
-70.2222
 11
7.95663
 21
-70.0749
  0
LINE
  8
0
 10
7.95663
 20
-70.0749
 11
7.88321
 21
-69.9197
  0
LINE
  8
0
 10
7.88321
 20
-69.9197
 11
7.82535
 21
-69.758
  0
LINE
  8
0
 10
7.82535
 20
-69.758
 11
7.78362
 21
-69.5914
  0
LINE
  8
0
 10
7.78362
 20
-69.5914
 11
7.75842
 21
-69.4215
  0
LINE
  8
0
 10
7.75842
 20
-69.4215
 11
7.75
 21
-69.25
  0
LINE
  8
0
 10
7.75
 20
-69.25
 11
7.75842
 21
-69.0785
  0
LINE
  8
0
 10
7.75842
 20
-69.0785
 11
7.78362
 21
-68.9086
  0
LINE
  8
0
 10
7.78362
 20
-68.9086
 11
7.82535
 21
-68.742
  0
LINE
  8
0
 10
7.82535
 20
-68.742
 11
7.88321
 21
-68.5803
  0
LINE
  8
0
 10
7.88321
 20
-68.5803
 11
7.95663
 21
-68.425
  0
LINE
  8
0
 10
7.95663
 20
-68.425
 11
8.04492
 21
-68.2777
  0
LINE
  8
0
 10
8.04492
 20
-68.2777
 11
8.14722
 21
-68.1398
  0
LINE
  8
0
 10
8.14722
 20
-68.1398
 11
8.26256
 21
-68.0126
  0
LINE
  8
0
 10
8.26256
 20
-68.0126
 11
8.3898
 21
-67.8972
  0
LINE
  8
0
 10
8.3898
 20
-67.8972
 11
8.52774
 21
-67.7949
  0
LINE
  8
0
 10
8.52774
 20
-67.7949
 11
8.67505
 21
-67.7066
  0
LINE
  8
0
 10
8.67505
 20
-67.7066
 11
8.83029
 21
-67.6332
  0
LINE
  8
0
 10
8.83029
 20
-67.6332
 11
8.99199
 21
-67.5753
  0
LINE
  8
0
 10
8.99199
 20
-67.5753
 11
9.15858
 21
-67.5336
  0
LINE
  8
0
 10
9.15858
 20
-67.5336
 11
9.32846
 21
-67.5084
  0
LINE
  8
0
 10
9.32846
 20
-67.5084
 11
9.5
 21
-67.5
  0
LINE
  8
0
 10
9.5
 20
-67.5
 11
9.67152
 21
-67.5084
  0
LINE
  8
0
 10
9.67152
 20
-67.5084
 11
9.8414
 21
-67.5336
  0
LINE
  8
0
 10
9.8414
 20
-67.5336
 11
10.008
 21
-67.5753
  0
LINE
  8
0
 10
10.008
 20
-67.5753
 11
10.1697
 21
-67.6332
  0
LINE
  8
0
 10
10.1697
 20
-67.6332
 11
10.3249
 21
-67.7066
  0
LINE
  8
0
 10
10.3249
 20
-67.7066
 11
10.4722
 21
-67.7949
  0
LINE
  8
0
 10
10.4722
 20
-67.7949
 11
10.6102
 21
-67.8972
  0
LINE
  8
0
 10
10.6102
 20
-67.8972
 11
10.7374
 21
-68.0126
  0
LINE
  8
0
 10
10.7374
 20
-68.0126
 11
10.8528
 21
-68.1398
  0
LINE
  8
0
 10
10.8528
 20
-68.1398
 11
10.9551
 21
-68.2777
  0
LINE
  8
0
 10
10.9551
 20
-68.2777
 11
11.0434
 21
-68.425
  0
LINE
  8
0
 10
11.0434
 20
-68.425
 11
11.1168
 21
-68.5803
  0
LINE
  8
0
 10
11.1168
 20
-68.5803
 11
11.1746
 21
-68.742
  0
LINE
  8
0
 10
11.1746
 20
-68.742
 11
11.2164
 21
-68.9086
  0
LINE
  8
0
 10
11.2164
 20
-68.9086
 11
11.2416
 21
-69.0785
  0
LINE
  8
0
 10
11.2416
 20
-69.0785
 11
11.25
 21
-69.25
  0
LINE
  8
0
 10
11.25
 20
-69.25
 11
11.2416
 21
-69.4215
  0
LINE
  8
0
 10
11.2416
 20
-69.4215
 11
11.2164
 21
-69.5914
  0
LINE
  8
0
 10
11.2164
 20
-69.5914
 11
11.1746
 21
-69.758
  0
LINE
  8
0
 10
11.1746
 20
-69.758
 11
11.1168
 21
-69.9197
  0
LINE
  8
0
 10
11.1168
 20
-69.9197
 11
11.0434
 21
-70.0749
  0
LINE
  8
0
 10
11.0434
 20
-70.0749
 11
10.9551
 21
-70.2222
  0
LINE
  8
0
 10
10.9551
 20
-70.2222
 11
10.8528
 21
-70.3602
  0
LINE
  8
0
 10
10.8528
 20
-70.3602
 11
10.7374
 21
-70.4874
  0
LINE
  8
0
 10
10.7374
 20
-70.4874
 11
10.6102
 21
-70.6028
  0
LINE
  8
0
 10
10.6102
 20
-70.6028
 11
10.4722
 21
-70.7051
  0
LINE
  8
0
 10
10.4722
 20
-70.7051
 11
10.3249
 21
-70.7934
  0
LINE
  8
0
 10
10.3249
 20
-70.7934
 11
10.1697
 21
-70.8668
  0
LINE
  8
0
 10
10.1697
 20
-70.8668
 11
10.008
 21
-70.9246
  0
LINE
  8
0
 10
10.008
 20
-70.9246
 11
9.8414
 21
-70.9664
  0
LINE
  8
0
 10
9.8414
 20
-70.9664
 11
9.67152
 21
-70.9916
  0
LINE
  8
0
 10
9.67152
 20
-70.9916
 11
9.5
 21
-71
  0
LINE
  8
0
 10
9.5
 20
-71
 11
9.32846
 21
-70.9916
  0
ENDSEC
  0
SECTION
  2
OBJECTS
  0
DICTIONARY
  0
ENDSEC
  0
EOF
