  0
SECTION
  2
BLOCKS
  0
ENDSEC
  0
SECTION
  2
ENTITIES
  0
LINE
  8
0
 10
-11
 20
113.4
 11
-8
 21
113.4
  0
LINE
  8
0
 10
-8
 20
113.4
 11
-8
 21
108.4
  0
LINE
  8
0
 10
-8
 20
108.4
 11
8
 21
108.4
  0
LINE
  8
0
 10
8
 20
108.4
 11
8
 21
113.4
  0
LINE
  8
0
 10
8
 20
113.4
 11
11
 21
113.4
  0
LINE
  8
0
 10
11
 20
113.4
 11
11
 21
108.4
  0
LINE
  8
0
 10
11
 20
108.4
 11
14
 21
108.4
  0
LINE
  8
0
 10
14
 20
108.4
 11
14
 21
112.4
  0
LINE
  8
0
 10
14
 20
112.4
 11
12
 21
118.4
  0
LINE
  8
0
 10
12
 20
118.4
 11
3.2
 21
118.4
  0
LINE
  8
0
 10
3.2
 20
118.4
 11
3.2
 21
112.4
  0
LINE
  8
0
 10
3.2
 20
112.4
 11
1.79999
 21
112.4
  0
LINE
  8
0
 10
1.79999
 20
112.4
 11
1.79999
 21
118.4
  0
LINE
  8
0
 10
1.79999
 20
118.4
 11
-12
 21
118.4
  0
LINE
  8
0
 10
-12
 20
118.4
 11
-14
 21
112.4
  0
LINE
  8
0
 10
-14
 20
112.4
 11
-14
 21
108.4
  0
LINE
  8
0
 10
-14
 20
108.4
 11
-11
 21
108.4
  0
LINE
  8
0
 10
-11
 20
108.4
 11
-11
 21
113.4
  0
LINE
  8
0
 10
-11
 20
96.2
 11
-8
 21
96.2
  0
LINE
  8
0
 10
-8
 20
96.2
 11
-8
 21
88
  0
LINE
  8
0
 10
-8
 20
88
 11
8
 21
88
  0
LINE
  8
0
 10
8
 20
88
 11
8
 21
96.2
  0
LINE
  8
0
 10
8
 20
96.2
 11
11
 21
96.2
  0
LINE
  8
0
 10
11
 20
96.2
 11
11
 21
88
  0
LINE
  8
0
 10
11
 20
88
 11
14
 21
88
  0
LINE
  8
0
 10
14
 20
88
 11
14
 21
92
  0
LINE
  8
0
 10
14
 20
92
 11
12
 21
104.4
  0
LINE
  8
0
 10
12
 20
104.4
 11
-1.79999
 21
104.4
  0
LINE
  8
0
 10
-1.79999
 20
104.4
 11
-1.79999
 21
98.4
  0
LINE
  8
0
 10
-1.79999
 20
98.4
 11
-3.2
 21
98.4
  0
LINE
  8
0
 10
-3.2
 20
98.4
 11
-3.2
 21
104.4
  0
LINE
  8
0
 10
-3.2
 20
104.4
 11
-12
 21
104.4
  0
LINE
  8
0
 10
-12
 20
104.4
 11
-14
 21
92
  0
LINE
  8
0
 10
-14
 20
92
 11
-14
 21
88
  0
LINE
  8
0
 10
-14
 20
88
 11
-11
 21
88
  0
LINE
  8
0
 10
-11
 20
88
 11
-11
 21
96.2
  0
LINE
  8
0
 10
-4
 20
-71
 11
-2
 21
-71
  0
LINE
  8
0
 10
-2
 20
-71
 11
-2
 21
-67.5
  0
LINE
  8
0
 10
-2
 20
-67.5
 11
-4
 21
-67.5
  0
LINE
  8
0
 10
-4
 20
-67.5
 11
-4
 21
67.5
  0
LINE
  8
0
 10
-4
 20
67.5
 11
-2
 21
67.5
  0
LINE
  8
0
 10
-2
 20
67.5
 11
-2
 21
71
  0
LINE
  8
0
 10
-2
 20
71
 11
-4
 21
71
  0
LINE
  8
0
 10
-4
 20
71
 11
-4
 21
84
  0
LINE
  8
0
 10
-4
 20
84
 11
-8
 21
84
  0
LINE
  8
0
 10
-8
 20
84
 11
-8
 21
57.4
  0
LINE
  8
0
 10
-8
 20
57.4
 11
-20.4
 21
41
  0
LINE
  8
0
 10
-20.4
 20
41
 11
-20.4
 21
39
  0
LINE
  8
0
 10
-20.4
 20
39
 11
-12.2
 21
39
  0
LINE
  8
0
 10
-12.2
 20
39
 11
-12.2
 21
36
  0
LINE
  8
0
 10
-12.2
 20
36
 11
-20.4
 21
36
  0
LINE
  8
0
 10
-20.4
 20
36
 11
-20.4
 21
34
  0
LINE
  8
0
 10
-20.4
 20
34
 11
-8
 21
17.6
  0
LINE
  8
0
 10
-8
 20
17.6
 11
-8
 21
-24
  0
LINE
  8
0
 10
-8
 20
-24
 11
-14
 21
-34
  0
LINE
  8
0
 10
-14
 20
-34
 11
-14
 21
-36
  0
LINE
  8
0
 10
-14
 20
-36
 11
-9
 21
-36
  0
LINE
  8
0
 10
-9
 20
-36
 11
-9
 21
-39
  0
LINE
  8
0
 10
-9
 20
-39
 11
-14
 21
-39
  0
LINE
  8
0
 10
-14
 20
-39
 11
-14
 21
-41
  0
LINE
  8
0
 10
-14
 20
-41
 11
-8
 21
-51
  0
LINE
  8
0
 10
-8
 20
-51
 11
-8
 21
-84
  0
LINE
  8
0
 10
-8
 20
-84
 11
-4
 21
-84
  0
LINE
  8
0
 10
-4
 20
-84
 11
-4
 21
-71
  0
LINE
  8
0
 10
8
 20
-51
 11
14
 21
-41
  0
LINE
  8
0
 10
14
 20
-41
 11
14
 21
-39
  0
LINE
  8
0
 10
14
 20
-39
 11
9
 21
-39
  0
LINE
  8
0
 10
9
 20
-39
 11
9
 21
-36
  0
LINE
  8
0
 10
9
 20
-36
 11
14
 21
-36
  0
LINE
  8
0
 10
14
 20
-36
 11
14
 21
-34
  0
LINE
  8
0
 10
14
 20
-34
 11
8
 21
-24
  0
LINE
  8
0
 10
8
 20
-24
 11
8
 21
17.6
  0
LINE
  8
0
 10
8
 20
17.6
 11
20.4
 21
34
  0
LINE
  8
0
 10
20.4
 20
34
 11
20.4
 21
36
  0
LINE
  8
0
 10
20.4
 20
36
 11
12.2
 21
36
  0
LINE
  8
0
 10
12.2
 20
36
 11
12.2
 21
39
  0
LINE
  8
0
 10
12.2
 20
39
 11
20.4
 21
39
  0
LINE
  8
0
 10
20.4
 20
39
 11
20.4
 21
41
  0
LINE
  8
0
 10
20.4
 20
41
 11
8
 21
57.4
  0
LINE
  8
0
 10
8
 20
57.4
 11
8
 21
84
  0
LINE
  8
0
 10
8
 20
84
 11
4
 21
84
  0
LINE
  8
0
 10
4
 20
84
 11
4
 21
71
  0
LINE
  8
0
 10
4
 20
71
 11
2
 21
71
  0
LINE
  8
0
 10
2
 20
71
 11
2
 21
67.5
  0
LINE
  8
0
 10
2
 20
67.5
 11
4
 21
67.5
  0
LINE
  8
0
 10
4
 20
67.5
 11
4
 21
-67.5
  0
LINE
  8
0
 10
4
 20
-67.5
 11
2
 21
-67.5
  0
LINE
  8
0
 10
2
 20
-67.5
 11
2
 21
-71
  0
LINE
  8
0
 10
2
 20
-71
 11
4
 21
-71
  0
LINE
  8
0
 10
4
 20
-71
 11
4
 21
-84
  0
LINE
  8
0
 10
4
 20
-84
 11
8
 21
-84
  0
LINE
  8
0
 10
8
 20
-84
 11
8
 21
-51
  0
ENDSEC
  0
SECTION
  2
OBJECTS
  0
DICTIONARY
  0
ENDSEC
  0
EOF
