  0
SECTION
  2
BLOCKS
  0
ENDSEC
  0
SECTION
  2
ENTITIES
  0
LINE
  8
0
 10
-11
 20
114
 11
-8
 21
114
  0
LINE
  8
0
 10
-8
 20
114
 11
-8
 21
106
  0
LINE
  8
0
 10
-8
 20
106
 11
8
 21
106
  0
LINE
  8
0
 10
8
 20
106
 11
8
 21
114
  0
LINE
  8
0
 10
8
 20
114
 11
11
 21
114
  0
LINE
  8
0
 10
11
 20
114
 11
11
 21
106
  0
LINE
  8
0
 10
11
 20
106
 11
14
 21
106
  0
LINE
  8
0
 10
14
 20
106
 11
14
 21
110
  0
LINE
  8
0
 10
14
 20
110
 11
12
 21
122
  0
LINE
  8
0
 10
12
 20
122
 11
6
 21
122
  0
LINE
  8
0
 10
6
 20
122
 11
6
 21
112
  0
LINE
  8
0
 10
6
 20
112
 11
4.39999
 21
112
  0
LINE
  8
0
 10
4.39999
 20
112
 11
4.39999
 21
122
  0
LINE
  8
0
 10
4.39999
 20
122
 11
-12
 21
122
  0
LINE
  8
0
 10
-12
 20
122
 11
-14
 21
110
  0
LINE
  8
0
 10
-14
 20
110
 11
-14
 21
106
  0
LINE
  8
0
 10
-14
 20
106
 11
-11
 21
106
  0
LINE
  8
0
 10
-11
 20
106
 11
-11
 21
114
  0
LINE
  8
0
 10
4.39999
 20
96
 11
6
 21
96
  0
LINE
  8
0
 10
6
 20
96
 11
6
 21
86
  0
LINE
  8
0
 10
6
 20
86
 11
12
 21
86
  0
LINE
  8
0
 10
12
 20
86
 11
14
 21
98
  0
LINE
  8
0
 10
14
 20
98
 11
14
 21
102
  0
LINE
  8
0
 10
14
 20
102
 11
11
 21
102
  0
LINE
  8
0
 10
11
 20
102
 11
11
 21
94
  0
LINE
  8
0
 10
11
 20
94
 11
8
 21
94
  0
LINE
  8
0
 10
8
 20
94
 11
8
 21
102
  0
LINE
  8
0
 10
8
 20
102
 11
-8
 21
102
  0
LINE
  8
0
 10
-8
 20
102
 11
-8
 21
94
  0
LINE
  8
0
 10
-8
 20
94
 11
-11
 21
94
  0
LINE
  8
0
 10
-11
 20
94
 11
-11
 21
102
  0
LINE
  8
0
 10
-11
 20
102
 11
-14
 21
102
  0
LINE
  8
0
 10
-14
 20
102
 11
-14
 21
98
  0
LINE
  8
0
 10
-14
 20
98
 11
-12
 21
86
  0
LINE
  8
0
 10
-12
 20
86
 11
4.39999
 21
86
  0
LINE
  8
0
 10
4.39999
 20
86
 11
4.39999
 21
96
  0
LINE
  8
0
 10
-4
 20
-71
 11
-2
 21
-71
  0
LINE
  8
0
 10
-2
 20
-71
 11
-2
 21
-67.5
  0
LINE
  8
0
 10
-2
 20
-67.5
 11
-4
 21
-67.5
  0
LINE
  8
0
 10
-4
 20
-67.5
 11
-4
 21
67.5
  0
LINE
  8
0
 10
-4
 20
67.5
 11
-2
 21
67.5
  0
LINE
  8
0
 10
-2
 20
67.5
 11
-2
 21
71
  0
LINE
  8
0
 10
-2
 20
71
 11
-4
 21
71
  0
LINE
  8
0
 10
-4
 20
71
 11
-4
 21
84
  0
LINE
  8
0
 10
-4
 20
84
 11
-8
 21
84
  0
LINE
  8
0
 10
-8
 20
84
 11
-20
 21
50
  0
LINE
  8
0
 10
-20
 20
50
 11
-20
 21
47.5
  0
LINE
  8
0
 10
-20
 20
47.5
 11
-12
 21
47.5
  0
LINE
  8
0
 10
-12
 20
47.5
 11
-12
 21
44.5
  0
LINE
  8
0
 10
-12
 20
44.5
 11
-20
 21
44.5
  0
LINE
  8
0
 10
-20
 20
44.5
 11
-20
 21
42.5
  0
LINE
  8
0
 10
-20
 20
42.5
 11
-8
 21
32.5
  0
LINE
  8
0
 10
-8
 20
32.5
 11
-8
 21
-32.5
  0
LINE
  8
0
 10
-8
 20
-32.5
 11
-20
 21
-42.5
  0
LINE
  8
0
 10
-20
 20
-42.5
 11
-20
 21
-44.5
  0
LINE
  8
0
 10
-20
 20
-44.5
 11
-12
 21
-44.5
  0
LINE
  8
0
 10
-12
 20
-44.5
 11
-12
 21
-47.5
  0
LINE
  8
0
 10
-12
 20
-47.5
 11
-20
 21
-47.5
  0
LINE
  8
0
 10
-20
 20
-47.5
 11
-20
 21
-50
  0
LINE
  8
0
 10
-20
 20
-50
 11
-8
 21
-84
  0
LINE
  8
0
 10
-8
 20
-84
 11
-4
 21
-84
  0
LINE
  8
0
 10
-4
 20
-84
 11
-4
 21
-71
  0
LINE
  8
0
 10
20
 20
-50
 11
20
 21
-47.5
  0
LINE
  8
0
 10
20
 20
-47.5
 11
12
 21
-47.5
  0
LINE
  8
0
 10
12
 20
-47.5
 11
12
 21
-44.5
  0
LINE
  8
0
 10
12
 20
-44.5
 11
20
 21
-44.5
  0
LINE
  8
0
 10
20
 20
-44.5
 11
20
 21
-42.5
  0
LINE
  8
0
 10
20
 20
-42.5
 11
8
 21
-32.5
  0
LINE
  8
0
 10
8
 20
-32.5
 11
8
 21
32.5
  0
LINE
  8
0
 10
8
 20
32.5
 11
20
 21
42.5
  0
LINE
  8
0
 10
20
 20
42.5
 11
20
 21
44.5
  0
LINE
  8
0
 10
20
 20
44.5
 11
12
 21
44.5
  0
LINE
  8
0
 10
12
 20
44.5
 11
12
 21
47.5
  0
LINE
  8
0
 10
12
 20
47.5
 11
20
 21
47.5
  0
LINE
  8
0
 10
20
 20
47.5
 11
20
 21
50
  0
LINE
  8
0
 10
20
 20
50
 11
8
 21
84
  0
LINE
  8
0
 10
8
 20
84
 11
4
 21
84
  0
LINE
  8
0
 10
4
 20
84
 11
4
 21
71
  0
LINE
  8
0
 10
4
 20
71
 11
2
 21
71
  0
LINE
  8
0
 10
2
 20
71
 11
2
 21
67.5
  0
LINE
  8
0
 10
2
 20
67.5
 11
4
 21
67.5
  0
LINE
  8
0
 10
4
 20
67.5
 11
4
 21
-67.5
  0
LINE
  8
0
 10
4
 20
-67.5
 11
2
 21
-67.5
  0
LINE
  8
0
 10
2
 20
-67.5
 11
2
 21
-71
  0
LINE
  8
0
 10
2
 20
-71
 11
4
 21
-71
  0
LINE
  8
0
 10
4
 20
-71
 11
4
 21
-84
  0
LINE
  8
0
 10
4
 20
-84
 11
8
 21
-84
  0
LINE
  8
0
 10
8
 20
-84
 11
20
 21
-50
  0
ENDSEC
  0
SECTION
  2
OBJECTS
  0
DICTIONARY
  0
ENDSEC
  0
EOF
