  0
SECTION
  2
BLOCKS
  0
ENDSEC
  0
SECTION
  2
ENTITIES
  0
LINE
  8
0
 10
14.5
 20
44.8
 11
-14.5
 21
44.8
  0
LINE
  8
0
 10
-14.5
 20
44.8
 11
-14.5
 21
-44.8
  0
LINE
  8
0
 10
-14.5
 20
-44.8
 11
14.5
 21
-44.8
  0
LINE
  8
0
 10
14.5
 20
-44.8
 11
14.5
 21
44.8
  0
LINE
  8
0
 10
-6.7
 20
37.5
 11
-6.59999
 21
42
  0
LINE
  8
0
 10
-6.59999
 20
42
 11
6.59999
 21
42
  0
LINE
  8
0
 10
6.59999
 20
42
 11
6.7
 21
37.5
  0
LINE
  8
0
 10
6.7
 20
37.5
 11
-6.7
 21
37.5
  0
LINE
  8
0
 10
8.11957
 20
27.0875
 11
7.75375
 21
27.1984
  0
LINE
  8
0
 10
7.75375
 20
27.1984
 11
7.41663
 21
27.3786
  0
LINE
  8
0
 10
7.41663
 20
27.3786
 11
7.12114
 21
27.6211
  0
LINE
  8
0
 10
7.12114
 20
27.6211
 11
6.87863
 21
27.9166
  0
LINE
  8
0
 10
6.87863
 20
27.9166
 11
6.69843
 21
28.2538
  0
LINE
  8
0
 10
6.69843
 20
28.2538
 11
6.58746
 21
28.6196
  0
LINE
  8
0
 10
6.58746
 20
28.6196
 11
6.54999
 21
29
  0
LINE
  8
0
 10
6.54999
 20
29
 11
6.58746
 21
29.3804
  0
LINE
  8
0
 10
6.58746
 20
29.3804
 11
6.69843
 21
29.7462
  0
LINE
  8
0
 10
6.69843
 20
29.7462
 11
6.87863
 21
30.0834
  0
LINE
  8
0
 10
6.87863
 20
30.0834
 11
7.12114
 21
30.3788
  0
LINE
  8
0
 10
7.12114
 20
30.3788
 11
7.41663
 21
30.6214
  0
LINE
  8
0
 10
7.41663
 20
30.6214
 11
7.75375
 21
30.8016
  0
LINE
  8
0
 10
7.75375
 20
30.8016
 11
8.11957
 21
30.9125
  0
LINE
  8
0
 10
8.11957
 20
30.9125
 11
8.5
 21
30.95
  0
LINE
  8
0
 10
8.5
 20
30.95
 11
8.88042
 21
30.9125
  0
LINE
  8
0
 10
8.88042
 20
30.9125
 11
9.24623
 21
30.8016
  0
LINE
  8
0
 10
9.24623
 20
30.8016
 11
9.58336
 21
30.6214
  0
LINE
  8
0
 10
9.58336
 20
30.6214
 11
9.87885
 21
30.3788
  0
LINE
  8
0
 10
9.87885
 20
30.3788
 11
10.1214
 21
30.0834
  0
LINE
  8
0
 10
10.1214
 20
30.0834
 11
10.3016
 21
29.7462
  0
LINE
  8
0
 10
10.3016
 20
29.7462
 11
10.4125
 21
29.3804
  0
LINE
  8
0
 10
10.4125
 20
29.3804
 11
10.45
 21
29
  0
LINE
  8
0
 10
10.45
 20
29
 11
10.4125
 21
28.6196
  0
LINE
  8
0
 10
10.4125
 20
28.6196
 11
10.3016
 21
28.2538
  0
LINE
  8
0
 10
10.3016
 20
28.2538
 11
10.1214
 21
27.9166
  0
LINE
  8
0
 10
10.1214
 20
27.9166
 11
9.87885
 21
27.6211
  0
LINE
  8
0
 10
9.87885
 20
27.6211
 11
9.58336
 21
27.3786
  0
LINE
  8
0
 10
9.58336
 20
27.3786
 11
9.24623
 21
27.1984
  0
LINE
  8
0
 10
9.24623
 20
27.1984
 11
8.88042
 21
27.0875
  0
LINE
  8
0
 10
8.88042
 20
27.0875
 11
8.5
 21
27.05
  0
LINE
  8
0
 10
8.5
 20
27.05
 11
8.11957
 21
27.0875
  0
LINE
  8
0
 10
-8.7847
 20
27.9375
 11
-9.04999
 21
28.0474
  0
LINE
  8
0
 10
-9.04999
 20
28.0474
 11
-9.27782
 21
28.2222
  0
LINE
  8
0
 10
-9.27782
 20
28.2222
 11
-9.45262
 21
28.45
  0
LINE
  8
0
 10
-9.45262
 20
28.45
 11
-9.56252
 21
28.7153
  0
LINE
  8
0
 10
-9.56252
 20
28.7153
 11
-9.59999
 21
29
  0
LINE
  8
0
 10
-9.59999
 20
29
 11
-9.56252
 21
29.2847
  0
LINE
  8
0
 10
-9.56252
 20
29.2847
 11
-9.45262
 21
29.55
  0
LINE
  8
0
 10
-9.45262
 20
29.55
 11
-9.27782
 21
29.7778
  0
LINE
  8
0
 10
-9.27782
 20
29.7778
 11
-9.04999
 21
29.9526
  0
LINE
  8
0
 10
-9.04999
 20
29.9526
 11
-8.7847
 21
30.0625
  0
LINE
  8
0
 10
-8.7847
 20
30.0625
 11
-8.5
 21
30.1
  0
LINE
  8
0
 10
-8.5
 20
30.1
 11
-8.21529
 21
30.0625
  0
LINE
  8
0
 10
-8.21529
 20
30.0625
 11
-7.95
 21
29.9526
  0
LINE
  8
0
 10
-7.95
 20
29.9526
 11
-7.72217
 21
29.7778
  0
LINE
  8
0
 10
-7.72217
 20
29.7778
 11
-7.54736
 21
29.55
  0
LINE
  8
0
 10
-7.54736
 20
29.55
 11
-7.43747
 21
29.2847
  0
LINE
  8
0
 10
-7.43747
 20
29.2847
 11
-7.39999
 21
29
  0
LINE
  8
0
 10
-7.39999
 20
29
 11
-7.43747
 21
28.7153
  0
LINE
  8
0
 10
-7.43747
 20
28.7153
 11
-7.54736
 21
28.45
  0
LINE
  8
0
 10
-7.54736
 20
28.45
 11
-7.72217
 21
28.2222
  0
LINE
  8
0
 10
-7.72217
 20
28.2222
 11
-7.95
 21
28.0474
  0
LINE
  8
0
 10
-7.95
 20
28.0474
 11
-8.21529
 21
27.9375
  0
LINE
  8
0
 10
-8.21529
 20
27.9375
 11
-8.5
 21
27.9
  0
LINE
  8
0
 10
-8.5
 20
27.9
 11
-8.7847
 21
27.9375
  0
LINE
  8
0
 10
-3.09999
 20
21.85
 11
-3
 21
26.7
  0
LINE
  8
0
 10
-3
 20
26.7
 11
3
 21
26.7
  0
LINE
  8
0
 10
3
 20
26.7
 11
3.09999
 21
21.85
  0
LINE
  8
0
 10
3.09999
 20
21.85
 11
-3.09999
 21
21.85
  0
LINE
  8
0
 10
-0.333771
 20
16.5376
 11
-0.650818
 21
16.6485
  0
LINE
  8
0
 10
-0.650818
 20
16.6485
 11
-0.935226
 21
16.8272
  0
LINE
  8
0
 10
-0.935226
 20
16.8272
 11
-1.17274
 21
17.0648
  0
LINE
  8
0
 10
-1.17274
 20
17.0648
 11
-1.35144
 21
17.3492
  0
LINE
  8
0
 10
-1.35144
 20
17.3492
 11
-1.46239
 21
17.6662
  0
LINE
  8
0
 10
-1.46239
 20
17.6662
 11
-1.5
 21
18
  0
LINE
  8
0
 10
-1.5
 20
18
 11
-1.46239
 21
18.3338
  0
LINE
  8
0
 10
-1.46239
 20
18.3338
 11
-1.35144
 21
18.6508
  0
LINE
  8
0
 10
-1.35144
 20
18.6508
 11
-1.17274
 21
18.9352
  0
LINE
  8
0
 10
-1.17274
 20
18.9352
 11
-0.935226
 21
19.1727
  0
LINE
  8
0
 10
-0.935226
 20
19.1727
 11
-0.650818
 21
19.3514
  0
LINE
  8
0
 10
-0.650818
 20
19.3514
 11
-0.333771
 21
19.4624
  0
LINE
  8
0
 10
-0.333771
 20
19.4624
 11
0
 21
19.5
  0
LINE
  8
0
 10
0
 20
19.5
 11
0.333771
 21
19.4624
  0
LINE
  8
0
 10
0.333771
 20
19.4624
 11
0.650818
 21
19.3514
  0
LINE
  8
0
 10
0.650818
 20
19.3514
 11
0.935226
 21
19.1727
  0
LINE
  8
0
 10
0.935226
 20
19.1727
 11
1.17274
 21
18.9352
  0
LINE
  8
0
 10
1.17274
 20
18.9352
 11
1.35144
 21
18.6508
  0
LINE
  8
0
 10
1.35144
 20
18.6508
 11
1.46239
 21
18.3338
  0
LINE
  8
0
 10
1.46239
 20
18.3338
 11
1.5
 21
18
  0
LINE
  8
0
 10
1.5
 20
18
 11
1.46239
 21
17.6662
  0
LINE
  8
0
 10
1.46239
 20
17.6662
 11
1.35144
 21
17.3492
  0
LINE
  8
0
 10
1.35144
 20
17.3492
 11
1.17274
 21
17.0648
  0
LINE
  8
0
 10
1.17274
 20
17.0648
 11
0.935226
 21
16.8272
  0
LINE
  8
0
 10
0.935226
 20
16.8272
 11
0.650818
 21
16.6485
  0
LINE
  8
0
 10
0.650818
 20
16.6485
 11
0.333771
 21
16.5376
  0
LINE
  8
0
 10
0.333771
 20
16.5376
 11
0
 21
16.5
  0
LINE
  8
0
 10
0
 20
16.5
 11
-0.333771
 21
16.5376
  0
LINE
  8
0
 10
-8.88042
 20
13.0875
 11
-9.24623
 21
13.1984
  0
LINE
  8
0
 10
-9.24623
 20
13.1984
 11
-9.58336
 21
13.3786
  0
LINE
  8
0
 10
-9.58336
 20
13.3786
 11
-9.87885
 21
13.6211
  0
LINE
  8
0
 10
-9.87885
 20
13.6211
 11
-10.1214
 21
13.9166
  0
LINE
  8
0
 10
-10.1214
 20
13.9166
 11
-10.3016
 21
14.2538
  0
LINE
  8
0
 10
-10.3016
 20
14.2538
 11
-10.4125
 21
14.6196
  0
LINE
  8
0
 10
-10.4125
 20
14.6196
 11
-10.45
 21
15
  0
LINE
  8
0
 10
-10.45
 20
15
 11
-10.4125
 21
15.3804
  0
LINE
  8
0
 10
-10.4125
 20
15.3804
 11
-10.3016
 21
15.7462
  0
LINE
  8
0
 10
-10.3016
 20
15.7462
 11
-10.1214
 21
16.0834
  0
LINE
  8
0
 10
-10.1214
 20
16.0834
 11
-9.87885
 21
16.3788
  0
LINE
  8
0
 10
-9.87885
 20
16.3788
 11
-9.58336
 21
16.6214
  0
LINE
  8
0
 10
-9.58336
 20
16.6214
 11
-9.24623
 21
16.8016
  0
LINE
  8
0
 10
-9.24623
 20
16.8016
 11
-8.88042
 21
16.9125
  0
LINE
  8
0
 10
-8.88042
 20
16.9125
 11
-8.5
 21
16.95
  0
LINE
  8
0
 10
-8.5
 20
16.95
 11
-8.11957
 21
16.9125
  0
LINE
  8
0
 10
-8.11957
 20
16.9125
 11
-7.75375
 21
16.8016
  0
LINE
  8
0
 10
-7.75375
 20
16.8016
 11
-7.41663
 21
16.6214
  0
LINE
  8
0
 10
-7.41663
 20
16.6214
 11
-7.12114
 21
16.3788
  0
LINE
  8
0
 10
-7.12114
 20
16.3788
 11
-6.87863
 21
16.0834
  0
LINE
  8
0
 10
-6.87863
 20
16.0834
 11
-6.69843
 21
15.7462
  0
LINE
  8
0
 10
-6.69843
 20
15.7462
 11
-6.58746
 21
15.3804
  0
LINE
  8
0
 10
-6.58746
 20
15.3804
 11
-6.54999
 21
15
  0
LINE
  8
0
 10
-6.54999
 20
15
 11
-6.58746
 21
14.6196
  0
LINE
  8
0
 10
-6.58746
 20
14.6196
 11
-6.69843
 21
14.2538
  0
LINE
  8
0
 10
-6.69843
 20
14.2538
 11
-6.87863
 21
13.9166
  0
LINE
  8
0
 10
-6.87863
 20
13.9166
 11
-7.12114
 21
13.6211
  0
LINE
  8
0
 10
-7.12114
 20
13.6211
 11
-7.41663
 21
13.3786
  0
LINE
  8
0
 10
-7.41663
 20
13.3786
 11
-7.75375
 21
13.1984
  0
LINE
  8
0
 10
-7.75375
 20
13.1984
 11
-8.11957
 21
13.0875
  0
LINE
  8
0
 10
-8.11957
 20
13.0875
 11
-8.5
 21
13.05
  0
LINE
  8
0
 10
-8.5
 20
13.05
 11
-8.88042
 21
13.0875
  0
LINE
  8
0
 10
8.21529
 20
13.9375
 11
7.95
 21
14.0474
  0
LINE
  8
0
 10
7.95
 20
14.0474
 11
7.72217
 21
14.2222
  0
LINE
  8
0
 10
7.72217
 20
14.2222
 11
7.54736
 21
14.45
  0
LINE
  8
0
 10
7.54736
 20
14.45
 11
7.43747
 21
14.7153
  0
LINE
  8
0
 10
7.43747
 20
14.7153
 11
7.39999
 21
15
  0
LINE
  8
0
 10
7.39999
 20
15
 11
7.43747
 21
15.2847
  0
LINE
  8
0
 10
7.43747
 20
15.2847
 11
7.54736
 21
15.55
  0
LINE
  8
0
 10
7.54736
 20
15.55
 11
7.72217
 21
15.7778
  0
LINE
  8
0
 10
7.72217
 20
15.7778
 11
7.95
 21
15.9526
  0
LINE
  8
0
 10
7.95
 20
15.9526
 11
8.21529
 21
16.0625
  0
LINE
  8
0
 10
8.21529
 20
16.0625
 11
8.5
 21
16.1
  0
LINE
  8
0
 10
8.5
 20
16.1
 11
8.7847
 21
16.0625
  0
LINE
  8
0
 10
8.7847
 20
16.0625
 11
9.04999
 21
15.9526
  0
LINE
  8
0
 10
9.04999
 20
15.9526
 11
9.27782
 21
15.7778
  0
LINE
  8
0
 10
9.27782
 20
15.7778
 11
9.45262
 21
15.55
  0
LINE
  8
0
 10
9.45262
 20
15.55
 11
9.56252
 21
15.2847
  0
LINE
  8
0
 10
9.56252
 20
15.2847
 11
9.59999
 21
15
  0
LINE
  8
0
 10
9.59999
 20
15
 11
9.56252
 21
14.7153
  0
LINE
  8
0
 10
9.56252
 20
14.7153
 11
9.45262
 21
14.45
  0
LINE
  8
0
 10
9.45262
 20
14.45
 11
9.27782
 21
14.2222
  0
LINE
  8
0
 10
9.27782
 20
14.2222
 11
9.04999
 21
14.0474
  0
LINE
  8
0
 10
9.04999
 20
14.0474
 11
8.7847
 21
13.9375
  0
LINE
  8
0
 10
8.7847
 20
13.9375
 11
8.5
 21
13.9
  0
LINE
  8
0
 10
8.5
 20
13.9
 11
8.21529
 21
13.9375
  0
LINE
  8
0
 10
-0.333771
 20
-1.46239
 11
-0.650818
 21
-1.35144
  0
LINE
  8
0
 10
-0.650818
 20
-1.35144
 11
-0.935226
 21
-1.17274
  0
LINE
  8
0
 10
-0.935226
 20
-1.17274
 11
-1.17274
 21
-0.935226
  0
LINE
  8
0
 10
-1.17274
 20
-0.935226
 11
-1.35144
 21
-0.650818
  0
LINE
  8
0
 10
-1.35144
 20
-0.650818
 11
-1.46239
 21
-0.333771
  0
LINE
  8
0
 10
-1.46239
 20
-0.333771
 11
-1.5
 21
0
  0
LINE
  8
0
 10
-1.5
 20
0
 11
-1.46239
 21
0.333771
  0
LINE
  8
0
 10
-1.46239
 20
0.333771
 11
-1.35144
 21
0.650818
  0
LINE
  8
0
 10
-1.35144
 20
0.650818
 11
-1.17274
 21
0.935226
  0
LINE
  8
0
 10
-1.17274
 20
0.935226
 11
-0.935226
 21
1.17274
  0
LINE
  8
0
 10
-0.935226
 20
1.17274
 11
-0.650818
 21
1.35144
  0
LINE
  8
0
 10
-0.650818
 20
1.35144
 11
-0.333771
 21
1.46239
  0
LINE
  8
0
 10
-0.333771
 20
1.46239
 11
0
 21
1.5
  0
LINE
  8
0
 10
0
 20
1.5
 11
0.333771
 21
1.46239
  0
LINE
  8
0
 10
0.333771
 20
1.46239
 11
0.650818
 21
1.35144
  0
LINE
  8
0
 10
0.650818
 20
1.35144
 11
0.935226
 21
1.17274
  0
LINE
  8
0
 10
0.935226
 20
1.17274
 11
1.17274
 21
0.935226
  0
LINE
  8
0
 10
1.17274
 20
0.935226
 11
1.35144
 21
0.650818
  0
LINE
  8
0
 10
1.35144
 20
0.650818
 11
1.46239
 21
0.333771
  0
LINE
  8
0
 10
1.46239
 20
0.333771
 11
1.5
 21
0
  0
LINE
  8
0
 10
1.5
 20
0
 11
1.46239
 21
-0.333771
  0
LINE
  8
0
 10
1.46239
 20
-0.333771
 11
1.35144
 21
-0.650818
  0
LINE
  8
0
 10
1.35144
 20
-0.650818
 11
1.17274
 21
-0.935226
  0
LINE
  8
0
 10
1.17274
 20
-0.935226
 11
0.935226
 21
-1.17274
  0
LINE
  8
0
 10
0.935226
 20
-1.17274
 11
0.650818
 21
-1.35144
  0
LINE
  8
0
 10
0.650818
 20
-1.35144
 11
0.333771
 21
-1.46239
  0
LINE
  8
0
 10
0.333771
 20
-1.46239
 11
0
 21
-1.5
  0
LINE
  8
0
 10
0
 20
-1.5
 11
-0.333771
 21
-1.46239
  0
LINE
  8
0
 10
-6.82484
 20
-1.17874
 11
-7.11093
 21
-1.08578
  0
LINE
  8
0
 10
-7.11093
 20
-1.08578
 11
-7.3649
 21
-0.924606
  0
LINE
  8
0
 10
-7.3649
 20
-0.924606
 11
-7.57082
 21
-0.705338
  0
LINE
  8
0
 10
-7.57082
 20
-0.705338
 11
-7.71573
 21
-0.441742
  0
LINE
  8
0
 10
-7.71573
 20
-0.441742
 11
-7.79053
 21
-0.150391
  0
LINE
  8
0
 10
-7.79053
 20
-0.150391
 11
-7.79053
 21
0.150391
  0
LINE
  8
0
 10
-7.79053
 20
0.150391
 11
-7.71573
 21
0.441742
  0
LINE
  8
0
 10
-7.71573
 20
0.441742
 11
-7.57082
 21
0.705338
  0
LINE
  8
0
 10
-7.57082
 20
0.705338
 11
-7.3649
 21
0.924606
  0
LINE
  8
0
 10
-7.3649
 20
0.924606
 11
-7.11093
 21
1.08578
  0
LINE
  8
0
 10
-7.11093
 20
1.08578
 11
-6.82484
 21
1.17874
  0
LINE
  8
0
 10
-6.82484
 20
1.17874
 11
-6.52464
 21
1.19763
  0
LINE
  8
0
 10
-6.52464
 20
1.19763
 11
-6.22917
 21
1.14127
  0
LINE
  8
0
 10
-6.22917
 20
1.14127
 11
-5.957
 21
1.01318
  0
LINE
  8
0
 10
-5.957
 20
1.01318
 11
-5.72523
 21
0.821442
  0
LINE
  8
0
 10
-5.72523
 20
0.821442
 11
-5.54843
 21
0.578094
  0
LINE
  8
0
 10
-5.54843
 20
0.578094
 11
-5.4377
 21
0.298416
  0
LINE
  8
0
 10
-5.4377
 20
0.298416
 11
-5.39999
 21
0
  0
LINE
  8
0
 10
-5.39999
 20
0
 11
-5.4377
 21
-0.298416
  0
LINE
  8
0
 10
-5.4377
 20
-0.298416
 11
-5.54843
 21
-0.578094
  0
LINE
  8
0
 10
-5.54843
 20
-0.578094
 11
-5.72523
 21
-0.821442
  0
LINE
  8
0
 10
-5.72523
 20
-0.821442
 11
-5.957
 21
-1.01318
  0
LINE
  8
0
 10
-5.957
 20
-1.01318
 11
-6.22917
 21
-1.14127
  0
LINE
  8
0
 10
-6.22917
 20
-1.14127
 11
-6.52464
 21
-1.19763
  0
LINE
  8
0
 10
-6.52464
 20
-1.19763
 11
-6.82484
 21
-1.17874
  0
LINE
  8
0
 10
6.37514
 20
-1.17874
 11
6.08905
 21
-1.08578
  0
LINE
  8
0
 10
6.08905
 20
-1.08578
 11
5.83508
 21
-0.924606
  0
LINE
  8
0
 10
5.83508
 20
-0.924606
 11
5.62917
 21
-0.705338
  0
LINE
  8
0
 10
5.62917
 20
-0.705338
 11
5.48427
 21
-0.441742
  0
LINE
  8
0
 10
5.48427
 20
-0.441742
 11
5.40945
 21
-0.150391
  0
LINE
  8
0
 10
5.40945
 20
-0.150391
 11
5.40945
 21
0.150391
  0
LINE
  8
0
 10
5.40945
 20
0.150391
 11
5.48427
 21
0.441742
  0
LINE
  8
0
 10
5.48427
 20
0.441742
 11
5.62917
 21
0.705338
  0
LINE
  8
0
 10
5.62917
 20
0.705338
 11
5.83508
 21
0.924606
  0
LINE
  8
0
 10
5.83508
 20
0.924606
 11
6.08905
 21
1.08578
  0
LINE
  8
0
 10
6.08905
 20
1.08578
 11
6.37514
 21
1.17874
  0
LINE
  8
0
 10
6.37514
 20
1.17874
 11
6.67534
 21
1.19763
  0
LINE
  8
0
 10
6.67534
 20
1.19763
 11
6.97081
 21
1.14127
  0
LINE
  8
0
 10
6.97081
 20
1.14127
 11
7.24298
 21
1.01318
  0
LINE
  8
0
 10
7.24298
 20
1.01318
 11
7.47476
 21
0.821442
  0
LINE
  8
0
 10
7.47476
 20
0.821442
 11
7.65157
 21
0.578094
  0
LINE
  8
0
 10
7.65157
 20
0.578094
 11
7.7623
 21
0.298416
  0
LINE
  8
0
 10
7.7623
 20
0.298416
 11
7.79999
 21
0
  0
LINE
  8
0
 10
7.79999
 20
0
 11
7.7623
 21
-0.298416
  0
LINE
  8
0
 10
7.7623
 20
-0.298416
 11
7.65157
 21
-0.578094
  0
LINE
  8
0
 10
7.65157
 20
-0.578094
 11
7.47476
 21
-0.821442
  0
LINE
  8
0
 10
7.47476
 20
-0.821442
 11
7.24298
 21
-1.01318
  0
LINE
  8
0
 10
7.24298
 20
-1.01318
 11
6.97081
 21
-1.14127
  0
LINE
  8
0
 10
6.97081
 20
-1.14127
 11
6.67534
 21
-1.19763
  0
LINE
  8
0
 10
6.67534
 20
-1.19763
 11
6.37514
 21
-1.17874
  0
LINE
  8
0
 10
8.11957
 20
-16.9125
 11
7.75375
 21
-16.8016
  0
LINE
  8
0
 10
7.75375
 20
-16.8016
 11
7.41663
 21
-16.6214
  0
LINE
  8
0
 10
7.41663
 20
-16.6214
 11
7.12114
 21
-16.3788
  0
LINE
  8
0
 10
7.12114
 20
-16.3788
 11
6.87863
 21
-16.0834
  0
LINE
  8
0
 10
6.87863
 20
-16.0834
 11
6.69843
 21
-15.7462
  0
LINE
  8
0
 10
6.69843
 20
-15.7462
 11
6.58746
 21
-15.3804
  0
LINE
  8
0
 10
6.58746
 20
-15.3804
 11
6.54999
 21
-15
  0
LINE
  8
0
 10
6.54999
 20
-15
 11
6.58746
 21
-14.6196
  0
LINE
  8
0
 10
6.58746
 20
-14.6196
 11
6.69843
 21
-14.2538
  0
LINE
  8
0
 10
6.69843
 20
-14.2538
 11
6.87863
 21
-13.9166
  0
LINE
  8
0
 10
6.87863
 20
-13.9166
 11
7.12114
 21
-13.6211
  0
LINE
  8
0
 10
7.12114
 20
-13.6211
 11
7.41663
 21
-13.3786
  0
LINE
  8
0
 10
7.41663
 20
-13.3786
 11
7.75375
 21
-13.1984
  0
LINE
  8
0
 10
7.75375
 20
-13.1984
 11
8.11957
 21
-13.0875
  0
LINE
  8
0
 10
8.11957
 20
-13.0875
 11
8.5
 21
-13.05
  0
LINE
  8
0
 10
8.5
 20
-13.05
 11
8.88042
 21
-13.0875
  0
LINE
  8
0
 10
8.88042
 20
-13.0875
 11
9.24623
 21
-13.1984
  0
LINE
  8
0
 10
9.24623
 20
-13.1984
 11
9.58336
 21
-13.3786
  0
LINE
  8
0
 10
9.58336
 20
-13.3786
 11
9.87885
 21
-13.6211
  0
LINE
  8
0
 10
9.87885
 20
-13.6211
 11
10.1214
 21
-13.9166
  0
LINE
  8
0
 10
10.1214
 20
-13.9166
 11
10.3016
 21
-14.2538
  0
LINE
  8
0
 10
10.3016
 20
-14.2538
 11
10.4125
 21
-14.6196
  0
LINE
  8
0
 10
10.4125
 20
-14.6196
 11
10.45
 21
-15
  0
LINE
  8
0
 10
10.45
 20
-15
 11
10.4125
 21
-15.3804
  0
LINE
  8
0
 10
10.4125
 20
-15.3804
 11
10.3016
 21
-15.7462
  0
LINE
  8
0
 10
10.3016
 20
-15.7462
 11
10.1214
 21
-16.0834
  0
LINE
  8
0
 10
10.1214
 20
-16.0834
 11
9.87885
 21
-16.3788
  0
LINE
  8
0
 10
9.87885
 20
-16.3788
 11
9.58336
 21
-16.6214
  0
LINE
  8
0
 10
9.58336
 20
-16.6214
 11
9.24623
 21
-16.8016
  0
LINE
  8
0
 10
9.24623
 20
-16.8016
 11
8.88042
 21
-16.9125
  0
LINE
  8
0
 10
8.88042
 20
-16.9125
 11
8.5
 21
-16.95
  0
LINE
  8
0
 10
8.5
 20
-16.95
 11
8.11957
 21
-16.9125
  0
LINE
  8
0
 10
-8.7847
 20
-16.0625
 11
-9.04999
 21
-15.9526
  0
LINE
  8
0
 10
-9.04999
 20
-15.9526
 11
-9.27782
 21
-15.7778
  0
LINE
  8
0
 10
-9.27782
 20
-15.7778
 11
-9.45262
 21
-15.55
  0
LINE
  8
0
 10
-9.45262
 20
-15.55
 11
-9.56252
 21
-15.2847
  0
LINE
  8
0
 10
-9.56252
 20
-15.2847
 11
-9.59999
 21
-15
  0
LINE
  8
0
 10
-9.59999
 20
-15
 11
-9.56252
 21
-14.7153
  0
LINE
  8
0
 10
-9.56252
 20
-14.7153
 11
-9.45262
 21
-14.45
  0
LINE
  8
0
 10
-9.45262
 20
-14.45
 11
-9.27782
 21
-14.2222
  0
LINE
  8
0
 10
-9.27782
 20
-14.2222
 11
-9.04999
 21
-14.0474
  0
LINE
  8
0
 10
-9.04999
 20
-14.0474
 11
-8.7847
 21
-13.9375
  0
LINE
  8
0
 10
-8.7847
 20
-13.9375
 11
-8.5
 21
-13.9
  0
LINE
  8
0
 10
-8.5
 20
-13.9
 11
-8.21529
 21
-13.9375
  0
LINE
  8
0
 10
-8.21529
 20
-13.9375
 11
-7.95
 21
-14.0474
  0
LINE
  8
0
 10
-7.95
 20
-14.0474
 11
-7.72217
 21
-14.2222
  0
LINE
  8
0
 10
-7.72217
 20
-14.2222
 11
-7.54736
 21
-14.45
  0
LINE
  8
0
 10
-7.54736
 20
-14.45
 11
-7.43747
 21
-14.7153
  0
LINE
  8
0
 10
-7.43747
 20
-14.7153
 11
-7.39999
 21
-15
  0
LINE
  8
0
 10
-7.39999
 20
-15
 11
-7.43747
 21
-15.2847
  0
LINE
  8
0
 10
-7.43747
 20
-15.2847
 11
-7.54736
 21
-15.55
  0
LINE
  8
0
 10
-7.54736
 20
-15.55
 11
-7.72217
 21
-15.7778
  0
LINE
  8
0
 10
-7.72217
 20
-15.7778
 11
-7.95
 21
-15.9526
  0
LINE
  8
0
 10
-7.95
 20
-15.9526
 11
-8.21529
 21
-16.0625
  0
LINE
  8
0
 10
-8.21529
 20
-16.0625
 11
-8.5
 21
-16.1
  0
LINE
  8
0
 10
-8.5
 20
-16.1
 11
-8.7847
 21
-16.0625
  0
LINE
  8
0
 10
-0.333771
 20
-19.4624
 11
-0.650818
 21
-19.3514
  0
LINE
  8
0
 10
-0.650818
 20
-19.3514
 11
-0.935226
 21
-19.1727
  0
LINE
  8
0
 10
-0.935226
 20
-19.1727
 11
-1.17274
 21
-18.9352
  0
LINE
  8
0
 10
-1.17274
 20
-18.9352
 11
-1.35144
 21
-18.6508
  0
LINE
  8
0
 10
-1.35144
 20
-18.6508
 11
-1.46239
 21
-18.3338
  0
LINE
  8
0
 10
-1.46239
 20
-18.3338
 11
-1.5
 21
-18
  0
LINE
  8
0
 10
-1.5
 20
-18
 11
-1.46239
 21
-17.6662
  0
LINE
  8
0
 10
-1.46239
 20
-17.6662
 11
-1.35144
 21
-17.3492
  0
LINE
  8
0
 10
-1.35144
 20
-17.3492
 11
-1.17274
 21
-17.0648
  0
LINE
  8
0
 10
-1.17274
 20
-17.0648
 11
-0.935226
 21
-16.8272
  0
LINE
  8
0
 10
-0.935226
 20
-16.8272
 11
-0.650818
 21
-16.6485
  0
LINE
  8
0
 10
-0.650818
 20
-16.6485
 11
-0.333771
 21
-16.5376
  0
LINE
  8
0
 10
-0.333771
 20
-16.5376
 11
0
 21
-16.5
  0
LINE
  8
0
 10
0
 20
-16.5
 11
0.333771
 21
-16.5376
  0
LINE
  8
0
 10
0.333771
 20
-16.5376
 11
0.650818
 21
-16.6485
  0
LINE
  8
0
 10
0.650818
 20
-16.6485
 11
0.935226
 21
-16.8272
  0
LINE
  8
0
 10
0.935226
 20
-16.8272
 11
1.17274
 21
-17.0648
  0
LINE
  8
0
 10
1.17274
 20
-17.0648
 11
1.35144
 21
-17.3492
  0
LINE
  8
0
 10
1.35144
 20
-17.3492
 11
1.46239
 21
-17.6662
  0
LINE
  8
0
 10
1.46239
 20
-17.6662
 11
1.5
 21
-18
  0
LINE
  8
0
 10
1.5
 20
-18
 11
1.46239
 21
-18.3338
  0
LINE
  8
0
 10
1.46239
 20
-18.3338
 11
1.35144
 21
-18.6508
  0
LINE
  8
0
 10
1.35144
 20
-18.6508
 11
1.17274
 21
-18.9352
  0
LINE
  8
0
 10
1.17274
 20
-18.9352
 11
0.935226
 21
-19.1727
  0
LINE
  8
0
 10
0.935226
 20
-19.1727
 11
0.650818
 21
-19.3514
  0
LINE
  8
0
 10
0.650818
 20
-19.3514
 11
0.333771
 21
-19.4624
  0
LINE
  8
0
 10
0.333771
 20
-19.4624
 11
0
 21
-19.5
  0
LINE
  8
0
 10
0
 20
-19.5
 11
-0.333771
 21
-19.4624
  0
LINE
  8
0
 10
-3
 20
-26.7
 11
-3.09999
 21
-21.85
  0
LINE
  8
0
 10
-3.09999
 20
-21.85
 11
3.09999
 21
-21.85
  0
LINE
  8
0
 10
3.09999
 20
-21.85
 11
3
 21
-26.7
  0
LINE
  8
0
 10
3
 20
-26.7
 11
-3
 21
-26.7
  0
LINE
  8
0
 10
-8.88042
 20
-30.9125
 11
-9.24623
 21
-30.8016
  0
LINE
  8
0
 10
-9.24623
 20
-30.8016
 11
-9.58336
 21
-30.6214
  0
LINE
  8
0
 10
-9.58336
 20
-30.6214
 11
-9.87885
 21
-30.3788
  0
LINE
  8
0
 10
-9.87885
 20
-30.3788
 11
-10.1214
 21
-30.0834
  0
LINE
  8
0
 10
-10.1214
 20
-30.0834
 11
-10.3016
 21
-29.7462
  0
LINE
  8
0
 10
-10.3016
 20
-29.7462
 11
-10.4125
 21
-29.3804
  0
LINE
  8
0
 10
-10.4125
 20
-29.3804
 11
-10.45
 21
-29
  0
LINE
  8
0
 10
-10.45
 20
-29
 11
-10.4125
 21
-28.6196
  0
LINE
  8
0
 10
-10.4125
 20
-28.6196
 11
-10.3016
 21
-28.2538
  0
LINE
  8
0
 10
-10.3016
 20
-28.2538
 11
-10.1214
 21
-27.9166
  0
LINE
  8
0
 10
-10.1214
 20
-27.9166
 11
-9.87885
 21
-27.6211
  0
LINE
  8
0
 10
-9.87885
 20
-27.6211
 11
-9.58336
 21
-27.3786
  0
LINE
  8
0
 10
-9.58336
 20
-27.3786
 11
-9.24623
 21
-27.1984
  0
LINE
  8
0
 10
-9.24623
 20
-27.1984
 11
-8.88042
 21
-27.0875
  0
LINE
  8
0
 10
-8.88042
 20
-27.0875
 11
-8.5
 21
-27.05
  0
LINE
  8
0
 10
-8.5
 20
-27.05
 11
-8.11957
 21
-27.0875
  0
LINE
  8
0
 10
-8.11957
 20
-27.0875
 11
-7.75375
 21
-27.1984
  0
LINE
  8
0
 10
-7.75375
 20
-27.1984
 11
-7.41663
 21
-27.3786
  0
LINE
  8
0
 10
-7.41663
 20
-27.3786
 11
-7.12114
 21
-27.6211
  0
LINE
  8
0
 10
-7.12114
 20
-27.6211
 11
-6.87863
 21
-27.9166
  0
LINE
  8
0
 10
-6.87863
 20
-27.9166
 11
-6.69843
 21
-28.2538
  0
LINE
  8
0
 10
-6.69843
 20
-28.2538
 11
-6.58746
 21
-28.6196
  0
LINE
  8
0
 10
-6.58746
 20
-28.6196
 11
-6.54999
 21
-29
  0
LINE
  8
0
 10
-6.54999
 20
-29
 11
-6.58746
 21
-29.3804
  0
LINE
  8
0
 10
-6.58746
 20
-29.3804
 11
-6.69843
 21
-29.7462
  0
LINE
  8
0
 10
-6.69843
 20
-29.7462
 11
-6.87863
 21
-30.0834
  0
LINE
  8
0
 10
-6.87863
 20
-30.0834
 11
-7.12114
 21
-30.3788
  0
LINE
  8
0
 10
-7.12114
 20
-30.3788
 11
-7.41663
 21
-30.6214
  0
LINE
  8
0
 10
-7.41663
 20
-30.6214
 11
-7.75375
 21
-30.8016
  0
LINE
  8
0
 10
-7.75375
 20
-30.8016
 11
-8.11957
 21
-30.9125
  0
LINE
  8
0
 10
-8.11957
 20
-30.9125
 11
-8.5
 21
-30.95
  0
LINE
  8
0
 10
-8.5
 20
-30.95
 11
-8.88042
 21
-30.9125
  0
LINE
  8
0
 10
8.21529
 20
-30.0625
 11
7.95
 21
-29.9526
  0
LINE
  8
0
 10
7.95
 20
-29.9526
 11
7.72217
 21
-29.7778
  0
LINE
  8
0
 10
7.72217
 20
-29.7778
 11
7.54736
 21
-29.55
  0
LINE
  8
0
 10
7.54736
 20
-29.55
 11
7.43747
 21
-29.2847
  0
LINE
  8
0
 10
7.43747
 20
-29.2847
 11
7.39999
 21
-29
  0
LINE
  8
0
 10
7.39999
 20
-29
 11
7.43747
 21
-28.7153
  0
LINE
  8
0
 10
7.43747
 20
-28.7153
 11
7.54736
 21
-28.45
  0
LINE
  8
0
 10
7.54736
 20
-28.45
 11
7.72217
 21
-28.2222
  0
LINE
  8
0
 10
7.72217
 20
-28.2222
 11
7.95
 21
-28.0474
  0
LINE
  8
0
 10
7.95
 20
-28.0474
 11
8.21529
 21
-27.9375
  0
LINE
  8
0
 10
8.21529
 20
-27.9375
 11
8.5
 21
-27.9
  0
LINE
  8
0
 10
8.5
 20
-27.9
 11
8.7847
 21
-27.9375
  0
LINE
  8
0
 10
8.7847
 20
-27.9375
 11
9.04999
 21
-28.0474
  0
LINE
  8
0
 10
9.04999
 20
-28.0474
 11
9.27782
 21
-28.2222
  0
LINE
  8
0
 10
9.27782
 20
-28.2222
 11
9.45262
 21
-28.45
  0
LINE
  8
0
 10
9.45262
 20
-28.45
 11
9.56252
 21
-28.7153
  0
LINE
  8
0
 10
9.56252
 20
-28.7153
 11
9.59999
 21
-29
  0
LINE
  8
0
 10
9.59999
 20
-29
 11
9.56252
 21
-29.2847
  0
LINE
  8
0
 10
9.56252
 20
-29.2847
 11
9.45262
 21
-29.55
  0
LINE
  8
0
 10
9.45262
 20
-29.55
 11
9.27782
 21
-29.7778
  0
LINE
  8
0
 10
9.27782
 20
-29.7778
 11
9.04999
 21
-29.9526
  0
LINE
  8
0
 10
9.04999
 20
-29.9526
 11
8.7847
 21
-30.0625
  0
LINE
  8
0
 10
8.7847
 20
-30.0625
 11
8.5
 21
-30.1
  0
LINE
  8
0
 10
8.5
 20
-30.1
 11
8.21529
 21
-30.0625
  0
LINE
  8
0
 10
-6.59999
 20
-42
 11
-6.7
 21
-37.5
  0
LINE
  8
0
 10
-6.7
 20
-37.5
 11
6.7
 21
-37.5
  0
LINE
  8
0
 10
6.7
 20
-37.5
 11
6.59999
 21
-42
  0
LINE
  8
0
 10
6.59999
 20
-42
 11
-6.59999
 21
-42
  0
ENDSEC
  0
SECTION
  2
OBJECTS
  0
DICTIONARY
  0
ENDSEC
  0
EOF
