  0
SECTION
  2
BLOCKS
  0
ENDSEC
  0
SECTION
  2
ENTITIES
  0
LINE
  8
0
 10
14.95
 20
84.1
 11
-14.95
 21
84.1
  0
LINE
  8
0
 10
-14.95
 20
84.1
 11
-14.95
 21
-84.1
  0
LINE
  8
0
 10
-14.95
 20
-84.1
 11
14.95
 21
-84.1
  0
LINE
  8
0
 10
14.95
 20
-84.1
 11
14.95
 21
84.1
  0
LINE
  8
0
 10
-9.68292
 20
67.5096
 11
-10.0408
 21
67.5856
  0
LINE
  8
0
 10
-10.0408
 20
67.5856
 11
-10.375
 21
67.7345
  0
LINE
  8
0
 10
-10.375
 20
67.7345
 11
-10.671
 21
67.9495
  0
LINE
  8
0
 10
-10.671
 20
67.9495
 11
-10.9158
 21
68.2214
  0
LINE
  8
0
 10
-10.9158
 20
68.2214
 11
-11.0987
 21
68.5382
  0
LINE
  8
0
 10
-11.0987
 20
68.5382
 11
-11.2117
 21
68.8862
  0
LINE
  8
0
 10
-11.2117
 20
68.8862
 11
-11.25
 21
69.25
  0
LINE
  8
0
 10
-11.25
 20
69.25
 11
-11.2117
 21
69.6138
  0
LINE
  8
0
 10
-11.2117
 20
69.6138
 11
-11.0987
 21
69.9618
  0
LINE
  8
0
 10
-11.0987
 20
69.9618
 11
-10.9158
 21
70.2786
  0
LINE
  8
0
 10
-10.9158
 20
70.2786
 11
-10.671
 21
70.5505
  0
LINE
  8
0
 10
-10.671
 20
70.5505
 11
-10.375
 21
70.7655
  0
LINE
  8
0
 10
-10.375
 20
70.7655
 11
-10.0408
 21
70.9144
  0
LINE
  8
0
 10
-10.0408
 20
70.9144
 11
-9.68292
 21
70.9904
  0
LINE
  8
0
 10
-9.68292
 20
70.9904
 11
-9.31706
 21
70.9904
  0
LINE
  8
0
 10
-9.31706
 20
70.9904
 11
-8.95921
 21
70.9144
  0
LINE
  8
0
 10
-8.95921
 20
70.9144
 11
-8.625
 21
70.7655
  0
LINE
  8
0
 10
-8.625
 20
70.7655
 11
-8.32901
 21
70.5505
  0
LINE
  8
0
 10
-8.32901
 20
70.5505
 11
-8.08421
 21
70.2786
  0
LINE
  8
0
 10
-8.08421
 20
70.2786
 11
-7.90129
 21
69.9618
  0
LINE
  8
0
 10
-7.90129
 20
69.9618
 11
-7.78824
 21
69.6138
  0
LINE
  8
0
 10
-7.78824
 20
69.6138
 11
-7.75
 21
69.25
  0
LINE
  8
0
 10
-7.75
 20
69.25
 11
-7.78824
 21
68.8862
  0
LINE
  8
0
 10
-7.78824
 20
68.8862
 11
-7.90129
 21
68.5382
  0
LINE
  8
0
 10
-7.90129
 20
68.5382
 11
-8.08421
 21
68.2214
  0
LINE
  8
0
 10
-8.08421
 20
68.2214
 11
-8.32901
 21
67.9495
  0
LINE
  8
0
 10
-8.32901
 20
67.9495
 11
-8.625
 21
67.7345
  0
LINE
  8
0
 10
-8.625
 20
67.7345
 11
-8.95921
 21
67.5856
  0
LINE
  8
0
 10
-8.95921
 20
67.5856
 11
-9.31706
 21
67.5096
  0
LINE
  8
0
 10
-9.31706
 20
67.5096
 11
-9.68292
 21
67.5096
  0
LINE
  8
0
 10
9.31706
 20
67.5096
 11
8.95921
 21
67.5856
  0
LINE
  8
0
 10
8.95921
 20
67.5856
 11
8.625
 21
67.7345
  0
LINE
  8
0
 10
8.625
 20
67.7345
 11
8.32901
 21
67.9495
  0
LINE
  8
0
 10
8.32901
 20
67.9495
 11
8.08421
 21
68.2214
  0
LINE
  8
0
 10
8.08421
 20
68.2214
 11
7.90129
 21
68.5382
  0
LINE
  8
0
 10
7.90129
 20
68.5382
 11
7.78824
 21
68.8862
  0
LINE
  8
0
 10
7.78824
 20
68.8862
 11
7.75
 21
69.25
  0
LINE
  8
0
 10
7.75
 20
69.25
 11
7.78824
 21
69.6138
  0
LINE
  8
0
 10
7.78824
 20
69.6138
 11
7.90129
 21
69.9618
  0
LINE
  8
0
 10
7.90129
 20
69.9618
 11
8.08421
 21
70.2786
  0
LINE
  8
0
 10
8.08421
 20
70.2786
 11
8.32901
 21
70.5505
  0
LINE
  8
0
 10
8.32901
 20
70.5505
 11
8.625
 21
70.7655
  0
LINE
  8
0
 10
8.625
 20
70.7655
 11
8.95921
 21
70.9144
  0
LINE
  8
0
 10
8.95921
 20
70.9144
 11
9.31706
 21
70.9904
  0
LINE
  8
0
 10
9.31706
 20
70.9904
 11
9.68292
 21
70.9904
  0
LINE
  8
0
 10
9.68292
 20
70.9904
 11
10.0408
 21
70.9144
  0
LINE
  8
0
 10
10.0408
 20
70.9144
 11
10.375
 21
70.7655
  0
LINE
  8
0
 10
10.375
 20
70.7655
 11
10.671
 21
70.5505
  0
LINE
  8
0
 10
10.671
 20
70.5505
 11
10.9158
 21
70.2786
  0
LINE
  8
0
 10
10.9158
 20
70.2786
 11
11.0987
 21
69.9618
  0
LINE
  8
0
 10
11.0987
 20
69.9618
 11
11.2117
 21
69.6138
  0
LINE
  8
0
 10
11.2117
 20
69.6138
 11
11.25
 21
69.25
  0
LINE
  8
0
 10
11.25
 20
69.25
 11
11.2117
 21
68.8862
  0
LINE
  8
0
 10
11.2117
 20
68.8862
 11
11.0987
 21
68.5382
  0
LINE
  8
0
 10
11.0987
 20
68.5382
 11
10.9158
 21
68.2214
  0
LINE
  8
0
 10
10.9158
 20
68.2214
 11
10.671
 21
67.9495
  0
LINE
  8
0
 10
10.671
 20
67.9495
 11
10.375
 21
67.7345
  0
LINE
  8
0
 10
10.375
 20
67.7345
 11
10.0408
 21
67.5856
  0
LINE
  8
0
 10
10.0408
 20
67.5856
 11
9.68292
 21
67.5096
  0
LINE
  8
0
 10
9.68292
 20
67.5096
 11
9.31706
 21
67.5096
  0
LINE
  8
0
 10
7.31706
 20
2.25958
 11
6.95921
 21
2.33565
  0
LINE
  8
0
 10
6.95921
 20
2.33565
 11
6.625
 21
2.48445
  0
LINE
  8
0
 10
6.625
 20
2.48445
 11
6.32901
 21
2.69949
  0
LINE
  8
0
 10
6.32901
 20
2.69949
 11
6.08421
 21
2.97137
  0
LINE
  8
0
 10
6.08421
 20
2.97137
 11
5.90129
 21
3.28821
  0
LINE
  8
0
 10
5.90129
 20
3.28821
 11
5.78824
 21
3.63615
  0
LINE
  8
0
 10
5.78824
 20
3.63615
 11
5.75
 21
4
  0
LINE
  8
0
 10
5.75
 20
4
 11
5.78824
 21
4.36383
  0
LINE
  8
0
 10
5.78824
 20
4.36383
 11
5.90129
 21
4.71178
  0
LINE
  8
0
 10
5.90129
 20
4.71178
 11
6.08421
 21
5.02861
  0
LINE
  8
0
 10
6.08421
 20
5.02861
 11
6.32901
 21
5.30049
  0
LINE
  8
0
 10
6.32901
 20
5.30049
 11
6.625
 21
5.51553
  0
LINE
  8
0
 10
6.625
 20
5.51553
 11
6.95921
 21
5.66434
  0
LINE
  8
0
 10
6.95921
 20
5.66434
 11
7.31706
 21
5.7404
  0
LINE
  8
0
 10
7.31706
 20
5.7404
 11
7.68292
 21
5.7404
  0
LINE
  8
0
 10
7.68292
 20
5.7404
 11
8.04077
 21
5.66434
  0
LINE
  8
0
 10
8.04077
 20
5.66434
 11
8.375
 21
5.51553
  0
LINE
  8
0
 10
8.375
 20
5.51553
 11
8.67097
 21
5.30049
  0
LINE
  8
0
 10
8.67097
 20
5.30049
 11
8.91577
 21
5.02861
  0
LINE
  8
0
 10
8.91577
 20
5.02861
 11
9.09869
 21
4.71178
  0
LINE
  8
0
 10
9.09869
 20
4.71178
 11
9.21175
 21
4.36383
  0
LINE
  8
0
 10
9.21175
 20
4.36383
 11
9.25
 21
4
  0
LINE
  8
0
 10
9.25
 20
4
 11
9.21175
 21
3.63615
  0
LINE
  8
0
 10
9.21175
 20
3.63615
 11
9.09869
 21
3.28821
  0
LINE
  8
0
 10
9.09869
 20
3.28821
 11
8.91577
 21
2.97137
  0
LINE
  8
0
 10
8.91577
 20
2.97137
 11
8.67097
 21
2.69949
  0
LINE
  8
0
 10
8.67097
 20
2.69949
 11
8.375
 21
2.48445
  0
LINE
  8
0
 10
8.375
 20
2.48445
 11
8.04077
 21
2.33565
  0
LINE
  8
0
 10
8.04077
 20
2.33565
 11
7.68292
 21
2.25958
  0
LINE
  8
0
 10
7.68292
 20
2.25958
 11
7.31706
 21
2.25958
  0
LINE
  8
0
 10
-7.68292
 20
2.25958
 11
-8.04077
 21
2.33565
  0
LINE
  8
0
 10
-8.04077
 20
2.33565
 11
-8.375
 21
2.48445
  0
LINE
  8
0
 10
-8.375
 20
2.48445
 11
-8.67097
 21
2.69949
  0
LINE
  8
0
 10
-8.67097
 20
2.69949
 11
-8.91577
 21
2.97137
  0
LINE
  8
0
 10
-8.91577
 20
2.97137
 11
-9.09869
 21
3.28821
  0
LINE
  8
0
 10
-9.09869
 20
3.28821
 11
-9.21175
 21
3.63615
  0
LINE
  8
0
 10
-9.21175
 20
3.63615
 11
-9.25
 21
4
  0
LINE
  8
0
 10
-9.25
 20
4
 11
-9.21175
 21
4.36383
  0
LINE
  8
0
 10
-9.21175
 20
4.36383
 11
-9.09869
 21
4.71178
  0
LINE
  8
0
 10
-9.09869
 20
4.71178
 11
-8.91577
 21
5.02861
  0
LINE
  8
0
 10
-8.91577
 20
5.02861
 11
-8.67097
 21
5.30049
  0
LINE
  8
0
 10
-8.67097
 20
5.30049
 11
-8.375
 21
5.51553
  0
LINE
  8
0
 10
-8.375
 20
5.51553
 11
-8.04077
 21
5.66434
  0
LINE
  8
0
 10
-8.04077
 20
5.66434
 11
-7.68292
 21
5.7404
  0
LINE
  8
0
 10
-7.68292
 20
5.7404
 11
-7.31706
 21
5.7404
  0
LINE
  8
0
 10
-7.31706
 20
5.7404
 11
-6.95921
 21
5.66434
  0
LINE
  8
0
 10
-6.95921
 20
5.66434
 11
-6.625
 21
5.51553
  0
LINE
  8
0
 10
-6.625
 20
5.51553
 11
-6.32901
 21
5.30049
  0
LINE
  8
0
 10
-6.32901
 20
5.30049
 11
-6.08421
 21
5.02861
  0
LINE
  8
0
 10
-6.08421
 20
5.02861
 11
-5.90129
 21
4.71178
  0
LINE
  8
0
 10
-5.90129
 20
4.71178
 11
-5.78824
 21
4.36383
  0
LINE
  8
0
 10
-5.78824
 20
4.36383
 11
-5.75
 21
4
  0
LINE
  8
0
 10
-5.75
 20
4
 11
-5.78824
 21
3.63615
  0
LINE
  8
0
 10
-5.78824
 20
3.63615
 11
-5.90129
 21
3.28821
  0
LINE
  8
0
 10
-5.90129
 20
3.28821
 11
-6.08421
 21
2.97137
  0
LINE
  8
0
 10
-6.08421
 20
2.97137
 11
-6.32901
 21
2.69949
  0
LINE
  8
0
 10
-6.32901
 20
2.69949
 11
-6.625
 21
2.48445
  0
LINE
  8
0
 10
-6.625
 20
2.48445
 11
-6.95921
 21
2.33565
  0
LINE
  8
0
 10
-6.95921
 20
2.33565
 11
-7.31706
 21
2.25958
  0
LINE
  8
0
 10
-7.31706
 20
2.25958
 11
-7.68292
 21
2.25958
  0
LINE
  8
0
 10
9.31706
 20
-70.9904
 11
8.95921
 21
-70.9144
  0
LINE
  8
0
 10
8.95921
 20
-70.9144
 11
8.625
 21
-70.7655
  0
LINE
  8
0
 10
8.625
 20
-70.7655
 11
8.32901
 21
-70.5505
  0
LINE
  8
0
 10
8.32901
 20
-70.5505
 11
8.08421
 21
-70.2786
  0
LINE
  8
0
 10
8.08421
 20
-70.2786
 11
7.90129
 21
-69.9618
  0
LINE
  8
0
 10
7.90129
 20
-69.9618
 11
7.78824
 21
-69.6138
  0
LINE
  8
0
 10
7.78824
 20
-69.6138
 11
7.75
 21
-69.25
  0
LINE
  8
0
 10
7.75
 20
-69.25
 11
7.78824
 21
-68.8862
  0
LINE
  8
0
 10
7.78824
 20
-68.8862
 11
7.90129
 21
-68.5382
  0
LINE
  8
0
 10
7.90129
 20
-68.5382
 11
8.08421
 21
-68.2214
  0
LINE
  8
0
 10
8.08421
 20
-68.2214
 11
8.32901
 21
-67.9495
  0
LINE
  8
0
 10
8.32901
 20
-67.9495
 11
8.625
 21
-67.7345
  0
LINE
  8
0
 10
8.625
 20
-67.7345
 11
8.95921
 21
-67.5856
  0
LINE
  8
0
 10
8.95921
 20
-67.5856
 11
9.31706
 21
-67.5096
  0
LINE
  8
0
 10
9.31706
 20
-67.5096
 11
9.68292
 21
-67.5096
  0
LINE
  8
0
 10
9.68292
 20
-67.5096
 11
10.0408
 21
-67.5856
  0
LINE
  8
0
 10
10.0408
 20
-67.5856
 11
10.375
 21
-67.7345
  0
LINE
  8
0
 10
10.375
 20
-67.7345
 11
10.671
 21
-67.9495
  0
LINE
  8
0
 10
10.671
 20
-67.9495
 11
10.9158
 21
-68.2214
  0
LINE
  8
0
 10
10.9158
 20
-68.2214
 11
11.0987
 21
-68.5382
  0
LINE
  8
0
 10
11.0987
 20
-68.5382
 11
11.2117
 21
-68.8862
  0
LINE
  8
0
 10
11.2117
 20
-68.8862
 11
11.25
 21
-69.25
  0
LINE
  8
0
 10
11.25
 20
-69.25
 11
11.2117
 21
-69.6138
  0
LINE
  8
0
 10
11.2117
 20
-69.6138
 11
11.0987
 21
-69.9618
  0
LINE
  8
0
 10
11.0987
 20
-69.9618
 11
10.9158
 21
-70.2786
  0
LINE
  8
0
 10
10.9158
 20
-70.2786
 11
10.671
 21
-70.5505
  0
LINE
  8
0
 10
10.671
 20
-70.5505
 11
10.375
 21
-70.7655
  0
LINE
  8
0
 10
10.375
 20
-70.7655
 11
10.0408
 21
-70.9144
  0
LINE
  8
0
 10
10.0408
 20
-70.9144
 11
9.68292
 21
-70.9904
  0
LINE
  8
0
 10
9.68292
 20
-70.9904
 11
9.31706
 21
-70.9904
  0
LINE
  8
0
 10
-9.68292
 20
-70.9904
 11
-10.0408
 21
-70.9144
  0
LINE
  8
0
 10
-10.0408
 20
-70.9144
 11
-10.375
 21
-70.7655
  0
LINE
  8
0
 10
-10.375
 20
-70.7655
 11
-10.671
 21
-70.5505
  0
LINE
  8
0
 10
-10.671
 20
-70.5505
 11
-10.9158
 21
-70.2786
  0
LINE
  8
0
 10
-10.9158
 20
-70.2786
 11
-11.0987
 21
-69.9618
  0
LINE
  8
0
 10
-11.0987
 20
-69.9618
 11
-11.2117
 21
-69.6138
  0
LINE
  8
0
 10
-11.2117
 20
-69.6138
 11
-11.25
 21
-69.25
  0
LINE
  8
0
 10
-11.25
 20
-69.25
 11
-11.2117
 21
-68.8862
  0
LINE
  8
0
 10
-11.2117
 20
-68.8862
 11
-11.0987
 21
-68.5382
  0
LINE
  8
0
 10
-11.0987
 20
-68.5382
 11
-10.9158
 21
-68.2214
  0
LINE
  8
0
 10
-10.9158
 20
-68.2214
 11
-10.671
 21
-67.9495
  0
LINE
  8
0
 10
-10.671
 20
-67.9495
 11
-10.375
 21
-67.7345
  0
LINE
  8
0
 10
-10.375
 20
-67.7345
 11
-10.0408
 21
-67.5856
  0
LINE
  8
0
 10
-10.0408
 20
-67.5856
 11
-9.68292
 21
-67.5096
  0
LINE
  8
0
 10
-9.68292
 20
-67.5096
 11
-9.31706
 21
-67.5096
  0
LINE
  8
0
 10
-9.31706
 20
-67.5096
 11
-8.95921
 21
-67.5856
  0
LINE
  8
0
 10
-8.95921
 20
-67.5856
 11
-8.625
 21
-67.7345
  0
LINE
  8
0
 10
-8.625
 20
-67.7345
 11
-8.32901
 21
-67.9495
  0
LINE
  8
0
 10
-8.32901
 20
-67.9495
 11
-8.08421
 21
-68.2214
  0
LINE
  8
0
 10
-8.08421
 20
-68.2214
 11
-7.90129
 21
-68.5382
  0
LINE
  8
0
 10
-7.90129
 20
-68.5382
 11
-7.78824
 21
-68.8862
  0
LINE
  8
0
 10
-7.78824
 20
-68.8862
 11
-7.75
 21
-69.25
  0
LINE
  8
0
 10
-7.75
 20
-69.25
 11
-7.78824
 21
-69.6138
  0
LINE
  8
0
 10
-7.78824
 20
-69.6138
 11
-7.90129
 21
-69.9618
  0
LINE
  8
0
 10
-7.90129
 20
-69.9618
 11
-8.08421
 21
-70.2786
  0
LINE
  8
0
 10
-8.08421
 20
-70.2786
 11
-8.32901
 21
-70.5505
  0
LINE
  8
0
 10
-8.32901
 20
-70.5505
 11
-8.625
 21
-70.7655
  0
LINE
  8
0
 10
-8.625
 20
-70.7655
 11
-8.95921
 21
-70.9144
  0
LINE
  8
0
 10
-8.95921
 20
-70.9144
 11
-9.31706
 21
-70.9904
  0
LINE
  8
0
 10
-9.31706
 20
-70.9904
 11
-9.68292
 21
-70.9904
  0
ENDSEC
  0
SECTION
  2
OBJECTS
  0
DICTIONARY
  0
ENDSEC
  0
EOF
