  0
SECTION
  2
BLOCKS
  0
ENDSEC
  0
SECTION
  2
ENTITIES
  0
LINE
  8
0
 10
-4
 20
-71
 11
-2
 21
-71
  0
LINE
  8
0
 10
-2
 20
-71
 11
-2
 21
-67.5
  0
LINE
  8
0
 10
-2
 20
-67.5
 11
-4
 21
-67.5
  0
LINE
  8
0
 10
-4
 20
-67.5
 11
-4
 21
67.5
  0
LINE
  8
0
 10
-4
 20
67.5
 11
-2
 21
67.5
  0
LINE
  8
0
 10
-2
 20
67.5
 11
-2
 21
71
  0
LINE
  8
0
 10
-2
 20
71
 11
-4
 21
71
  0
LINE
  8
0
 10
-4
 20
71
 11
-4
 21
84
  0
LINE
  8
0
 10
-4
 20
84
 11
-9
 21
84
  0
LINE
  8
0
 10
-9
 20
84
 11
-24
 21
59
  0
LINE
  8
0
 10
-24
 20
59
 11
-24
 21
46.5
  0
LINE
  8
0
 10
-24
 20
46.5
 11
-14
 21
46.5
  0
LINE
  8
0
 10
-14
 20
46.5
 11
-14
 21
43.5
  0
LINE
  8
0
 10
-14
 20
43.5
 11
-24
 21
43.5
  0
LINE
  8
0
 10
-24
 20
43.5
 11
-24
 21
16.5
  0
LINE
  8
0
 10
-24
 20
16.5
 11
-14
 21
16.5
  0
LINE
  8
0
 10
-14
 20
16.5
 11
-14
 21
13.5
  0
LINE
  8
0
 10
-14
 20
13.5
 11
-24
 21
13.5
  0
LINE
  8
0
 10
-24
 20
13.5
 11
-24
 21
-13.5
  0
LINE
  8
0
 10
-24
 20
-13.5
 11
-14
 21
-13.5
  0
LINE
  8
0
 10
-14
 20
-13.5
 11
-14
 21
-16.5
  0
LINE
  8
0
 10
-14
 20
-16.5
 11
-24
 21
-16.5
  0
LINE
  8
0
 10
-24
 20
-16.5
 11
-24
 21
-43.5
  0
LINE
  8
0
 10
-24
 20
-43.5
 11
-14
 21
-43.5
  0
LINE
  8
0
 10
-14
 20
-43.5
 11
-14
 21
-46.5
  0
LINE
  8
0
 10
-14
 20
-46.5
 11
-24
 21
-46.5
  0
LINE
  8
0
 10
-24
 20
-46.5
 11
-24
 21
-59
  0
LINE
  8
0
 10
-24
 20
-59
 11
-9
 21
-84
  0
LINE
  8
0
 10
-9
 20
-84
 11
-4
 21
-84
  0
LINE
  8
0
 10
-4
 20
-84
 11
-4
 21
-71
  0
LINE
  8
0
 10
24
 20
-59
 11
24
 21
-46.5
  0
LINE
  8
0
 10
24
 20
-46.5
 11
14
 21
-46.5
  0
LINE
  8
0
 10
14
 20
-46.5
 11
14
 21
-43.5
  0
LINE
  8
0
 10
14
 20
-43.5
 11
24
 21
-43.5
  0
LINE
  8
0
 10
24
 20
-43.5
 11
24
 21
-16.5
  0
LINE
  8
0
 10
24
 20
-16.5
 11
14
 21
-16.5
  0
LINE
  8
0
 10
14
 20
-16.5
 11
14
 21
-13.5
  0
LINE
  8
0
 10
14
 20
-13.5
 11
24
 21
-13.5
  0
LINE
  8
0
 10
24
 20
-13.5
 11
24
 21
13.5
  0
LINE
  8
0
 10
24
 20
13.5
 11
14
 21
13.5
  0
LINE
  8
0
 10
14
 20
13.5
 11
14
 21
16.5
  0
LINE
  8
0
 10
14
 20
16.5
 11
24
 21
16.5
  0
LINE
  8
0
 10
24
 20
16.5
 11
24
 21
43.5
  0
LINE
  8
0
 10
24
 20
43.5
 11
14
 21
43.5
  0
LINE
  8
0
 10
14
 20
43.5
 11
14
 21
46.5
  0
LINE
  8
0
 10
14
 20
46.5
 11
24
 21
46.5
  0
LINE
  8
0
 10
24
 20
46.5
 11
24
 21
59
  0
LINE
  8
0
 10
24
 20
59
 11
9
 21
84
  0
LINE
  8
0
 10
9
 20
84
 11
4
 21
84
  0
LINE
  8
0
 10
4
 20
84
 11
4
 21
71
  0
LINE
  8
0
 10
4
 20
71
 11
2
 21
71
  0
LINE
  8
0
 10
2
 20
71
 11
2
 21
67.5
  0
LINE
  8
0
 10
2
 20
67.5
 11
4
 21
67.5
  0
LINE
  8
0
 10
4
 20
67.5
 11
4
 21
-67.5
  0
LINE
  8
0
 10
4
 20
-67.5
 11
2
 21
-67.5
  0
LINE
  8
0
 10
2
 20
-67.5
 11
2
 21
-71
  0
LINE
  8
0
 10
2
 20
-71
 11
4
 21
-71
  0
LINE
  8
0
 10
4
 20
-71
 11
4
 21
-84
  0
LINE
  8
0
 10
4
 20
-84
 11
9
 21
-84
  0
LINE
  8
0
 10
9
 20
-84
 11
24
 21
-59
  0
LINE
  8
0
 10
29
 20
36
 11
32
 21
36
  0
LINE
  8
0
 10
32
 20
36
 11
32
 21
26
  0
LINE
  8
0
 10
32
 20
26
 11
48
 21
26
  0
LINE
  8
0
 10
48
 20
26
 11
48
 21
36
  0
LINE
  8
0
 10
48
 20
36
 11
51
 21
36
  0
LINE
  8
0
 10
51
 20
36
 11
51
 21
26
  0
LINE
  8
0
 10
51
 20
26
 11
54
 21
26
  0
LINE
  8
0
 10
54
 20
26
 11
54
 21
31
  0
LINE
  8
0
 10
54
 20
31
 11
52
 21
46
  0
LINE
  8
0
 10
52
 20
46
 11
28
 21
46
  0
LINE
  8
0
 10
28
 20
46
 11
26
 21
31
  0
LINE
  8
0
 10
26
 20
31
 11
26
 21
26
  0
LINE
  8
0
 10
26
 20
26
 11
29
 21
26
  0
LINE
  8
0
 10
29
 20
26
 11
29
 21
36
  0
LINE
  8
0
 10
54
 20
17
 11
54
 21
22
  0
LINE
  8
0
 10
54
 20
22
 11
51
 21
22
  0
LINE
  8
0
 10
51
 20
22
 11
51
 21
12
  0
LINE
  8
0
 10
51
 20
12
 11
48
 21
12
  0
LINE
  8
0
 10
48
 20
12
 11
48
 21
22
  0
LINE
  8
0
 10
48
 20
22
 11
32
 21
22
  0
LINE
  8
0
 10
32
 20
22
 11
32
 21
12
  0
LINE
  8
0
 10
32
 20
12
 11
29
 21
12
  0
LINE
  8
0
 10
29
 20
12
 11
29
 21
22
  0
LINE
  8
0
 10
29
 20
22
 11
26
 21
22
  0
LINE
  8
0
 10
26
 20
22
 11
26
 21
17
  0
LINE
  8
0
 10
26
 20
17
 11
28
 21
2
  0
LINE
  8
0
 10
28
 20
2
 11
52
 21
2
  0
LINE
  8
0
 10
52
 20
2
 11
54
 21
17
  0
LINE
  8
0
 10
29
 20
-12
 11
32
 21
-12
  0
LINE
  8
0
 10
32
 20
-12
 11
32
 21
-22
  0
LINE
  8
0
 10
32
 20
-22
 11
48
 21
-22
  0
LINE
  8
0
 10
48
 20
-22
 11
48
 21
-12
  0
LINE
  8
0
 10
48
 20
-12
 11
51
 21
-12
  0
LINE
  8
0
 10
51
 20
-12
 11
51
 21
-22
  0
LINE
  8
0
 10
51
 20
-22
 11
54
 21
-22
  0
LINE
  8
0
 10
54
 20
-22
 11
54
 21
-17
  0
LINE
  8
0
 10
54
 20
-17
 11
52
 21
-2
  0
LINE
  8
0
 10
52
 20
-2
 11
28
 21
-2
  0
LINE
  8
0
 10
28
 20
-2
 11
26
 21
-17
  0
LINE
  8
0
 10
26
 20
-17
 11
26
 21
-22
  0
LINE
  8
0
 10
26
 20
-22
 11
29
 21
-22
  0
LINE
  8
0
 10
29
 20
-22
 11
29
 21
-12
  0
LINE
  8
0
 10
54
 20
-31
 11
54
 21
-26
  0
LINE
  8
0
 10
54
 20
-26
 11
51
 21
-26
  0
LINE
  8
0
 10
51
 20
-26
 11
51
 21
-36
  0
LINE
  8
0
 10
51
 20
-36
 11
48
 21
-36
  0
LINE
  8
0
 10
48
 20
-36
 11
48
 21
-26
  0
LINE
  8
0
 10
48
 20
-26
 11
32
 21
-26
  0
LINE
  8
0
 10
32
 20
-26
 11
32
 21
-36
  0
LINE
  8
0
 10
32
 20
-36
 11
29
 21
-36
  0
LINE
  8
0
 10
29
 20
-36
 11
29
 21
-26
  0
LINE
  8
0
 10
29
 20
-26
 11
26
 21
-26
  0
LINE
  8
0
 10
26
 20
-26
 11
26
 21
-31
  0
LINE
  8
0
 10
26
 20
-31
 11
28
 21
-46
  0
LINE
  8
0
 10
28
 20
-46
 11
52
 21
-46
  0
LINE
  8
0
 10
52
 20
-46
 11
54
 21
-31
  0
ENDSEC
  0
SECTION
  2
OBJECTS
  0
DICTIONARY
  0
ENDSEC
  0
EOF
