<?xml version="1.0" standalone="no"?>
<!DOCTYPE svg PUBLIC "-//W3C//DTD SVG 1.1//EN" "http://www.w3.org/Graphics/SVG/1.1/DTD/svg11.dtd">
<svg width="30mm" height="170mm" viewBox="-15 -85 30 170" xmlns="http://www.w3.org/2000/svg" version="1.1">
<title>OpenSCAD Model</title>
<path d="
M 14.95,-84.1 L -14.95,-84.1 L -14.95,84.1 L 14.95,84.1 z
M -9.67152,-67.5084 L -9.8414,-67.5336 L -10.008,-67.5753 L -10.1697,-67.6332 L -10.3249,-67.7066 L -10.4722,-67.7949
 L -10.6102,-67.8972 L -10.7374,-68.0126 L -10.8528,-68.1398 L -10.9551,-68.2777 L -11.0434,-68.425 L -11.1168,-68.5803
 L -11.1746,-68.742 L -11.2164,-68.9086 L -11.2416,-69.0785 L -11.25,-69.25 L -11.2416,-69.4215 L -11.2164,-69.5914
 L -11.1746,-69.758 L -11.1168,-69.9197 L -11.0434,-70.0749 L -10.9551,-70.2222 L -10.8528,-70.3602 L -10.7374,-70.4874
 L -10.6102,-70.6028 L -10.4722,-70.7051 L -10.3249,-70.7934 L -10.1697,-70.8668 L -10.008,-70.9246 L -9.8414,-70.9664
 L -9.67152,-70.9916 L -9.5,-71 L -9.32846,-70.9916 L -9.15858,-70.9664 L -8.99199,-70.9246 L -8.83029,-70.8668
 L -8.67505,-70.7934 L -8.52774,-70.7051 L -8.3898,-70.6028 L -8.26256,-70.4874 L -8.14722,-70.3602 L -8.04492,-70.2222
 L -7.95663,-70.0749 L -7.88321,-69.9197 L -7.82535,-69.758 L -7.78362,-69.5914 L -7.75842,-69.4215 L -7.75,-69.25
 L -7.75842,-69.0785 L -7.78362,-68.9086 L -7.82535,-68.742 L -7.88321,-68.5803 L -7.95663,-68.425 L -8.04492,-68.2777
 L -8.14722,-68.1398 L -8.26256,-68.0126 L -8.3898,-67.8972 L -8.52774,-67.7949 L -8.67505,-67.7066 L -8.83029,-67.6332
 L -8.99199,-67.5753 L -9.15858,-67.5336 L -9.32846,-67.5084 L -9.5,-67.5 z
M 9.32846,-67.5084 L 9.15858,-67.5336 L 8.99199,-67.5753 L 8.83029,-67.6332 L 8.67505,-67.7066 L 8.52774,-67.7949
 L 8.3898,-67.8972 L 8.26256,-68.0126 L 8.14722,-68.1398 L 8.04492,-68.2777 L 7.95663,-68.425 L 7.88321,-68.5803
 L 7.82535,-68.742 L 7.78362,-68.9086 L 7.75842,-69.0785 L 7.75,-69.25 L 7.75842,-69.4215 L 7.78362,-69.5914
 L 7.82535,-69.758 L 7.88321,-69.9197 L 7.95663,-70.0749 L 8.04492,-70.2222 L 8.14722,-70.3602 L 8.26256,-70.4874
 L 8.3898,-70.6028 L 8.52774,-70.7051 L 8.67505,-70.7934 L 8.83029,-70.8668 L 8.99199,-70.9246 L 9.15858,-70.9664
 L 9.32846,-70.9916 L 9.5,-71 L 9.67152,-70.9916 L 9.8414,-70.9664 L 10.008,-70.9246 L 10.1697,-70.8668
 L 10.3249,-70.7934 L 10.4722,-70.7051 L 10.6102,-70.6028 L 10.7374,-70.4874 L 10.8528,-70.3602 L 10.9551,-70.2222
 L 11.0434,-70.0749 L 11.1168,-69.9197 L 11.1746,-69.758 L 11.2164,-69.5914 L 11.2416,-69.4215 L 11.25,-69.25
 L 11.2416,-69.0785 L 11.2164,-68.9086 L 11.1746,-68.742 L 11.1168,-68.5803 L 11.0434,-68.425 L 10.9551,-68.2777
 L 10.8528,-68.1398 L 10.7374,-68.0126 L 10.6102,-67.8972 L 10.4722,-67.7949 L 10.3249,-67.7066 L 10.1697,-67.6332
 L 10.008,-67.5753 L 9.8414,-67.5336 L 9.67152,-67.5084 L 9.5,-67.5 z
M -3.5,34 L -3.5,-34 L 3.5,-34 L 3.5,34 z
M -8.72499,-14.0071 L -8.72499,-22.7929 L -6.42499,-22.7929 L -6.42499,-14.0071 z
M 6.42499,-14.0071 L 6.42499,-22.7929 L 8.72499,-22.7929 L 8.72499,-14.0071 z
M -7.67152,-2.25842 L -7.8414,-2.28362 L -8.008,-2.32535 L -8.16969,-2.38321 L -8.32494,-2.45663 L -8.47224,-2.54492
 L -8.61018,-2.64722 L -8.73743,-2.76256 L -8.85277,-2.8898 L -8.95506,-3.02774 L -9.04335,-3.17505 L -9.11678,-3.33029
 L -9.17464,-3.49199 L -9.21637,-3.65858 L -9.24156,-3.82846 L -9.25,-4 L -9.24156,-4.17152 L -9.21637,-4.3414
 L -9.17464,-4.508 L -9.11678,-4.66969 L -9.04335,-4.82494 L -8.95506,-4.97224 L -8.85277,-5.11018 L -8.73743,-5.23743
 L -8.61018,-5.35277 L -8.47224,-5.45506 L -8.32494,-5.54335 L -8.16969,-5.61678 L -8.008,-5.67464 L -7.8414,-5.71637
 L -7.67152,-5.74156 L -7.5,-5.75 L -7.32846,-5.74156 L -7.15858,-5.71637 L -6.99199,-5.67464 L -6.83029,-5.61678
 L -6.67505,-5.54335 L -6.52774,-5.45506 L -6.3898,-5.35277 L -6.26256,-5.23743 L -6.14722,-5.11018 L -6.04492,-4.97224
 L -5.95663,-4.82494 L -5.88321,-4.66969 L -5.82535,-4.508 L -5.78362,-4.3414 L -5.75842,-4.17152 L -5.75,-4
 L -5.75842,-3.82846 L -5.78362,-3.65858 L -5.82535,-3.49199 L -5.88321,-3.33029 L -5.95663,-3.17505 L -6.04492,-3.02774
 L -6.14722,-2.8898 L -6.26256,-2.76256 L -6.3898,-2.64722 L -6.52774,-2.54492 L -6.67505,-2.45663 L -6.83029,-2.38321
 L -6.99199,-2.32535 L -7.15858,-2.28362 L -7.32846,-2.25842 L -7.5,-2.25 z
M 7.32846,-2.25842 L 7.15858,-2.28362 L 6.99199,-2.32535 L 6.83029,-2.38321 L 6.67505,-2.45663 L 6.52774,-2.54492
 L 6.3898,-2.64722 L 6.26256,-2.76256 L 6.14722,-2.8898 L 6.04492,-3.02774 L 5.95663,-3.17505 L 5.88321,-3.33029
 L 5.82535,-3.49199 L 5.78362,-3.65858 L 5.75842,-3.82846 L 5.75,-4 L 5.75842,-4.17152 L 5.78362,-4.3414
 L 5.82535,-4.508 L 5.88321,-4.66969 L 5.95663,-4.82494 L 6.04492,-4.97224 L 6.14722,-5.11018 L 6.26256,-5.23743
 L 6.3898,-5.35277 L 6.52774,-5.45506 L 6.67505,-5.54335 L 6.83029,-5.61678 L 6.99199,-5.67464 L 7.15858,-5.71637
 L 7.32846,-5.74156 L 7.5,-5.75 L 7.67152,-5.74156 L 7.8414,-5.71637 L 8.008,-5.67464 L 8.16969,-5.61678
 L 8.32494,-5.54335 L 8.47224,-5.45506 L 8.61018,-5.35277 L 8.73743,-5.23743 L 8.85277,-5.11018 L 8.95506,-4.97224
 L 9.04335,-4.82494 L 9.11678,-4.66969 L 9.17464,-4.508 L 9.21637,-4.3414 L 9.24156,-4.17152 L 9.25,-4
 L 9.24156,-3.82846 L 9.21637,-3.65858 L 9.17464,-3.49199 L 9.11678,-3.33029 L 9.04335,-3.17505 L 8.95506,-3.02774
 L 8.85277,-2.8898 L 8.73743,-2.76256 L 8.61018,-2.64722 L 8.47224,-2.54492 L 8.32494,-2.45663 L 8.16969,-2.38321
 L 8.008,-2.32535 L 7.8414,-2.28362 L 7.67152,-2.25842 L 7.5,-2.25 z
M -8.72499,22.7929 L -8.72499,14.0071 L -6.42499,14.0071 L -6.42499,22.7929 z
M 6.42499,22.7929 L 6.42499,14.0071 L 8.72499,14.0071 L 8.72499,22.7929 z
M -9.67152,70.9916 L -9.8414,70.9664 L -10.008,70.9246 L -10.1697,70.8668 L -10.3249,70.7934 L -10.4722,70.7051
 L -10.6102,70.6028 L -10.7374,70.4874 L -10.8528,70.3602 L -10.9551,70.2222 L -11.0434,70.0749 L -11.1168,69.9197
 L -11.1746,69.758 L -11.2164,69.5914 L -11.2416,69.4215 L -11.25,69.25 L -11.2416,69.0785 L -11.2164,68.9086
 L -11.1746,68.742 L -11.1168,68.5803 L -11.0434,68.425 L -10.9551,68.2777 L -10.8528,68.1398 L -10.7374,68.0126
 L -10.6102,67.8972 L -10.4722,67.7949 L -10.3249,67.7066 L -10.1697,67.6332 L -10.008,67.5753 L -9.8414,67.5336
 L -9.67152,67.5084 L -9.5,67.5 L -9.32846,67.5084 L -9.15858,67.5336 L -8.99199,67.5753 L -8.83029,67.6332
 L -8.67505,67.7066 L -8.52774,67.7949 L -8.3898,67.8972 L -8.26256,68.0126 L -8.14722,68.1398 L -8.04492,68.2777
 L -7.95663,68.425 L -7.88321,68.5803 L -7.82535,68.742 L -7.78362,68.9086 L -7.75842,69.0785 L -7.75,69.25
 L -7.75842,69.4215 L -7.78362,69.5914 L -7.82535,69.758 L -7.88321,69.9197 L -7.95663,70.0749 L -8.04492,70.2222
 L -8.14722,70.3602 L -8.26256,70.4874 L -8.3898,70.6028 L -8.52774,70.7051 L -8.67505,70.7934 L -8.83029,70.8668
 L -8.99199,70.9246 L -9.15858,70.9664 L -9.32846,70.9916 L -9.5,71 z
M 9.32846,70.9916 L 9.15858,70.9664 L 8.99199,70.9246 L 8.83029,70.8668 L 8.67505,70.7934 L 8.52774,70.7051
 L 8.3898,70.6028 L 8.26256,70.4874 L 8.14722,70.3602 L 8.04492,70.2222 L 7.95663,70.0749 L 7.88321,69.9197
 L 7.82535,69.758 L 7.78362,69.5914 L 7.75842,69.4215 L 7.75,69.25 L 7.75842,69.0785 L 7.78362,68.9086
 L 7.82535,68.742 L 7.88321,68.5803 L 7.95663,68.425 L 8.04492,68.2777 L 8.14722,68.1398 L 8.26256,68.0126
 L 8.3898,67.8972 L 8.52774,67.7949 L 8.67505,67.7066 L 8.83029,67.6332 L 8.99199,67.5753 L 9.15858,67.5336
 L 9.32846,67.5084 L 9.5,67.5 L 9.67152,67.5084 L 9.8414,67.5336 L 10.008,67.5753 L 10.1697,67.6332
 L 10.3249,67.7066 L 10.4722,67.7949 L 10.6102,67.8972 L 10.7374,68.0126 L 10.8528,68.1398 L 10.9551,68.2777
 L 11.0434,68.425 L 11.1168,68.5803 L 11.1746,68.742 L 11.2164,68.9086 L 11.2416,69.0785 L 11.25,69.25
 L 11.2416,69.4215 L 11.2164,69.5914 L 11.1746,69.758 L 11.1168,69.9197 L 11.0434,70.0749 L 10.9551,70.2222
 L 10.8528,70.3602 L 10.7374,70.4874 L 10.6102,70.6028 L 10.4722,70.7051 L 10.3249,70.7934 L 10.1697,70.8668
 L 10.008,70.9246 L 9.8414,70.9664 L 9.67152,70.9916 L 9.5,71 z
" stroke="black" fill="lightgray" stroke-width="0.5"/>
</svg>
