  0
SECTION
  2
BLOCKS
  0
ENDSEC
  0
SECTION
  2
ENTITIES
  0
LINE
  8
0
 10
-11
 20
133.373
 11
-8
 21
133.373
  0
LINE
  8
0
 10
-8
 20
133.373
 11
-8
 21
118.915
  0
LINE
  8
0
 10
-8
 20
118.915
 11
-6
 21
118.915
  0
LINE
  8
0
 10
-6
 20
118.915
 11
-6
 21
120.915
  0
LINE
  8
0
 10
-6
 20
120.915
 11
6
 21
120.915
  0
LINE
  8
0
 10
6
 20
120.915
 11
6
 21
118.915
  0
LINE
  8
0
 10
6
 20
118.915
 11
8
 21
118.915
  0
LINE
  8
0
 10
8
 20
118.915
 11
8
 21
133.373
  0
LINE
  8
0
 10
8
 20
133.373
 11
11
 21
133.373
  0
LINE
  8
0
 10
11
 20
133.373
 11
11
 21
118.915
  0
LINE
  8
0
 10
11
 20
118.915
 11
14
 21
118.915
  0
LINE
  8
0
 10
14
 20
118.915
 11
14
 21
126.915
  0
LINE
  8
0
 10
14
 20
126.915
 11
12
 21
147.831
  0
LINE
  8
0
 10
12
 20
147.831
 11
-4.29999
 21
147.831
  0
LINE
  8
0
 10
-4.29999
 20
147.831
 11
-4.29999
 21
141.831
  0
LINE
  8
0
 10
-4.29999
 20
141.831
 11
-5.7
 21
141.831
  0
LINE
  8
0
 10
-5.7
 20
141.831
 11
-5.7
 21
147.831
  0
LINE
  8
0
 10
-5.7
 20
147.831
 11
-12
 21
147.831
  0
LINE
  8
0
 10
-12
 20
147.831
 11
-14
 21
126.915
  0
LINE
  8
0
 10
-14
 20
126.915
 11
-14
 21
118.915
  0
LINE
  8
0
 10
-14
 20
118.915
 11
-11
 21
118.915
  0
LINE
  8
0
 10
-11
 20
118.915
 11
-11
 21
133.373
  0
LINE
  8
0
 10
-5.7
 20
92
 11
-4.29999
 21
92
  0
LINE
  8
0
 10
-4.29999
 20
92
 11
-4.29999
 21
86
  0
LINE
  8
0
 10
-4.29999
 20
86
 11
12
 21
86
  0
LINE
  8
0
 10
12
 20
86
 11
14
 21
106.915
  0
LINE
  8
0
 10
14
 20
106.915
 11
14
 21
114.915
  0
LINE
  8
0
 10
14
 20
114.915
 11
11
 21
114.915
  0
LINE
  8
0
 10
11
 20
114.915
 11
11
 21
100.458
  0
LINE
  8
0
 10
11
 20
100.458
 11
8
 21
100.458
  0
LINE
  8
0
 10
8
 20
100.458
 11
8
 21
114.915
  0
LINE
  8
0
 10
8
 20
114.915
 11
6
 21
114.915
  0
LINE
  8
0
 10
6
 20
114.915
 11
6
 21
112.915
  0
LINE
  8
0
 10
6
 20
112.915
 11
-6
 21
112.915
  0
LINE
  8
0
 10
-6
 20
112.915
 11
-6
 21
114.915
  0
LINE
  8
0
 10
-6
 20
114.915
 11
-8
 21
114.915
  0
LINE
  8
0
 10
-8
 20
114.915
 11
-8
 21
100.458
  0
LINE
  8
0
 10
-8
 20
100.458
 11
-11
 21
100.458
  0
LINE
  8
0
 10
-11
 20
100.458
 11
-11
 21
114.915
  0
LINE
  8
0
 10
-11
 20
114.915
 11
-14
 21
114.915
  0
LINE
  8
0
 10
-14
 20
114.915
 11
-14
 21
106.915
  0
LINE
  8
0
 10
-14
 20
106.915
 11
-12
 21
86
  0
LINE
  8
0
 10
-12
 20
86
 11
-5.7
 21
86
  0
LINE
  8
0
 10
-5.7
 20
86
 11
-5.7
 21
92
  0
LINE
  8
0
 10
32.9153
 20
-42.0375
 11
32.9153
 21
-41.0375
  0
LINE
  8
0
 10
32.9153
 20
-41.0375
 11
18.4577
 21
-41.0375
  0
LINE
  8
0
 10
18.4577
 20
-41.0375
 11
18.4577
 21
-38.0375
  0
LINE
  8
0
 10
18.4577
 20
-38.0375
 11
32.9153
 21
-38.0375
  0
LINE
  8
0
 10
32.9153
 20
-38.0375
 11
32.9153
 21
-37.0375
  0
LINE
  8
0
 10
32.9153
 20
-37.0375
 11
12
 21
-12.1222
  0
LINE
  8
0
 10
12
 20
-12.1222
 11
8
 21
-12.1222
  0
LINE
  8
0
 10
8
 20
-12.1222
 11
8
 21
-9.12218
  0
LINE
  8
0
 10
8
 20
-9.12218
 11
12
 21
-9.12218
  0
LINE
  8
0
 10
12
 20
-9.12218
 11
12
 21
9.12218
  0
LINE
  8
0
 10
12
 20
9.12218
 11
8
 21
9.12218
  0
LINE
  8
0
 10
8
 20
9.12218
 11
8
 21
12.1222
  0
LINE
  8
0
 10
8
 20
12.1222
 11
12
 21
12.1222
  0
LINE
  8
0
 10
12
 20
12.1222
 11
32.9153
 21
37.0375
  0
LINE
  8
0
 10
32.9153
 20
37.0375
 11
32.9153
 21
38.0375
  0
LINE
  8
0
 10
32.9153
 20
38.0375
 11
18.4577
 21
38.0375
  0
LINE
  8
0
 10
18.4577
 20
38.0375
 11
18.4577
 21
41.0375
  0
LINE
  8
0
 10
18.4577
 20
41.0375
 11
32.9153
 21
41.0375
  0
LINE
  8
0
 10
32.9153
 20
41.0375
 11
32.9153
 21
42.0375
  0
LINE
  8
0
 10
32.9153
 20
42.0375
 11
12
 21
84
  0
LINE
  8
0
 10
12
 20
84
 11
4
 21
84
  0
LINE
  8
0
 10
4
 20
84
 11
4
 21
71
  0
LINE
  8
0
 10
4
 20
71
 11
2
 21
71
  0
LINE
  8
0
 10
2
 20
71
 11
2
 21
67.5
  0
LINE
  8
0
 10
2
 20
67.5
 11
4
 21
67.5
  0
LINE
  8
0
 10
4
 20
67.5
 11
4
 21
-67.5
  0
LINE
  8
0
 10
4
 20
-67.5
 11
2
 21
-67.5
  0
LINE
  8
0
 10
2
 20
-67.5
 11
2
 21
-71
  0
LINE
  8
0
 10
2
 20
-71
 11
4
 21
-71
  0
LINE
  8
0
 10
4
 20
-71
 11
4
 21
-84
  0
LINE
  8
0
 10
4
 20
-84
 11
12
 21
-84
  0
LINE
  8
0
 10
12
 20
-84
 11
32.9153
 21
-42.0375
  0
LINE
  8
0
 10
-4
 20
-71
 11
-2
 21
-71
  0
LINE
  8
0
 10
-2
 20
-71
 11
-2
 21
-67.5
  0
LINE
  8
0
 10
-2
 20
-67.5
 11
-4
 21
-67.5
  0
LINE
  8
0
 10
-4
 20
-67.5
 11
-4
 21
67.5
  0
LINE
  8
0
 10
-4
 20
67.5
 11
-2
 21
67.5
  0
LINE
  8
0
 10
-2
 20
67.5
 11
-2
 21
71
  0
LINE
  8
0
 10
-2
 20
71
 11
-4
 21
71
  0
LINE
  8
0
 10
-4
 20
71
 11
-4
 21
84
  0
LINE
  8
0
 10
-4
 20
84
 11
-12
 21
84
  0
LINE
  8
0
 10
-12
 20
84
 11
-32.9153
 21
42.0375
  0
LINE
  8
0
 10
-32.9153
 20
42.0375
 11
-32.9153
 21
41.0375
  0
LINE
  8
0
 10
-32.9153
 20
41.0375
 11
-18.4577
 21
41.0375
  0
LINE
  8
0
 10
-18.4577
 20
41.0375
 11
-18.4577
 21
38.0375
  0
LINE
  8
0
 10
-18.4577
 20
38.0375
 11
-32.9153
 21
38.0375
  0
LINE
  8
0
 10
-32.9153
 20
38.0375
 11
-32.9153
 21
37.0375
  0
LINE
  8
0
 10
-32.9153
 20
37.0375
 11
-12
 21
12.1222
  0
LINE
  8
0
 10
-12
 20
12.1222
 11
-8
 21
12.1222
  0
LINE
  8
0
 10
-8
 20
12.1222
 11
-8
 21
9.12218
  0
LINE
  8
0
 10
-8
 20
9.12218
 11
-12
 21
9.12218
  0
LINE
  8
0
 10
-12
 20
9.12218
 11
-12
 21
-9.12218
  0
LINE
  8
0
 10
-12
 20
-9.12218
 11
-8
 21
-9.12218
  0
LINE
  8
0
 10
-8
 20
-9.12218
 11
-8
 21
-12.1222
  0
LINE
  8
0
 10
-8
 20
-12.1222
 11
-12
 21
-12.1222
  0
LINE
  8
0
 10
-12
 20
-12.1222
 11
-32.9153
 21
-37.0375
  0
LINE
  8
0
 10
-32.9153
 20
-37.0375
 11
-32.9153
 21
-38.0375
  0
LINE
  8
0
 10
-32.9153
 20
-38.0375
 11
-18.4577
 21
-38.0375
  0
LINE
  8
0
 10
-18.4577
 20
-38.0375
 11
-18.4577
 21
-41.0375
  0
LINE
  8
0
 10
-18.4577
 20
-41.0375
 11
-32.9153
 21
-41.0375
  0
LINE
  8
0
 10
-32.9153
 20
-41.0375
 11
-32.9153
 21
-42.0375
  0
LINE
  8
0
 10
-32.9153
 20
-42.0375
 11
-12
 21
-84
  0
LINE
  8
0
 10
-12
 20
-84
 11
-4
 21
-84
  0
LINE
  8
0
 10
-4
 20
-84
 11
-4
 21
-71
  0
LINE
  8
0
 10
-11
 20
-90
 11
-8
 21
-90
  0
LINE
  8
0
 10
-8
 20
-90
 11
-8
 21
-94
  0
LINE
  8
0
 10
-8
 20
-94
 11
-6
 21
-94
  0
LINE
  8
0
 10
-6
 20
-94
 11
-6
 21
-92
  0
LINE
  8
0
 10
-6
 20
-92
 11
6
 21
-92
  0
LINE
  8
0
 10
6
 20
-92
 11
6
 21
-94
  0
LINE
  8
0
 10
6
 20
-94
 11
8
 21
-94
  0
LINE
  8
0
 10
8
 20
-94
 11
8
 21
-90
  0
LINE
  8
0
 10
8
 20
-90
 11
11
 21
-90
  0
LINE
  8
0
 10
11
 20
-90
 11
11
 21
-94
  0
LINE
  8
0
 10
11
 20
-94
 11
14
 21
-94
  0
LINE
  8
0
 10
14
 20
-94
 11
12
 21
-86
  0
LINE
  8
0
 10
12
 20
-86
 11
-4.29999
 21
-86
  0
LINE
  8
0
 10
-4.29999
 20
-86
 11
-4.29999
 21
-90
  0
LINE
  8
0
 10
-4.29999
 20
-90
 11
-5.7
 21
-90
  0
LINE
  8
0
 10
-5.7
 20
-90
 11
-5.7
 21
-86
  0
LINE
  8
0
 10
-5.7
 20
-86
 11
-12
 21
-86
  0
LINE
  8
0
 10
-12
 20
-86
 11
-14
 21
-94
  0
LINE
  8
0
 10
-14
 20
-94
 11
-11
 21
-94
  0
LINE
  8
0
 10
-11
 20
-94
 11
-11
 21
-90
  0
LINE
  8
0
 10
-5.7
 20
-102
 11
-4.29999
 21
-102
  0
LINE
  8
0
 10
-4.29999
 20
-102
 11
-4.29999
 21
-106
  0
LINE
  8
0
 10
-4.29999
 20
-106
 11
12
 21
-106
  0
LINE
  8
0
 10
12
 20
-106
 11
14
 21
-98
  0
LINE
  8
0
 10
14
 20
-98
 11
11
 21
-98
  0
LINE
  8
0
 10
11
 20
-98
 11
11
 21
-102
  0
LINE
  8
0
 10
11
 20
-102
 11
8
 21
-102
  0
LINE
  8
0
 10
8
 20
-102
 11
8
 21
-98
  0
LINE
  8
0
 10
8
 20
-98
 11
6
 21
-98
  0
LINE
  8
0
 10
6
 20
-98
 11
6
 21
-100
  0
LINE
  8
0
 10
6
 20
-100
 11
-6
 21
-100
  0
LINE
  8
0
 10
-6
 20
-100
 11
-6
 21
-98
  0
LINE
  8
0
 10
-6
 20
-98
 11
-8
 21
-98
  0
LINE
  8
0
 10
-8
 20
-98
 11
-8
 21
-102
  0
LINE
  8
0
 10
-8
 20
-102
 11
-11
 21
-102
  0
LINE
  8
0
 10
-11
 20
-102
 11
-11
 21
-98
  0
LINE
  8
0
 10
-11
 20
-98
 11
-14
 21
-98
  0
LINE
  8
0
 10
-14
 20
-98
 11
-12
 21
-106
  0
LINE
  8
0
 10
-12
 20
-106
 11
-5.7
 21
-106
  0
LINE
  8
0
 10
-5.7
 20
-106
 11
-5.7
 21
-102
  0
ENDSEC
  0
SECTION
  2
OBJECTS
  0
DICTIONARY
  0
ENDSEC
  0
EOF
